<?xml version="1.0" encoding="UTF-8"?>
<svg id="svgdata" version="1.0" viewBox="0 0 290 262" xml:space="preserve" xmlns="http://www.w3.org/2000/svg" xmlns:cc="http://creativecommons.org/ns#" xmlns:dc="http://purl.org/dc/elements/1.1/" xmlns:rdf="http://www.w3.org/1999/02/22-rdf-syntax-ns#"><metadata id="metadata28"><rdf:RDF><cc:Work rdf:about=""><dc:format>image/svg+xml</dc:format><dc:type rdf:resource="http://purl.org/dc/dcmitype/StillImage"/><dc:title/></cc:Work></rdf:RDF></metadata>
  <g id="outlines">
    <path id="NSW" d="m271.288 129.6-0.875 0.625-0.65625 0.625-1.09375 0.09375-0.90625 0.09375-0.09375 0.75 0.28125 1.0625 0.71875-0.0625-0.65625 0.78125-0.125 0.5625-1.03125 0.46875-0.78125-0.28125-0.40625-0.6875-0.65625 0.78125-0.65625 0.8125-0.3125 0.5625-0.6875 0.4375-0.46875-1.0625-0.0625-0.71875-0.4375-0.6875-0.40625-0.5-0.65625-0.84375-1.125-0.25-1.625-0.03125-0.59375-0.3125-0.75-0.28125-0.71875 0.0625-0.21875-0.53125-0.90625 0.09375-1.4375 0.5-1.28125-0.21875-1.3125-0.40625-0.5625 0.03125-0.78125 1.1875-1.09375-0.09375-0.09375 1.125-0.71875 0.0625 0.0625 0.53125-0.875 0.46875-53.125-0.0625v45.0625 0.03125l0.0625 0.21875 1.125-0.1875 1.84375 0.875 1.03125-0.71875 1.75 0.28125 2.125 0.25 1.71875 1.4375 0.5 2.03125 1.09375 0.96875 0.03125-0.96875 1.0625-0.53125 0.96875 0.21875 1.71875 0.125 1 0.40625 0.625 2.75 1.4375 2.0625 1.125 0.03125 1.625 0.6875 1.96875 1.78125 0.375 1.28125 1.28125 0.9375 1.625 0.6875 1.3125-0.1875-0.25-1.46875 0.5-0.65625 0.71875-0.09375 0.84375 0.4375 1.84375-0.28125 1.4375 0.71875 0.90625-0.125 1.21875 0.5625 1.1875 0.21875 0.65625-0.6875 0.875-0.3125 1.0625 0.59375 1.9375 0.46875 1.46875-0.40625 1.0625-0.34375 0.75-0.125 0.71875-0.28125 0.90625-0.34375 1.40625 0.75-0.1875 1.15625 0.5625 1.21875 0.71875 1.03125 0.34375 1.09375-0.15625 1.34375 8.1875 4.0625 1.71875 0.125 0.71875 0.65625h0.65625l-0.15625 0.4375 0.125 0.09375 1.09375-0.53125-0.21875-1.71875 0.4375-0.21875h0.4375l-0.4375-1.0625-0.84375-0.21875 0.40625-0.84375-0.40625-1.0625 0.40625 0.21875 0.4375-1.5 0.84375-3.40625-0.21875-2.125 0.4375-1.28125h-0.4375l1.0625-0.84375-0.625-0.84375 0.84375 0.1875 1.71875-4.03125 1.46875-0.4375-0.625-1.28125 0.625-0.1875v0.84375l0.4375-0.21875-0.4375-1.28125-0.40625 0.21875 0.21875-0.4375-0.875-0.1875 1.5-0.65625 0.4375-1.5-0.4375-0.625 0.65625-0.21875v-1.5l1.6875-1.6875-0.625-0.21875 1.0625-0.21875-1.28125-0.40625 1.46875-0.21875 0.21875-1.0625-0.625 0.40625-0.4375-0.40625 0.65625 0.21875-0.21875-0.65625 0.625 0.4375 0.21875-1.71875v-0.21875l-0.4375 0.4375v-0.625l-0.1875 0.1875-0.21875-0.625 0.625 0.4375 0.21875-1.0625v0.84375l0.84375-0.4375 0.21875-1.0625-0.40625-0.40625h0.84375l0.625-1.71875-0.625 0.84375-0.21875-0.84375h0.625v-0.84375l0.21875 0.84375 0.875-1.5-0.21875-0.40625h0.40625v0.625l2.5625-1.5-0.84375-0.1875-0.84375 0.625-0.21875-0.21875 0.40625-0.40625-0.1875-0.4375 0.84375 0.4375 0.625-0.4375 0.21875 0.4375 0.84375-1.28125 1.5-0.875 0.21875-1.6875-0.65625-0.21875v0.4375l-0.84375-0.4375h0.84375 0.21875l0.21875-1.5 1.5-1.25 1.90625-6.1875-0.21875-4.25 1.5-3.84375 0.21875-0.65625 0.625-3.59375-0.625-0.4375 0.625 0.21875-0.1875-0.84375 1.6875-3.21875h-0.4375l0.4375-0.1875 0.21875-1.71875-0.65625-0.84375 0.1875-1.90625-0.96875 0.03125-0.90625-0.09375-0.53125 0.40625-0.5 0.21875-0.5625 0.0625-0.9375-0.28125-1.03125 0.46875-0.8125-0.8125-0.9375-0.28125zm-25.3438 56.25c0.45735-0.01829 0.9438 0.0521 1.375 0.25 0.36984 0.16974 0.49212 0.41964 0.46875 0.6875s-0.22417 0.55024-0.4375 0.875c-0.42667 0.6495-1.00155 1.37043-0.96875 2-0.07668 0.34535-0.43732 1.09261-0.9375 1.1875-0.25009 0.04744-0.54888-0.06815-0.84375-0.46875-0.29488-0.4006-0.60731-1.08191-0.90625-2.1875-0.1825-0.67495 0.03197-1.24795 0.46875-1.65625 0.43677-0.4083 1.09522-0.66005 1.78125-0.6875z"/>
    <g id="NT">
        <path id="Melville-Island" d="m125.184 12.525 2.129 1.278 2.13-1.278 0.639-1.064 0.64 0.212v-0.852l0.638-0.212-0.851-1.278h-0.853l-0.212-0.639-0.639 0.852 0.426 1.065-0.638-1.491-0.213 0.639-0.426-0.212v1.277l-0.213-1.065h-0.213l-0.639-0.212-1.278 0.426 0.852 1.278-0.852-0.426-0.213-1.065-0.426 0.426 0.213 0.213h-0.213v-0.213-0.852l-1.491-0.852 0.525 2.797-0.737 0.185 0.425-0.426-0.425 0.213 0.425-0.852-0.425-0.852-1.491 1.065 0.852 0.426h-0.426v0.852l0.212 0.142v0.497l-0.212-0.639-0.213 0.426-0.639-0.426v0.852h-0.426l4.046 0.426 0.212-0.641z"/>
        <path id="NT-mainland" d="m113.85 33.8188v83.5312h59.5625v-73.1562l-0.75-1-2.125-0.65625-2.78125-1.90625-0.625 0.21875 0.21875 0.4375-1.0625-0.4375-0.65625 0.21875v-0.875l-2.34375-1.0625-0.84375-1.6875-3.40625-2.125-0.21875 0.21875v-0.4375l-0.625 0.21875-1.0625-1.0625-0.4375-1.5 1.28125-0.4375 1.0625-2.53125 1.28125-0.65625 0.21875-1.28125 1.0625-2.34375-0.875 0.65625-0.40625-0.21875-0.21875-1.90625 0.4375 0.1875 0.40625-0.40625-0.625-0.21875 0.21875-0.625 0.625-0.4375 0.21875 0.625 0.625-1.25 0.21875 1.0625 0.21875-1.0625 0.625 0.1875 0.21875-0.625 0.4375 1.0625-0.4375 0.625 0.84375-0.40625 0.65625-1.28125-0.65625-0.65625 1.28125 0.21875-1.28125-1.46875 0.4375 0.1875 0.21875-0.40625 0.4375 0.625-0.21875-0.84375h0.625l0.4375-1.0625-0.21875-0.65625h0.4375v0.65625l1.28125-1.5-1.28125-1.28125-0.65625 0.4375 0.4375 0.40625h-0.65625l-0.84375-1.90625h-0.4375l0.65625-0.84375-2.5625 1.90625 1.5 0.4375-0.65625 1.28125-0.625 0.40625-0.84375-0.1875-0.4375 0.40625v-0.625h-0.4375l0.65625-1.0625-0.65625 0.1875-0.1875-0.40625 0.84375-1.0625-1.71875 0.84375-0.21875 0.65625-0.625-0.4375 1.71875-1.90625-2.34375 1.25-0.21875-0.40625-1.0625 0.21875-1.0625 0.625 0.84375 0.4375-1.28125-0.21875 0.4375 0.625-2.5625-1.0625-0.65625-1.46875-0.84375 1.0625-2.5625-0.65625-0.625 1.28125 0.4375-1.0625-0.4375-0.84375-0.4375 0.21875-0.21875-0.65625-0.84375 0.65625-0.625-0.65625 0.625-0.625-0.84375-0.21875-1.90625 1.0625 0.1875-0.84375-0.40625 0.40625-0.4375-0.625-0.625 0.40625 0.1875-0.625-1.25 0.21875-1.5-2.5625h-0.4375l0.21875 0.65625-0.4375-0.21875-1.0625 0.84375-1.46875-2.125-0.4375 0.625-0.21875-1.28125-0.625 0.4375 0.21875 0.625-1.09375-1.0625 0.21875 1.28125 0.4375 0.21875-0.4375 0.65625-0.40625-1.5-0.875-0.65625v0.875l-1.0625-0.21875 0.21875 0.40625-0.40625 0.4375 1.0625-0.21875 0.1875 0.4375-0.1875 0.21875 0.84375 0.21875 0.21875 0.625 0.84375-0.4375 1.90625-0.1875v0.40625h0.4375l-0.4375 0.21875 0.65625 0.21875h-0.4375l0.4375 0.21875-0.4375 0.1875h1.0625 0.21875l-1.0625 1.0625 0.84375 0.65625-0.40625 0.21875-0.21875 1.28125 1.0625 0.40625-1.46875-0.40625-0.65625 0.40625-0.21875 1.28125-0.40625-1.0625-0.65625 0.4375-0.21875-0.65625-1.0625 1.0625-1.0625-0.625-2.96875 0.40625-0.84375-0.625-0.21875-1.0625-0.4375 1.28125-1.6875-0.4375 0.40625 1.5-1.0625-0.21875-0.40625 0.4375 1.0625 0.84375-0.875-0.21875 0.40625 0.65625-0.40625 0.40625-0.40625-0.84375v0.21875l-0.4375 0.21875 0.21875-1.09375-1.28125-0.1875 0.21875 1.46875h-0.4375l1.28125 0.65625h-0.625v0.40625l-1.0625-1.0625-0.65625 0.21875 0.21875 0.4375-0.4375-0.4375v1.5l-1.46875 0.40625v1.5l1.25 1.5-0.40625-0.21875-1.71875 1.28125-0.625-0.21875v-0.40625l-0.65625 0.40625-0.1875 1.90625 0.40625-0.1875-0.84375 0.625 0.21875 1.0625-0.65625 0.4375-0.40625-0.4375 0.40625 1.0625-0.40625-0.40625-0.4375 0.84375-0.21875-0.65625-0.84375 1.5v0.65625l0.625 0.625 0.4375-0.4375v0.65625l0.84375-0.21875 0.21875 0.4375 0.84375-0.4375-0.1875 0.4375-1.0625 0.625h0.625v0.4375h-0.21875l0.15625 0.28125 0.15625 0.0625 0.53125-0.34375-0.1875 0.625 1.46875-0.84375v0.625h-0.84375l0.4375 0.4375-0.65625-0.21875h-0.40625-0.875l0.4375 0.84375-0.4375-0.40625 0.21875 1.5-0.625 0.1875-0.65625-1.46875-0.625-0.21875 0.21875 1.0625-0.875-1.28125 0.21875 0.4375h-0.40625-0.21875l0.40625 0.625-0.40625 0.4375 0.625 0.21875h-0.625l-0.21875 0.84375v-0.65625l-0.4375 0.875 0.4375-1.0625-0.65625-0.65625v-0.84375l-0.40625 0.625v-0.84375h-0.6875z"/>
        <path id="Groote-Eyland" d="m163.943 29.137 1.49 0.852h1.917l-0.213-1.065-0.214 0.426-1.063-0.213v-0.851l0.638-0.214-0.213-0.638 1.065-0.852-0.64-0.427v0.639h-0.85l-0.214-0.852 0.214-0.425-1.067 0.212 0.427 0.64-1.49 0.425v1.065l0.213 0.852-0.64 0.852 0.64-0.426z"/>
    </g>
    <g id="QLD">
        <path id="QLD-mainland" d="m204.819 5.2875-0.84375 0.21875-0.65625 1.28125-1.25 0.40625 0.1875 1.0625-0.625 2.78125h-0.21875l-0.21875 1.5h0.65625l-0.84375 0.1875-0.21875 1.28125 0.40625 0.65625 0.4375-0.4375-0.4375 0.65625-0.40625-0.21875-0.21875 0.84375-0.21875-1.5-1.0625 1.71875 0.625 0.21875h-0.625l-0.84375 2.125h0.625l-0.21875-0.84375 0.65625 0.1875-0.4375 0.21875 0.84375 0.65625h1.09375l-1.09375 0.40625 1.09375 0.4375-0.4375 0.21875 0.21875 1.0625-0.875-1.5-0.40625 1.0625-1.0625 0.84375 0.625 1.9375-0.21875 0.625 0.4375-0.21875-0.21875 0.21875 0.4375 0.21875h-0.84375l-1.09375 3.1875 1.09375 2.34375-0.65625 2.125 0.84375 3.84375-1.28125 3.40625-0.625 2.5625 0.4375 1.0625-1.5 4.25-1.71875 2.125-0.40625 2.78125-1.9375 1.5-3.59375 0.84375-0.4375-0.21875-1.28125-0.84375-1.5-0.21875-0.84375-1.0625-1.5-0.65625-0.40625-1.90625-0.84375-0.84375-2.78125-0.84375-3.40625-0.4375-1.8125-2.40625v73.1562h20.75v16.9375l53.125 0.0625 0.875-0.46875-0.0625-0.53125 0.71875-0.0625 0.09375-1.125 1.09375 0.09375 0.78125-1.1875 0.5625-0.03125 1.3125 0.40625 1.28125 0.21875 1.4375-0.5 0.90625-0.09375 0.21875 0.53125 0.71875-0.0625 0.75 0.28125 0.59375 0.3125 1.625 0.03125 1.125 0.25 0.65625 0.84375 0.40625 0.5 0.4375 0.6875 0.0625 0.71875 0.46875 1.0625 0.6875-0.4375 0.3125-0.5625 0.65625-0.8125 0.65625-0.78125 0.40625 0.6875 0.78125 0.28125 1.03125-0.46875 0.125-0.5625 0.65625-0.78125-0.71875 0.0625-0.28125-1.0625 0.09375-0.75 0.90625-0.09375 1.09375-0.09375 0.65625-0.625 0.875-0.625 0.9375 0.28125 0.8125 0.8125 1.03125-0.46875 0.9375 0.28125 0.5625-0.0625 0.5-0.21875 0.53125-0.40625 0.90625 0.09375 0.96875-0.03125 0.03125-0.4375-0.84375-0.84375-0.59375-2.5625-0.46875-1.90625-0.625-0.875-0.65625 0.4375 0.4375-0.65625-0.875-0.40625 0.65625-0.65625-0.65625-0.625 0.875-0.4375-0.65625-0.625v-0.65625l1.0625 1.28125-0.625-1.90625-0.21875 0.625 0.4375-1.6875-0.4375-0.28125 0.21875-1.84375h-0.4375l0.875-3.40625h-0.4375l-0.4375-0.875-0.40625 1.28125 0.1875-1.0625h-0.625l0.4375-0.40625-0.875-0.65625v-1.28125l0.65625-0.625-1.28125 0.40625 1.0625-0.40625-0.21875-1.0625-2.34375-0.65625 0.65625-0.40625-1.28125-1.5 0.21875-0.84375-0.65625-0.4375-0.21875 0.4375 0.21875-0.65625-1.28125-0.625v0.21875l-1.0625-1.0625-1.0625-2.78125-0.84375-0.21875 0.21875-0.84375-0.4375 0.625v-0.625l-0.625-0.21875 0.40625 0.84375-0.84375-0.40625v0.40625l-0.84375-0.40625v0.40625l-2.78125-3.8125-0.625 0.84375-0.875-1.28125 0.4375-0.21875-0.625-1.28125 0.40625-0.40625-0.625-2.34375h0.40625l0.21875-1.71875-0.40625-1.0625v0.65625l-0.4375-0.21875-0.4375-0.84375 0.65625 0.21875 0.21875-0.21875-0.65625-1.0625v0.84375l-0.21875-0.84375-0.40625-0.21875-0.21875 0.625 0.625 1.0625-0.40625-0.1875 0.40625 1.0625-2.96875-2.15625-1.0625-1.6875-0.21875 0.4375-0.625 1.0625 0.625 1.46875 0.4375 0.875-0.4375-0.4375-1.28125-1.5-1.28125 1.5 0.65625-1.5h-0.875l0.4375-0.21875-0.21875-0.40625-0.84375 0.21875 0.84375-0.4375-1.28125-2.96875 0.4375-2.34375-0.21875 0.40625-0.84375-0.84375-0.21875 0.4375v-1.9375l-0.84375 0.4375 0.21875-0.65625h-0.21875l0.40625-1.0625-0.84375-0.84375-0.625 0.4375 0.1875-0.84375h-1.46875l-0.21875-0.65625 0.4375-0.21875-1.0625-0.625 0.1875-0.4375-0.625-0.625 0.625-0.21875-0.40625-0.4375 0.625 0.21875 0.21875-0.4375 1.0625 0.875-1.28125-2.125-0.40625 0.1875v-0.625h-0.65625l-0.21875-0.84375h-0.625-0.21875v0.84375l-0.625-0.21875-0.875-0.84375 0.21875-0.21875v-0.21875l-1.0625-0.625-1.28125 0.21875-0.40625-1.5h-0.65625l0.4375 1.0625-0.875-0.21875-1.25-1.28125 0.84375 0.4375-1.28125-2.78125v0.875l-1.90625 0.1875-0.875-1.90625-0.1875 0.84375h-0.65625l-0.625-0.84375-2.15625-0.84375-1.25-1.5 0.40625-2.34375h-0.84375l-1.5-2.5625 1.0625-3.625h-0.40625v-1.6875l-1.28125-2.34375 0.40625-1.0625-1.0625 0.21875-2.53125-3.40625v-1.0625h0.40625v-1.5l-0.84375-1.0625-0.21875-2.34375-0.84375-0.84375 1.0625-1.28125v-0.21875l-0.65625 0.21875-0.1875-1.0625 0.84375-1.0625h-0.4375l-0.40625-0.875-1.28125-0.1875-0.875-1.28125-1.46875-0.4375-1.0625-2.78125-1.28125 1.0625-0.84375-0.40625-0.4375 1.28125-1.28125 0.625-1.0625-0.84375-0.625-2.78125-1.09375-1.6875 0.4375-2.125-0.625-2.125 0.1875-1.9375-1.25 0.4375 0.625-1.9375-1.28125-0.84375v-0.84375l-1.0625-0.21875-0.21875-1.5 1.28125-1.0625-1.0625-0.40625-0.84375 0.21875-0.65625-0.65625v-3.1875l-0.84375-2.5625h-0.625l-0.4375-0.84375v0.40625l-0.84375 0.4375 1.0625-1.71875-0.21875-0.1875-0.21875-0.21875z"/>
        <path id="Fraser-Island" d="m275.536 104.1 0.85 1.278-1.704 1.917h0.427l-0.427 1.49-0.424 1.065 0.851 1.491 1.917-5.751-0.427-0.852v-1.49l-1.063 0.852z"/>
        <path id="Mornington-Island" d="m183.536 45.961 0.637 0.213 0.64-1.278 0.213 0.639 0.85-0.213-1.063-1.064-1.704 0.638-1.064 1.065 1.064 0.639 0.427-0.639z"/>
    </g>
    <path id="WA" d="m113.85 156.319v-38.9688-83.5312h-1.25l-0.40625-0.4375-0.84375-0.1875-1.28125 0.1875 0.84375 0.65625 0.21875 0.84375-0.84375-1.0625 0.625 1.0625-0.21875-0.21875-0.21875 0.4375-0.40625-0.4375-0.21875 0.875-0.4375-1.09375-0.40625 0.65625 1.0625 2.96875h-0.4375l-0.21875-1.0625-1.0625-1.0625v1.71875l-0.625 0.625 0.40625-0.84375-0.40625-0.65625 0.40625-0.1875-0.21875-1.28125 0.65625-1.5h-0.4375l0.875-0.21875-0.4375-0.625 0.4375-0.21875-1.5-1.0625-0.21875 0.4375-1.90625-3-1.5-0.84375-0.21875-0.84375-0.625-0.21875 0.21875 0.625-0.65625-0.625-0.4375 0.40625v-0.40625l-0.40625 0.40625-0.4375-1.0625-1.28125-0.40625v0.40625l-0.84375-0.1875 0.4375 1.0625 0.84375 0.40625-0.375-0.03125-1.125-0.1875 0.21875 0.65625-0.4375 0.4375-0.1875-0.4375-0.21875 1.28125-0.65625-1.28125-0.40625 0.21875 0.40625-1.0625-1.28125 0.84375-0.1875 0.4375 0.40625 0.40625-0.84375 0.4375-0.21875-1.0625h-0.40625l0.40625-0.4375h-0.40625l0.40625-0.4375-0.625 0.4375-0.65625-0.21875v0.4375l-0.1875-0.4375v0.4375l1.25 0.625-0.84375 0.65625 0.21875 0.625-0.625 0.4375 0.40625 0.84375h-0.84375v1.0625l-0.65625-0.625 0.21875-0.84375-0.84375 0.1875v-0.625l-0.625 1.6875 0.1875-1.90625 0.4375-0.625-0.84375-0.4375v2.34375l-0.65625-0.21875-0.40625 0.84375-0.21875-0.625-0.4375 0.4375 0.21875-0.875-0.84375 0.875 0.40625 0.1875-1.28125 0.65625 0.65625 0.84375h0.625l-0.84375 0.65625 1.28125 0.40625 0.21875-0.40625 0.40625 0.1875-0.84375 0.875 1.0625 0.40625h-1.0625l-0.40625-0.625-0.875 0.625-0.625-1.46875-0.4375 0.1875 0.21875 0.875-1.28125 0.1875 0.4375 0.21875-0.21875 0.65625 1.28125-0.875-1.28125 1.09375 0.4375 0.40625 1.0625-0.625v0.40625h0.40625l-0.625 0.65625 1.28125 1.0625-1.0625-0.84375-0.4375 0.40625-0.4375-0.84375-0.84375-0.21875v-0.4375l-0.625 0.4375-0.4375 0.84375-0.21875-0.40625-0.21875 0.625-0.84375-0.21875 0.21875 0.21875-0.84375 0.65625 0.40625 0.1875-0.625 0.21875 0.84375 2.34375 0.21875-0.375v0.15625l0.4375-0.625-0.375 0.34375 0.5625-1 0.65625-0.40625-0.4375 0.40625h0.65625l-0.875 0.65625-0.1875 1.5h0.40625l-0.84375 0.40625 0.4375 0.21875-0.4375 0.21875-0.4375-1.0625-0.40625 1.90625 1.46875-0.21875 0.84375 0.4375-1.90625 0.21875-0.40625-0.4375-0.4375 0.4375 0.375 0.21875-1 0.1875 0.625-0.1875-0.625-0.21875-0.65625-0.84375-1.46875-0.65625 0.625 0.65625h-0.4375l0.4375 0.625-0.84375-0.625v0.1875l-1.0625-0.40625h0.40625l-0.21875-0.4375h0.4375l-0.84375-0.4375v0.4375l-0.65625-0.21875 0.21875 0.4375-0.40625-0.4375 0.40625 0.65625-0.40625 0.21875 0.84375 0.1875 0.21875 0.4375-0.65625-0.21875 0.65625 0.4375h-0.4375-0.21875-0.84375l1.0625 0.625h-1.46875l0.40625 0.65625 0.21875-0.4375 0.625 0.21875-0.84375 0.625 1.5 0.4375 0.40625 1.28125 0.875-0.4375v-0.40625l0.40625 0.1875-1.0625 1.0625 0.4375 0.4375-0.65625-0.21875 1.09375 1.9375-1.9375-1.9375-0.625 0.21875 0.84375 1.5-0.4375-0.21875-0.40625 1.0625v1.0625l-1.28125-1.28125-0.65625-2.125-0.84375-0.625v-1.71875h-0.625l-0.65625-0.625 0.21875-0.875 0.65625-0.1875-0.4375-0.65625-0.65625 0.21875-1.25 2.125 0.625 0.65625-1.71875-0.21875-0.1875 0.625 0.40625 0.84375-0.84375-0.40625v0.40625l-0.84375 0.21875-0.65625 0.875 0.4375 0.1875-1.0625 0.875-0.21875 1.90625 0.625 1.5-0.40625 1.46875 1.5 0.21875v0.84375l-3 2.15625-0.84375 0.1875-0.65625 0.875 0.4375 0.625-1.0625 0.21875 0.21875 0.84375-1.0625 1.9375-2.5625 3.1875-5.96875 2.5625-1.5 0.1875h-1.46875l-0.65625 0.4375-0.84375 0.625-0.625-0.625-1.9375-0.4375 0.21875 0.4375v0.21875l-0.21875-0.21875-0.40625-0.21875-0.21875 0.21875-1.5 1.90625-4.46875 0.875v-0.4375l-1.6875 1.0625 0.1875 0.4375h-0.625l-0.4375 0.84375-1.0625 0.21875v-0.21875l-1.6875 0.84375-1.28125-0.625-0.21875-0.65625-1.5 0.875-0.625-0.21875-0.4375-0.21875 0.65625-1.0625h-0.4375l-1.0625 1.28125 0.21875 0.21875h-0.4375l-2.125 1.0625-0.65625-0.4375-0.1875 1.0625-1.71875 0.84375-0.625 1.28125-1.0625 0.21875-1.0625 1.71875-4.0625 1.0625-1.6875 1.0625-0.21875 1.28125-0.4375 0.1875-0.4375-0.1875 0.21875 0.84375-0.625 1.0625 0.40625 0.4375-0.40625-0.21875 0.21875 0.40625-0.875 1.0625-0.40625-0.625-1.0625 0.625 0.40625-1.46875-0.40625 0.40625-0.21875-1.46875 0.84375-2.5625-1.5 0.4375-2.125 5.09375 1.0625 2.78125-0.40625 1.28125 0.21875 2.53125-2.15625 3-0.40625 3.8125 1.6875 2.78125-0.21875 0.4375 0.4375 1.6875 0.84375 0.65625 2.34375 4.6875 0.65625 0.1875 0.21875 1.0625h-0.65625l0.21875 2.34375-1.0625 1.28125-1.0625-1.6875-0.21875-2.34375v1.0625l-1.0625 0.84375 0.21875-2.34375-1.71875-2.75-0.625 1.6875 0.40625 0.4375v-0.875l0.65625 3.21875 2.125 1.6875-0.21875 1.9375-1.28125 0.625-0.21875-1.5-0.1875 1.28125-0.4375-2.5625-0.21875 1.28125-0.84375-3.40625 0.21875 2.78125-0.65625-0.4375v-2.34375l-0.1875 1.71875-0.875-0.65625 5.53125 8.09375 1.28125 3.40625-0.40625 1.0625 0.40625 2.15625 2.34375 2.75 0.65625 1.28125-0.21875 0.84375 1.90625 2.5625 0.875 3-0.21875 3.8125v0.4375l0.625 3.40625 4.25 8.9375 0.21875 3.1875 1.0625-0.625v0.40625l-1.0625 0.21875 0.21875 1.0625-0.4375 0.65625 0.21875 1.5-0.84375 1.6875 0.625 4.90625-2.3125 2.75h-1.09375l-1.25-0.84375v4.46875l0.84375 2.34375 0.21875-0.40625 1.25-0.21875 2.34375 1.28125 1.9375 2.96875 2.5625 0.84375 0.1875-0.625 0.875 0.625h-1.0625l1.6875 1.0625 0.65625-0.625 1.25 0.625 3-0.40625 1.6875 1.0625 0.4375-0.875 1.90625 0.65625 0.4375-0.21875-1.0625-0.4375 0.4375-0.84375 0.40625-0.21875-0.21875 0.875h1.71875l-0.21875-0.65625 1.5-0.21875 0.21875-1.28125 1.90625-0.84375 0.21875-0.84375 1.0625-0.4375-0.4375-0.40625 2.78125 0.84375 0.21875-0.84375 0.84375 0.21875v-0.875l1.0625 0.21875-0.84375-0.84375 2.96875-2.78125h0.625l2.78125 0.4375 1.0625-0.84375 5.34375-0.65625 2.75 0.84375 1.5-0.625 0.84375 1.5h1.0625l0.4375-0.875 1.46875 0.4375 0.21875-0.625 2.78125-0.21875 0.625 0.40625 0.21875 0.875 1.5-1.0625 1.0625 0.40625 2.96875-2.96875 0.875-3.40625 0.84375-0.875 3.84375-1.25 7.65625-4.5 1.6875-0.40625 3.21875 0.40625 3.59375-0.1875 6.84375-2.125 4.625-2.3125zm-26.5938-112.062-1.0625 0.4375-0.375-0.40625 0.375 0.1875 1.0625-0.21875zm-78.5632 68.7878-1.704-3.833v2.13l1.704 2.768v-1.065z"/>
    <path id="VIC" d="m253.162 203.756-0.625-0.625h0.1875l-0.71875-0.65625-1.71875-0.125-8.1875-4.0625 0.15625-1.34375-0.34375-1.09375-0.71875-1.03125-0.5625-1.21875 0.1875-1.15625-1.40625-0.75-0.90625 0.34375-0.71875 0.28125-0.75 0.125-1.0625 0.34375-1.46875 0.40625-1.9375-0.46875-1.0625-0.59375-0.875 0.3125-0.65625 0.6875-1.1875-0.21875-1.21875-0.5625-0.90625 0.125-1.4375-0.71875-1.84375 0.28125-0.84375-0.4375-0.71875 0.09375-0.5 0.65625 0.25 1.46875-1.3125 0.1875-1.625-0.6875-1.28125-0.9375-0.375-1.28125-1.96875-1.78125-1.625-0.6875-1.125-0.03125-1.4375-2.0625-0.625-2.75-1-0.40625-1.71875-0.125-0.96875-0.21875-1.0625 0.53125-0.03125 0.96875-1.09375-0.96875-0.5-2.03125-1.71875-1.4375-2.125-0.25-1.75-0.28125-1.03125 0.71875-1.84375-0.875-1.125 0.1875-0.0625-0.21875v28.4062l0.4375 0.03125 2.34375 1.90625v1.0625l0.65625-0.21875 0.625 0.4375 1.28125-1.5 2.5625 1.28125 1.6875-0.4375 7.875 4.28125 3.21875-3.1875 2.53125-1.71875h1.5l0.4375-1.28125-1.5 0.4375-0.84375-0.65625h1.0625l2.75-2.125 1.28125 2.5625-1.28125 1.6875-1.90625-0.40625 1.90625 1.6875 1.28125-0.84375 0.65625 0.21875 0.1875-1.71875h1.5l0.4375 1.28125-0.84375 0.21875-0.21875 1.28125 1.46875 1.0625 1.5-0.21875 0.21875 0.4375-0.625-0.21875 1.0625 1.90625 0.84375-0.625 0.84375 0.4375-0.21875-0.65625 0.875 1.71875 1.0625 1.0625 0.40625-2.78125-1.28125 0.84375-0.40625-1.6875h2.125l2.53125-0.84375 4.0625-4.28125 2.78125-1.6875-3.40625 1.46875 1.90625-1.25-0.0625-0.09375-0.5625-0.5625 1.46875 0.4375 1.71875-0.65625-0.21875 0.4375 9.375-0.84375 1.90625-1.71875z"/>
    <g id="SA">
        <path id="SA-mainland" d="m194.162 207.788v-28.4062-0.03125-45.0625-16.9375h-20.75-59.5625v38.9688l0.46875-0.25 6.59375-0.65625 1.0625-0.21875 4.28125 0.4375 2.34375-1.28125 4.03125 2.125 3 2.34375h1.90625l-0.21875-0.40625 0.4375-0.21875h1.46875l2.5625 2.125h2.5625l-0.65625-0.625 0.4375-0.21875 0.4375 0.40625 0.40625-0.625 2.34375 2.34375-0.625 0.21875v1.0625l1.28125-0.65625 0.84375 0.21875 0.84375 1.71875-0.625 0.84375 0.21875-0.65625h-1.0625l0.40625 0.875-0.40625 0.625 0.84375 0.21875-0.4375 0.625 1.28125 1.28125-0.40625-1.28125 0.625 1.28125 0.625-0.40625 1.28125 0.84375-0.625-0.625 1.0625 0.1875-0.4375 0.4375 1.28125 1.71875v1.25l2.34375 2.15625 1.28125 5.75 0.21875-0.65625 0.21875 0.65625 0.40625 0.1875-0.84375 0.21875-0.4375-0.84375 0.21875-0.21875-0.84375-0.21875v-0.40625l-0.65625 1.28125 0.875-0.4375 2.5625 3.1875 1.0625-0.625 1.0625 1.28125 0.40625-2.34375-1.46875 0.625 0.625-0.4375 0.21875-1.6875 0.84375-0.4375 0.4375 0.4375v-1.5l3.1875-3.625 2.5625-1.28125-0.65625 0.21875 0.4375-0.84375 0.4375 0.4375 1.46875-0.4375 1.5-4.25 1.28125-1.5 0.84375 0.4375v-4.28125l1.0625 2.34375 0.21875 1.9375 0.625 0.625-1.6875 1.5 1.28125 2.34375-2.5625 2.5625-0.625 1.90625-0.4375 0.21875 0.4375 1.28125-0.65625 1.25 0.4375-0.1875 0.21875 1.25-0.4375 2.5625-0.4375 0.4375-2.53125-0.65625-1.09375 3.21875 2.15625-0.21875 1.6875-1.28125 1.5 0.625 0.84375-0.40625-0.4375-0.4375 1.0625-2.34375 0.21875-2.125 1.28125-2.96875 3 5.15625 0.1875 0.375-0.40625 0.21875-0.21875-0.65625-0.21875 4.6875-2.34375 2.125 3 0.21875 1.25-1.0625 1.09375 0.21875 3.1875 2.53125-3.1875-2.3125 2.75 2.125 1.8125 2.34375-1.375-2.125 1.0625 0.84375 1.28125 2.78125-0.5625-0.875 1.625 4.28125-0.21875 1.0625-1.0625 1.0625 0.84375 1.28125-0.40625 0.625 1.6875 2.34375 2.46875 3.3125 0.09375 0.3125 1.28125 1.0625 2.53125 0.1875z"/>
        <path id="Kangaroo-Island" d="m172.887 189.499 0.213-1.066h-1.492l0.427-1.277-7.028 1.49-0.426 1.065 1.279 1.491 1.917-0.213 1.49-0.426 1.703 0.852 0.852-0.639 0.213-0.853h2.769l0.425-0.851-1.491-0.639-0.851 1.066z"/>
    </g>
    <g id="TAS">
        <path id="King-Currie-Island" d="m214.201 220.804-0.638 1.278 0.213 2.555v0.852l0.425 0.426 1.279-1.278-0.213-2.981-1.066-0.852z"/>
        <path id="Finders-Island" d="m240.397 223.785v0.852l0.851 0.852 0.639 1.491 1.703-0.64-0.425-1.064-0.427 0.426 0.427-1.065 0.212-0.426h-0.852l-1.704-2.129-1.277 1.491 0.853 0.212z"/>
        <path id="TAS-mainland" d="m239.118 250.619-0.425 1.278 0.851 0.212-0.426 0.427 0.639 0.851 0.64-0.213v-0.852l0.851 1.065-0.427-1.917-1.064 0.213-0.639-1.064zm4.259-11.927-0.425-1.277 0.638-1.704-0.638-0.638 0.638-1.705-1.703-2.129-1.066-0.213-0.424 1.278-1.279-0.639-1.491 1.703-1.064-0.639-1.065 0.853-0.852-0.426-1.49 0.638 1.064 1.066-0.214 0.425-1.277-1.491-1.063 0.852 0.21 0.853-0.424-1.066-1.916 0.427-4.899-2.983h-1.278l-0.427-1.064v0.852l-0.85-0.213v0.425l-2.982-1.49 0.214 1.703-0.64 1.278 0.851 3.621 1.492 2.13-0.427 0.425 2.131 2.769v1.916l0.638-0.639 1.065 1.917h0.425l-0.425 1.491-0.213-1.277-1.917-1.705 0.638 3.834 0.64 0.213 1.065 3.194 1.065 0.426 1.064 2.343h0.64l-0.427-0.213 0.427-0.853 0.426 1.279h1.704l-0.214 0.426-1.49-0.426v0.638l-0.426-0.212 0.638 1.704 1.492-0.64 2.34 0.427-0.21-0.639 0.85 1.49h1.277l0.853-1.278-0.64-0.639 0.854 0.214 0.213-0.852-0.64-0.213 0.853-0.426-0.853-1.064 0.213-0.427v0.638l0.427 0.427 0.213-0.638v0.638l0.85 0.426 0.214-2.343 0.64 0.213v-1.277l-1.067-1.704 1.491 1.917 0.426-0.213-0.426 1.277 0.853-0.639-0.214-1.064 0.64-0.213-1.066-0.639 1.066 0.212 0.425 1.066 0.852-0.213 1.065-1.917-0.638-1.065 0.851-0.426 0.212-1.703-0.639 0.212 1.066-2.129h0.638l-0.638-0.213 0.851-1.278-0.425 1.278 1.064 0.425v1.279l0.427-0.64-0.639-1.49 0.212-3.834z"/>
        <path id="Cape-Barren" d="m241.248 228.257h2.129l0.213 0.64 0.852-0.64-0.852-1.065-2.342 1.065z"/>
    </g>
    <path id="ACT" d="m245.954 185.844c0.45736-0.01829 0.92768 0.05689 1.35888 0.25479 0.36984 0.16974 0.49049 0.41158 0.46712 0.67944s-0.21132 0.56701-0.42465 0.89177c-0.42668 0.6495-1.0095 1.36629-0.9767 1.99586-0.07669 0.34534-0.43405 1.09413-0.93423 1.18902-0.25009 0.04744-0.55443-0.06652-0.8493-0.46712-0.29488-0.4006-0.59283-1.10259-0.89177-2.20818-0.1825-0.67494 0.03034-1.24784 0.46712-1.65614 0.43677-0.4083 1.0975-0.65199 1.78353-0.67944z"/>
  </g>
</svg>
