<svg id="svgdata" style="enable-background:new" xmlns="http://www.w3.org/2000/svg" version="1.1">
	<defs id="defs3789">
		<style id="style3787" type="text/css">.state {fill:#D3D3D3;}</style>
	</defs>
	<g id="outlines" fill="#fff" class="state">
		<path id="WE" d="m93.5996 6.40039-1.4004 0.79883-0.2988 0.80078l2.40039 4.80078 1.09961 2.59961-1.8008 3.5996v2.59961l0.59961 1.5-0.798828 1.80078 0.5 3.19922 1 1.30078-0.201172 1.29883-1.5 0.201172-0.5996-1.9004-1.0996-2.4004-1.80078-1.5 0.3008-2.0996 2.3008-0.5-0.3008-1.8008-0.3008-1.0996-2.0996 1.3008-1.2988 1.0996v2.40039l-2.3008 0.1992-3.40039-1-2.90039-1.5-3.09961-0.599609-4.5-2.09961-3.1992-1.9004-2.7012-2.5996-2.3984-2.9004-2.10156-0.5-2.29883 9.40039 1.79883 3.19922v7.9004l-0.59961 2.90039 1.5 7.09961 2.70117 2.69922-4.40039 0.601562-0.2012 3.6992 2.60156 1.09961-1.60156 4-2.69922 0.300782-0.300781 2.90039 2.25586 2.8418c-0.0021 0.05274 0.01263 0.166143 0 0.191406-0.01617 0.03235-0.06 0.04382-0.07617 0.07617-0.01144 0.02287 0.01144 0.05526 0 0.07813-0.159645 0.31929 0.0044-0.08257-0.154297 0.07617-0.01808 0.01808 0.01808 0.05809 0 0.07617s-0.05809-0.01808-0.07617 0 0.01808 0.05809 0 0.07617-0.05809-0.01808-0.07617 0c-0.03617 0.03617 0.03617 0.118131 0 0.154297-0.01808 0.01808-0.06005-0.01808-0.07813 0-0.03617 0.03617 0.02287 0.108551 0 0.154297-0.01617 0.03235-0.06 0.04382-0.07617 0.07617-0.01144 0.02287 0.01808 0.05809 0 0.07617s-0.0506 0-0.07617 0c0 0.02557 0.01808 0.05809 0 0.07617s-0.05809-0.01808-0.07617 0c-0.03617 0.03617 0.03617 0.118131 0 0.154297-0.01808 0.01808-0.06005-0.01808-0.07813 0-0.03617 0.03617 0.03617 0.118131 0 0.154297-0.01808 0.01808-0.05809-0.01808-0.07617 0s0.01144 0.0533 0 0.07617c-0.01617 0.03235-0.05999 0.04382-0.07617 0.07617-0.01144 0.02287 0.01808 0.05809 0 0.07617s-0.06005-0.01808-0.07813 0 0.01808 0.06005 0 0.07813-0.05809-0.01808-0.07617 0c-0.03617 0.03617 0.03617 0.116176 0 0.152343-0.01808 0.01808-0.05809-0.01808-0.07617 0-0.03836 0.03836 0.03836 0.192109 0 0.230469-0.04044 0.04044-0.113862 0.03573-0.154297 0.07617-0.0081 0.0081-0.0039 0.0722 0 0.134766l-0.6504 0.2363-2.30078 6.5-3.19922 10-3.19922 6.5-5 14.1016-6.5 13.5996-8.1016 12.6-1.8984 2.9-0.8008 8.6-1.30078 6 2.39453 3.08984c-0.01961 0.0167-0.04337 0.0321-0.05469 0.0547-0.02287 0.0457 0.03617 0.11616 0 0.15235-0.01808 0.0181-0.05809-0.0181-0.07617 0s0.01144 0.0533 0 0.0762c-0.01617 0.0324-0.06 0.0458-0.07617 0.0781-0.0265 0.053 0.02693 0.35588 0 0.38281-0.01808 0.0181-0.05809-0.0181-0.07617 0 0 0.20458 0.02416-0.0261-0.07813 0.0762-0.03836 0.0384 0.03836 0.19212 0 0.23046-0.01808 0.0181-0.05809-0.0181-0.07617 0s0.01808 0.0581 0 0.0762-0.05809-0.0181-0.07617 0c-0.03836 0.0384 0.03836 0.19211 0 0.23047-0.01808 0.0181-0.06001-0.0181-0.07813 0-0.02376 0.0237 0.02376 0.36101 0 0.38476-0.01808 0.0181-0.05809-0.0181-0.07617 0-0.0035 0.003 0 0.34664 0 0.38281v0.76761c0 0.0256-0.01808 0.0581 0 0.0762 0.03 0.03 0.08319 0.002 0.126953 0.002l-1.15234 3.33984-0.201172 7.40039-5.19922 11.7988-3.09961 2.59961-0.300782 1.10156-1.79883 0.79883-1.5 4.20117-0.8008 3.199 2.69922 4.19922 1.60156 4.20117 1.09961 3.59961-0.300782 6.5-1.79883 3.09961-0.601562 5.80078-1 3.69922 1.8008 3.9 2.69922 4.5 2.30078 4.80078 1.30078 4-0.3008 3.199-0.3008 0.5v2.09961l5.70117 6.30078-0.5 2.40039-0.59961 2.29883-0.601562 1.90039 0.201172 8.19922 2.09961 3.70117 1.90039 2.59961 2.69922 0.5 1 2.69922-1.0996 3.601-2.09961 1.59961h-1.09961l-0.8008 3.9 0.5 2.89844 3.19922 4.40039 1.60156 5.30078 1.5 4.69922 1.29883 3.09961 3.4004 5.801 1.5 2.59961 0.5 2.90039 1.59961 1v2.40039l-0.798828 1.90039-1.80078 7.09961-0.5 1.90039 2.40039 2.69922 4.19922 0.5 4.5 1.80078 3.9004 2.1h2.90039l2.90039 3.09961 2.59961 4.80078 1.09961 2.29883 3.90039 2.09961 4.79883 0.80078 1.5 2.09961 0.601562 3.20117-1.5 0.59961 0.298828 1 3.20117 0.79883 2.69922 0.20117 2.90039 4.69922 3.90039 4.20117 0.798828 2.29883 2.59961 4.20117 0.3008 3.2v9.40039l0.5 1.79883 10 1.5 19.6992 2.70117 14.2012 0.90039 3.90039-0.60156 1.39844-2 0.40039-1.59961-3-0.29883-1-1.70117 0.59961-1.90039 0.10156-6.19922 2.29883-1.09961 2.59961-2.5 0.5-4.70117 1.70117-3.89844 1.90039-2.10156 3.39844-1.59961 1.40039-1 0.20117-1.40039-0.70117-0.59961-1-1.5-1.09961-5.40039-2.80078-5.19922 0.40039-3.09961v-0.002l0.3457-1.28321 0.0547 0.084 1.09961-1.79883 0.0859-2.14453c0.014-0.00053 0.0329 0.01 0.043 0 0.0512-0.0512 0-0.14447 0-0.2168v-0.65234c-0.003 0-0.005-0.005-0.008-0.006l0.002-0.0254c0.002 0.01 0.006 0.0229 0.006 0.0312 0.0715 0 0.0718-0.2103 0.002-0.21484l0.369-9.171 0.30078-1.5 0.29883-7.30078 1.80078-1.29883 0.90039-0.80078 1.79883-0.0996 1.30078 1.09961 2.80078 0.5 1.19922 2.59961 1.59961 0.10156 1.70117-3.10156 2.59961-16.3984 2.09961-11.1016 3.30078-15.5 5.39844-29.7988 10.6016-53.0996-0.37109-0.0742c-0.0154-0.004-0.0241 0 0.0703 0 0.0238-0.0238-0.0238-0.35901 0-0.38281 0.0404-0.0404 0.1139-0.0358 0.1543-0.0762 0.0362-0.0362-0.0362-0.1181 0-0.1543 0.0181-0.0181 0.0581 0.0181 0.0762 0 0.0384-0.0384-0.0384-0.19207 0-0.23047 0.0181-0.0181 0.06 0.0181 0.0781 0 0.0241-0.0241 0.008-0.0641 0-0.10156l13.5918 2.71875 33.9844 5.95703 0.0566 0.0723 1.71093 0.26562-1.95312 11.6055-2 12 27.9004 3 83.3008 9.09961 2.69922 0.30078 4.40039-44 1.5-25.4004 1.5-17.9004-0.0566-0.006 0.0371-0.89648 0.0195 0.002 1.30078-15.1992 5.29883-57.1309 0.901-14.1997-30.801-3.0703-29.199-3.5-29.301-4-32.299-5.3008-18.4-3.3984-32.6992-6.89062-0.004 0.01953-1.00391-0.189454 0.008-0.04102-12.8652-2.54102-0.0156-0.04492-1.1289-0.185547 0.01-0.03711-15-3.49023-23-5.70117-20-5.69922-8.60156-1.90039-9.699-2.69921zm-5.5 5.5-1.5 1.59961-0.5-1.40039-2 0.201172 0.5 2.39844 1.5 2.30078 0.701172-0.599609 0.298828-1.5l1.7012 0.5996s-1.5 2.29961-1.5 2.59961 0.898438 0.201172 0.898438 0.201172l1.40039-0.40039 0.701172-2-0.601562-0.800782 1.5-1.69922-0.798828-1.5zm-25.7988 47.2988 0.378907 0.06445c-0.01215 0.01923 0.01715 0.0551 0 0.07227-0.03617 0.03617-0.116178-0.03617-0.152344 0-0.01808 0.01808 0.01808 0.06005 0 0.07812-0.03836 0.03836-0.192109-0.03836-0.230469 0-0.01808 0.01808 0.01808 0.05809 0 0.07617-0.03617 0.03617-0.118131-0.03617-0.154297 0-0.01808 0.01808 0.01808 0.05809 0 0.07617-0.02376 0.02376-0.359055-0.02376-0.382812 0-0.01808 0.01808 0.01808 0.05809 0 0.07617s-0.0506 0-0.07617 0c-0.02475 0-0.100596 0.0014-0.181641 0zm-10.4004 277.201-1.2012 0.6l0.90039 1.5 1.59961 1.59961 4.5 0.20117 0.90039-0.60156-3.0996-1.199zm-6.4004 0.6l0.599609 1.5 0.59961 1.19922 3.20117 0.10156 0.1992-1.301-1.2988-1.5zm26.9004 18.4004-1.09961 0.19922v1.20117h0.09961l1.79883 2.29883 0.800781 1 1.5 0.59961 0.599609-1.5-1-1.79883zm-2.9004 10.1v2.19922c0 0.4 0.699219 1.90039 0.699219 1.90039l1.3008 1.202 1.5-0.201-1.1992-1.901-1.8008-3.199zm43.8008 68-2.70117 3.09961-4.5 0.20117-1-0.80078-1.09961 0.19922-3.69922 2.10156-2.70117 0.59961-1.59961-1-3.69922 2.40039-1.10156 3.09961l-3.6994 3.599-4.1992 0.199-1.8008-0.599h-3.19922l-2.90039 1.90039 2.40039 4.19922 2.89844 4.70117 0.8008 3.9-0.5 1.599 0.5 1.1 3.40039 1.90039-1 0.79883 1 3.20117 2.29883 4.40039-1.79883 1-5-1.80078-2.70117-1.59961 0.5-1.5 1.5-2.09961-1.5-1.10156-2.59961-0.29883-3.90039 0.59961 0.201172 1.59961h-0.59961l-1-1h-2.10156l-6.79883 0.5-0.5 0.80078 1.90039 3.69922 2.09961 1.80078-0.59961 2.40039-0.5 3.89844 3.59961 3.70117 5 0.19922 3.59961 1.80078 1.90039 0.5 3.19922-0.80078 2.59961-0.79883 1.10156 1.89844s-0.4 0.5-1 1c-0.7 0.5-1 3.40039-1 3.40039l-0.8008 4.4-2.30078 1.30078h-1.59961l-1-0.60156-1.5996-0.599-3.1992 2.4-2.4004 0.301-0.3008-2.401-2.5996-1.099-2.69922 1.29883-1.90039 3.70117-2.59961 1.59961-4.5 3.19922-1 5 1.09961 2.70117 1.29883-0.5 0.800781 0.5-1.09961 1.09961-0.201172 2.09961-2.09961 0.80078v1l2.09961 3.59961 0.601562 3.90039 1.5 1.29883h6.09961l0.798828-1.5 1 1v4.4l0.601562 1.80078-1.3008 0.199-1.5 1 0.599609 1.90039-0.5 2.59961-1.5 1.5 2.59961 0.30078 2.10156-1.10156 4-0.19922 0.298828 1.90039 1.09961 0.5 1.3008-1.3 1.5 5.80078 1.5 0.19922 0.199219-2.90039 1-1 1.3008 0.3 0.5996 2.4 3.4004-0.599 1.5996-1.301-0.298828 2.59961-1.60156 1.5-2.29883 4.5-1.9004 3.701-4 1.5-1.3008 3.699h-0.7988l-0.5996-0.5-1.3008 0.301-3.40039 0.59961-3.09961 1-2.30078 2.69922-1 0.30078-1.59961-1.30078-2.69922-0.19922-1.80078 0.79883-2.90039 0.60156-2.09961 2.09961-4.40039 1.59961-6.29883-0.59961-3.09961 1.29883v1.90039l1.59961 1.09961 1-1 2.29883-0.59961 2.60156 1.09961 2.0996 0.301 1.5996-0.801 2.09961-1.29883h3.20117l2.8984-1.9 3.40039 1.30078 2.90039-1 3.59961-1.30078-0.298828 2.40039h1l0.798828-2.30078 3.20117-0.19922 2.69922 1 0.5-1.09961 1.5-1.5-1.8008-1.3 5.3008-2.301 5.30078-1.09961 2.09961-1.09961 7.79883-4.19922 6.5-4.20117 2.70117-3.19922-0.80078-2.09961-2.29883-1 0.298829-1.60156 3.09961-2.59961 4.20117-1.5 1.09961-2.29883 1.80078-2.60156 2.39844-3.39844 5-2.70117 3.70117 0.30078 1.299 2.6h-2.699l-1-1.30078-4.40039 2.30078-0.19922 0.80078v1.79883l-2.30078 3.90039-1 2.40039 2.30078 0.59961v1.30078l-3.70117 0.59961 0.5 2.09961 4.70117 0.19922 3.40039-2.09961 1.79883-2.09961 3.09961-2.09961 2.70117 1.79883 1.29883-1.09961 1.30078 0.80078 0.5 1.90039 1.30078 0.29883 3.89844-4.40039-0.59961-1.59961-3.19922 2.70117 1.5-4.40039-1-0.30078-1.09961 2.90039-0.5-4.5 3.59961-1.5 3.59961-0.30078 2.69922 5.80078 2.10156 0.30078 6.5 3.89844 0.59961-0.5h5.5l5.69922 2.40039 3.70117 1.09961 2.89844-1.09961 1.801-1.599v1.59961l-1.30078 3.20117 4 2.59961 4.801 2.599 2.59961 2.90039 3.40039 2.40039 2.59961-0.60156 0.5 0.30078-2.09961 1.30078v2.29883l1.59961 1.09961 1.59961 2.90039 0.60156 3.70117 2.09961 0.5 3.59961 6 1.5 1.29883v-1.1l-0.30078-5.69922 0.80078 0.5 0.59961 3.69922 1 3.69922 1.09961-0.5 0.80078-3.39844h0.80078v5l1.5 1.5-1.801 1.898s0.70078 1.2 1.30078 1.5c0.7 0.3 1-1 1-1l1 2.30078s1.59961 2.80039 2.09961 3.40039c0.5 0.7 1.29883 1 1.29883 1l0.80078-0.80078-1.30078-1.79883-0.5-1.60156 2.10156 1.30078 1.89844 1.90039 1.10156-0.5-0.20117-3.70117-1.5-2.69922 0.80078-0.80078 1.79883 1.10156 2.70117 1.5 1.5 3.09961 1.59961 0.79883 1.80078-2.29883 1-3.40039-0.5-3.09961-1-4.40039-5.20117-2.09961-5-1.80078-1.5-3.69922-2.29883-2.70117-2.70117-3.89844-3.40039-6-3.898-1.8-1.102-2.4-1.898-1.1-0.602-2.9-3.099-2.1-1.90039 1.5-1.09961 0.19922-1.5 1.60156-0.29883 3.09961-0.60156 0.19922-3.39844 1.90039-0.5-2.59961-7-6.80078-0.20117-2.90039h-2.6l-1.5 1.10156-3.09961-0.20117-1.59961-1 0.29883-85.4004-4.5-2.69922-4.79883-1.90039-1.90039 0.80078-2.09961 0.59961-5.20117-2.59961-1.5 1-6.29883-4.20117-7.10156-0.59961-1.89844-1.5-0.301-3.699-3.9-0.3-1.6 1.599-0.6-1.099 0.5-1.1-1.9-2.1-3.6-2.4zm-72.7014 44.6-1.7988 2.4 0.1992 2.6h2.40039l1.79883 1.5 1.80078 4 2.90039 0.30078 0.199218-1-2.0996-5.301-2.8008-0.6-1.5-1.5zm-18.9004 23.9v1.90039l2.1016 3.1 1.09961-0.80078-1.09961-1.59961-1.1016-2.6zm226.602 8.09961-4 1.80078-1 3.69922 6.09961 2.59961l2.099-0.3 1.6-3.9-0.6-3.4zm-11 5.30078-2.30078 0.29883-1.90039 3.60156h2.4l2.09961-3.10156zm-193.9 0.69922 0.09961 2.70117 3.40039 3.59961 3.09961 0.19922 1.59961-3.69922-0.798828-1-3.70117-1zm237.099 4.701l-5.80078 2.89844-0.69922 1.90039 3.69922 5.5 2.40039-0.29883 1.09961-0.5 1.5 1.29883 3.70117-0.19922 1-1.5-2.90039-1.80078-1.90039-3.69922zm15 11.7988-1.30078 1.90039 5.40039 1.69922l4.401 0.301 2.59961-1.5 0.30078-1.30078-6.09961-0.59961-0.60156 0.5zm13.3008 3l-2.301 2.9 5 6.5 2.40039 1.5 4.79883-1 3.60156-1.80078v-1.89844l-4.401-2.701-4.4-1.1zm-171.9 0.5-1.80078 1 0.40039 2.30078 2.40039-1.5zm162.599 2.4v1.19922l1.90039 3.90039 3.1-1.099 0.30078-1.59961-1.60156-2.09961zm-192.699 11.1992-2.70117 1.90039-4.69922 3.59961-4.80078 2.90039-1.40039 1.09961 1.10156 5.80078 2.89844 0.80078 5-2.90039 4.40039-2.59961l-1.6-2.401 0.5-2.4-2.1 1.301-2.9-0.801 1.59961-1.09961 1.90039 0.79883 3.90039-1.79883 0.5-1.5-2.4-0.8zm217.898 3.10156-1.59961 1.29883 0.0996 2 1.60156 1.80078-0.5 1-2.10156 3.09961-2.29883 1 0.19922 2.59961 2.09961 1.80078 1.60156 5.69922-0.60156 2.40039 0.30078 4.5 3.59961 2.59961 1.80078 0.20117 2.29883-2.90039 2.40039-3.20117 3.09961-1.79883 1.5 0.59961 4.20117-1.5 3.90039-3.19922 0.29883-1.30078-4-2.59961l-1.901-4.402-1.599-2.4-3.401-2.1-7.599-3.6zm-264.6 16.7988-2.19922 1l1.6002 1.9 2.09961-1.59961zm-35 0.5-2.69922 0.59961 0.298828 1.60156-1.89844 1.89844-1.90039-0.5-0.5-1.59961-2.59961-0.29883-3.40039 1l-3.3998 2.299 1.09961 0.70117 1.59961-0.30078 4.40039-1.5 3.70117 1.09961 2.69922 0.5 4.4004-1.1 1.0996-1.801zm61 0.40039-1.69922 1.19922 1.5 1.80078 1-1.09961zm-24.1986 0.801-1.0527 2.199h2.35156l0.8007-1.9zm-1.0527 2.199h-0.04687v0.0996z"/>
		<path id="NE" d="m891.5 36.9004-1.80078 1.79883-4 2.90039v1l-0.79883 0.800782-2.70117-0.59961-1.299-2.3008v-1.09961l-1.30078-0.201172h-1.29883l-2.10156 4.20117-2.89844 8.90039-1.80078 4.79883 0.19922 4.80078 0.20117 1.5-0.80078 2.69922-0.79883 1v6l1.89844 2.40039-1.5 4-2.59961 4.69922-0.73438 5.05664-0.0644-0.02344v2.62695l-1.5-0.404297-1.30078 0.171875 0.15039 0.486328-1.08984 0.304688-0.0606-0.197266-0.69922 0.08008-0.25781 0.685547-0.56641 0.728516-0.37695-0.314453-1-1-1.5 1.90039-0.19922 2.28906 0.16016 2.69141-1.69727 0.519531-22.2168 5.78125-4.14453 1.03516-0.002-0.0176-0.40234 0.11914-1.93555 0.48437-0.27734 0.17383-4.78516 1.42383-4.5 1.5-3.19922-0.20117-5.5 1.30078-3.09961 1.19922-2.40039 1.80078-2.09961 2.40039-2.70117 3.69922-2.90039 4.5-1.5 2.90039-0.59961 0.79883-5.79883 5.5 0.19922 2.60156 0.80078 1.09961 1.79883 0.79883h1.80078v1.5l-1.09961 2.10156 0.29883 1.5 1.5 2.09961-0.19922 2.29883-1.90039 1.10156h-2.09961l-1.59961 1.89844-1.80078 3.20117-2.09961 1.79883-5.20117 0.5-2.59961 1.10156-2.09961 1.29883-1.59961-0.19922-1.90039-1.30078-6.30078 0.20117-3.19922 0.5-4 1.29883-4.40039 1.5-2.90039 1.80078 1.90039 6.09961 1.80078 0.19922 1.29883 3.10156 0.20117 1-1.09961 1-2.10156 2.69922-0.5 1.59961-1.89844 1.80078-1.8 1.099-1 1.59961-0.98242 0.83008h-0.01l-0.76367 0.61133-1.14453 0.85937 0.004 0.0527-0.99805 0.79883-0.006-0.0527-0.35156 0.33789-0.98633 0.79101-0.11328 0.27149-4.24805 4.09961-1.30078 0.5-4.19922 2.60156 4.29883 25.8984 5.10156 22.4004 3.89844-0.69922 11.301-1.401 0.46289-0.0937 0.0996 0.98242-0.0625 0.0117 0.13086 0.68359 0.0606 0.59961 0.0586 0.0137 1.75 9.10351 4.80078-4.90039 2.5-0.70117 1.39844-1.5 1.801-2.699 1.59961 0.69922 2.59961-0.19922 2.60156-2.09961 2-1.5 2.09961-0.59961 1.5 1.09961 2.69922 1.40039 1.90039 1.79883 1.30078 1.40039 4.79883 1.59961-0.6 2.9 5.80078 2.09961 0.0449-0.0547 4.16797 2.44727-0.51367 0.80859-0.69922 3.29883-1.80078 2.59961v2.10156l0.30078 0.79883 2 1.30078 3.39844 1.09961 4.30078-0.0996 3.09961 1 2.09961 0.29883 1-2.09961-1.5-2.09961v-1.80078l-2.39844-2.09961-2.10156-5.5 1.3008-5.29883-0.19922-2.10156-1.30078-1.29883s1.5-1.60078 1.5-2.30078c0-0.6 0.5-2.09961 0.5-2.09961l1.90039-1.30078 1.90039-1.59961 0.5 1-1.5 1.59961-1.30078 3.70117 0.30078 1.09961 1.79883 0.30078 0.5 5.5-2.09961 1 0.30078 3.59961 0.5-0.20117 1.09961-1.89844 1.59961 1.79883-1.59961 1.30078-0.30078 3.40039 2.59961 3.39844 3.90039 0.5 1.59961-0.79883 3.20117 4.19922 1 0.40039 7.40039-2.90039 1.69922-3.79883 0.44336-4.24805 0.0937-0.18945-0.0547-0.19922 0.018-0.164-0.0586 0.01-0.27539-1.00391 0.0332-0.006-0.25391-0.80859-0.20898-0.76368-0.0469-0.0469-1.78906-5.68164-1 0.5-3.59961-2.39844-1.801-4.701-1.9-3.6-2.29883-1-2.10156-3.59961 0.5-2 0.5-2.30078 0.0859-0.92188 1.0039-0.18945-0.0898 1.3125-0.69922 2.59961 1 2 3.19922 2.90039 4.80078 2.29883 4 0.59961 0.19922 1.5-0.79883 1 0.29883 2.70117h0.8l2.09961-2.40039 0.80078-4.80078 2.69922-4 3.09961-6.5 1.10156-5.5-0.60156-1.09961-0.19922-9.40039-1.59961-3.39844-1.09961 0.79883-2.70117 0.30078-0.5-0.5 1.09961-1 2.10156-1.90039-0.0488-0.54688 0.94727-0.16406v0.0117l1 0.39844 4-1.09961 5.80078-1.90039 2.59961-1 7.09961-5.29883 3.90039-2.90039 3.40039-3.59961-4.19922-1.59961-1.30078 1.5-2.90039 2.69922-7.90039 3.90039-2.29883-0.20117-1.59961-0.59961-1.10156 0.59961-2.29883 2.60156-1.5 1.29883-1.30078 0.30078-0.29883-1.30078 1.89844-1.79883-0.39844-0.7168 0.86328-0.89453 4.83594-3.28906 3.59961-3.20117 1.90039-2.09961 0.80078 0.59961 2.69922-1.5 5.19922-1.09961 7-3.5-0.002-0.01 1.00976-0.26953 0.0215-0.0312 2.772-1.09 2.4-1.898 1.1-1.801 1.30078 0.19922 0.39453-0.19727 0.0195 0.0137 3.94727-1.9414 0.0547-0.0234 0.002 0.0957 0.11914-0.14843 1.162-0.498-0.5-2.30078 0.80078-1.5 2.89844-1.5 0.80078 3.10156-0.5 1.79883-2.40039 1.5v1l1.90039-1.5 3.90039-4.5 3.90039-1.90039 4.19922-1.5-0.30078-2.39844-1-2.90039-1.89844-2.40039-1.80078-0.80078-2.09961 0.20117-0.5 0.5 1 1.29883 1.5-0.79883 2.099 1.599 0.801 2.699-1.801 1.801-2.30078 1-3.59961-0.5-3.90039-6-2.29883-2.59961h-1.80078l-1.09961 0.79883-1.90039-2.59961 0.30078-1.5 2.40039-5.19922-2.75-4.17187-0.67578-1.07032 0.125-0.0586 0.69922-0.79883 0.73437-2.13476 0.082-0.15235 0.0898-0.3457 0.19531-0.56836-0.043-0.0195 0.26172-1.01367 0.0801 0.0332 1.09961-6.36133 0.20117-4.44336 1.5-1.31445-1-3.23047 3.09961-3.63477 1.59961 1.51563 1.30078-0.50586 5.29883-3.13086 0.30078-2.92773 2.90039-0.50586 1.6-2.626-0.199-1.616-0.301-3.129 0.801-1.314-0.301-1.111-1.10547-1.28515 1.90625-1.17774 1.79883 3.19922 1.5-0.30078 0.30078 1.30078v1.59961l1.90039 0.20117 0.5-2.70117 0.5-0.59961-1.60156-1.5 1-1.5 2.40039-1.5 1-1.5 1.80078-0.199219s0.4 2.09961 1 2.09961h1.29883l4.80078-5.5 3.40039-3.09961 1.90039-0.601562 2.099-4.6996v-1.90039l-2.30078-3.69922-1.90039-2.09961-2.79883 0.5 0.5 1.09961-0.20117 0.5h-0.79883l-2.9-2.3008-0.199-4.7988-0.801-1.9004h-6l-9.1-29.9004-1.9-1-6-2.4004zm20.9004 61.7988-2 0.701172l-1.4 2.1996 1.801 1.9s1.29883 0.10078 1.29883-0.19922 0.20117-2 0.20117-2l0.898-0.801zm-8.59961 6.99414-1.5 1.51562 1.79883 2.92774 1.70117-0.9082-0.60156-2.42383zm-1.10156 65.8066-0.5 1.69922-2.19922 0.70117-0.5 0.59961 3.90039-0.0996 1.29883-0.5-1-2.30078zm-9.79883 0.59961-2.30078 2.59961 1.09961 0.90039 2.20117-1 2.40039-1-1.80078-1.5zm-70.7012 91.8008-1.89844 0.40039 1.09961 2.5 0.19922 1.79883 1.09961 1.90039s0.90039-0.89922 0.90039-1.19922-0.69922-3.10156-0.69922-3.10156z"/>
		<rect id="OV" rx="64" ry="64" height="128" width="128" y="373.956" x="810.144"/>
		<path id="SE" d="m736.699 224.9-0.79883 0.69922-0.90039 1.30078 1.09961 3v4.90039l-0.5 4.79883-0.19922 5.59961-2.40039 4.10156-3.09961 3.39844-2.59961 1.80078-2-0.5-1.20117 1.30078-3.1 4.6v1.6l1 3.09961-1.09961 1.30078-1.70117-0.5-1-1.09961-0.39844-0.30078-1.10156 0.69922-0.89844 3.60156-0.102 5.199-1.699 1.5v2.19922l-1.80078 1-2.38086 0.19922-1.83203-0.79297-2.086-1.605-1.9-1.1-0.5-2.30078-1.30078 0.20117-2 1.19922-2.5 2.69922-1.89844-1.69922-2.5-0.5-2.40039 1.40039h-2.30078l-1.79883-2-5.60156-0.0996-1.79883-4.5-2.90039-1.5-2.09961 0.79883-4.20117 0.20117-0.5 2.09961 1.20117 1.5 0.29883 2.09961-2.79883 2-3.80078 1.80078-2.59961 0.39844-0.5 4.5-4.90039 3.60156-2.599 3.7 0.19922 2.19922-0.89844 2.30078-4.5-0.0996-1.30078-1.30078-3.90039 2.20117 0.20117 3.29883-2.40039 0.59961-0.80078-1.39844-1.69922-1.20117-2.70117 1.09961-1.79883 3.5-2.20117-1-1.39844-1.59961-3.70117 0.40039-5.59961 1-2.80078 1.30078-1.19922 3.39844-1 1 1.5 3.70117-4.19922 1.40039-1.90039 1.39844-0.40039 2.20117 1.19922 2.40039v2.199l-1.59961 0.40039-6.09961-2.5-2.30078 0.90039-2 1.39844-0.79883 1.80078 1.69922 2.40039-0.90039 1.79883-0.0996 3.30078-2.40039 1.30078-2.09961 1.69922 0.33594-0.006-1.37305 1.00391-0.16211 0.002-0.30078 0.19922-0.5 5.60156-1.79492 5.6836-3.11524 1.06835-0.0664 0.0547-1.82227 0.49219-6.40039-0.69922 0.90039-3.09961 3.09961-2.60156 0.59961-2.29883-1.80078-2.90039-31.8984 1.19922-23.3008 0.70117-23.5996 0.29883 1.5 6.90039 0.0996 8.5 1.40039 10.9004 0.29883 38.1992 2.10156 1.60156 3-1.20117 2.89844 1.20117 0.40039 10.0996h0.0352l0.0117 0.90039h-0.0469l0.4 9.7 0.69922 9.5 0.5 3.69922 2.60156 4.5 0.89844 4.40039 4.30078 6 0.30078 3.09961 0.59961 0.80078-0.70117 8.30078-2.79883 4.59961 1.19922 2.40039-0.5 2.59961-0.79883 7.29883-1.30078 3 0.19922 3.70117 4.70117-1.5 8.09961-0.30078 10.3008 3.59961 6.5 1.10156 3.69922-1.5 3.19922 1.09961 3.20117 1 0.79883-2.09961-3.19922-1.10156-2.59961 0.5-2.70117-1.59961 0.80078-1.5 3.09961-1 1.80078 1.5 1.79883-1 3.20117 0.59961 1.5 2.40039 0.29883 2.30078 4.5 0.29883 1.801 1.801-0.80078 1.59961-1.29883 0.80078 1.6 1.6 8.40039 3.59961 3.59961-1.29883 1-2.40039 2.59961-0.59961 1.80078-1.5 1.29883 1 0.80078 2.89844-2.30078 0.80078 0.60156 0.59961 3.39844-1.29883 2.30078-3.40039 0.80078-0.5-2.10156-0.30078 0.801-1.6-0.19922-1.5 2.09961-0.5 1.09961-1.30078 0.59961 0.80078 0.59961 3.09961 4.20117 0.59961 4 1.90039 1 1.5h2.90039l1.09961 1 2.29883-3.09961v-1.5h-1.29883l-3.399-2.699-5.801-0.801-3.199-2.301 1.1-2.699 2.30078 0.30078 0.19922-0.60156-1.79883-1v-0.5h3.199l1.80078-3.09961-1.301-1.9-0.301-2.699-1.5 0.19922-1.89844 2.10156-0.60156 2.59961-3.09961-0.59961-1-1.80078 1.80078-1.90039 1.42969-1.27734 1.34961-1.07618 0.0195 0.0547 1.10156-0.80078 0.17774-0.28711 0.37304-0.29687 0.0156-0.33008 2.0332-3.28516 1.79883 0.79883 6.80078-1.90039 2.09961 0.30078 1.5 0.80078h5.20117l0.39844-1.60156-0.008-0.0664 0.90429-0.26562 0.004 0.0332h2.901l0.59961 0.19922 1.30078-2.69922 1.5-4.40039 2.29883 0.59961 3.10156 6v1l-2.701 1.9 2.70117 0.30078 4.45313-2.14062 1.74609-0.17188v0.012l0.14648-0.0273 1.07813-0.10547 0.0723-0.10352 2.0039-0.36328 6-2.09961 6-0.5 4.39844-0.60156 7.60156 1.80078 8.09961 3.90039 1.59961 1.5 2.90039 1.09961 1.59961 1.90039 0.30078 2.69922 3.19922-1.29883h3.90039l3.6-1.901 3.69922-3.59961 3.10156 0.19922 0.5-1.09961-0.80078-1 0.19922-1.90039 4-0.80078h2.60156l2.89844 1.5 4.20117 1.5 2.40039 3.70117 2.69922 1 1.09961 3.40039 3.4 1.599 1.6 2.6 1.9 0.6 5.199 1.3 1.301 3.1 3 3.69922v9.5l-1.5 4.70117 0.30078 2.69922 1.29883 4.80078 1.80078 4 0.79883-0.5 1.5-4.5-2.59961-1-0.29883-0.59961 1.59961-0.60156 4.5 1 0.19922 1.60156-3.19922 5.5-2.09961 2.39844 3.59961 3.70117 2.59961 3.09961 2.90039 5.30078 2.90039 3.89844 2.09961 5 1.79883 0.30078 1.60156-2.09961 1.79883 1.09961 2.59961 4 0.60156 3.59961 3.09961 4.40039 0.79883-1.30078 3.90039 0.30078 3.59961 2.30078 3.40039 5.19922 0.80078 3.40039 0.29883 2.90039 1.10156 1 1.29883 0.5 2.40039-1 1.5-1.60156 3.9-0.199 3.1-1.5 2.69922-3.19922-0.5-1.90039-0.29883-2.40039 0.59961-1.90039-0.30078-1.90039 2.40039-1.29883 0.30078-3.40039-0.59961-1.80078-0.5-12-1.30078-7.59961-4.5-8.19922-3.59961-5.80078-2.59961-5.29883-2.90039-2.90039-2.9-7.4 0.69922-1.40039 1.10156-1.29883-1.60156-2.90039-4-3.70117-4.79883-5.5-3.70117-6.29883-5.29883-9.40039-3.70117-9.69922-2.04492-6.49414-0.61328-3.85352-0.54102-4.2539 2.30078-10 1.5-4.19922-0.5-2.59961 3.29883-6.20117-0.35352-1.05664 1.23243-1.98438 1.52148-1.05859 5-5.29883-1-3.20117 2.90039-0.19922 3.6-3.4 1.59961-0.80078 2.30078-3.39844 2.69922-2.70117 2.09961-3.59961 2.40039-0.59961 1.09961-2.70117 1.60156-0.79883 0.5-6.30078 2.59961-6.09961 5.05469-5.15234 2.77734-1.3418 0.0273-0.0527 3.24-0.953 4.69922-0.5 0.5-2.40039 1.90039-6.5 3.40039-4.69922 6.5-5.30078 5.19922-2.40039 2.70117-0.59961 1.09961 0.5h1.30078l3.09961-4.79883 1.90039-3.60156-1.30078 0.5-2.30078 2.30078-0.59961-1.59961h-4.19922l1.90039-6.30078-0.801-1.299h-1.90039v-1l-0.29883-1.30078 1.59961 1.30078 1.5 0.19922 2.40039 0.30078 3.69922-1.60156 1.30078-2.89844 0.59961-2.10156 2.59961-1.29883 0.30078-4.20117-0.80078-0.59961 2.40039-0.19922-0.59961-2.30078-2.40039-2.40039-3.59961-6.5-2-4.79883-0.15625 0.0332-0.46875-0.90625 0.125-0.0273-3.70117-6.19922-5.79883 1.69922-1.60156-1.5 2.60156-1.40039-0.5-2.5-1.80078-1.79883-0.0996-1.40039-2.30078-1.5-0.0996-1.59961 2.69922 0.0996 0.20117-1.40039-1.20117-0.80078 0.5-1.89844-1.39844-1.10156 0.39844-4.69922-0.89844-1.19922-3.20117-0.40039-2.19922-2.09961-4.90039-0.90039-2.90039-1-3.90039-1.40039-2-1.30078-0.5-2.39844 0.5-1.70117 1.30078-1.29883 0.80078-3.30078-1.40039-1.80078-8.59961-3.09961 0.59961-2.90039-2.7793-0.98047-1.604-0.801-2.918-2.918-2.6-1.199-1.30078-1-1.5 0.5-4.59961 3.59961-3.09961 0.19922-1.09961-0.29883-1.5 2.19922-1.59961 1.5-2.60156 0.80078-5.79883 6-2.4-12.201-11.199 1.3-4.301 0.799zm98 40.2988-5.89844 2.30078 0.0996 1.69922-0.70117 3.30078-1.59961 4.19922-0.40039 5.40039 1.5 4.59961 2.20117-1.89844 1.79883-5-0.5-3.40039 0.40039-4.59961l2.9-3.801zm6.80078 48.1016-0.69922 0.19922 0.59961 1.90039 1.5 2.29883 0.59961 6.10156-0.19922 2-1.5 0.59961l-3.202 2.599-2.6 2.5 1.09961 0.19922 1.09961-1.19922 2.80078-2.40039 3.40039-1.5 0.19922-3.40039-0.40039-4.39844zm-43.5 238.799-0.69922 0.5-1 2.80078-1.5 4.59961-3.20117 5.30078-4.40039 4.19922-3.39844 1.90039-2.40039 1.5 1.19922 1.09961 2.70117-2.09961 5.29883-4.20117 3.70117-3.89844 2.5-6.60156 1-1.69922zm-22.5996 21.0996-2.30078 1.60156-1.5 2.29883-1.29883 0.20117-2.40039 0.59961 0.90039 1.09961 2.29883-1.19922 4.20117-1.5 3.5-1.20117-0.40039-1.09961-1.70117-0.30078z"/>
		<path id="SW" d="m188.801 187.5-10.6016 52.9004-5.39844 30l-3.301 15.401-1.699 9.199 0.008 0.002-0.36718 1.55274 0.0215 0.0976-0.0625 0.34766-2.59961 16.5-2.10156 3.80078-2.79883-0.20117-1.202-2.6-2.599-0.4-1.199-1.1-1.09961 0.0996-2.10156 1.70117-0.29883 6.79883-0.30078 1.5-0.5 12.5-1.5 2.40039-0.40039 3.30078 2.80078 5 1.09961 5.5 0.70117 1.09961 1.09961 0.90039-0.40039 2.39844-1.69922 1.20117-3.40039 1.59961-1.59961 1.80078-1.60156 3.59961-0.5 4.90039-3 2.89844-1.89844 0.90039-0.10156 5.80078-0.59961 1.59961 0.5 0.80078 3.90039 0.39844-0.90039 3-1.69922 2.40039-3.70117 0.40039-2.59961 2.19922-0.29883 1.5 0.5 1 18.8984 10.7012 12.1016 7.59961 14.6992 8.59961 16.8008 10 12.2988 2.40039 23.9863 2.54883 2.41601 0.34375-0.002 0.008 0.50586 0.0644 1.66406 0.23633 0.01-0.0254 13.6211 1.72461 1.19922-9.59961 16.6992 2.59961 10.9434 1.3457 3.63672 0.66016 0.32031 0.0937 2.59961 2.90039 1.5 4.40039 4.70117 2.29883 1.29883 3.20117 7.10156 7.89844 1.29883 1.60156 5 2.09961 1.09961 2.09961 1.60156 1 0.5 2.69922 3.19922 6.5v8.10156l2.30078 4.69922 7.39844 7.80078 5.20117 2.09961 1.79883 1.90039v0.59961l3.90039 2.29883 1.90039 0.60156 1.80078 1.09961 2.59961 1 2.40039-2.40039 4.39844-6.09961 1-3.70117 2.299-3.201 3.59961-1.5 4.5-1.80078 3.09961 2.30078 7.40039 0.59961 6.80078 1.09961 2.59961 2.10156v1.09961l2.59961 3.09961 6 5.30078 0.20117 1.5 1.79883 1.89844 0.80078 4.20117 5.29883 12.2988-0.19922 1.90039 4.19922 2.59961 3.60156 6.60156 3.39844 4.39844 3.20117 1.30078 1.59961 2.30078-1.30078 4.39844 0.60156 1 1.29883 0.60156-0.29883 3.39844-0.60156 0.60156 0.60156 2.29883 3.199 1.9 1.30078 6.5 2.09961 3.90039 7.59961 3.40039 5.19922 1.09961 4.20117 3.09961 3.19922 0.59961 1.30078-0.5 5.5 1.09961 5.69922 3.90039 3.09961-1.90039 1-1.5-1.79883-2.69922-1-6.09961-1.80078-7-0.79883-2.40039 0.79883-4.5 1.09961-3.90039 1.30078-4.5 1.5-5.5-2.30078-1.90039 1-1.89844 4-0.30078 3.90039-5.5 3.40039-0.59961 5.80078-3.59961 1.79883-1.5 6.30078-3.40039 5.69922-2.40039 5.30078-3.19922 2.69922-2.10156 5.70117-5.29883 1.29883-0.80078 2.09961-1.5 2.60156-1.90039 1-1.89844 9.89844-4.5 5.60156-1.60156-0.301-4.199 1.30078-3 0.79883-7.19922 0.5-2.40039-1.29883-2.59961 2.89844-4.80078 0.70117-7.69922-0.599-0.801-0.301-3.1-4.199-5.9-0.901-4.5-2.599-4.4-0.602-4.1-0.699-9.5-0.69922-20-2.10156-0.80078-3.09961 1.20117-2.69922-2-0.12109-0.0684-0.0898-2.40234-0.28906-36.3301-1.40039-10.9004-0.0996-8.59961-1.5-6.59961-0.59961-6.80078 0.0996-4.29883-12.5996 0.29883-46.3008-0.5-44.6992-2.09961-25.2988-1.0957-0.0117-1.00391h0.01l5.69922-86-36-3.5-79.0996-8.59961-0.006 0.0508-0.90039-0.0976 0.006-0.0527-32.1992-3.5 2.19922-13.1016 1.8-10.599-34.699-6.1zm276 334.4-3.20117 3.59961-3.5 5.40039-3.29883 6.90039-1.5 8.19922 0.59961 7 2.69922 7.19922 0.59961 7.10156 0.90039-0.30078-0.19922-1.5-0.5-5.19922-2.59961-7.20117-0.90039-6.09961 0.29883-5.19922 2-6.60156 4.40039-6.5 4.80078-6.59961z"/>
		<path id="MW" d="m493.801 52.9004-0.60156 0.199218-0.29883 8.20117-30.0996-0.03125 0.0156 0.04687-1.00586 0.0059-0.01-0.0332-28.6016-0.589843-18.5996-0.59961-26.5-1.29883l-25.198-2.1604-0.9 14.4199-4.699 50.9395 0.0508 0.004-0.10351 1-0.0488-0.004-0.39844 5-2.80078 34-1.46289 24.1894-0.29688 3.44141 0.30274 0.0781-4.44336 41.6914 33.1973 3.05859v0.24024l-1.4961 21.1016 0.0664 0.004-0.0274 0.99804-0.0391-0.002-4.30078 64.7988 24.3008 1 44.6992 2.09961 46.3008 0.60156 12.599-0.301v-0.0137l0.99805 0.12109-0.0977 4.89258 0.5 5.69922 23.7-0.199 23.3008-0.69922 32.5-1.30078 2.19922 3.69922-0.80078 3.10156-3.09961 2.5-0.5 1.79883 5.20117 0.5 4.09961-1.09961 1.69922-5.30078 0.5-5.89844 4.20117-3.40039 1.89844-1v-2.9l0.70117-1.59961-1.05859-1.53906-0.28516-1.4043 0.84375-1.85742 2.40039-1.69922 2.79883-1 6.09961 2.5 0.5-0.20117v-1.09961l-1.19922-2.69922 0.40039-2.80078 2.40039-1.59961 3.39844-1.19922-0.5-1.30078-0.79883-2 1.19922-1.30078 1-2.69922v-0.33984l1-0.90039v0.041l2.5-1.30078 5.70117-1 4.39844-0.5 1.60156 1.80078 1.2 0.6 1.4-2.9 3.6-1.5 2.40039 1.69922 0.5 0.90039 0.90039-0.19922-0.20117-3.09961 5.20117-3 1.39844 1.69922h3.5l0.5-1.40039-0.19922-2.40039 2.90039-4 4.69922-3.59961 0.5-4.79883 3.20117-0.40039 3.59961-1.70117 2.29883-1.59961-0.19922-1.29883-1.30078-1.60156 0.60156-2.89844-0.006-0.043 1.20313-0.46679 3.70117-0.19141 2.30078-0.79883 3.59961 1.79883 1.70117 4.20117 5.39844 0.0996 1.80078 2h1.69922l2.40039-1.40039 3.09961 0.5 1.5 1.30078 1.80078-2 2.30078-1.40039 2.39844-0.40039 0.60156 2.69922 1.59961 1 2.59961 2 0.80078 0.20117 2-0.0996 1.199-0.601v-2.09961l1.69922-1.5 0.10156-4.79883 1.09961-4.20117 1.90039-1.29883 1 0.69922 1 1.09961 0.69922 0.20117 0.40039-0.40039-0.9-2.701v-2.199l1.09961-1.40039 2.5-3.59961 1.30078-1.5 2.19922 0.5 2.09961-1.5 3-3.30078 2.20117-3.69922 0.19922-5.40039 0.5-5v-4.6l-1.2-3.199 1.2-1.801 1.3-1.199-0.599-2.801-4.301-25.6-6.19922 3.69922-3.90039 2.30078-3.4 3.7-4 3.9-3.19922 0.80078-2.90039 0.5-5.5 2.59961-2.09961 0.19922-3.40039-3.09961-5.20117 0.59961-2.59961-1.5-2.19922-1.29883-0.13867 0.0195-0.87695-2.05664 0.11523-0.86328 2.09961-3.70117 2-1.69922-0.19922-5.09961 1.59961-1.59961 1.09961-0.30078 0.20117-3.59961 1.5-3 1.09961 0.59961 0.19922 0.59961 0.80078 0.20117 1.90039-1-0.40039-9.10156-3.201-8.199-2.299-9.1-2.4-3.201-2.6-1.799-1.599 1.1-3.90039 1.80078-1.90039 5-2.69922 3.69922-1.10156 0.59961-1.5-0.59961s-2.59844-1.49961-2.39844-2.09961 0.5-5 0.5-5l3.39844-1.30078 0.801-3.4 0.6-2.599 2.4-1.6-0.30078-10-1.59961-2.30078-1.29883-0.79883-0.801-2.099 0.801-0.801 1.59961 0.30078 0.19922-1.60156-2.6-2.199-1.30078-2.59961h-2.59961l-4.5-1.5-5.5-3.40039h-2.69922l-0.59961 0.59961-1-0.5-3.10156-2.29883-2.89844 1.79883-2.90039 2.30078 0.29883 3.59961 1 0.30078 2.10156 0.5 0.5 0.79883-2.60156 0.80078-2.59961 0.29883-1.5 1.80078-0.29883 2.09961 0.29883 1.59961 0.30078 5.5-3.59961 2.10156-0.60156-0.20117v-4.19922l1.301-2.401 0.59961-2.40039-0.79883-0.79883-1.90039 0.79883-1 4.20117-2.70117 1.09961-1.79883 1.90039-0.20117 1 0.60156 0.79883-0.60156 2.59961-2.29883 0.5v1.10156l0.79883 2.39844-1.09961 6.10156-1.59961 4 0.59961 4.69922 0.5 1.09961-0.798 2.4-0.301 0.801-0.301 2.699 3.60156 6 2.89844 6.5 1.5 4.80078-0.79883 4.69922-1 6-2.40039 5.19922-0.30078 2.70117-2.63867 2.55664-3.48243 2.73828-0.97851 0.70508-2.09961 1.90039-1.09961 0.29883-1.5-1-2.94922-0.78516-1.99805-3.4414-0.0527-0.17383-1.3-3.699-1.6-1.801-1.5-2.59961-0.40039-5.5-0.0234 0.002-0.0312-0.89648 0.0547-0.006 0.20117-3-1.60156-4.5-0.59961-6.09961-1.09961-2.40039 1-3.09961 0.80078-2.90039 1.5-2.59961-0.60156-3.40039-0.59961-3.59961 0.5-1.79883 1.90039-2.40039 0.19922-2.70117-0.79883-1.29883 0.59961-2.59961 0.5-3.20117 2.69922-5.69922 2.90039-6.80078 0.20117-2.29883-0.30078-1-0.80078 0.5-4.19922 6.29883-2.69922 4-1.90039 1.80078-0.80078 2.29883-1.5 0.80078-1.09961 1.90039-1.5-0.30078-0.19922-1.79883 1.29883-2.40039 2.09961-4.70117 1.80078-1.59961 1.09961-2.29883-0.0684-0.041 0.40039-0.90235 0.0684 0.043 3.19922-6.90039 1-4 1.90039-4.40039 0.80078-0.19922 1.1 1.6h0.59961l4.5-2.40039 1.5 1.59961 0.5 0.20117 1.30078-1.09961 1.09961-3.10156 2.40039-0.79883 7-0.59961 1.90039-2.60156 5.199-0.199 5.80078 1.30078h1.79883l3.20117-1.5 2.29883 0.19922 2.09961-0.59961 3.70117 0.5 0.79883 0.29883 1.30078-0.29883-1.30078-1-1.29883-0.59961-3.20117-3.10156v-7l-1.5-0.5-1.09961 1.10156-6.09961 1.59961-1.90039 0.5-2.90039-0.80078-0.5-0.29883v-5.70117l-1.5-0.19922-2.59961 1.29883-4.5 1.90039-6.59961 0.30078-3.40039 1.09961-4 3.59961-1.59961 1h-1.09961l-1.30078 0.80078-1.59961-0.5-1.59961-1.30078-1.5 1-3.90039 0.20117-2.69922-2.70117-1.5-3.09961-1.5-1.09961-3.20117-1h-2.29883l-1.301-1.301-3.6 2.9-1 1.09961-0.80078-0.5 0.30078-2.59961 2.40039-3.19922 0.5-2.40039 2.29883-0.800782 1.5-3.09961 3.70117-1 0.29883-1-1.09961-1.09961-4.69922 0.5-4.40039 2.40039-2.30078 2.29883-1.29883 1.80078-1.80078 0.798828-1.90039 2.90039-0.19922 1.30078-4.4 2.1-2.40039 1.90039-6 1-0.6 0.6v1l-3.59961 2.30078-2.70117 0.79883-0.38672 0.27539-0.12305-0.0215-0.17383 0.23437-0.0156 0.0117 0.004 0.006-0.64649 0.87109-0.0566-0.0762-0.32226 0.58984-0.20899 0.28125-0.0234 0.14258-0.0469 0.0859-1.09961-0.19922-0.59961-1.10156-2.69922-0.79883-1.10156 0.19922-1.79883 1-1-0.59961 0.59961-1.90039 1.90039-3.09961 1.09961-1.09961-1.90039-1.5-2.09961 0.79883-2.90039 1.90039-7.40039 3.20117-2.89844 0.59961-2.90039-0.5-0.66601-0.4668-0.92969-0.99023 3.5957-2.74414 1.29883-0.19922 4.5-5 1.80078-0.800781 2.30078-3.89844 2.39844-3.60156 3.10156-2.59961 4.79883-2 9.20117-4.09961 3.89844-1.80078 0.60156-2.29883-4.40039 0.40039-0.70117 1.09961h-0.59961l-1.79883-3.09961-8.90039 0.298828-1 0.800782h-1l-0.5-1.30078-0.80078-1.79883-2.59961 0.5-3.19922 3.19922-1.60156 0.800781h-3.09961l-2.59961-1v-2.1016l-1.3-0.1992-0.5 0.5-2.59961-1.30078-0.5-2.89844-1.5 0.5-0.5 1-2.40039-0.5-5.29883-2.40039-3.9-2.5996h-2.90039l-1.29883-1-2.301 0.5996-1.1 1.0996-0.30078 1.30078h-4.79883v-2.1016l-6.3-0.2988-0.30078-1.5h-4.79883l-1.59961-1.59961-1.5-6.10156-0.80078-5.5-1.90039-0.798828zm99.5 21.7988l-2.301 0.6016-5.4 3.8984-2.2 0.8008-1.80078 2.09961 1.70117 1 2.09961-0.90039 3.29883-1.89844 5.10156-5.10156zm77.5996 37.5-2.20117 0.20117-1.59961 0.19922-0.29883 1.09961 1 0.5 0.59961 2.5 3.19922 0.20117 1.30078-1.20117s-0.10039-1.49961-0.40039-1.59961c-0.3-0.2-1.59961-1.90039-1.59961-1.90039z"/>
	</g>
	<g id="text">
		<text id="WE-text" y="166.56787" x="129.82507" xml:space="preserve"><tspan id="tspan5327" x="129.82507" y="166.56787">WE 5</tspan></text>
		<text id="SW-text" y="407.8757" x="348.71048" xml:space="preserve"><tspan id="tspan5369" x="348.71048" y="407.8757">SW 3 </tspan></text>
		<text id="SE-text" y="393.99512" x="696.79163" xml:space="preserve"><tspan id="tspan5335" x="696.79163" y="393.99512">SE 7</tspan></text>
		<text id="MW-text" y="226.36096" x="502.46411" xml:space="preserve"><tspan id="tspan5339" x="502.46411" y="226.36096">MW 6</tspan></text>
		<text id="NE-text" y="173.24677" x="835.86951" xml:space="preserve"><tspan id="tspan5343" x="835.86951" y="173.24677">NE 8</tspan></text>
		<text id="OV-text" y="456.7532" x="873.2702" xml:space="preserve"><tspan id="tspan5335-8" x="873.2702" y="456.7532">OV 6</tspan></text>
	</g>
</svg>
