<svg id="svgdata" viewbox="0 0 200 236" color-interpolation="auto" color-rendering="auto" fill="black" font-family="'Dialog'" font-size="12" image-rendering="auto" shape-rendering="auto" stroke="black" stroke-linecap="square" stroke-miterlimit="10" text-rendering="auto" version="1.0" xmlns="http://www.w3.org/2000/svg">
 <!--Generated by the Batik Graphics2D SVG Generator-->
<g id="outlines">
 <path id="Drenthe" d="m161.056 30.3263-0.77463 0.38746-0.38732 0.38746v0.38747l-1.54926 0.77492-0.38732 0.38746v0.38746l-0.38731 0.38746-0.38732 0.77492-0.38732 0.38746v0.38747l-0.77463 1.9373v0.38746 1.16239h-0.38731l-0.38732 1.54984h-0.38732l-1.16194-0.38746-0.38732 0.77492 1.16195 0.77493h1.16195l0.77463 0.38746-0.38732 1.16238v1.16238 0.38747l2.3239 3.48715 0.38731 0.77492 0.38732 0.77492 0.38732 0.38746-1.16195 1.93731v0.38746l-0.38732 0.38746-0.38731 0.38746-1.16195 1.16239-1.54927 1.16238-1.54926-1.54984h-1.16195l-1.16195-0.38747-0.77463 0.38747v0.38746 0.38746l-0.77463 0.38746-1.16195 1.54984-0.38731 0.38747-0.38732 0.38746-1.54926 0.77492-0.77463 0.77492-1.16195 0.77492 0.38731 0.77493v0.38746l1.16195 1.16238 0.38732 0.38746 0.77463 0.77492 0.77463 0.77493 0.38732 0.77492h0.38731l-0.38731 0.77492-0.38732 0.38746-0.77463 0.77493v0.38746h-0.38732l-0.38731 0.38746-1.16195 0.38746-0.38732 0.38746h-0.38731v0.38746l0.38731 0.77492 0.38732 0.77493 0.38732 0.77492v0.38746 0.38746l0.77463 1.16239v0.38746l0.77463 0.38746v0.38746l-0.38732 0.38746 1.16195 0.38746-0.38731-0.38746 0.38731-0.38746v0.38746l0.38732 0.38746v-0.38746l0.38731-0.38746h0.38732 0.38731 0.38732v0.38746h0.38732 0.38731 0.38732v0.38746l0.38731 0.38746h0.38732v0.38746h0.38732 0.38731v-0.38746h0.38732v0.38746h0.38731 0.38732 0.38732l0.38731-0.38746h0.38732 0.38731v0.38746h-0.38731v0.38747h0.38731v0.38746l0.38732 0.38746h0.38732l0.38731 0.38746h0.38732v0.38746 0.38746h0.38731v0.38746l0.38732 0.38746v0.77493l0.38732 0.38746h0.38731v-0.38746h0.38732 0.38731v-0.38746h0.38732v0.38746h0.38732v-0.38746l0.38731-0.38747h0.38732v0.38747 0.38746h0.38731l0.38732 0.38746 0.38731-0.38746 0.38732-0.38746v-0.38747l0.77463 0.77493h0.77463 0.38732l0.38732 0.38746h0.38731v-0.38746l-0.38731-2.32477 0.77463-0.77492 0.77463-0.77493 0.38732-0.38746h1.54926l1.16195-0.38746h0.38731v-0.38746l0.77464 0.38746 1.54926 0.77492 1.54926 0.77493h0.77463l0.38732 0.38746-0.38732 0.38746v0.38746 0.38746 0.38746h0.38732l0.38732-0.38746h0.38731l0.38732-0.38746 0.38731-0.77492h0.77464 0.38731l0.38732-0.38746h0.38731 0.38732 0.38732 0.38731 0.38732l0.38731 0.38746 0.38732-0.38746h0.38732 0.77463 0.77463l0.38731-0.38746 0.38732 0.38746h0.77463 0.38732l0.77463 0.38746v0.38746h0.38732 0.77463 0.38731 0.38732 0.77463l0.38732-0.38746h0.38731l0.38732 0.38746 0.38732-0.38746v0.38746h0.38731l1.16195 0.38746h0.38732l0.77463-0.77492v-0.38746-0.77493-1.54984l0.38731-3.87461v-5.037-2.32477l1.16195-2.32476h-1.16195v-0.77493l-0.38731-0.38746-0.77463-1.16238h-0.38732v-0.38746h-1.16195v-0.38746l0.77463-2.32477 0.38732-0.38746v-0.77492h-0.77463l-0.77463-0.77493-0.38732-0.77492-0.77463-1.16238h-0.38732v-0.38746h-0.38731l-0.38732-0.77493-0.38732-0.77492-0.38731-0.38746-0.38732-0.38746v-0.38746l-0.38731-0.38746-1.54927-1.54985-0.38731-0.38746-1.93658-1.93731-2.3239-2.32476v-0.38747l-1.54926-1.16238-0.38732-0.77492-1.54926-1.16239v-0.38746h-0.38732l-0.38731-0.38746h-0.38732-0.38732-1.16194l-0.77464 0.38746h-0.38731l-1.93658 0.77493v-0.38747l-0.38732-0.38746 0.38732-0.38746h-0.38732v-0.38746l-0.38731-0.38746-0.38732-0.38746-0.38731-0.38746v-0.38746h-0.77464v-0.38747l-0.38731-0.38746v-0.38746-0.38746l-0.77463 0.38746-0.38732-0.38746v-0.38746l-0.38732-1.16238-0.38731 0.38746-0.38732-0.38746-0.38731-1.16239h-0.77464l-0.38731-0.38746-0.38732 0.38746-0.38731-0.38746h-0.38732-0.77463zm30.9853 29.0596h0.38732v-0.38746l-0.38732 0.38746z" fill-rule="evenodd"/>
 <path id="Overijssel" d="m144.014 59.3858-1.16195 0.77493-0.38732 0.38746-0.38731 0.38746h-1.16195-0.38732l0.38732 0.77492v0.38746h-0.38732l-0.38731 0.38746-0.77463 0.38746v-0.77492l-1.16195 0.38746-0.38732 0.38746v-0.38746h-0.38731l-0.38732-0.38746-0.38731-0.77492v-0.77492l-0.77464 0.38746v0.38746l-0.77463-0.38746v0.38746h-0.77463l-0.38732 0.38746v0.38746l-0.38731 0.38746v0.38746l-0.38732 0.38747h-0.38731v0.38746h-0.38732l-0.38732 0.38746h-0.38731-0.38732-0.38731l-0.38732-0.38746h-0.38732-0.38731v-0.38746h-0.38732-0.38731v-0.38747h-0.38732l-0.77463 0.77493 0.38731 0.77492 0.77464 0.77492v0.38746h0.77463 0.77463l0.38732 0.38746 1.16194 0.38747 0.38732 0.77492 0.38732 0.38746h0.38731l0.77463 0.77492 0.38732 1.16239 0.77463 1.54984v0.38746h0.38732l0.38731 0.38746v0.38746l0.38732 0.38747v0.38746 0.38746l-0.77463 0.38746-0.38732 0.38746-0.38731 0.38746v0.38746 0.38746h0.38731v-0.38746l0.77463 0.38746h0.38732l0.77463 0.38747 0.38732 0.38746 0.38731 0.38746h0.77463l0.38732 0.77492-0.38732 0.38746-1.16194 0.77492h-0.38732l-1.16195 0.38747v0.38746l-0.77463 0.38746h-0.38731l-0.77464 0.38746-0.38731-0.38746-0.38732-0.38746-3.09853 0.77492-0.38731 0.38746v0.77492 0.38746 0.38747l0.38731 0.38746v0.38746l-1.54926-0.38746 0.38732 0.38746h0.38731 0.38732v0.38746l0.38731 0.38746v0.38746 0.38746l0.38732 0.38746 0.38732 0.38747v0.38746 0.38746l0.38731 0.38746v0.77492 0.77492l0.77463-0.38746 0.38732 0.38746 0.77463 1.16239 0.38732 0.77492 0.77463 1.16238v0.77493l0.77463-0.38747 0.38732-0.38746 0.38731-0.38746v0.38746l0.38732 0.38746 0.38732-0.38746 1.54926-1.54984 0.38731-0.38746h0.38732 0.38732l0.38731-0.38746 0.38732 0.38746h0.38731l0.77464 0.77492v0.38746 0.38746l0.38731 0.38746 1.16195 0.38746 0.38732 0.38747v0.38746l0.38731 1.16238v0.77492l0.38732 0.38746 0.38731 0.38747v0.77492l-0.38731 0.38746v0.38746 0.77492l0.38731 0.38746h0.38732v0.38747 0.38746 0.77492h-0.38732v0.38746h-0.38731l-0.77463 0.38746h-0.77464v0.387459h-0.38731v0.38746l0.38731 0.38747h0.38732l0.38732 0.38746h-0.38732l-0.38732 0.38746h-0.38731v0.77492 0.77492 0.77493h-0.38732v0.38746h0.38732 0.38731v0.38746 1.16238h0.38732 0.38732 0.38731v0.38746 0.38746h0.38732v1.16239l0.38731 0.38746 0.38732 0.38746v0.38746 0.38746 0.38746l0.38732 0.38747h0.38731 0.38732 0.38731v0.38746h-0.38731l-0.38732 0.38746v0.38746l0.38732 0.77492h0.38731 0.38732v-0.38746l0.77463-0.38746h0.38732v0.38746h0.77463 0.38731l0.38732 0.38746v-0.38746h0.38732 0.38731 0.38732 0.77463 0.38732l0.38731 0.38746 0.38732-0.38746h0.38731 0.38732 0.38732v0.38746h1.16194v-0.38746h0.77464v-0.77492h0.38731l0.38732-0.38746h0.77463 0.38732l0.38731-0.38746v0.38746h0.38732 0.38731 0.77464 0.38731v0.38746 0.38746l0.38732 0.77492 1.16194 0.77492v0.77493h0.38732v0.38746h0.77463v0.77492l0.38732 0.38746v0.38746h0.38731l0.38732 0.38746 0.77463-0.38746h0.38732l1.93658 0.38746 1.54926-0.38746h0.38732l0.77463 0.38746-0.38732 0.38746 0.38732 0.38747 0.38732 0.38746v-0.38746l0.38731-0.38747 0.38732-0.38746 0.38731 0.38746v0.38747l0.38732-0.77493h0.38731l1.16195 0.77493v0.38746 0.38746 1.16238l-0.77463 1.16239h0.77463 0.38732l1.54926 0.77492h0.38732 2.32389 3.09853 1.16195l0.38731-0.38746 0.38732-0.38746 0.38732-0.38747v-0.38746l0.38731-1.9373h0.38732v-0.38746l1.16195-0.77493v-0.38746l1.16194-0.38746h1.16195l0.38732-0.77492v-0.38746l0.38731-0.38746v-0.38747l0.38732-0.38746v-0.38746-0.38746-0.38746l0.38732-0.38746 0.77463-0.38746 0.38731 0.38746h0.38732 0.38732 0.77463l1.16194-0.77492v-0.38746l-1.16194-1.54985-0.38732-0.38746v-0.77492h-0.38731v-0.38746-0.38747-0.38746-0.38746l0.38731-1.16238v-0.38746h0.38732v-0.38746h0.38731v-0.38747-0.38746l0.38732-0.77492v-0.38746l0.77463-1.16238v-1.93731l-0.77463-1.54985v-0.38746-0.38746h-0.38732-0.38731-0.38732l-0.38731-0.77492-0.38732-0.77492-0.77463-0.77493v-0.38746l-0.38732-0.77492v-0.77492l-0.38731-0.77492v-0.38747h-0.38732-0.38732l-0.38731 0.77493-0.38732 1.16238-0.77463 0.38746v0.38746h-0.38732l-1.93658-0.38746-0.77463-0.38746-1.16195-0.38746h-0.77463l0.38732-0.77492h-0.77463-1.16195-2.3239-0.77463l-0.38731-0.38746-1.54927-0.77493-0.38731-0.38746-0.77464-0.38746 0.38732-3.09969-0.77463-1.16238-0.77463-1.54985h0.38731l0.77463 0.38746h0.77464l0.38731-1.16238h0.77463l0.77464 0.38746 0.38731-0.38746-2.32389-1.93731v-0.77492l0.38731-1.54984v-0.38746l-0.38731-0.38747-0.38732-0.38746h-0.38732v-0.38746-0.38746-0.38746l0.38732-0.38746-0.38732-0.38746h-0.77463l-1.54926-0.77493-1.54926-0.77492-0.77464-0.38746v0.38746h-0.38731l-1.16195 0.38746h-1.54926l-0.38732 0.38746-0.77463 0.77493-0.77463 0.77492 0.38731 2.32477v0.38746h-0.38731l-0.38732-0.38746h-0.38732-0.77463l-0.77463-0.77493v0.38747l-0.38732 0.38746-0.38731 0.38746-0.38732-0.38746h-0.38731v-0.38746-0.38747h-0.38732l-0.38731 0.38747v0.38746h-0.38732v-0.38746h-0.38732v0.38746h-0.38731-0.38732v0.38746h-0.38731l-0.38732-0.38746v-0.77493l-0.38732-0.38746v-0.38746h-0.38731v-0.38746-0.38746h-0.38732l-0.38731-0.38746h-0.38732l-0.38732-0.38746v-0.38746h-0.38731v-0.38747h0.38731v-0.38746h-0.38731-0.38732l-0.38731 0.38746h-0.38732-0.38732-0.38731v-0.38746h-0.38732v0.38746h-0.38731-0.38732v-0.38746h-0.38732l-0.38731-0.38746v-0.38746h-0.38732-0.38731-0.38732v-0.38746h-0.38732-0.38731-0.38732l-0.38731 0.38746v0.38746l-0.38732-0.38746v-0.38746l-0.38731 0.38746 0.38731 0.38746-1.16195-0.38746 0.38732-0.38746v-0.38746l-0.77463-0.38746v-0.38746l-0.77463-1.16239v-0.38746-0.38746l-0.38732-0.77492-0.38732-0.77493-0.38731-0.77492v-0.38746h0.38731l0.38732-0.38746 1.16195-0.38746 0.38731-0.38746h0.38732v-0.38746l0.77463-0.77493 0.38732-0.38746 0.38731-0.77492h-0.38731l-0.38732-0.77492-0.77463-0.77493-0.77463-0.77492-0.38732-0.38746-1.16195-1.16238v-0.38746l-0.38731-0.77493zm2.71121 52.6947v0.38746 0.38746l0.38732-0.38746-0.38732-0.38746z" fill-rule="evenodd"/>
 <path id="Gelderland" d="m132.007 87.2831-0.77463 0.38746v0.38746l-0.38731 1.16239-0.38732 0.77492v0.38746 0.38746l-0.38732 0.77493v0.38746 0.38746l-0.38731-0.38746v0.77492h-0.38732v-0.38746-0.38746l-0.38731 0.77492v0.38746h0.38731v0.38746h-0.38731l0.38731 0.38746-0.77463 0.77493-1.93658 1.9373-0.77463 0.38746v0.38746h-0.38732l-0.38731 0.38747h-0.38732l-0.38731 0.38746v0.38746h-0.38732v0.38746h-0.38732-0.38731l-0.77463 0.38746-0.38732 0.38746h-0.38732l-0.38731 0.387459-0.77463 0.38746h-0.38732l-0.77463 0.77493v0.38746h-0.38732-0.38731v0.38746 0.38746h-0.38732v0.38746h-0.38732v0.38746h-0.38731v0.38746l-0.77463 0.38747-0.38732 0.38746-0.38731 0.38746v0.38746l-0.38732 0.77492v0.77492l-0.38732 0.77493v0.38746l-0.38731 0.77492-0.38732 0.38746h-1.54926-0.38732l-0.77463 0.77492-0.38732-0.38746-0.38731 0.38746-1.16195 0.38747h-0.77463l-0.38732 0.38746h-0.77463l-0.38732 1.9373v0.38746l0.77464 0.38746v-0.38746l1.54926 1.16239v0.38746 0.38746 0.38746 0.38746 1.16239l0.38732 0.38746h1.93658v0.38746h-0.38732l0.38732 0.38746v0.38746 0.38746h0.38731 0.38732v0.77492h0.77463v0.38747 0.38746h-0.77463v0.38746 0.38746h0.38731v0.38746h-0.38731-0.38732v0.38746l-0.38731 0.38746v0.77493 0.38746l-0.77464 0.77492h-0.38731v0.38746l0.38731 0.38746 0.77464 0.38746h0.38731 0.38732l0.38731-0.38746 0.38732-0.38746h0.38732l0.38731-0.38746v-0.38746h0.38732v-0.38746-0.38746l-0.38732-0.38747 1.16195-0.38746 0.38732 0.77493v0.38746 0.38746 0.38746l0.38731 0.38746-0.38731 0.38746v0.38746 1.93731h0.77463v0.38746h-0.38732l1.16195 0.77492v1.16239 0.38746 0.38746 0.38746l0.38731 0.38746 0.38732 0.38746h0.38732v0.38746l0.38731 0.77493v0.38746l0.38732 0.38746-0.38732 0.38746 0.38732 0.38746v0.38746 0.38746l-0.38732 0.38747-0.77463 0.38746-0.77463-0.38746-1.16195-0.38747-0.77463-0.38746-0.38732-0.77492h-0.38731-0.38732l-0.38731-0.38746h-0.38732l-0.77463-0.38746-0.38732-0.38746h-0.38731-0.38732-1.16195l-0.38731-0.38746h-0.38732l-0.38732 0.38746-0.38731 0.38746h-0.38732l-0.77463 0.38746h-0.38732l-0.38731 0.38746h-0.38732l-0.77463-0.38746-0.38731 0.38746h-0.38732l-0.38732 0.38746v0.38746h-0.38731l-0.38732 0.38746h-0.38731l-0.77464-0.77492h-1.16194-0.38732l-0.77463-0.77492-0.774633-0.38746h-0.38732-0.38732v0.77492l-0.38731 0.38746-0.38732 0.38746h-0.38731-0.38732l-0.38732-0.38746-0.38731-0.38746-0.38732 0.77492-0.38731 1.16239-0.77463 0.77492-0.38732 0.38746h0.38732l-0.38732 0.38746-0.38732 0.77492h-0.38731v0.38747l-0.38732 1.16238-0.38731 0.38746v0.38746h-0.38732-0.77463-0.38732v0.77492l-0.38731 0.38746h-0.38732-0.38732-0.38731v0.38747 0.38746l0.38731 0.38746v0.38746h-0.38731l-0.38732-0.38746-1.16195 0.38746-0.38731-0.38746-0.77463 0.38746-0.38732-0.38746v0.38746 0.38746l0.38732 0.38746h-0.38732l0.38732 0.38746h0.38731 0.38732 0.77463l-0.38732 1.54985v0.38746h-0.77463v0.38746 0.38746h0.38732l0.38731 0.38746 0.77464 0.38746 0.38731 0.38747h0.38732v0.38746l0.38731 0.38746v0.38746h0.38732v0.38746h0.38732l0.38731-0.38746 0.38732-0.38746h0.38731l0.77464 0.77492 1.16194 0.38746v0.38746 0.38746 0.38747l0.38732 0.38746-0.38732 0.38746-0.38731 0.38746h-0.38732v0.38746l0.38732 0.38746 0.77463-0.38746h0.77463 0.77463 0.38732 0.77463 0.38732 0.38731l0.38732-0.38746 0.38731 0.38746 0.77464 0.38746 0.38731 0.38746 0.387323-0.38746 0.38731-0.38746h0.77464l0.77463 0.38746h0.38731v-0.38746l0.77464-0.38746 1.93658-0.77492v-0.38746h0.38731v-0.77493-0.77492l0.38732-0.77492v-0.38746l0.77463-1.16239 0.38731-0.38746 0.38732-0.38746v-0.38746l0.38732-0.38746h0.38731v0.38746l0.38732 0.38746 0.38731 0.38746h0.38732 0.77463 0.77463l0.38732-0.38746 0.38732-0.77492v-0.38746h0.38731 0.38732 0.38731l0.38732 0.38746v0.38746h0.38732 0.38731l0.38732 0.38746h0.38731l0.38732-0.38746v-0.38746l0.38732-0.38746h0.38731 0.77463 0.38732 0.38731l0.77464 0.38746 0.38731 0.38746h0.38732 0.77463l0.38732 0.38746v0.77492l1.16194 1.16239h0.38732 0.38732l0.38731 0.38746h0.38732v0.77492h0.38731l0.38732 0.38746h0.38732 0.38731l0.38732 0.38746 0.38731 0.38746v0.38747l0.38732 0.38746h0.38732 0.38731 0.77463 0.38732l1.16195-0.38746h0.38731 1.16195 0.77463 0.38732 0.38731v-0.38747-0.38746l-0.38731-0.38746 0.38731-0.38746h0.77464 0.38731l0.38732 0.38746 0.38731 0.38746v0.38746l0.38732 0.38747v0.38746l0.38732 0.38746h0.38731v0.38746l0.38732 0.38746h0.38731l0.38732-0.38746v-0.38746l0.38732-0.38746 0.77463-0.38746h0.38731l0.38732-0.77493v-0.38746h-0.38732v-0.77492h0.38732l-0.38732-0.38746h-0.38731v-0.38746-0.38746-0.38747l-0.77463-0.77492h-0.38732-0.38732v-0.38746l0.38732-0.38746h0.38732l-0.77464-0.38746 0.77464-1.16239h0.38731v0.38747h0.77463 0.38732l0.77463-0.38747h0.38732l0.38731-0.38746 0.38732-0.38746 0.38731 0.38746 0.77464-0.77492h0.38731l-0.38731-0.38746 0.38731-0.38746 0.38732-0.38746 0.38731 0.38746 0.77464 0.77492h0.38731 0.38732l1.54926 0.38746h1.16195l0.38732 0.38746v-0.77492-0.38746-0.38746-0.38746l-0.77464-0.38746h-0.38731v-0.38747-0.38746l-0.38732-0.77492-0.38731-0.38746h-0.77464-0.38731l0.38731-0.38746v-0.38746h0.38732l0.38732 0.38746 1.54926-0.77492 0.38732 0.38746h0.38731l0.38732 0.38746 0.77463 0.38746v0.38746h-0.77463l0.38731 0.38746 0.38732 0.38746 0.38731 0.38746 0.77464 0.38747h0.77463v-0.38747h0.77463l0.38732 0.38747h0.38731v-0.38747h0.38732v-0.38746l0.38731 0.38746 1.16195 0.38747v0.38746l0.38732 0.77492v0.38746l0.77463-0.38746h0.77463 0.38732l0.38731 0.38746h0.38732l0.38732 0.38746v0.38746 0.38746h0.38731 0.38732 0.38731l0.77464 0.38747h0.38731l-0.38731-0.77493 0.38731 0.38746-0.38731-0.77492v-0.38746l0.38731-0.38746h-0.38731v-0.38746h-0.38732l-0.38732-0.38746v-0.38746-0.77493l0.77464 0.38746h0.38731l0.38732 0.38747h0.38731v0.38746h0.38732 0.38731l0.38732-0.38746 0.38732 0.77492h0.38731l0.38732 0.38746 0.38731-0.38746 1.16195-0.38746v-0.38746-0.38747h0.38732l0.38731-0.38746h0.38732 0.38732l0.38731-0.38746v-0.38746h0.38732l0.38731-0.38746v0.38746h0.38732l0.38732-0.38746 0.77463-0.38746 1.93658-0.77492h0.38731 0.38732v-0.38746l0.77463-0.38747 0.77463-0.38746h0.38732l0.38731-0.38746v0.38746h0.38732 0.38732v0.38746l0.38731 0.38747 0.77463 0.77492 0.77464-0.38746v-0.38746h0.38731l0.38732-0.38747h0.38731v-0.38746l0.38732-0.38746h0.38732l0.77463-1.16238 0.38731-0.38746v-0.38746-0.38747-1.16238l0.77464-0.38746h0.77463l0.38731-0.77492-0.38731-0.38746v-0.77493-0.38746l-1.16195-0.38746h0.38732l-2.3239-1.54984-0.38732-0.38747-0.38731-0.77492-1.93658-0.77492h-1.54927v-0.38746-0.77492-0.38747l0.38732-0.38746v-0.38746-0.38746h1.16195l1.54926-0.77492v-0.38746-0.38746-0.38747h0.38732v-0.38746l0.38731-1.54984h-2.32389-0.38732l-1.54926-0.77492h-0.38732-0.77463l0.77463-1.16239v-1.16238-0.38746-0.38746l-1.16195-0.77493h-0.38731l-0.38732 0.77493v-0.38747l-0.38731-0.38746-0.38732 0.38746-0.38731 0.38747v0.38746l-0.38732-0.38746-0.38732-0.38747 0.38732-0.38746-0.77463-0.38746h-0.38732l-1.54926 0.38746-1.93658-0.38746h-0.38732l-0.77463 0.38746-0.38732-0.38746h-0.38731v-0.38746l-0.38732-0.38746v-0.77492h-0.77463v-0.38746h-0.38732v-0.77493l-1.16194-0.77492-0.38732-0.77492v-0.38746-0.38746h-0.38731-0.77464-0.38731-0.38732v-0.38746l-0.38731 0.38746h-0.38732-0.77463l-0.38732 0.38746h-0.38731v0.77492h-0.77464v0.38746h-1.16194v-0.38746h-0.38732-0.38732-0.38731l-0.38732 0.38746-0.38731-0.38746h-0.38732-0.77463-0.38732-0.38731-0.38732v0.38746l-0.38732-0.38746h-0.38731-0.77463v-0.38746h-0.38732l-0.77463 0.38746v0.38746l0.38732 0.38746-0.38732 0.38746v-0.38746-0.38746h-0.38732-0.38731l-0.38732-0.77492v-0.38746l0.38732-0.38746h0.38731v-0.38746h-0.38731-0.38732-0.38731l-0.38732-0.38747v-0.38746-0.38746-0.38746l-0.38732-0.38746-0.38731-0.38746v-1.16239h-0.38732v-0.38746-0.38746h-0.38731-0.38732-0.38732v-1.16238-0.38746h-0.38731-0.38732v-0.38746h0.38732v-0.77493-0.77492-0.77492h0.38731l0.38732-0.38746h0.38732l-0.38732-0.38746h-0.38732l-0.38731-0.38747v-0.38746h0.38731v-0.387459h0.77464l0.77463-0.38746h0.38731v-0.38746h0.38732v-0.77492-0.38746-0.38747h-0.38732l-0.38731-0.38746v-0.77492-0.38746l0.38731-0.38746v-0.77492l-0.38731-0.38747-0.38732-0.38746v-0.77492l-0.38731-1.16238v-0.38746l-0.38732-0.38747-1.16195-0.38746-0.38731-0.38746v-0.38746-0.38746l-0.77464-0.77492h-0.38731l-0.38732-0.38746-0.38731 0.38746h-0.38732-0.38732l-0.38731 0.38746-1.54926 1.54984-0.38732 0.38746-0.38732-0.38746v-0.38746l-0.38731 0.38746-0.38732 0.38746-0.77463 0.38747v-0.77493l-0.77463-1.16238-0.38732-0.77492-0.77463-1.16239-0.38732-0.38746zm-12.7814 13.9486-0.77463-0.38746 0.38731 0.38746h0.38732z" fill-rule="evenodd"/>
 <path id="Utrecht" d="m87.4655 105.881v0.38746h-0.38731v0.38746 0.38747l-0.77464-0.38747v0.38747l-0.77463 0.38746v0.38746h-0.38731-0.38732-0.38732l-0.77463-0.38746-0.38731 0.38746v0.38746l0.38731 0.38746-0.38731 0.38746-0.38732 0.38746v0.38746h-0.38731-0.38732v0.38747l-0.38732-0.38747h-0.38731-0.38732l-0.38731 0.38747-0.77464 0.38746v0.38746h-0.38731l-0.38732 0.38746h-0.38731v0.38746h-0.38732l-0.38732 0.38746h-0.38731-0.38732-0.38731v0.38746l0.38731 0.38746v0.77493 0.38746h0.38732v0.38746l0.38731 0.38746h0.38732v0.38746l0.38732 0.38746 0.38731 0.38746h0.77463l0.38732 0.38746 1.54926 1.16239-1.16194 0.38746v1.54984h-0.38732-0.38732-0.77463-0.38731v-0.38746h-0.77464l-0.77463 0.77493h0.38732l-0.38732 0.38746v0.38746h-0.38731-0.38732v0.38746l1.54926 0.77492 0.38732 0.38746h-0.38732v1.16239l0.38732 1.16238v0.38746h0.38732l-0.38732 0.38746h0.77463 1.54927l-0.38732 0.38746-0.38732 0.38747h-0.38731l-1.16195 0.77492-0.38732 1.16238-0.38731 0.38746h-0.38732v0.38746l-0.38731 0.38747 0.38731 0.77492h0.38732l0.38731-0.38746h0.38732 0.38732 0.38731 0.38732l0.38731 1.16238h-0.38731l-1.54927 0.38746 0.38732 0.38746 0.38732 0.77493 0.38731 0.77492 0.38732 0.38746 0.38731 0.38746 0.38732 0.38746v0.38746l0.38732 0.38746v0.77493 0.38746h0.38731 0.77463 0.38732l0.38732-0.38746h0.38731v-0.38746h0.38732l-0.00974-0.41037 0.3 0.3 0.4 1.6 0.2-0.3 0.2-0.2 0.4 1.5 0.4 0.2v0.3l0.4 0.2v1l1.1-0.5v0.6l0.1 0.5v0.7l-0.1 0.3 0.1 0.3 1.4-0.7-0.1 0.9 0.3 0.9-0.05516 0.55959 1.16195-0.38746 0.38732 0.38746h0.38731v-0.38746l-0.38731-0.38746v-0.38746-0.38747h0.38731 0.38732 0.38732l0.38731-0.38746v-0.77492h0.38732 0.77463 0.38732v-0.38746l0.38731-0.38746 0.38732-1.16238v-0.38747h0.38731l0.38732-0.77492 0.38732-0.38746h-0.38732l0.38732-0.38746 0.77463-0.77492 0.38731-1.16239 0.38732-0.77492 0.38731 0.38746 0.38732 0.38746h0.38732 0.38731l0.38732-0.38746 0.38731-0.38746v-0.77492h0.38732 0.38732l0.774633 0.38746 0.77463 0.77492h0.38732 1.16194l0.77464 0.77492h0.38731l0.38732-0.38746h0.38731v-0.38746l0.38732-0.38746h0.38732l0.38731-0.38746 0.77463 0.38746h0.38732l0.38731-0.38746h0.38732l0.77463-0.38746h0.38732l0.38731-0.38746 0.38732-0.38746h0.38732l0.38731 0.38746h1.16195 0.38732 0.38731l0.38732 0.38746 0.77463 0.38746h0.38732l0.38731 0.38746h0.38732 0.38731l0.38732 0.77492 0.77463 0.38746 1.16195 0.38747 0.77463 0.38746 0.77463-0.38746 0.38732-0.38747v-0.38746-0.38746l-0.38732-0.38746 0.38732-0.38746-0.38732-0.38746v-0.38746l-0.38731-0.77493v-0.38746h-0.38732l-0.38732-0.38746-0.38731-0.38746v-0.38746-0.38746-0.38746-1.16239l-1.16195-0.77492h0.38732v-0.38746h-0.77463v-1.93731-0.38746l0.38731-0.38746-0.38731-0.38746v-0.38746-0.38746-0.38746l-0.38732-0.77493-1.16195 0.38746 0.38732 0.38747v0.38746 0.38746h-0.38732v0.38746l-0.38731 0.38746h-0.38732l-0.38732 0.38746-0.38731 0.38746h-0.38732-0.38731l-0.77464-0.38746-0.38731-0.38746v-0.38746h0.38731l0.77464-0.77492v-0.38746-0.77493l0.38731-0.38746v-0.38746h0.38732 0.38731v-0.38746h-0.38731v-0.38746-0.38746h0.77463v-0.38746-0.38747h-0.77463v-0.77492h-0.38732-0.38731v-0.38746-0.38746l-0.38732-0.38746h0.38732v-0.38746h-1.93658l-0.38732-0.38746v-1.16239-0.38746-0.38746-0.38746-0.38746l-1.54926-1.16239v0.38746l-0.77464-0.38746v-0.38746l0.38732-1.9373-0.38732-0.38746-0.38731-0.38747-0.38732-0.38746h-0.38731v-0.38746l-0.38732-0.38746h-0.38731-0.38732-0.38732l-0.38731-0.38746h-0.77463l-0.38732-0.38746h-1.54926l-0.77464-0.38746-1.16194 2.32476v0.38747 0.38746l-0.38732 0.77492-0.38732 1.16238-0.38731 0.77492v0.77493l-0.38732 0.38746v0.38746l-0.77463 1.54984h-0.77463-0.38732-0.38731l-2.3239-0.38746h-0.38731l-1.93658 0.77493-1.54927 0.38746v-1.54985h-0.38731v-0.77492-0.38746h-0.38732l-0.38732-0.38746h0.77464v-0.38746-0.38747-0.77492-0.77492h0.38731l0.77463-0.38746-0.77463-0.38746v-0.77492-0.38747h-0.38731v0.38747l-0.38732-0.38747-0.38732-1.16238v-0.38746h0.38732 0.38732v-0.38746h0.38731 0.38732v-0.38746h0.38731 0.38732l-0.38732-0.38746h-0.38731l-0.38732 0.38746h-0.38731l-0.38732-0.38746-0.38732 0.38746v-1.54985h-0.38731-0.38732z" fill-rule="evenodd"/>
 <g id="Noord-Holland" fill-rule="evenodd" style="">
  <path id="path415" d="m71.9729 49.6993-0.77464 0.38746-0.38731 0.38747h-0.38732v0.38746h-0.38731l-0.38732-0.38746v-1.16239h1.16195l1.16195-0.38746h0.77463v0.38746z"/>
  <path id="path325" d="m73.9095 50.4742-0.77463 1.16238v1.54984l-0.38731 1.16239v2.71223l-0.77463 2.32476-0.38732 2.32477-0.77463 2.32477v0.77492h-0.38732v0.77492l-0.77463 1.54985v0.77492l-0.77463 2.32477v2.71223l-0.38732 1.54984v1.54985l-0.38731 1.54984v1.93731l-0.38732 0.38746v0.38746l-0.38732 2.71223-0.38731 3.48715-0.38732 1.93731-0.38731 0.77492-0.77464 1.54984-0.38731 1.16239 0.77463-0.38746h0.38732l0.77463-0.38747 0.38731 0.38747h-0.38731v0.38746h-0.77463l-0.38732 0.38746h0.77463v0.38746l-0.77463-0.38746h-0.38732v0.38746l-0.77463-0.38746v0.77492l0.38732 0.77492-0.38732 0.38746v0.77493l-0.38731 0.77492-0.38732 1.54984-0.38732 1.16239-0.77463 1.9373-1.54926 3.09969 2.71121 1.16239 1.16195 0.38746v-0.77492l0.38731 0.38746 0.38732-0.38746h0.77463l0.77463 0.38746-0.38731 0.77492-0.38732 0.38746v0.77492h-0.38731v0.77493l-0.77464 0.77492-0.38731 0.38746v1.93731l-0.38732 0.38746v0.38746h-0.38731v1.16238h0.38731l0.38732 0.38746h0.38731l0.38732-0.38746 0.77463 0.38746h1.93658l0.38732-0.38746 0.77463-0.38746h0.38732v-0.38746l0.38731 0.38746h0.77463l0.77464-0.77492 1.16194 0.38746-0.38731 1.16238 0.77463 0.77493 0.38731-0.77493h1.16195l0.38732-0.38746v-0.38746h2.32389l0.38732-0.38746h0.38732v-0.38746h0.38731l0.38732-0.38746h0.38731v-0.38746l0.77464-0.38746 0.38731-0.38747h0.77463l0.38732 0.38747v-0.38747h0.77463v-0.38746l0.38732-0.38746 0.38731-0.38746-0.38731-0.38746v-0.38746l0.38731-0.38746 0.77463 0.38746h1.16195v-0.38746l0.77463-0.38746v-0.38747l0.77464 0.38747v-0.77493h0.38731v-0.38746h0.77463v1.54985l0.38732-0.38746 0.38732 0.38746h0.38731l0.38732-0.38746h0.38731l0.38732 0.38746h-0.77463v0.38746h-0.77463v0.38746h-0.77464v0.38746l0.38732 1.16238 0.38732 0.38747v-0.38747h0.38731v1.16239l0.77463 0.38746-0.77463 0.38746h-0.38731v2.32477h-0.77464l0.38732 0.38746h0.38732v1.16238h0.38731v1.54985l1.54927-0.38746 1.93658-0.77493h0.38731l2.3239 0.38746h1.54926l1.16195-2.32476v-0.77493l0.38731-0.77492 0.38732-1.16238 0.38732-0.77492v-0.77493l1.16194-2.32476 0.77464 0.38746h1.54926l-0.77463-0.77492v-0.38747l0.38731-0.38746h-0.77463l-0.38731-0.38746h-0.38732l-0.38732-0.38746h-0.38731v-0.38746l-0.387323-0.38746-0.38731 0.38746h-2.3239l-0.38732 0.38746h-0.38731l-0.38732 0.38746h-0.38731v-0.38746h-0.38732l-0.38731-0.38746-0.38732-0.38746-0.38732-0.77492h-0.38731v-0.38747h-1.16195l-0.38732-0.77492h-1.93658l-0.77463 0.38746-0.38731-0.38746v0.38746h-0.38732v-0.38746h0.38732v-0.38746l-0.38732-0.38746h-0.38732l-0.38731 0.38746h-0.77463v-0.38746h0.38731v-0.77492l-0.77463-0.38746h-0.38732v0.38746h-0.38731l-0.38732-0.38746h-0.38731v-0.38747h0.77463l0.38731-0.38746-1.16194-0.774919v-0.38746l0.77463 0.38746 0.38731 0.38746h0.38732l0.38732-0.38746v0.38746l0.38731 0.387459 0.38732-0.387459v-0.77492h0.38731l0.38732-0.38746v-0.77492l0.77463-0.77493 0.38732-0.38746h0.77463v-0.38746l0.38732-0.38746v-0.38746l0.77463-0.77492h-0.77463l-0.38732-0.38747v0.38747l-0.77463-0.38747v-1.16238l0.38731-0.38746v-0.38746h-0.38731l-0.38732 0.38746-0.38731-0.38746 0.77463-0.38746h0.77463v-0.38746l-0.38732-0.38747v-0.77492l0.38732-0.38746 0.38732 0.38746v-0.38746l0.38731-0.38746 0.38732-0.77492h-0.38732v-0.77493h-0.38731v-0.38746l-0.38732-0.38746v-0.38746l-0.38732-0.77492v-0.38746l-0.77463-1.16239v-0.38746l-0.38731-0.38746v-0.77492l-0.38732-0.77492v-0.38746l-0.38732-0.38747 0.38732-0.38746-0.38732-0.38746v-2.32477h0.38732v-0.38746h0.38732l0.38731-0.38746h0.77463v0.38746l0.38732 0.38746v-0.38746l0.38732-0.38746h1.16194l0.77464 0.77492h0.38731l0.38732 0.38747v0.38746h1.54926l0.38732-0.38746 0.77463-0.77493h1.16195v-0.38746l0.38731-0.38746h0.38732v-0.38746l0.77463-0.38746v-0.38746l0.38732-0.38746v-1.16239l0.38731-0.77492h1.16195l0.38732-0.38746h0.38731l-0.38731-0.38746h0.38731l0.38732-0.38746 0.38731-0.38747-0.38731-0.38746-0.38732-0.38746v-2.32477h-0.38731l-0.38732-0.38746-0.77463-0.38746h-1.54927l-0.38731-0.38746h-1.16195l-0.38732 0.77492-0.38731 0.38746v0.38747l-0.38732-0.38747h-1.16194l-0.77464-0.77492-0.38731-0.38746-0.38732-0.38746 0.38732-0.77492h-0.38732l-0.38731-0.38746h-0.38732l0.77463-5.81192-0.77463-1.16239-1.16195-2.32476v-0.38746l-0.38731-0.38747-1.16195-2.32476h-0.38732v-0.77493l-0.38731-0.38746h-0.38732l-0.38732 0.38746h-0.38731l-0.38732-0.38746h-0.38731l-0.38732 0.38746h-0.77463l-0.77463 0.77493v0.38746l-0.77464 1.16238h-0.38731l-0.77463 0.38746-0.38732 0.38746-1.54926 0.77493-0.38732-0.38746-1.16195-0.77493h-0.38731l-1.16195-0.77492-0.38732-0.38746-0.38731-0.38746-0.38732-0.77492v-1.54985l0.38732-0.77492v-0.38746h-0.38732v0.38746h-0.77463v-0.77492h-1.93658zm3.48585 0.38746v-0.38746h-0.38732zm12.0068 2.32476 0.38732 0.38747v-0.77493h-0.38732zm-3.48584 47.2703v0.38747h0.38731zm6.58437-8.52414v0.77492l-0.38732 0.77492h0.38732l0.38732-0.38746h0.38731l0.38732-0.38746h0.38731v-0.38746l-0.77463 0.38746-0.38731-0.38746zm10.4575 13.5611v0.38746h0.38732z"/>
  <path id="path417" d="m80.4938 43.8874-0.77464 0.77493-0.38731 0.38746h-1.16195l-1.16195 1.54984v0.77493h-0.77463l-0.38732-0.38747-0.77463-0.38746h-0.38731l1.16194 1.16239h0.38732-0.77463v0.38746h-1.16195 0.38732l-0.38732 0.38746h-0.38732l-0.38731 0.38746h-0.38732v-1.16238l-0.38731-1.54985v-1.16238l0.38731-1.16239v-0.38746l0.38732-1.16238 0.38731-1.16238 0.38732-1.16239 0.38732-0.38746 0.77463-1.16238 0.77463-1.54985 1.16195-1.16238v0.77492l0.38731-0.38746 0.77464-0.77492h0.38731v0.38746-0.38746h-0.38731v-0.38746l-0.38732 0.38746-0.77463 0.38746 1.16195-2.32477 0.38731-0.38746 0.77463-0.38746v-0.38746h0.77464l0.38731 0.38746 0.38732 0.38746v0.77492h0.38731-0.38731v0.38746l0.77463 0.77493 0.77463 1.16238v0.38746l-0.38731 0.38746v3.87461l-0.38732 0.77493h-0.38732l-0.38731 0.38746v0.77492l-0.77463 0.77492z"/>
  <path id="path433" d="m95.9865 47.762-5.42242 4.64953-0.38732 0.38746h-0.38731v-0.38746h0.77463z"/>
 </g>
 <path id="Limburg" d="m132.007 149.664-0.38731 0.38746 0.38731 0.38746v0.38746 0.38747h-0.38731l0.38731 0.38746h0.38732v0.38746 0.38746l0.38732 0.77492v0.77492l0.38731 0.38747h0.77463l0.77464 0.38746h0.77463l0.38731 0.38746h0.38732l0.38732 1.16238v0.77492 0.38747h0.38731v0.77492 0.38746 0.38746 1.16238l0.38732 0.38747v0.38746l1.16194 0.38746 0.77464 0.77492 0.38731 0.38746v0.38746l0.38732 0.38746v1.16239 0.38746l0.38731 0.38746 0.38732 0.77492v0.38746 0.38746 0.38747 0.38746l0.38732 0.38746h-0.38732-0.38732v0.38746l-0.77463-0.77492-0.38731-0.38746h-0.38732v-0.38747l-0.77463 0.38747-0.77463 0.38746-1.16195 0.38746-0.77463 0.38746h-0.77463-0.77464l-0.77463-0.38746-1.16195-0.38746-1.54926-0.38746 0.38732 3.48715 0.38731 1.16238v0.77492l0.38732 0.77493 0.77463 3.48715v0.38746l1.54926 2.71223 0.77464 1.54984 0.77463 1.16239-0.77463 0.38746-1.93658 1.9373h-0.38732l-0.38732 0.38746h-0.38731l-1.16195 0.38747-3.09853 0.77492-0.38731 0.38746h-0.38732l-0.77463 0.38746-1.93658 0.38746h-0.38732l-1.54926 0.77492-1.16195 1.16239-0.38731 0.77492-0.77464 1.54984-0.38731 1.93731v1.54985l-1.16195 0.38746h-0.38732l-1.16194 0.38746 0.77463 0.38746 3.09853 1.16238 0.38731 0.38746v0.38747l0.38732 0.77492 0.38731-0.38746 0.38732 0.38746h0.38732 0.38731 0.77463 0.38732 0.38732 0.77463l0.38731-0.38746h0.38732l0.38732 0.38746h0.77463l0.38731 0.38746v0.38746h0.38732l-0.38732 0.38746h-0.38731v0.38746h0.38731v0.38746 0.38747 0.38746h0.38732v-0.38746h0.38731 0.38732v-0.38747h0.38732 0.38731v-0.38746l0.77463-0.38746v0.38746h0.38732v0.77493l1.16195 0.77492-0.38732 0.38746-0.38731 0.38746v0.38746l-0.77464 0.38746h-0.38731v0.38746l-0.77463 0.77493 0.38731 0.38746h0.77463l0.38732 0.38746v0.38746l-0.38732 0.38746v0.38746h-0.38731l-0.38732-0.38746h-0.38731-0.38732v0.38746 0.38746l0.38732 0.38747v0.38746h-0.38732v0.38746l0.38732 0.77492h-0.38732v0.38746h-0.38732l-0.77463-0.38746-0.38731 1.16238v0.77493l-0.38732 0.38746v0.38746h0.38732l0.38731 0.38746v0.38746l-0.38731 0.77492v0.38747 0.38746 0.38746l-0.38732 0.38746-0.38731 0.38746-0.38732 0.77492h-0.38732l-0.38731 0.77493-0.38732 0.77492v0.38746h0.38732 0.38731l0.38732-0.38746h0.38732l0.38731 0.38746v0.38746l-0.77463 0.38746v0.38746 0.38746l-0.77463 0.77493v0.38746l-0.38732 0.38746 0.38732 0.38746-0.38732 0.38746h-0.38731-0.38732-0.38732l-0.38731 0.38746v0.38746 0.38746l-0.77463 0.77493v0.38746h-0.38732l-0.38732 0.38746h-0.38731v0.38746h-0.38732-0.38731l0.38731 0.38746-0.38731 0.38746v0.38746 0.38747 0.38746 0.38746 0.38746 0.38746h0.38731v0.38746 0.38746h0.38732v0.38746l0.38731 0.38747h0.38732 0.38732v0.38746h0.77463l0.38731 0.38746v0.38746l-0.38731 0.38746 0.38731 1.16238v0.77493l-0.77463 1.16238v0.38746h0.38732 0.38731l0.38732-0.38746h0.38732l0.38731-0.38746v0.38746l0.38732 0.38746h0.38731l0.38732-0.38746v-0.38746l0.38732-0.38746 0.77463-1.16239h0.77463v0.77493l0.38731 0.77492 0.38732-0.38746 0.77463 1.16238h0.38732l0.38731-0.38746 0.38732 0.38746 0.38732-0.38746 0.38731-0.38746v0.38746 0.77492l0.38732-0.38746 0.38731-0.38746v-0.38746h0.38732 0.38732l0.77463-0.38746v0.38746 0.77492l0.77463 0.38746v-0.38746h0.38732 0.38731v0.38746l0.77463-0.38746 0.38732-0.38746h0.38732 0.38731 0.38732 0.38731l0.38732 0.38746 0.77463 0.38746h0.38732v-0.38746h0.77463 0.38731v-0.77492l0.38732-0.77492-1.16195-0.77493h-0.38731l-0.38732-0.38746v-0.38746h-0.38732l-0.38731-0.38746v-0.38746-0.38746l0.38731-0.38746 0.38732 0.38746 0.77463 0.38746 0.38732-0.77492 0.38731-0.38746v-0.38747h0.38732l-0.38732-0.38746v-0.38746l-0.38731-0.38746v-0.38746-0.38746l0.38731-0.38746h0.77464l0.38731-0.38746h0.38732v-0.38747h0.38731v0.38747l0.77464 0.38746v-0.77493-0.38746h0.38731v-0.38746l0.38732-0.38746v-0.77492l-0.38732-0.38746v0.38746l-0.38731-0.77492v-0.38747-0.38746l0.38731-0.38746v-0.38746l0.38732-0.38746v-0.38746l-0.38732-0.38746h-0.38731-0.38732-0.77463v-0.38746-0.38747l-0.38732 0.38747-0.38731-0.38747-1.16195-0.38746v-0.77492-0.38746l-0.77463-0.38746 0.38731-0.38746h0.38732v-0.38746l0.38731-1.54985h-0.38731-1.54927-0.38731l-0.38732 0.38746h-0.38731l-0.38732-0.38746v-0.38746h-0.38731l-0.77464 0.38746h-0.38731l-0.38732 0.38746h-0.38731l-0.38732 0.38746h-0.38732l-0.38731-0.38746 0.77463-0.77492v-1.16238h-0.38732l-0.38731-0.38746v-0.38747h-0.38732v-0.38746h-0.38731v-0.38746-0.38746-0.38746-0.77492l-0.38732-0.38746-0.38732-0.77493h0.38732 0.77463 0.38732v-0.38746l0.77463-0.38746 0.38732-0.38746v0.38746l0.77463 1.16238 0.38731 0.77493v0.38746l0.38732-0.38746h0.38732v0.38746h0.38731v-0.38746l0.38732-0.38746v-0.38747l0.38731-0.38746v-0.38746-0.38746l0.38732-0.38746v-0.38746l0.38731-0.38746v-0.38746l0.38732-0.38747 0.77463-0.38746 0.38732-0.38746 0.77463-0.38746h0.38732l0.38731-0.38746 0.38732-0.38746v-0.38746l0.38731-0.38746h0.38732 0.38732l0.38731-0.38747v-0.38746-0.38746l0.38732-0.38746h0.38731 0.38732l0.38732-0.38746h0.38731v-0.38746h0.77463l0.38732-0.38746h0.38732 0.77463l-0.38732-0.38746h0.38732l0.38731-0.38747-1.54926-1.16238h-0.38732l2.3239-1.16238-0.77463-0.77493-2.3239 1.16239-0.38731 0.38746-0.38732 0.38746h-0.38732-0.38731-0.77463v-0.38746l-0.38732-0.38746v-2.71223l-0.38732-0.38746 0.38732-0.38746h0.77463l-0.77463-1.54985 0.77463-0.38746 0.38732-0.77492 1.54926-1.54985v-0.38746l0.38732-0.38746 0.77463-1.16238 0.38732-0.77492v-0.38747l0.38731-0.38746v-0.38746-0.38746l0.38732-0.38746v-0.38746h0.38731 0.38732 0.38731v-0.38746l1.93658-1.93731-0.38731-1.16238-0.38732-0.77493v-0.38746l0.38732-0.38746 0.38731-0.38746h-1.16194v-0.38746l0.38731-2.32477v-1.16238h0.38732l-0.38732-0.77492 0.38732-0.38747v-1.16238l-0.38732-0.77492-0.38731-0.77492 0.38731-0.77493-0.38731-0.38746v-0.77492-0.38746l-0.38732-0.77492-0.77463-0.38747-0.77463-0.38746-0.77463-2.32476-0.77464-0.38747-0.38731-0.38746-0.38732-0.38746-0.38731-0.77492v-0.38746h-0.38732l-1.16195-0.77492v-0.77493-0.77492h0.38732v-0.38746l0.38731-1.16238v-0.38746l0.38732-0.38747v-0.38746l-0.77463-0.38746h-0.38732-0.38731v-0.38746h-0.38732-0.38732l-1.93658-0.77492-0.38731-0.38746v-0.38746-0.38747l0.38731-0.38746-0.38731-0.38746v-0.38746-0.77492h0.38731 0.38732v-0.38746h-0.38732v-0.38746-0.38747h-0.38731l-1.16195-0.77492-0.38732-0.38746h-0.77463-0.38731-1.16195v-0.38746l-0.38732 0.38746h-0.38731l-0.38732-0.38746v-0.38746h-0.38731l-0.38732-0.38746v-0.38746l-0.38732-0.38747v-0.38746l-0.38731-0.38746-0.38732-0.38746h-0.38731-0.77464z" fill-rule="evenodd"/>
 <g id="Flevoland" fill-rule="evenodd" style="">
  <path id="path41" d="m119.613 80.3088-0.38731 0.38746-2.71121 0.77492h-0.38732l-0.38731 0.38747-3.09853 2.71222v0.38747h-2.3239v0.38746l-0.38731 1.16238v-0.38746l-0.38732 0.77492v1.54985l-0.77463 0.38746h-0.38732l-0.38731 0.38746-0.38732 0.77492h-0.77463v0.38746l-6.58437 4.26208-1.16195 0.77492v0.38746h-0.38732v0.38746h-0.61728l-2.48124 1.54985-0.38732 0.38746-1.54926 1.16238h-0.38732v0.38746l0.77463 0.774919v1.93731l-0.38731 0.38746h0.38731l0.38732 0.77492h-0.38732l0.38732 0.38747 0.38732-0.38747h0.38731l1.54926-0.38746h0.77464l0.38731 0.38746h1.54927l1.16194 0.38747 0.77464 0.77492 1.16194 0.38746 0.77464 0.77492 3.48584 3.09969 0.38731 0.77492h0.38732l0.77463 0.38747 0.77463-0.38747 1.93658-0.77492h1.16195l0.38732-0.38746 1.16195-0.38746h0.38731l0.38732-1.54985 0.38731-0.38746v-1.16238h0.38732v-1.93731h-0.38732v-0.38746l-0.38731-0.77492 0.38731-0.38746 1.16195-1.16239 0.77463 0.38747 1.16195-0.38747h0.38732l0.38731-0.38746h-0.38731l0.38731-0.387459 0.38732-0.38746 0.38731-0.38746 1.16195-1.16238 3.09853-1.54985h0.77463l0.38732 0.38746h0.38731l1.54927-1.16238 0.38731-0.77492 0.77463-0.77493 0.38732-0.77492 0.38732-0.38746 0.38731-0.77492 1.16195-2.32477 0.38732-0.77492v-3.09969l-0.38732-0.77492-1.93658-1.93731v-0.38746h-2.71121l-1.54926-0.38746-3.48585-1.16239h-0.38731l-0.38732-0.77492zm-21.5323 15.8859 0.61728-0.38746-0.77463 0.38746z"/>
  <path id="path151" d="m123.873 60.5482 0.38732 0.77492-0.77464-0.38746v0.38746h-0.38731l-1.93658 0.38746h-0.38732v0.38746l-1.16195 1.93731-1.93658 3.09969v0.38746l-0.38731 1.16238v7.36177h0.38731l0.77464 0.77492 0.77463 1.16238 1.16195 1.54985 0.38731 0.38746h9.29558l3.09853-0.77492 0.38732 0.38746 0.38731 0.38746 0.77464-0.38746h0.38731l0.77463-0.38746v-0.38746l1.16195-0.38747h0.38732l1.16194-0.77492 0.38732-0.38746-0.38732-0.77492h-0.77463l-0.38731-0.38746-0.38732-0.38746-0.77463-0.38747h-0.38732l-0.77463-0.38746v0.38746h-0.38731v-0.77492l0.38731-0.38746 0.38732-0.38746 0.77463-0.38746v-0.77492l-0.38732-0.38747v-0.38746l-0.38731-0.38746h-0.38732v-0.38746l-0.77463-1.54984-0.38732-1.16239-0.77463-0.77492h-0.38731l-0.38732-0.38746-0.38732-0.77492-1.16194-0.38747-0.38732-0.38746h-1.54926v-0.38746l-0.77464-0.77492-0.38731-0.77492-0.38732 0.38746v-0.38746l-0.38731-0.77493-1.54927-1.9373h-0.38731z"/>
  <path id="path261" d="m124.648 80.6962h0.77463l0.38732 0.38746-0.38732 0.38746h-0.38731v0.38747l-0.38732-0.38747v-0.38746h-0.38731v-0.38746z"/>
  <path id="path861" d="m101.796 73.3345h0.77463l2.71122 1.16238 0.38731 0.38746 1.93658 1.93731 0.77463 1.16238v0.38746l1.93658 3.09969 0.77463 1.93731v0.38746h-0.38731l-0.38732 0.38746-0.77463 0.38746-0.38732 1.54985-0.38731 0.77492h0.38731l-0.38731 0.77492v-0.77492l0.38731-0.77492 0.38732-1.54985 0.38732-0.38746 0.77463-0.38746h0.38731v-0.38746l-0.77463-1.93731-2.71121-4.64953-1.93658-1.93731-0.38731-0.38746-2.3239-1.16238-0.38732 0.77492h-1.16194 0.38731l0.38732-0.38746 0.38731-0.38746h-0.38731z"/>
 </g>
 <g id="Friesland" fill-rule="evenodd" style="">
  <path id="path651" d="m95.9865 47.762 1.54927-1.54985 0.38731-0.38746 4.26048-3.87461h0.38731l1.16195-0.38746h0.38732v-0.38746 0.38746l0.38731 0.38746-0.38731-0.38746h-0.38732l-0.77463 0.38746h-0.77463l-3.48585 3.48715-0.38731 0.38746h-0.38732l-0.38731 0.38746z"/>
  <path id="path649" d="m106.057 42.3376v-0.38746l-0.38732-0.77492h0.38732v0.38746h0.77463v0.77492h0.38731v0.77492h-0.38731l-0.38732-0.38746z"/>
  <path id="path55" d="m146.338 12.8905-1.93658 0.77492h-0.38731l-0.77463-0.38746h-1.16195v0.38746h-0.77463l-0.38732-0.38746-1.54926 0.38746h-1.16195l-0.38732 0.38746-1.54926 0.38746h-0.77463l-1.54927 0.77492h-1.93658v-0.38746l-0.38731-0.38746v0.77492l-0.77463 0.38746-0.77464 0.38747-0.38731 0.38746-0.77463 0.38746-0.38732 0.38746-0.77463 0.38746h-0.77463l-1.16195 0.77492-1.54926 0.77493-0.77464 0.38746-1.93658 1.16238h-1.16194l-0.38732 0.38746-0.77463 0.38746h-0.38732l-0.38731 0.38746-0.77464 0.38747-0.77463 0.38746-0.38731 0.38746-0.77463 0.77492-0.38732 0.77492-0.38732 0.38746v0.38747h-0.38731v0.38746l-0.77463 0.38746-0.38732 0.38746h-0.38732l-0.77463 0.77492-0.38731 0.38746h-0.38732l-0.38732 0.38746-0.38731 0.77493h-0.38732l-0.38731 0.38746-0.38732 0.77492-0.38732 1.16238-0.38731 0.38747v0.38746h0.38731l-0.38731 0.38746-0.38732 0.38746-0.38731 0.38746v0.38746h0.38731v0.77492l-0.38731 0.77493v2.32476l-0.38732 0.38746v0.38747l-0.77463 0.38746h-0.38732l0.38732 0.38746-0.38732 0.38746v0.38746l-0.38731 0.38746h0.38731l0.38732 0.38746 0.38731 0.77493v1.16238l0.38732 0.77492h-0.38732l0.38732 0.38746h-0.38732v-0.38746h-0.77463v0.77492h0.77463v1.16239l0.38732-0.38746v0.38746h-0.38732v0.38746h0.38732l0.38732 0.38746v1.16238l-0.38732 0.38747v0.77492l0.38732 1.16238v0.77492l0.38731 0.38747v0.13319l0.77463-0.52066-0.77463 0.77493v-0.25427l-0.38731 0.25427v1.16238h-0.38732l-0.38732 0.38746 0.38732 0.38746 0.38732 0.77493v1.54984l-0.38732 0.38746h-0.77463l-0.77463 0.77492-0.77463 0.77493 0.38731 0.38746v0.77492h0.77463v0.38746h0.38732l0.77463 0.77492 0.77463 0.77493h1.93658v-0.38747l1.16195 0.38747h0.77463l0.38732 0.38746 1.54926 0.77492h0.77463v0.38746h0.77464l0.38731-0.38746h0.38732v-0.38746l0.38731-0.38746v-0.38746l0.77463-0.38747 0.77464 0.38747 0.38731-0.38747 0.77463-0.38746h0.38732l0.38732 0.38746v0.77493h2.32389v0.38746h0.38732l0.38731-0.38746v0.38746l0.77464 0.38746-0.38732-0.77492 1.16195 0.38746h0.38731l1.54927 1.9373 0.38731 0.77493v0.38746l0.38732-0.38746 0.77463-0.77493h0.38732v0.38747h0.77463v0.38746h0.77463l0.38732 0.38746h1.16194l0.38732-0.38746h0.38732v-0.38746h0.38731l0.38732-0.38747v-0.38746l0.38731-0.38746v-0.38746l0.38732-0.38746h0.77463v-0.38746l0.77463 0.38746v-0.38746l0.77464-0.38746v0.77492l0.38731 0.77492 0.38732 0.38746h0.38731v0.38746l0.38732-0.38746 1.16195-0.38746v0.77492l0.77463-0.38746 0.38731-0.38746h0.38732v-0.38746l-0.38732-0.77492h1.54927l0.38731-0.38746 0.38732-0.38746 1.16195-0.77493 1.16195-0.77492 0.77463-0.77492 1.54926-0.77492 0.38732-0.38746 0.38731-0.38747 1.16195-1.54984 0.77463-0.38746v-0.77492l0.77463-0.38747 1.16195 0.38747h1.16195l1.54926 1.54984 1.54927-1.16238 1.16195-1.16239 0.38731-0.38746 0.38732-0.38746v-0.38746l1.16195-1.93731-0.38732-0.38746-0.38732-0.77492-0.38731-0.77492-1.54927-2.32477-0.77463-1.16238v-1.54985l0.38732-1.16238-0.77463-0.38746h-1.16195l-1.16195-0.77493 0.38732-0.77492-1.16195-0.38746v-0.38746l-0.38732-0.38746-0.77463-0.38746-0.38732-0.38747h-3.09852l-0.38732-0.77492-0.38731-0.38746-0.38732-0.38746v-3.48715l0.38732-0.38746 0.38731-0.77492v-0.38747l0.38732-0.38746h0.38731l0.38732-0.38746 0.38731-0.77492v-1.54985h-0.77463v-0.38746l0.38732-0.38746 0.38731-0.38746 0.38732-0.38746v-0.77492l0.38732-0.38746v-0.38747h0.38731l0.38732-0.38746h-0.38732v-1.16238l0.38732-0.38746h0.38731l0.38732-0.38746v-0.38746l0.38732-0.38747h0.38731v-0.38746h-0.38731v-2.71223h-0.38732v-0.38746h-1.16195l-0.38731 0.38746h-0.77464l0.38732 0.38747v0.38746h-0.38732v-0.38746l-0.38731-0.38747v-0.38746h-0.38732l0.38732-0.38746h-0.38732l-0.38731-0.38746v0.38746l-0.38732 0.77492v-0.77492l-0.77463-0.38746-0.38732 0.38746v0.38746l0.77464 0.77493v0.38746h-0.38732v-0.38746l-0.38732 0.38746v-0.38746l-0.38731-0.38747v-1.54984l-0.38732-0.38746v-0.38746l0.38732-0.38746h-0.38732v-0.77493l-0.38731-0.38746 0.38731-0.77492v-0.77492zm2.3239 5.03699v0.38746l0.38731 0.38746zm-42.6048 22.0853-1.16195 1.16239h-0.77463l0.38731 0.38746h0.38732l0.38732-0.38746zm2.71121-7.74922v-0.38746l-0.38732 0.38746zm37.5696-12.0113h0.38732v0.38746zm-0.77463 0.38746h0.38732l-0.38732 0.38746zm-37.957 23.2477h0.38732l-0.38732 0.38747z"/>
  <path id="path65" d="m140.528 9.40334v0.38747l-0.38731 0.38746h-0.38732v-0.77493l0.38732-0.38746h0.38731z"/>
  <path id="path71" d="m124.261 9.01588h2.32389l5.03511-0.38746 2.32389-0.38746h1.16195l0.77463 0.38746h0.38732v0.77492h-3.48584l-0.77464 0.38747-0.77463 0.38746h-0.38731l-3.09853 0.77492h-1.54926l-1.16195-0.38746h-1.54927v0.38746l-0.38731 0.38746-0.38732 0.38746h-0.77463l-0.38732 0.38746h-0.77463 0.38732l-0.38732 0.38746-0.38731-0.38746h-0.77464l-0.38731-0.38746-0.77463-0.38746-0.38732-0.77492v-0.38746l0.38732-0.38746 0.38731-0.77493 0.38732-0.38746 0.77463-0.77492h0.77463l0.38732 0.38746h0.38731l0.38732 0.38746h-0.38732l-0.38731-0.38746h-1.16195l-0.38732 0.38746h1.16195l1.54927 0.38746z"/>
  <path id="path99" d="m154.858 4.75381v0.77492h-1.54926l-0.77463 0.38746-1.16195 0.38747-0.38732 0.38746v0.38746l-0.77463 0.38746h-1.54926l-1.16195 0.38746h-1.93658l-0.38731 0.77492v0.38746h-0.38732v0.38746h-0.77463v0.38747l-0.38732-0.77493v-0.38746h0.38732l0.38731-0.38746-0.38731-0.38746v-1.16238l0.38731-0.38746 0.77464-0.38747v-0.38746h-1.54927 0.38732l0.38731-0.38746 0.77464 0.38746h1.16194l3.87316-0.38746h1.16195l2.3239-0.38746 0.77463-0.38746z"/>
  <path id="path105" d="m99.8596 26.8391-0.38731-0.38746h1.54926-0.38732v0.38746h-0.774633v-0.38746z"/>
  <path id="path107" d="m109.155 13.6654h-1.54926l-0.77463 0.38746h-0.38732l-0.38731 0.38746-0.77463 0.77492-0.38732 0.38746h-0.77463v0.38747h-0.38732l-0.38731-0.38747v0.38747h-0.38732l-0.38732 0.38746h-0.38731v0.38746l-0.38732-0.38746h-1.16195l-0.38731 0.38746-0.387323 0.38746-0.38731-0.38746-0.38732 0.38746h-0.38732l-0.38731 0.38746v0.38746h-0.38732l-0.77463 0.38746h0.38732l-0.38732 0.38746h-1.16195l-0.38731-0.77492h-0.38732v-0.38746l0.38732-0.38746 0.77463-1.16238 0.77463-1.16239 1.54926-0.77492 1.54927-0.38746 2.32389-0.38746h0.77464l2.32389-0.77493 1.93658-0.77492 4.26048-1.54984h1.16194l1.16195-0.38746 0.38732 0.38746h0.38731l0.38732 0.38746v1.16238-0.77492l-0.38732-0.38746v0.38746l-0.38731 0.38746-0.38732 0.38746h-1.16195l-0.77463 0.38746-0.38731-0.38746v0.38746h0.38731l-0.38731 0.38746h-0.77464v-0.38746h-0.38731l0.38731 0.38746v0.38747h-0.77463l-0.38731-0.38747 0.38731 0.38747 0.38732 0.38746h0.77463l-0.38732 0.38746h-1.54926z"/>
  <path id="path109" d="m95.5992 22.577-0.38732 0.38746-0.38731 0.38746h-1.16195v0.38746h-0.38732v-0.38746h0.38732-0.38732l0.38732-0.38746 0.38731-0.38746h0.77464z"/>
  <path id="path111" d="m90.5641 22.9645v0.38746l-0.38732 0.38746-0.77463 0.38746-2.32389 0.77492-0.77464 0.38747v1.16238h0.38732v-0.38746h0.38732l-0.38732 0.38746-0.38732 0.77492-1.16194 0.77492-0.38732 0.38747h-0.38732v0.38746l-0.38731 0.38746-0.77463 0.38746h-2.3239l-0.38731 0.38746v0.38746h0.38731-0.77463v-1.54984l2.3239-1.16239 1.16194-1.16238 0.77463-0.38746 0.77464-0.77492 0.38731-0.38747 1.54927-1.16238 0.77463-0.38746 0.38731-0.38746 1.16195-0.38746 0.77463-0.38746 0.77464-0.38747h0.38731l1.16195 0.38747v0.38746l-0.38732 0.38746h-0.77463z"/>
  <path id="path869" d="m154.858 4.75381h0.77464v0.38746l-0.77464 0.38746z"/>
 </g>
 <g id="Groningen" fill-rule="evenodd" style="">
  <path id="path17" d="m174.612 7.8535-0.77464 0.38746-3.09852 0.38746-0.38732 0.38746-1.16195 0.38746h-0.38731l-0.38732 0.38747h-0.77463l-0.77463 0.77492h-1.16195l-1.54926 0.77492-0.38732-0.38746-0.38732 0.38746h-1.93658l-1.16194 0.38746-1.54927 0.38746h-0.77463l-0.77463 0.38746h-0.77463l-1.16195 0.38747-1.16195 0.38746-0.38731 0.38746v0.38746l-0.77464 0.38746-0.38731-0.38746-0.38732-0.38746-1.93658-1.16239h-0.38731l-1.54927 0.77493v-0.38746h-0.38731v0.38746h-0.38732v-0.38746l-0.38731 0.38746 0.38731 0.38746h0.38732l0.38731 0.38746h0.38732l0.38731 0.38746h0.38732v0.38746h-1.16195v-0.38746l-0.77463-0.38746v-0.38746h-0.77463l-0.38732 0.77492h0.38732l0.38732 0.38746h0.38731v0.38746l-0.38731 0.38746-0.38732-0.38746v0.38746l0.38732 0.38747h1.93657v0.38746h-1.16194v0.38746h1.16194l0.38732-0.38746v0.77492h-0.38732l0.38732 0.38746 0.38732-0.38746h0.38731v0.38746l-0.38731 0.38746h-0.77464v0.38746l0.38732 0.38746 0.38732-0.38746h1.16194l0.38732 0.38746h0.38732v2.71223h0.38731v0.38746h-0.38731l-0.38732 0.38747v0.38746l-0.38732 0.38746h-0.38731l-0.38732 0.38746v1.16238h0.38732l-0.38732 0.38746h-0.38731v0.38747l-0.38732 0.38746v0.77492l-0.38732 0.38746-0.38731 0.38746-0.38732 0.38746v0.38746h0.77463v1.54985l-0.38731 0.77492-0.38732 0.38746h-0.38731l-0.38732 0.38746v0.38747l-0.38731 0.77492-0.38732 0.38746v3.48715l0.38732 0.38746 0.38731 0.38746 0.38732 0.77492h3.09852l0.38732 0.38747 0.77463 0.38746 0.38732 0.38746v0.38746l1.16195 0.38746 1.16194 0.38746h0.38732l0.38732-1.54984h0.38731v-1.54985l0.77463-1.9373v-0.38747l0.38732-0.38746 0.38732-0.77492 0.38731-0.38746v-0.38746l0.38732-0.38746 1.54926-0.77492v-0.38747l0.38732-0.38746 0.77463-0.38746h1.16195l0.38731 0.38746 0.38732-0.38746 0.38731 0.38746h0.77464l0.38731 1.16239 0.38732 0.38746 0.38731-0.38746 0.38732 1.16238v0.38746l0.38732 0.38746 0.77463-0.38746v0.77492l0.38731 0.38746v0.38747h0.77464v0.38746l0.38731 0.38746 0.38732 0.38746 0.38731 0.38746v0.38746h0.38732l-0.38732 0.38746 0.38732 0.38746v0.38747l1.93658-0.77493h0.38731l0.77464-0.38746h1.93658l0.38731 0.38746h0.38732v0.38746l1.54926 1.16239 0.38732 0.77492 1.54926 1.16238v0.38747l2.3239 2.32476 1.93658 1.93731 0.38731 0.38746 1.54927 1.54985 0.38731 0.38746v0.38746l0.38732 0.38746 0.38731 0.38746 0.38732 0.77492 0.38732 0.77493h0.38731v0.38746h0.38732l0.77463 1.16238 0.38732 0.77492 0.77463 0.77493h0.77463v0.77492l-0.38732 0.38746-0.77463 2.32477v0.38746h1.16195v0.38746h0.38732l0.77463 1.16238 0.38731 0.38746 0.38732-0.38746v0.38746h-0.38732v0.77493h1.16195l-0.38732-0.77493v-0.38746l0.77464-1.16238 2.32389-3.87461 1.54927-2.71223 0.77463-3.09969 0.38731-1.93731 0.38732-0.38746v-0.38746l-0.77463-3.48715v-5.037l-1.16195-0.77492v-1.54985l0.38732-0.38746v-1.16238l0.38731-1.16238h0.38732l0.38731-0.38746h0.77464l-0.77464-0.38747-0.38731-0.38746 0.38731-0.38746v-1.9373l-0.38731-1.16239v-0.38746h-0.38732l-1.16195-0.38746h-0.38731v-0.38746h-1.54927v-0.38746h-1.54926l-0.38732-0.38746h-0.38731l-0.77463-0.77493v-1.16238l0.38731-0.38746-0.38731-0.77492v-0.38747h0.38731l0.38732-0.77492v-0.38746l-0.77463 0.38746-0.38732 0.38746h-2.32389l-0.77464-0.38746v-0.38746h-0.77463l-1.54926-0.77492v0.38746l-0.77463-0.38746-0.77464-0.38746h-0.38731v-0.38746h0.38731l-0.38731-0.38747-0.77463-0.77492h-0.38732l-0.38732-0.38746v-1.93731l-0.38731-0.38746v-1.54984l-0.38732-0.77492h-0.38731v-1.16239l0.38731-1.16238v-0.38746l-1.16194-1.16239-0.77464-0.38746-0.38731 0.77492 0.38731 0.38747h-1.16194v-0.38747l0.38731 0.38747v-0.38747l0.38732-0.77492h-0.38732l-0.77463-0.38746-0.77463 0.77492-0.38732-0.38746-0.77463-0.38746h-1.16195zm9.68289 11.2364 0.38732 0.38746v-0.38746zm13.9434 7.74922v-0.77492l-0.38732 0.38746z"/>
  <path id="path871" d="m161.83 1.26666v0.38746l0.38732 0.38746 0.38731 0.38746 0.38732 0.38746-0.38732-0.38746h-1.54926v0.77493h0.38731l-0.38731 0.77492-0.38732-0.38746-0.38731-1.16239-0.38732-0.38746v-0.38746l0.38732-0.77492h1.16194l0.38732 0.38746z"/>
  <path id="path873" d="m165.703 1.65412h1.54926l0.77464 0.38746v0.38746-0.38746h-2.3239l-0.38732 0.38746v-0.38746z"/>
  <path id="path887" d="m146.725 15.9902 0.38732 0.38746v-0.38746l0.77463 0.38746v0.38746h-0.77463l-0.38732-0.38746z"/>
 </g>
 <g id="Zeeland" style="">
  <g id="g3511" fill-rule="evenodd" style="">
   <path id="path619" d="m40.9876 159.351v0.38746l-0.77463 0.77493h-0.38732l0.38732 0.77492h0.38732l0.38731 0.77492 0.38732 0.77492h2.32389v-0.38746h0.38732v0.77492l-0.38732 0.38747h-1.93658l-0.38731 0.38746h-0.38732l-0.77463-0.77493-1.54926-0.38746h-0.38732l-0.77463 0.38746-0.38732 0.38747h-0.38731l-0.77464 0.38746-0.38731 0.38746-0.38732-0.38746-0.77463 0.38746-0.38732 0.38746v0.77492h0.38732v0.38746h0.77463l0.38732 0.38746 0.38731 0.38746h0.38732v0.77493l0.38732 0.38746h0.38731l0.38732 0.38746 0.38731 0.38746v0.77492l0.38732 0.38746h0.38732v0.38747h3.09852l0.38732 0.38746h0.38731v-0.38746l0.77464 0.38746 0.77463 0.38746-0.38732 0.38746v0.77492h0.38732l1.54926 0.77492 0.38732 0.38747v2.71222l0.38731 1.54985h-1.16194l-0.38732-0.38746h-1.16195l-0.38731 0.38746h-0.38732l-0.38732 0.38746h-1.16194v-0.38746h-0.38732l-1.16195-0.77492h-0.38731l-0.38732-1.16239h-0.38731l-0.77464-1.16238v-0.38746l-0.38731-0.38746 0.38731-0.38746-0.38731-0.38747v-0.77492h-0.38732l-0.38731-0.38746-0.77464-0.77492-0.38731-0.38746h-0.77463l-0.38732-0.38746h-0.38732l-0.77463-0.38747h-0.38731l-0.38732-0.38746-0.38732 0.38746h-0.38731v0.38747l-0.77463-1.16239h0.38731l-0.38731-0.38746v-0.38746h-1.16195l-0.38732 0.38746h-2.71121v-0.38746l-0.38731-0.38746h-0.77464l-0.77463 0.38746h-0.38731l-0.38732 0.38746-1.16195-0.38746h-0.38731l-0.38732-0.38746-0.38732 0.38746-0.77463 0.38746v0.38746l-0.38731 0.38746v0.38746l-0.38732 0.38747h-0.38732l-0.38731 0.38746h0.77463l-0.77463 0.38746v-0.38746l-0.77463-0.77493-0.38732-0.38746v-0.38746l-0.38731-1.16238v-0.38746h-0.38732l-0.38732-0.38746-0.774629-0.38747-0.38731-0.38746-0.38732-0.38746v-1.16238l0.38732-0.38746h-0.77464l-0.38731-0.38746h-2.71121v0.38746h-0.77464l-0.387311 0.38746-0.77463 0.38746-0.38732 0.38746-0.77463 0.38746h-0.38732l-0.38731 0.38746-0.38732 0.38746-0.77463 0.38747-0.38732 0.38746h-0.38731l-0.38732 0.38746-0.38731 0.38746v1.16238l0.38731 0.77493h0.38732l0.38731 0.38746 0.38732 0.38746 0.77463 0.38746v0.38746h0.38732l0.38731 0.38746 0.38732 0.38746v0.38746l0.38731 0.38747v0.38746l0.38732 0.38746v0.38746l0.38732 0.38746 0.387311 0.38746 0.77463 0.38746v0.38746h0.38732l0.38732 0.38747v0.38746h1.54926v-1.16239h0.38732v0.77493l0.38731 0.38746h1.16195l0.38732-0.38746v-0.38747h1.54926l-0.77463-0.38746 0.38731-0.38746 0.77464-0.38746h0.38731v0.38746l1.16195-0.77492v-0.77492l0.38731 0.38746v0.38746h0.38732l-0.38732 0.38746v0.77492h0.38732l-0.38732 0.38746 0.38732 0.38747v0.38746l-0.38732-0.38746-0.38731 0.38746h-0.38732l0.38732 0.38746 0.38731 0.38746v0.38746h0.38732v1.16238h0.38732l0.38731 0.38747h0.38732v-0.38747h0.38731l0.77464 0.38747h0.38731v0.38746l0.77463 0.38746v0.38746h0.38732l0.77463 0.77492h1.16195l0.77463-0.38746h0.38732l0.38731-0.38746h1.16195l0.38732 0.38746 0.38731-0.38746 0.38732-1.54985h0.38732v-0.77492h0.38731v-2.32477l0.77463 0.38747 0.77463-0.38747h0.38732l0.77463-0.77492 0.38732 0.38746 0.77463 0.77493v0.38746h0.38732v0.38746h0.77463l0.38731 0.38746 0.38732 0.38746h0.77463v1.16238l0.77463 0.38747h0.38732l0.38732 0.38746h0.38731l0.77463 0.38746 0.77464 0.38746h0.77463l0.38731 0.38746h0.77463l1.16195-0.38746 0.77463-0.38746h0.77464v0.38746h0.77463l0.77463 0.38746 0.38732 1.16238v0.77493h1.16194l0.77464-0.38746-0.38732-0.38747h-0.38732v-0.38746l0.38732-1.16238-0.38732-1.16238v-0.38747l0.77464-0.38746-0.77464-1.16238-1.54926-4.26207-0.77463-1.54985v-0.38746l0.38731-0.77492 0.38732-1.16239 0.38732-0.77492v-0.38746l-0.38732-0.38746v-0.77492l-1.54926-1.93731-0.38732-0.38746v-1.54985l0.38732-0.77492 0.38731-0.38746 0.38732-0.38746 1.16195-0.38746h-0.38732l-0.77463-0.38746h-1.54927l-0.77463-0.38746-1.16195-0.77493h-0.38731zm-22.077 17.4358 0.38732-0.77493-0.38732 0.38747z"/>
   <path id="path625" d="m43.3115 183.373v0.38746h0.38731v0.38746h-0.38731v0.38746h0.38731-0.77463l-0.38732-0.38746v-0.77492h0.38732z"/>
   <path id="path627" d="m31.3047 183.373h0.38732l0.38731-0.38746v0.38746z"/>
   <path id="path629" d="m42.1496 184.536v0.77492h-0.77463v-0.38746h-0.38732 0.77463l-0.38731-0.38746h0.38731-0.38731l-0.38732 0.38746v-0.38746h0.38732-0.38732l0.38732-0.38746h-0.77463v-0.38746 0.38746h-0.38732v-0.38746h1.16195l0.38731 0.38746z"/>
   <path id="path631" d="m8.45308 179.499v0.38746h-0.77463l-0.77463 0.38746h-0.77463l-0.38732 0.38746h-1.93658v0.38746h-0.38731l-0.38732 0.38746h-0.77463l-0.38732 0.38746h-0.38731v0.38746l0.38731 0.38747v1.54984l0.38732 0.38746v0.77492l-1.16195 1.16239-0.38732 0.38746 0.38732 0.38746 0.77463 0.77492h-0.77463v0.38746l0.77463 0.77493v0.38746l-0.38731 0.38746 0.38731 0.38746h0.38732l0.38731 0.77492h0.38732l0.38732 0.77492 0.38731-0.38746 0.38732 0.38746v0.77493h0.38731l0.38732 0.38746h1.54926l3.09853-0.38746-0.38732-2.71223-0.38731-0.38746 0.77463-0.38746 0.38732 0.38746h0.387311v-0.38746h0.77463v-0.38746h0.38732l0.38732 0.38746 0.38731 0.38746 0.38732-0.38746-0.38732-0.77493 0.77463-0.38746 0.38732 0.38746 0.77463 0.38747 0.38732 0.38746 0.77463 0.38746h0.38732v-0.38746h0.774629l0.77463 0.77492h0.38732l0.38731 0.38746v0.38746h1.16195l0.38731 0.38746v-0.38746l1.54927 0.38746h0.38731l0.38732 0.77492h0.38732v-0.38746l0.77463 0.77493h0.38731v0.38746l-0.38731 0.38746v2.71223l0.38731 0.38746h0.38732v-0.38746l0.38732 0.38746h2.71121l0.77463-0.77492h0.77463v0.77492h-0.38731l-0.38732 0.38746 0.38732 0.38746h0.77463l0.77463-0.38746h0.38732l-0.38732-0.77492 0.77463-0.38746 0.38732 0.77492h0.38731v-0.38746h0.77463l0.38732-0.38746v-0.38747h0.77463l0.38732-0.77492h0.38731l0.38732-0.38746 0.77463-0.38746h0.38732v0.38746h0.38731l0.38732-0.38746v0.38746h0.77463l0.38732-0.38746h0.38731l0.38732-0.38746 0.77463-0.77492 0.77463-0.38747 0.77464-0.38746 1.93657-1.54984 0.38732-0.38746 3.87316-4.64954h-0.38732v-0.38746h-0.38731v-0.77492l-0.38732 0.38746v-0.77492l-0.38731-0.38746h-0.77464l0.38732-0.38746h-0.77463v0.38746l-0.38732 0.38746v0.38746l0.38732 0.38746h0.38731v0.77492l-0.38731-0.38746-0.38732 0.38746h0.38732l-0.38732 0.38746h0.38732v0.38747l-0.38732-0.38747h-0.77463l0.38732 0.38747v0.38746l-0.38732-0.77493-0.38732-0.38746h-0.38731l0.77463 0.77493h-0.38732v-0.38747h-1.16194v0.38747h0.38731v0.38746h-0.38731l-0.77463-1.54985h-0.38732l-1.16195-0.77492v-0.38746h-0.38731v0.38746l-1.54927-0.38746-0.38731-0.38746v-0.38746l-0.38732-0.38747v-0.38746l-0.38732-0.38746 0.38732-0.38746h-0.38732l-0.38731-0.38746v-0.38746h-1.16195l-0.38732-0.38746h-0.77463l-0.38731 0.77492v0.38746h-0.38732v1.93731l-0.38732 0.38746h-0.77463l-1.16194 0.38746-0.77464 0.38746-0.38731 0.38746h-0.38732v0.38746h-0.77463v0.38746l-0.38732 0.38747h-1.54926l-0.38732-0.38747h-0.38731v0.38747l-0.38732-0.38747v0.77493l-0.38731-0.77493v-0.38746h-0.77464v-0.38746h-1.16194v1.16239l-0.77464-0.38747v-0.38746l0.38732-0.38746h-2.3239v-0.38746l-0.38731-0.38746-0.38732-0.38746h-0.38731v-0.38746l-0.38732-0.38746h-1.16195l-0.774629-0.38747h-0.38731l-1.16195-0.38746h-0.38732v-0.38746h-0.38731l-0.77464-0.38746h-0.38731l-0.38732-0.38746-0.38731-0.38746h-0.38732l-0.38732-0.38746h-0.387311v-0.38746h-1.54927zm35.2457 5.42445-0.38731-0.38746-0.38732 0.38746zm-0.38731-0.38746h1.16194l-0.38731-0.38746h-0.77463zm0.77463-1.16238 0.38731 0.38746h-0.38731zm0.77463 0h0.38732l-0.38732 0.38746zm-2.71121 2.71223h0.38731v0.38746h-0.38731z"/>
   <path id="path659" d="m18.5233 168.262-0.38732-0.38746v-0.38746h0.38732l0.38731 0.38746v0.38746l-0.38731 0.38746z"/>
   <path id="path661" d="m20.4599 159.351-0.38732 0.38746v1.16239l0.38732 0.38746 0.38731-0.38746-0.38731-0.38746 0.38731 0.38746-0.38731 0.38746-0.77464-0.38746v0.77492l-0.38731-0.38746-0.38732 0.38746h0.38732v0.38746h-0.38732v-0.38746l-0.38731 0.38746v1.16238h-0.38732l0.38732-0.77492v-0.38746l-0.38732-0.38746h-0.38731 0.38731l0.38732-0.77492 0.77463-0.38746v-0.77493 0.38746h0.77463v-0.38746z"/>
   <path id="path665" d="m19.2979 177.174-1.16195-0.77492-0.38731-0.38747 0.38731-0.77492 0.38732 0.38746 0.77463 0.38746-0.38732 0.38747v0.38746z"/>
   <path id="path667" d="m19.6852 175.624h-0.38731l-0.77463-0.38746 0.77463-0.38746h0.38731z"/>
   <path id="path907" d="m30.5301 152.377v-0.38746h0.38732l0.77463 0.38746h-0.38732z"/>
   <path id="path909" d="m44.8608 160.901v-0.38746l-0.77463-0.77493v0.38746h-0.38732l-0.77463-0.77492 0.38732-0.38746h-0.38732v0.38746h-0.77463v-0.38746h2.32389-0.77463v0.38746h0.77463v0.38746l0.38732 0.38746v0.38747z"/>
   <path id="path913" d="m32.854 151.602-0.38732 0.38746h-0.77463v-0.38746h1.54926z"/>
   <path id="path915" d="m31.692 160.901-0.38732 0.38746h-0.77463l-0.77463-0.38746h-0.38732l0.77464-0.38746v-0.38747 0.38747l-0.77464 0.38746h-0.38731l0.38731-0.77493-0.38731-0.38746v-0.77492h-0.38732v-0.77492l-0.38731-0.77492-0.77464-0.38747-0.38731 0.38747v-0.38747l-1.16195-0.38746v-0.77492l-0.38732-0.38746h-1.16194l-0.38732 0.38746v0.38746h0.38732l0.38731-0.38746 0.38732 0.38746-0.38732-0.38746-0.38731 0.38746h-0.77464l-0.38731 0.77492-0.77463 0.38747h-0.77464l-0.77463 0.38746-0.38731 0.38746v0.77492h0.38731v0.38746h-0.38731l-0.38732-0.38746h0.38732v-0.77492l-0.38732-0.38746h-0.77463v-0.38746l-0.38732-0.38747-0.38731-0.77492v-1.9373l0.38731-0.77493 0.77463-0.77492 0.77464-0.38746h0.77463l1.54926-0.38746 0.38732-0.38746h1.54926l1.16195 0.38746v-0.77492l0.38732-0.38747v-0.38746h0.77463l-0.38732 0.38746h0.38732l-0.38732 0.38747v-0.38747h-0.38731v0.38747l-0.38732 0.77492h2.71121l0.77463-0.38746 0.77464 0.77492v0.38746h1.16194l0.77463-0.38746 0.38732 0.38746h1.16195v0.38746-0.38746l0.38731 0.38746v0.77492l0.38732 0.38747 0.77463 0.77492 0.38732 0.77492v0.77492h1.54926l0.77463 0.38746 1.16195 0.77493h0.38732v0.38746h0.38731l0.77464-0.77492h1.93657l0.38732-0.38747h0.38732v1.16239h0.38731l-0.38731 0.38746h-0.38732l0.38732-0.38746-0.38732-0.38746v-0.38746h-0.38732v0.38746l-0.38731-0.38746-1.16195 0.38746h-0.38731l-0.38732 0.38746h-0.38732v0.38746l0.38732 0.38746v0.38746l-0.38732 0.38746h0.38732v-0.38746l-0.38732 0.38746v0.38746h-0.38731l-0.38732 0.38747-0.38731 0.77492h-0.38732l-0.38732 0.38746-0.38731-0.38746-0.77463 0.38746-0.38732 0.38746h-0.77463v0.38746h-2.71121l-0.77464-0.77492z"/>
   <path id="path929" d="m27.8189 168.65v-0.38746h-0.38732 0.38732z"/>
   <path id="path931" d="m26.6569 163.225h0.38732v0.38747h0.77463l0.38732 0.38746v0.38746l0.38731 0.77492 0.38732 0.38746v0.38746h0.38731v1.16239l-0.38731 0.38746h-0.77463l-0.38732 0.77492h-0.77463l-0.38732-0.38746-0.38731-0.38746h-1.16195v0.38746h-1.54927l-0.38731-0.38746h-0.77463l-1.54927 0.38746-0.38731 0.38746-0.38732 0.77492h-0.38732l-0.38731 0.77492v-0.38746l-0.38732-0.38746 0.38732-0.38746v-0.77492l-0.77463-0.77492h0.38731v-0.38747l0.38732-0.38746-0.38732 0.38746-0.38731 0.38747-0.77463-0.77493h-0.38732l-0.38732-0.38746h-0.38731v-0.77492h-0.387319v-0.77492h0.387319-0.774629l1.16194-0.38746 1.16195-0.38746v-0.38747h0.38732v0.38747h0.77463l0.38731 0.38746h0.38732l0.38732 0.38746h0.38731l0.38732-0.38746h0.38731l0.77464-0.38746 0.77463 0.38746 0.38731-0.38746 0.77464-0.38747h0.77463l0.38731 0.38747 0.77464-0.38747z"/>
  </g>
 </g>
 <g id="Zuid-Holland" fill-rule="evenodd" style="">
  <path id="path483" d="m32.854 148.889 0.38731 0.38746-0.38731-0.38746h-0.77464l-1.54926 0.77492h-0.38731v-0.38746l0.77463-0.38746v-0.38746l0.77463-0.77493v0.38747h0.38731z"/>
  <path id="path449" d="m61.128 103.556-2.3239 5.037-0.77463 1.16238-0.38731 0.77493-1.16195 1.9373-0.38732 0.38746v0.38746l-0.77463 1.16239-0.38732 0.77492-1.16194 1.54985-2.3239 3.09969-1.16195 0.77492v0.38746l-0.77463 0.77492h-0.38731v0.77492h0.38731l-0.38731 0.38747v-0.38747h-0.38732l-0.38732 0.38747-0.38731 0.77492-0.38732 0.38746-1.16195 1.16238-0.77463 0.77493-1.16195 1.54984-0.38731 0.38746-0.77463 0.77492-0.38732 0.38747v0.38746l-0.77463 1.16238-0.77463 0.38746-0.77463 0.77492h-0.38732l-0.38732-0.38746-1.93658-0.38746-0.38731 0.38746h-0.77463l-0.38732 0.38746v0.38747l-0.38732 0.38746-0.38731 0.77492 0.38731 0.38746 0.38732 0.38746v0.38746l-0.77463 0.77493-0.38732 0.77492-0.77463 1.16238h0.77463l0.38732 0.38746 0.38731-0.38746 1.54927-0.38746h0.38731l0.38732 0.77492h-0.38732v0.38746l-0.77463 0.77493v0.38746l-0.38731 0.38746v0.38746l0.38731 0.38746 1.54927 2.32477v0.77492l-0.38732 0.38746 0.77463-0.38746 0.38732 0.38746 0.38731 0.38746 0.38732 0.38746v0.38747h1.54926l-0.38731 0.38746 0.38731 0.38746h0.38732v-0.38746h1.16195l0.38731 0.38746 0.77463 1.16238h1.16195v0.38746h0.77463l0.38732 0.77493 0.38732 0.38746h0.77463l-0.38732 0.38746h-0.38731l0.38731 0.77492 0.38732 0.38746 1.16195 0.38746v0.38746h0.77463l0.77463 0.38747h0.77463v0.38746l1.54926 0.38746 0.77464 0.77492h0.38731l0.77463 0.38746 1.16195 0.77492h0.38732l0.38731 0.38747h0.77464v0.38746h1.93658l0.77463 0.38746h0.77463l0.38732 0.38746h0.38731l0.38732 0.38746h0.38731l0.77463-0.38746h0.38732l1.16195-0.38746h0.38731l0.38732-0.38746h0.77463l0.38732-0.77493 0.38731 0.38747h0.38732l0.77463-0.38747v0.38747l1.54927-0.38747 0.38731-0.38746 0.38732-0.38746 0.77463-0.38746 1.16195-0.77492 0.38731-0.77492 0.38732-0.38747 0.38731-1.16238 0.77464-0.77492v-0.38746l0.38731-0.38746h0.38732l0.77463-0.38747h2.71121l0.77463-0.38746h0.38732l0.77463-1.16238h0.38732l0.77463-0.38746 0.38732-0.38746h1.54926l0.77463 0.38746h1.16195l0.38731 0.38746h1.93658v-0.38746l0.38732-1.54985h-1.54926l-0.38732-0.38746h0.38732l-0.38732-0.38746v-0.77492l0.38732 0.38746 0.77463-0.38746 0.38731 0.38746 0.05516-0.55959-0.3-0.9 0.1-0.9-1.4 0.7-0.1-0.3 0.1-0.3v-0.7l-0.1-0.5v-0.6l-1.1 0.5v-1l-0.4-0.2v-0.3l-0.4-0.2-0.4-1.5-0.2 0.2-0.2 0.3-0.4-1.6-0.3-0.3 0.0097 0.41037h-0.38732v0.38746h-0.38731l-0.38732 0.38746h-1.54926v-1.16239l-0.38732-0.38746v-0.38746l-0.38732-0.38746-0.38731-0.38746-0.38732-0.38746-0.38731-0.77492-0.38732-0.77493-0.38732-0.38746 1.54927-0.38746h0.38731l-0.38731-1.16238h-1.54927l-0.38731 0.38746h-0.38732l-0.38731-0.77492 0.38731-0.38747v-0.38746h0.38732l0.38731-0.38746 0.38732-1.16238 1.16195-0.77492h0.38731l0.38732-0.38747 0.38732-0.38746h-2.3239l0.38732-0.38746h-0.38732v-0.38746l-0.38732-1.16238v-1.16239h0.38732l-0.38732-0.38746-1.54926-0.77492v-0.38746h0.77463v-0.38746l0.38732-0.38746h-0.38732l0.77463-0.77493h0.77464v0.38746h1.93658v-1.54984l1.16194-0.38746-1.54926-1.16239-0.38732-0.38746h-0.77463l-0.38731-0.38746-0.38732-0.38746v-0.38746h-0.38732l-0.38731-0.38746v-0.38746h-0.38732v-1.16239l-0.38731-0.38746v-0.38746h-1.16195v0.38746l-0.38732 0.38746h-1.16195l-0.38731 0.77493-0.77463-0.77493 0.38731-1.16238-1.16194-0.38746-0.77464 0.77492h-0.77463l-0.38731-0.38746v0.38746h-0.38732l-0.77463 0.38746-0.38732 0.38746h-1.93658l-0.77463-0.38746-0.38732 0.38746h-0.38731l-0.38732-0.38746h-0.38731v-1.16238h0.38731v-0.38746l0.38732-0.38746v-1.93731l0.38731-0.38746 0.77464-0.77492v-0.77493h0.38731v-0.77492l0.38732-0.38746 0.38731-0.77492-0.77463-0.38746h-0.77463l-0.38732 0.38746-0.38731-0.38746v0.77492l-1.16195-0.38746zm-22.8516 40.296-0.38732 0.38746h0.38732z"/>
  <path id="path479" d="m35.5652 143.077-0.77463 0.38746h0.77463zm0 0.38746-1.16195 0.38746h-0.77463l0.77463-0.38746-3.48584 1.16238-0.77463 0.38747h-0.38732l-1.16195 0.38746h-0.38731l-0.38732 0.77492v0.77492l0.38732 1.16239v0.38746h0.38731v0.38746h0.38732l0.77463-0.38746v-0.38746h-0.38732v-0.38747h1.16195l0.38732-0.38746h1.16194l0.77464-0.77492 0.77463 0.38746h0.77463l0.77463 0.38746v0.38746l0.38732 0.38747 0.38731 0.77492h0.38732v1.16238h-0.38732v0.38746h0.38732l-0.38732 0.38746v0.38747l0.38732 0.77492h0.38732v0.38746l0.38731 0.38746v0.38746l0.38732 0.77492v0.77493h0.77463l0.38732 0.38746 0.38731-0.38746v0.38746h2.3239l0.38731 0.38746 1.16195 0.38746 0.38732 0.77492 0.38731 0.38746h1.16195v0.38747h0.77463l0.38732 0.38746h0.38731v0.77492l0.77464 0.38746 0.38731 0.38746h1.93658l0.77463-0.38746h1.16195l1.16195-0.38746 0.77463-0.38746 0.38732-0.38746 0.38731-0.77493v-0.38746h-0.38731v-0.38746h1.54926l0.77463-0.38746h-0.38731v-0.77492h-0.38732l-0.38732 0.38746h-3.48584l-0.77463-1.16238h-0.77463l-0.38732-0.38747h-0.38731l-0.38732-0.38746v-0.38746l-0.77463-0.38746v-0.77492h-0.38732l-2.32389-2.32477h-0.38732v-0.38746h-0.77463l-0.38732-0.38746h-0.38731l-0.77464-0.77492-0.77463-0.38747h-0.38731l-1.54927-0.77492-0.38731-0.38746-1.16195-0.38746v-0.38746l-0.38732-0.38746h-0.38731v0.38746l-0.38732-0.38746h0.38732v-0.77493h-0.38732v0.38747h-0.38731v-0.38747l-0.77464-0.38746v-0.38746zm-7.359 5.42446-0.38732 0.77492-0.38732 0.38746-0.77463 0.38746h0.38732l0.77463 0.38746 0.38732 0.38747h0.38731v-0.38747l-0.38731-0.38746-0.38732-0.38746z"/>
  <path id="path547" d="m50.6705 151.602 0.77463 0.38746 1.16195 0.38746 0.77463 0.38746 0.38732 0.38746h-0.38732l-0.77463 0.38746h-1.54926l-0.77464-0.77492h-0.38731l-0.77463-0.77492h-0.38732l-0.38732-0.38746 0.38732-0.38746h0.77463z"/>
  <path id="path911" d="m34.0159 150.827h0.38732l0.38732-0.38746v0.77493l0.38731 1.16238 0.77463 0.77492-0.38731 0.38746h-0.38732v-0.38746l-0.38731-0.38746v-0.38746l-0.38732-0.77492-0.38732-0.38746z"/>
  <path id="path949" d="m56.0929 155.864-0.38731 0.38746h0.38731-0.38731v0.38746l-0.38732-0.38746z"/>
 </g>
 <g id="Noord-Brabant" fill-rule="evenodd" style="">
  <path id="path100" d="m82.4304 145.402-0.38732 0.38746-0.77463 0.38746h-0.38732l-0.77463 1.16238h-0.38732l-0.77463 0.38746h-2.71121l-0.77463 0.38747h-0.38732l-0.38731 0.38746v0.38746l-0.77464 0.77492-0.38731 1.16238-0.38732 0.38747-0.38731 0.77492-1.16195 0.77492-0.77463 0.38746-0.38732 0.38746-0.38731 0.38746-1.54927 0.38747v0.38746l-0.77463 0.38746-0.38732 0.38746h-0.38731l-0.38732 0.38746-0.38731 0.38746-3.09853 0.77492h-0.77463l-1.16195 0.38747h-0.77463l-1.16195-0.38747-0.38732-0.38746h-0.38731l-0.38732-0.38746h-1.16195l-0.38731 0.38746-0.77463 0.38746-0.38732 0.38747v0.38746l-0.38732 0.77492-0.38731 0.38746-0.38732 0.38746-0.38731 0.38746-0.77464 0.38746h-0.38731l-0.38732 0.38747h-0.38731v-0.38747h-0.38732l-0.38731 0.38747h-1.16195l-0.38732 0.38746h-0.77463l-0.38732 0.77492h-0.38731v-0.38746h-0.77463l-1.16195 0.38746-0.38732 0.38746-0.38731 0.38746-0.38732 0.77492v1.54985l0.38732 0.38746 1.54926 1.93731v0.77492l0.38732 0.38746v0.38746l-0.38732 0.77492-0.38732 1.16239-0.38731 0.77492v0.38746l0.77463 1.54985 1.54926 4.26207 0.77464 1.16238-0.77464 0.38746v0.38747l0.38732 1.16238-0.38732 1.16238v0.38746h0.38732l0.38732 0.38747h2.71121v0.38746l0.38731 0.38746v1.16238l0.38732-0.38746 1.16195 0.38746h1.54926l0.38732-0.38746 0.77463-0.38746h0.38731v-0.77492l-1.93658-2.71223-0.38731-1.16239 0.38731-0.38746h0.38732v-1.54984h-0.38732l-0.38731-0.38746 0.38731-0.38746 2.71122-1.16239h0.77463l0.38731-0.38746 0.38732-0.38746h0.77463l2.71121-0.38746 0.38732 0.77492-0.77463 1.93731 0.38731 2.32476 1.93658-0.77492h1.16195l1.54926 0.38746 0.77464 0.38746h0.38731v-0.38746l0.38732 0.38746 0.77463-0.38746-0.38732-1.54984 1.16195-0.38746h0.38732l0.38731-1.16239 0.77464-0.38746 0.38731-0.38746 0.38732-0.77492 0.77463-0.38746 0.38731-0.38746-0.38731-0.38747h0.77463v-0.38746l0.77463-0.38746 0.38732 0.38746v0.38746h0.77463l0.77463 0.38747h0.38732v0.77492l0.38731 0.38746 0.38732-0.38746 0.38732 0.38746-0.38732 0.77492v0.77492h0.38732v0.38747h-0.38732l-0.38732 0.38746-0.38731 0.38746 0.38731 1.54984v0.38746h0.77464v0.38747h-0.38732l-1.16195-0.38747-0.38731-0.38746h-0.77464v-0.38746h-0.38731l-0.77463 0.38746v0.77493l0.38731 0.38746 0.77463 0.38746h0.38732l1.16195-0.38746h1.54926l0.38732 0.38746h0.38731v-0.38746h1.54927l0.77463 0.77492v0.38746h0.38732l0.38731 0.38746h0.38732l1.54926-2.32477 2.3239-1.54984v-0.77492h0.38731v-0.38746l-0.38731-0.38747v-0.38746l0.38731-0.38746v-0.38746l0.38732-0.38746 0.77463-0.38746h0.38732l-0.38732 0.38746 0.38732 0.38746v0.38746h1.93658l1.16194 3.48715-0.38731 0.77493-1.16195 2.32476 2.3239 2.71223v0.38746l0.77463 0.77493v2.71222l1.54926 0.38747 0.38732-0.38747 1.16194-0.38746h0.38732v-0.38746l2.3239 1.54985-0.77464 3.09969 0.38732 0.38746 1.54926-0.38746 1.54927 0.38746h1.93658l0.38731-0.38746 0.38732-0.77493 1.16195 0.38746 1.54926 0.38747 0.77463 0.38746 1.16195-1.16239 0.38732-0.38746 1.16194-0.38746 0.77464-0.77492v-0.38746h0.38731l1.54927 0.38746v0.38746l0.38731 0.77492 1.16195 0.77492 0.38732 0.38747v2.32476l0.38731 1.54985h0.38732l1.16194-0.38746h0.38732l1.16195-0.38746v-1.54985l0.38731-1.93731 0.77464-1.54984 0.38731-0.77492 1.16195-1.16239 1.54926-0.77492h0.38732l1.93658-0.38746 0.77463-0.38746h0.38732l0.38731-0.38746 3.09853-0.77492 1.16195-0.38747h0.38731l0.38732-0.38746h0.38732l0.77463-0.77492 1.16195-1.16238 0.77463-0.38746-0.77463-1.16239-0.77464-1.54984-1.54926-2.71223v-0.38746l-0.77463-3.48715-0.38732-0.77493v-0.77492l-0.38731-1.16238-0.38732-3.48715 1.54926 0.38746 1.16195 0.38746 0.77463 0.38746h1.54927l0.77463-0.38746 1.16195-0.38746 0.77463-0.38746 0.77463-0.38747v0.38747h0.38732l0.38731 0.38746 0.77463 0.77492v-0.38746h0.77464l-0.38732-0.38746v-1.54985l-0.38732-0.77492-0.38731-0.38746v-1.54985l-0.38732-0.38746v-0.38746l-0.38731-0.38746-0.77464-0.77492-1.16194-0.38746v-0.38746l-0.38732-0.38747v-2.71222h-0.38731v-1.16239l-0.38732-1.16238h-0.38732l-0.38731-0.38746h-0.77463l-0.77464-0.38746h-0.77463l-0.38731-0.38747v-0.77492l-0.38732-0.77492v-0.77492h-0.38732l-0.38731-0.38746h-2.71121l-1.16195 0.38746h-1.93658l-0.38732-0.38746v-0.38747l-0.38731-0.38746-0.38732-0.38746h-0.77463l-0.38732-0.38746h-0.38731v-0.77492h-0.38732l-0.38731-0.38746h-0.77464l-1.16194-1.16239v-0.77492l-0.38732-0.38746h-1.16195l-0.38731-0.38746-0.77464-0.38746h-1.93657l-0.38732 0.38746v0.38746l-0.38732 0.38746h-0.38731l-0.38732-0.38746h-0.77463v-0.38746l-0.38732-0.38746h-1.16194v0.38746l-0.38732 0.77492-0.38732 0.38746h-1.93658l-0.38731-0.38746-0.38732-0.38746v-0.38746h-0.38731l-0.38732 0.38746v0.38746l-0.38732 0.38746-0.38731 0.38746-0.77463 1.16239v0.38746l-0.38732 0.77492v1.54985h-0.38731v0.38746l-1.93658 0.77492-0.77464 0.38746v0.38746h-0.38731l-0.77463-0.38746h-0.77464l-0.38731 0.38746-0.387323 0.38746-0.38731-0.38746-0.77464-0.38746-0.38731-0.38746-0.38732 0.38746h-3.48584l-0.77463 0.38746-0.38732-0.38746v-0.38746h0.38732l0.38731-0.38746 0.38732-0.38746-0.38732-0.38746v-1.16239l-1.16194-0.38746-0.77464-0.77492h-0.38731l-0.38732 0.38746-0.38731 0.38746h-0.38732v-0.38746h-0.38732v-0.38746l-0.38731-0.38746v-0.38746h-0.38732l-0.38731-0.38747-0.77464-0.38746-0.38731-0.38746h-0.38732v-0.77492h-1.16195l-0.38731-0.38746h-1.16195l-0.77463-0.38746h-0.77463zm0.38731 36.0339h-0.77463l0.38732 0.38746zm-0.38731-4.26207h0.38731v0.38746l0.38732 0.38746h0.38731v0.77492h-0.38731l-0.38732-0.38746h-0.38731l0.38731-0.38746-0.38731-0.38746zm0.77463 0 0.38731 0.38746h-0.38731z"/>
  <path id="path1011" d="m82.8177 177.174v0.38746l0.38732 0.38746v-0.77492l0.38731 0.38746h-0.38731v0.38746h0.38731v0.77492h-0.38731l-0.38732-0.38746h-0.38731l0.38731-0.38746-0.38731-0.38746v-0.38746z"/>
 </g>
</g>
</svg>
