<svg id="svgdata" xmlns="http://www.w3.org/2000/svg" version="1.1">
	<g id="outlines">
		<path id="AK" d="m161.1 453.7-0.3 85.4 1.6 1 3.1 0.2 1.5-1.1h2.6l0.2 2.9 7 6.8 0.5 2.6 3.4-1.9 0.6-0.2 0.3-3.1 1.5-1.6 1.1-0.2 1.9-1.5 3.1 2.1 0.6 2.9 1.9 1.1 1.1 2.4 3.9 1.8 3.4 6 2.7 3.9 2.3 2.7 1.5 3.7 5 1.8 5.2 2.1 1 4.4 0.5 3.1-1 3.4-1.8 2.3-1.6-0.8-1.5-3.1-2.7-1.5-1.8-1.1-0.8 0.8 1.5 2.7 0.2 3.7-1.1 0.5-1.9-1.9-2.1-1.3 0.5 1.6 1.3 1.8-0.8 0.8s-0.8-0.3-1.3-1c-0.5-0.6-2.1-3.4-2.1-3.4l-1-2.3s-0.3 1.3-1 1c-0.6-0.3-1.3-1.5-1.3-1.5l1.8-1.9-1.5-1.5v-5h-0.8l-0.8 3.4-1.1 0.5-1-3.7-0.6-3.7-0.8-0.5 0.3 5.7v1.1l-1.5-1.3-3.6-6-2.1-0.5-0.6-3.7-1.6-2.9-1.6-1.1v-2.3l2.1-1.3-0.5-0.3-2.6 0.6-3.4-2.4-2.6-2.9-4.8-2.6-4-2.6 1.3-3.2v-1.6l-1.8 1.6-2.9 1.1-3.7-1.1-5.7-2.4h-5.5l-0.6 0.5-6.5-3.9-2.1-0.3-2.7-5.8-3.6 0.3-3.6 1.5 0.5 4.5 1.1-2.9 1 0.3-1.5 4.4 3.2-2.7 0.6 1.6-3.9 4.4-1.3-0.3-0.5-1.9-1.3-0.8-1.3 1.1-2.7-1.8-3.1 2.1-1.8 2.1-3.4 2.1-4.7-0.2-0.5-2.1 3.7-0.6v-1.3l-2.3-0.6 1-2.4 2.3-3.9v-1.8l0.2-0.8 4.4-2.3 1 1.3h2.7l-1.3-2.6-3.7-0.3-5 2.7-2.4 3.4-1.8 2.6-1.1 2.3-4.2 1.5-3.1 2.6-0.3 1.6 2.3 1 0.8 2.1-2.7 3.2-6.5 4.2-7.8 4.2-2.1 1.1-5.3 1.1-5.3 2.3 1.8 1.3-1.5 1.5-0.5 1.1-2.7-1-3.2 0.2-0.8 2.3h-1l0.3-2.4-3.6 1.3-2.9 1-3.4-1.3-2.9 1.9h-3.2l-2.1 1.3-1.6 0.8-2.1-0.3-2.6-1.1-2.3 0.6-1 1-1.6-1.1v-1.9l3.1-1.3 6.3 0.6 4.4-1.6 2.1-2.1 2.9-0.6 1.8-0.8 2.7 0.2 1.6 1.3 1-0.3 2.3-2.7 3.1-1 3.4-0.6 1.3-0.3 0.6 0.5h0.8l1.3-3.7 4-1.5 1.9-3.7 2.3-4.5 1.6-1.5 0.3-2.6-1.6 1.3-3.4 0.6-0.6-2.4-1.3-0.3-1 1-0.2 2.9-1.5-0.2-1.5-5.8-1.3 1.3-1.1-0.5-0.3-1.9-4 0.2-2.1 1.1-2.6-0.3 1.5-1.5 0.5-2.6-0.6-1.9 1.5-1 1.3-0.2-0.6-1.8v-4.4l-1-1-0.8 1.5h-6.1l-1.5-1.3-0.6-3.9-2.1-3.6v-1l2.1-0.8 0.2-2.1 1.1-1.1-0.8-0.5-1.3 0.5-1.1-2.7 1-5 4.5-3.2 2.6-1.6 1.9-3.7 2.7-1.3 2.6 1.1 0.3 2.4 2.4-0.3 3.2-2.4 1.6 0.6 1 0.6h1.6l2.3-1.3 0.8-4.4s0.3-2.9 1-3.4c0.6-0.5 1-1 1-1l-1.1-1.9-2.6 0.8-3.2 0.8-1.9-0.5-3.6-1.8-5-0.2-3.6-3.7 0.5-3.9 0.6-2.4-2.1-1.8-1.9-3.7 0.5-0.8 6.8-0.5h2.1l1 1h0.6l-0.2-1.6 3.9-0.6 2.6 0.3 1.5 1.1-1.5 2.1-0.5 1.5 2.7 1.6 5 1.8 1.8-1-2.3-4.4-1-3.2 1-0.8-3.4-1.9-0.5-1.1 0.5-1.6-0.8-3.9-2.9-4.7-2.4-4.2 2.9-1.9h3.2l1.8 0.6 4.2-0.2 3.7-3.6 1.1-3.1 3.7-2.4 1.6 1 2.7-0.6 3.7-2.1 1.1-0.2 1 0.8 4.5-0.2 2.7-3.1h1.1l3.6 2.4 1.9 2.1-0.5 1.1 0.6 1.1 1.6-1.6 3.9 0.3 0.3 3.7 1.9 1.5 7.1 0.6 6.3 4.2 1.5-1 5.2 2.6 2.1-0.6 1.9-0.8 4.8 1.9zm-115.1 28.9l2.1 5.3-0.2 1-2.9-0.3-1.8-4-1.8-1.5h-2.4l-0.2-2.6 1.8-2.4 1.1 2.4 1.5 1.5zm-2.6 33.5 3.7 0.8 3.7 1 0.8 1-1.6 3.7-3.1-0.2-3.4-3.6zm-34.4 59 3.4-2.3 3.4-1 2.6 0.3 0.5 1.6 1.9 0.5 1.9-1.9-0.3-1.6 2.7-0.6 2.9 2.6-1.1 1.8-4.4 1.1-2.7-0.5-3.7-1.1-4.4 1.5-1.6 0.3zm48.9-4.5 1.6 1.9 2.1-1.6-1.5-1.3zm35.3-11.4 1.1 5.8 2.9 0.8 5-2.9 4.4-2.6-1.6-2.4 0.5-2.4-2.1 1.3-2.9-0.8 1.6-1.1 1.9 0.8 3.9-1.8 0.5-1.5-2.4-0.8 0.8-1.9-2.7 1.9-4.7 3.6-4.8 2.9zm42.3-19.8 2.4-1.5-1-1.8-1.8 1z"/>
		<path id="HI" d="m233.1 519.3 1.9-3.6 2.3-0.3 0.3 0.8-2.1 3.1zm10.2-3.7 6.1 2.6 2.1-0.3 1.6-3.9-0.6-3.4-4.2-0.5-4 1.8zm30.7 10 3.7 5.5 2.4-0.3 1.1-0.5 1.5 1.3 3.7-0.2 1-1.5-2.9-1.8-1.9-3.7-2.1-3.6-5.8 2.9zm20.2 8.9 1.3-1.9 4.7 1 0.6-0.5 6.1 0.6-0.3 1.3-2.6 1.5-4.4-0.3zm5.3 5.2 1.9 3.9 3.1-1.1 0.3-1.6-1.6-2.1-3.7-0.3zm7-1.2 2.3-2.9 4.7 2.4 4.4 1.1 4.4 2.7v1.9l-3.6 1.8-4.8 1-2.4-1.5zm16.6 15.6 1.6-1.3 3.4 1.6 7.6 3.6 3.4 2.1 1.6 2.4 1.9 4.4 4 2.6-0.3 1.3-3.9 3.2-4.2 1.5-1.5-0.6-3.1 1.8-2.4 3.2-2.3 2.9-1.8-0.2-3.6-2.6-0.3-4.5 0.6-2.4-1.6-5.7-2.1-1.8-0.2-2.6 2.3-1 2.1-3.1 0.5-1-1.6-1.8z"/>
		<path id="AL" d="m628.5 466.4 0.6 0.2 1.3-2.7 1.5-4.4 2.3 0.6 3.1 6v1l-2.7 1.9 2.7 0.3 5.2-2.5-0.3-7.6-2.5-1.8-2-2 0.4-4 10.5-1.5 25.7-2.9 6.7-0.6 5.6 0.1-0.5-2.2-1.5-0.8-0.9-1.1 1-2.6-0.4-5.2-1.6-4.5 0.8-5.1 1.7-4.8-0.2-1.7-1.8-0.7-0.5-3.6-2.7-3.4-2-6.5-1.4-6.7-1.8-5-3.8-16-3.5-7.9-0.8-5.6 0.1-2.2-9 0.8-23.4 2.2-12.2 0.8-0.2 6.4 0.2 16.7-0.7 31-0.3 14.1 2.8 18.8 1.6 14.7z"/>
		<path id="AR" d="m587.3 346.1-6.4-0.7 0.9-3.1 3.1-2.6 0.6-2.3-1.8-2.9-31.9 1.2-23.3 0.7-23.6 0.3 1.5 6.9 0.1 8.5 1.4 10.9 0.3 38.2 2.1 1.6 3-1.2 2.9 1.2 0.4 10.1 25.2-0.2 26.8-0.8 0.9-1.9-0.3-3.8-1.7-3.1 1.5-1.4-1.4-2.2 0.7-2.4 1.1-5.9 2.7-2.3-0.8-2.2 4-5.6 2.5-1.1-0.1-1.7-0.5-1.7 2.9-5.8 2.5-1.1 0.2-3.3 2.1-1.4 0.9-4.1-1.4-4 4.2-2.4 0.3-2.1 1.2-4.2 0.9-3.1z"/>
		<path id="AZ" d="m135.1 389.7-0.3 1.5 0.5 1 18.9 10.7 12.1 7.6 14.7 8.6 16.8 10 12.3 2.4 25.4 2.7 6-39.6 7-53.1 4.4-31-24.6-3.6-60.7-11-0.2 1.1-2.6 16.5-2.1 3.8-2.8-0.2-1.2-2.6-2.6-0.4-1.2-1.1-1.1 0.1-2.1 1.7-0.3 6.8-0.3 1.5-0.5 12.5-1.5 2.4-0.4 3.3 2.8 5 1.1 5.5 0.7 1.1 1.1 0.9-0.4 2.4-1.7 1.2-3.4 1.6-1.6 1.8-1.6 3.6-0.5 4.9-3 2.9-1.9 0.9-0.1 5.8-0.6 1.6 0.5 0.8 3.9 0.4-0.9 3-1.7 2.4-3.7 0.4z"/>
		<path id="CA" d="m122.7 385.9-19.7-2.7-10-1.5-0.5-1.8v-9.4l-0.3-3.2-2.6-4.2-0.8-2.3-3.9-4.2-2.9-4.7-2.7-0.2-3.2-0.8-0.3-1 1.5-0.6-0.6-3.2-1.5-2.1-4.8-0.8-3.9-2.1-1.1-2.3-2.6-4.8-2.9-3.1h-2.9l-3.9-2.1-4.5-1.8-4.2-0.5-2.4-2.7 0.5-1.9 1.8-7.1 0.8-1.9v-2.4l-1.6-1-0.5-2.9-1.5-2.6-3.4-5.8-1.3-3.1-1.5-4.7-1.6-5.3-3.2-4.4-0.5-2.9 0.8-3.9h1.1l2.1-1.6 1.1-3.6-1-2.7-2.7-0.5-1.9-2.6-2.1-3.7-0.2-8.2 0.6-1.9 0.6-2.3 0.5-2.4-5.7-6.3v-2.1l0.3-0.5 0.3-3.2-1.3-4-2.3-4.8-2.7-4.5-1.8-3.9 1-3.7 0.6-5.8 1.8-3.1 0.3-6.5-1.1-3.6-1.6-4.2-2.7-4.2 0.8-3.2 1.5-4.2 1.8-0.8 0.3-1.1 3.1-2.6 5.2-11.8 0.2-7.4 1.69-4.9 38.69 11.8 25.6 6.6-8 31.3-8.67 33.1 12.63 19.2 42.16 62.3 17.1 26.1-0.4 3.1 2.8 5.2 1.1 5.4 1 1.5 0.7 0.6-0.2 1.4-1.4 1-3.4 1.6-1.9 2.1-1.7 3.9-0.5 4.7-2.6 2.5-2.3 1.1-0.1 6.2-0.6 1.9 1 1.7 3 0.3-0.4 1.6-1.4 2-3.9 0.6zm-73.9-48.9l1.3 1.5-0.2 1.3-3.2-0.1-0.6-1.2-0.6-1.5zm1.9 0 1.2-0.6 3.6 2.1 3.1 1.2-0.9 0.6-4.5-0.2-1.6-1.6zm20.7 19.8 1.8 2.3 0.8 1 1.5 0.6 0.6-1.5-1-1.8-2.7-2-1.1 0.2v1.2zm-1.4 8.7 1.8 3.2 1.2 1.9-1.5 0.2-1.3-1.2s-0.7-1.5-0.7-1.9v-2.2z"/>
		<path id="CO" d="m380.2 235.5-36-3.5-79.1-8.6-2.2 22.1-7 50.4-1.9 13.7 34 3.9 37.5 4.4 34.7 3 14.3 0.6z"/>
		<path id="CT" d="m852 190.9 3.6-3.2 1.9-2.1 0.8 0.6 2.7-1.5 5.2-1.1 7-3.5-0.6-4.2-0.8-4.4-1.6-6-4.3 1.1-21.8 4.7 0.6 3.1 1.5 7.3v8.3l-0.9 2.1 1.7 2.2z"/>
		<path id="DE" d="m834.4 247.2-1 0.5-3.6-2.4-1.8-4.7-1.9-3.6-2.3-1-2.1-3.6 0.5-2 0.5-2.3 0.1-1.1-0.6 0.1-1.7 1-2 1.7-0.2 0.3 1.4 4.1 2.3 5.6 3.7 16.1 5-0.3 6-1.1z"/>
		<path id="FL" d="m750.2 445.2-5.2-0.7-0.7 0.8 1.5 4.4-0.4 5.2-4.1-1-0.2-2.8h-4.1l-5.3 0.7-32.4 1.9-8.2-0.3-1.7-1.7-2.5-4.2h-5.9l-6.6 0.5-35.4 4.2-0.3 2.8 1.6 1.6 2.9 2 0.3 8.4 3.3-0.6 6-2.1 6-0.5 4.4-0.6 7.6 1.8 8.1 3.9 1.6 1.5 2.9 1.1 1.6 1.9 0.3 2.7 3.2-1.3h3.9l3.6-1.9 3.7-3.6 3.1 0.2 0.5-1.1-0.8-1 0.2-1.9 4-0.8h2.6l2.9 1.5 4.2 1.5 2.4 3.7 2.7 1 1.1 3.4 3.4 1.6 1.6 2.6 1.9 0.6 5.2 1.3 1.3 3.1 3 3.7v9.5l-1.5 4.7 0.3 2.7 1.3 4.8 1.8 4 0.8-0.5 1.5-4.5-2.6-1-0.3-0.6 1.6-0.6 4.5 1 0.2 1.6-3.2 5.5-2.1 2.4 3.6 3.7 2.6 3.1 2.9 5.3 2.9 3.9 2.1 5 1.8 0.3 1.6-2.1 1.8 1.1 2.6 4 0.6 3.6 3.1 4.4 0.8-1.3 3.9 0.3 3.6 2.3 3.4 5.2 0.8 3.4 0.3 2.9 1.1 1 1.3 0.5 2.4-1 1.5-1.6 3.9-0.2 3.1-1.5 2.7-3.2-0.5-1.9-0.3-2.4 0.6-1.9-0.3-1.9 2.4-1.3 0.3-3.4-0.6-1.8-0.5-12-1.3-7.6-4.5-8.2-3.6-5.8-2.6-5.3-2.9-2.9-2.9-7.4 0.7-1.4 1.1-1.3-1.6-2.9-4-3.7-4.8-5.5-3.7-6.3-5.3-9.4-3.7-9.7-2.3-7.3zm17.7 132.7 2.4-0.6 1.3-0.2 1.5-2.3 2.3-1.6 1.3 0.5 1.7 0.3 0.4 1.1-3.5 1.2-4.2 1.5-2.3 1.2zm13.5-5 1.2 1.1 2.7-2.1 5.3-4.2 3.7-3.9 2.5-6.6 1-1.7 0.2-3.4-0.7 0.5-1 2.8-1.5 4.6-3.2 5.3-4.4 4.2-3.4 1.9z"/>
		<path id="GA" d="m750.2 444.2-5.6-0.7-1.4 1.6 1.6 4.7-0.3 3.9-2.2-0.6-0.2-3h-5.2l-5.3 0.7-32.3 1.9-7.7-0.3-1.4-1.2-2.5-4.3-0.8-3.3-1.6-0.9-0.5-0.5 0.9-2.2-0.4-5.5-1.6-4.5 0.8-4.9 1.7-4.8-0.2-2.5-1.9-0.7-0.4-3.2-2.8-3.5-1.9-6.2-1.5-7-1.7-4.8-3.8-16-3.5-8-0.8-5.3 0.1-2.3 3.3-0.3 13.6-1.6 18.6-2 6.3-1.1 0.5 1.4-2.2 0.9-0.9 2.2 0.4 2 1.4 1.6 4.3 2.7 3.2-0.1 3.2 4.7 0.6 1.6 2.3 2.8 0.5 1.7 4.7 1.8 3 2.2 2.3 3 2.3 1.3 2 1.8 1.4 2.7 2.1 1.9 4.1 1.8 2.7 6 1.7 5.1 2.8 0.7 2.1 1.9 2 5.7 2.9 1.6 1.7-0.8 0.4 1.2-3.3 6.2 0.5 2.6-1.5 4.2-2.3 10 0.8 6.3z"/>
		<path id="IA" d="m556.8 183.6 2.1 2.1 0.3 0.7-2 3 0.3 4 2.6 4.1 3.1 1.6 2.4 0.3 0.9 1.8 0.2 2.4 2.5 1 0.9 1.1 0.5 1.6 3.8 3.3 0.6 1.9-0.7 3-1.7 3.7-0.6 2.4-2.1 1.6-1.6 0.5-5.7 1.5-1.6 4.8 0.8 1.8 1.7 1.5-0.2 3.5-1.9 1.4-0.7 1.8v2.4l-1.4 0.4-1.7 1.4-0.5 1.7 0.4 1.7-1.3 1-2.3-2.7-1.4-2.8-8.3 0.8-10 0.6-49.2 1.2-1.6-4.3-0.4767-6.85339-1.43835-6.15578-0.585-3.091-2.2-3.7-1-4.6-2.7-7.8-0.86991-6.25192-2.93-4.148 1.7-3.8 1.2-6.1-2.7-2.2-0.3-2.4 0.7-2.4 1.8-0.3 61.1-0.6 21.2-0.7z"/>
		<path id="ID" d="m175.3 27.63-4.8 17.41-4.5 20.86-3.4 16.22-0.4 9.67 1.2 4.44 3.5 2.66-0.2 3.91-3.9 4.4-4.5 6.6-0.9 2.9-1.2 1.1-1.8 0.8-4.3 5.3-0.4 3.1-0.4 1.1 0.6 1 2.6-0.1 1.1 2.3-2.4 5.8-1.2 4.2-8.8 35.3 20.7 4.5 39.5 7.9 34.8 6.1 4.9-29.2 3.8-24.1-2.7-2.4-0.4-2.6-0.8-1.1-2.1 1-0.7 2.6-3.2 0.5-3.9-1.6-3.8 0.1-2.5 0.7-3.4-1.5-2.4 0.2-2.4 2-2-1.1-0.7-4 0.7-2.9-2.5-2.9-3.3-2.6-2.7-13.1-0.1-4.7-0.3-0.1-0.2 0.4-5.1 3.5-1.7-0.2-2.9-3.4-0.2-3.1 7-17.13-0.4-1.94-3.4-1.15-0.6-1.18-2.6-3.46-4.6-10.23-3.2-1.53-2-4.95 1.3-4.63-3.2-7.58 4.4-21.52z"/>
		<path id="IL" d="m618.7 214.3-0.8-2.6-1.3-3.7-1.6-1.8-1.5-2.6-0.4-5.5-15.9 1.8-17.4 1h-12.3l0.2 2.1 2.2 0.9 1.1 1.4 0.4 1.4 3.9 3.4 0.7 2.4-0.7 3.3-1.7 3.7-0.8 2.7-2.4 1.9-1.9 0.6-5.2 1.3-1.3 4.1 0.6 1.1 1.9 1.8-0.2 4.3-2.1 1.6-0.5 1.3v2.8l-1.8 0.6-1.4 1.2-0.4 1.2 0.4 2-1.6 1.3-0.9 2.8 0.3 3.9 2.3 7 7 7.6 5.7 3.7v4.4l0.7 1.2 6.6 0.6 2.7 1.4-0.7 3.5-2.2 6.2-0.8 3 2 3.7 6.4 5.3 4.8 0.8 2.2 5.1 2 3.4-0.9 2.8 1.5 3.8 1.7 2.1 1.6-0.3 1-2.2 2.4-1.7 2.8-1 6.1 2.5 0.5-0.2v-1.1l-1.2-2.7 0.4-2.8 2.4-1.6 3.4-1.2-0.5-1.3-0.8-2 1.2-1.3 1-2.7v-4l0.4-4.9 2.5-3 1.8-3.8 2.5-4-0.5-5.3-1.8-3.2-0.3-3.3 0.8-5.3-0.7-7.2-1.1-15.8-1.4-15.3-0.9-11.7z"/>
		<path id="IN" d="m622.9 216.1 1.5 1 1.1-0.3 2.1-1.9 2.5-1.8 14.3-1.1 18.4-1.8 1.6 15.5 4.9 42.6-0.6 2.9 1.3 1.6 0.2 1.3-2.3 1.6-3.6 1.7-3.2 0.4-0.5 4.8-4.7 3.6-2.9 4 0.2 2.4-0.5 1.4h-3.5l-1.4-1.7-5.2 3 0.2 3.1-0.9 0.2-0.5-0.9-2.4-1.7-3.6 1.5-1.4 2.9-1.2-0.6-1.6-1.8-4.4 0.5-5.7 1-2.5 1.3v-2.6l0.4-4.7 2.3-2.9 1.8-3.9 2.7-4.2-0.5-5.8-1.8-3.1-0.3-3.2 0.8-5.3-0.7-7.1-0.9-12.6-2.5-30.1z"/>
		<path id="KS" d="m485.9 259.5-43.8-0.6-40.6-1.2-21.7-0.9-4.3 64.8 24.3 1 44.7 2.1 46.3 0.6 12.6-0.3 0.7-35-1.2-11.1-2.5-2-2.4-3-2.3-3.6 0.6-3 1.7-1.4v-2.1l-0.8-0.7-2.6-0.2-3.5-3.4z"/>
		<path id="KY" d="m607.2 331.8 12.6-0.7 0.1-4.1h4.3l30.4-3.2 45.1-4.3 5.6-3.6 3.9-2.1 0.1-1.9 6-7.8 4.1-3.6 2.1-2.4-3.3-2-2.5-2.7-3-3.8-0.5-2.2-2.6-1.4-0.9-1.9-0.2-6.1-2.6-2-1.9-1.1-0.5-2.3-1.3 0.2-2 1.2-2.5 2.7-1.9-1.7-2.5-0.5-2.4 1.4h-2.3l-1.8-2-5.6-0.1-1.8-4.5-2.9-1.5-2.1 0.8-4.2 0.2-0.5 2.1 1.2 1.5 0.3 2.1-2.8 2-3.8 1.8-2.6 0.4-0.5 4.5-4.9 3.6-2.6 3.7 0.2 2.2-0.9 2.3-4.5-0.1-1.3-1.3-3.9 2.2 0.2 3.3-2.4 0.6-0.8-1.4-1.7-1.2-2.7 1.1-1.8 3.5-2.2-1-1.4-1.6-3.7 0.4-5.6 1-2.8 1.3-1.2 3.4-1 1 1.5 3.7-4.2 1.4-1.9 1.4-0.4 2.2 1.2 2.4v2.2l-1.6 0.4-6.1-2.5-2.3 0.9-2 1.4-0.8 1.8 1.7 2.4-0.9 1.8-0.1 3.3-2.4 1.3-2.1 1.7z"/>
		<path id="LA" d="m526.9 485.9 8.1-0.3 10.3 3.6 6.5 1.1 3.7-1.5 3.2 1.1 3.2 1 0.8-2.1-3.2-1.1-2.6 0.5-2.7-1.6 0.8-1.5 3.1-1 1.8 1.5 1.8-1 3.2 0.6 1.5 2.4 0.3 2.3 4.5 0.3 1.8 1.8-0.8 1.6-1.3 0.8 1.6 1.6 8.4 3.6 3.6-1.3 1-2.4 2.6-0.6 1.8-1.5 1.3 1 0.8 2.9-2.3 0.8 0.6 0.6 3.4-1.3 2.3-3.4 0.8-0.5-2.1-0.3 0.8-1.6-0.2-1.5 2.1-0.5 1.1-1.3 0.6 0.8 0.6 3.1 4.2 0.6 4 1.9 1 1.5h2.9l1.1 1 2.3-3.1v-1.5h-1.3l-3.4-2.7-5.8-0.8-3.2-2.3 1.1-2.7 2.3 0.3 0.2-0.6-1.8-1v-0.5h3.2l1.8-3.1-1.3-1.9-0.3-2.7-1.5 0.2-1.9 2.1-0.6 2.6-3.1-0.6-1-1.8 1.8-1.9 1.9-1.7-2.2-6.5-3.4-3.4 1-7.3-0.2-0.5-1.3 0.2-33.1 1.4-0.8-2.4 0.8-8.5 8.6-14.8-0.9-2.6 1.4-0.4 0.4-2-2.2-2 0.1-1.9-2-4.5-0.4-5.1 0.1-0.7-26.4 0.8-25.2 0.1 0.4 9.7 0.7 9.5 0.5 3.7 2.6 4.5 0.9 4.4 4.3 6 0.3 3.1 0.6 0.8-0.7 8.3-2.8 4.6 1.2 2.4-0.5 2.6-0.8 7.3-1.3 3 0.2 3.7z"/>
		<path id="MA" d="m887.5 172.5-0.5-2.3 0.8-1.5 2.9-1.5 0.8 3.1-0.5 1.8-2.4 1.5v1l1.9-1.5 3.9-4.5 3.9-1.9 4.2-1.5-0.3-2.4-1-2.9-1.9-2.4-1.8-0.8-2.1 0.2-0.5 0.5 1 1.3 1.5-0.8 2.1 1.6 0.8 2.7-1.8 1.8-2.3 1-3.6-0.5-3.9-6-2.3-2.6h-1.8l-1.1 0.8-1.9-2.6 0.3-1.5 2.4-5.2-2.9-4.4-3.7 1.8-1.8 2.9-18.3 4.7-13.8 2.5-0.6 10.6 0.7 4.9 22-4.8 11.2-2.8 2 1.6 3.4 4.3 2.9 4.7zm12.5 1.4 2.2-0.7 0.5-1.7 1 0.1 1 2.3-1.3 0.5-3.9 0.1zm-9.4 0.8 2.3-2.6h1.6l1.8 1.5-2.4 1-2.2 1z"/>
		<path id="MD" d="m834.8 264.1 1.7-3.8 0.5-4.8-6.3 1.1-5.8 0.3-3.8-16.8-2.3-5.5-1.5-4.6-22.2 4.3-37.6 7.6 2 10.4 4.8-4.9 2.5-0.7 1.4-1.5 1.8-2.7 1.6 0.7 2.6-0.2 2.6-2.1 2-1.5 2.1-0.6 1.5 1.1 2.7 1.4 1.9 1.8 1.3 1.4 4.8 1.6-0.6 2.9 5.8 2.1 2.34863 1.12715 1.50476 1.76606l-0.854 3.607-1.8 2.6v2.1l0.3 0.8 2 1.3 3.4 1.1 4.3-0.1 3.1 1 2.1 0.3 1-2.1-1.5-2.1v-1.8l-2.4-2.1-2.1-5.5 1.3-5.3-0.2-2.1-1.3-1.3s1.5-1.6 1.5-2.3c0-0.6 0.5-2.1 0.5-2.1l1.9-1.3 1.9-1.6 0.5 1-1.5 1.6-1.3 3.7 0.3 1.1 1.8 0.3 0.5 5.5-2.1 1 0.3 3.6 0.5-0.2 1.1-1.9 1.6 1.8-1.6 1.3-0.3 3.4 2.6 3.4 3.9 0.5 1.6-0.8 3.2 4.2 1 0.4zm-14.5 0.2 1.1 2.5 0.2 1.8 1.1 1.9s0.9-0.9 0.9-1.2-0.7-3.1-0.7-3.1l-0.7-2.3z"/>
		<path id="ME-D2-land" d="m891.5 36.9004-1.80078 1.79883-4 2.90039v1l-0.79883 0.800782-2.70117-0.59961-1.299-2.3008v-1.09961l-1.30078-0.201172h-1.29883l-2.10156 4.20117-2.89844 8.90039-1.80078 4.79883 0.19922 4.80078 0.20117 1.5-0.80078 2.69922-0.79883 1v6l1.89844 2.40039-1.5 4-2.59961 4.69922-0.79883 5.5v2.60156l-1.5-0.40039-1.30078 0.169921 9.75195 31.2012 2.32224-0.0429 0.60546-0.60352-0.15015-2.66325 2.40186-4.04247 1.75842-0.47007 0.21753 2.05555 2.20488 0.49163 2.69401-3.8734 2.84809-1.01817-0.23155-1.11837-2.81191-0.65921 0.44756-3.22028 3.09479-0.52542 1.17448-0.75628-0.1491-3.95785 2.21369-0.47278 1.73869 3.89958 6.05747 1.24697-0.188-2.041 0.801-1.301-0.301-1.099-1.30078-1.5 2.10156-1.29883 1.79883 3.19922 1.5-0.30078 0.30078 1.30078v1.59961l1.90039 0.20117 0.5-2.70117 0.5-0.59961-1.60156-1.5 1-1.5 2.40039-1.5 1-1.5 1.80078-0.199219s0.4 2.09961 1 2.09961h1.29883l4.80078-5.5 3.40039-3.09961 1.90039-0.601562 2.099-4.6996v-1.90039l-2.30078-3.69922-1.90039-2.09961-2.79883 0.5 0.5 1.09961-0.20117 0.5h-0.79883l-2.9-2.3008-0.199-4.7988-0.801-1.9004h-6l-9.1-29.9004-1.9-1-6-2.4004zm20.9004 61.7988-2 0.701172l-1.4 2.1996 1.801 1.9s1.29883 0.10078 1.29883-0.19922 0.20117-2 0.20117-2l0.898-0.801zm-8.599 7.3008l-1.5 1.5 1.79883 2.90039 1.70117-0.90039-0.60156-2.40039z"/>
		<path id="ME-D1-land" d="m891.492 103.717 0.25386 3.88865-1.4021 1.20907-2.86717 0.22451-0.24241 1.60943 0.2109 0.21677v0.002l2.43494 0.49597 0.34131 2.21609-3.19644 1.42365-2.87301 4.10462-3.66748-0.78453-0.0698-1.66567-0.50779 0.16796-1.91796 3.44366 0.23069 2.78712-0.9258 1.0177-2.66404 0.10908 1.56641 5.32046 0.20117 2.5 4 1.09961 0.5 3.09961 2.19922 0.90039 1.09961-6.29883 0.20117-4.40039 1.5-1.30078-1-3.19922 3.09961-3.59961 1.59961 1.5 1.30078-0.5 5.29883-3.10156 0.30078-2.89844 2.90039-0.5 1.59961-2.60156-0.19922-1.59961-6.80279-1.30448v0.002l-1.49087-3.90853z"/>
		<path id="MI" d="m644.5 211 19.1-1.9 0.2 1.1 9.9-1.5 12-1.7 0.1-0.6 0.2-1.5 2.1-3.7 2-1.7-0.2-5.1 1.6-1.6 1.1-0.3 0.2-3.6 1.5-3 1.1 0.6 0.2 0.6 0.8 0.2 1.9-1-0.4-9.1-3.2-8.2-2.3-9.1-2.4-3.2-2.6-1.8-1.6 1.1-3.9 1.8-1.9 5-2.7 3.7-1.1 0.6-1.5-0.6s-2.6-1.5-2.4-2.1 0.5-5 0.5-5l3.4-1.3 0.8-3.4 0.6-2.6 2.4-1.6-0.3-10-1.6-2.3-1.3-0.8-0.8-2.1 0.8-0.8 1.6 0.3 0.2-1.6-2.6-2.2-1.3-2.6h-2.6l-4.5-1.5-5.5-3.4h-2.7l-0.6 0.6-1-0.5-3.1-2.3-2.9 1.8-2.9 2.3 0.3 3.6 1 0.3 2.1 0.5 0.5 0.8-2.6 0.8-2.6 0.3-1.5 1.8-0.3 2.1 0.3 1.6 0.3 5.5-3.6 2.1-0.6-0.2v-4.2l1.3-2.4 0.6-2.4-0.8-0.8-1.9 0.8-1 4.2-2.7 1.1-1.8 1.9-0.2 1 0.6 0.8-0.6 2.6-2.3 0.5v1.1l0.8 2.4-1.1 6.1-1.6 4 0.6 4.7 0.5 1.1-0.8 2.4-0.3 0.8-0.3 2.7 3.6 6 2.9 6.5 1.5 4.8-0.8 4.7-1 6-2.4 5.2-0.3 2.7-3.2 3.1zm-33.3-72.4-1.3-1.1-1.8-10.4-3.7-1.3-1.7-2.3-12.6-2.8-2.8-1.1-8.1-2.2-7.8-1-3.9-5.3 0.7-0.5 2.7-0.8 3.6-2.3v-1l0.6-0.6 6-1 2.4-1.9 4.4-2.1 0.2-1.3 1.9-2.9 1.8-0.8 1.3-1.8 2.3-2.3 4.4-2.4 4.7-0.5 1.1 1.1-0.3 1-3.7 1-1.5 3.1-2.3 0.8-0.5 2.4-2.4 3.2-0.3 2.6 0.8 0.5 1-1.1 3.6-2.9 1.3 1.3h2.3l3.2 1 1.5 1.1 1.5 3.1 2.7 2.7 3.9-0.2 1.5-1 1.6 1.3 1.6 0.5 1.3-0.8h1.1l1.6-1 4-3.6 3.4-1.1 6.6-0.3 4.5-1.9 2.6-1.3 1.5 0.2v5.7l0.5 0.3 2.9 0.8 1.9-0.5 6.1-1.6 1.1-1.1 1.5 0.5v7l3.2 3.1 1.3 0.6 1.3 1-1.3 0.3-0.8-0.3-3.7-0.5-2.1 0.6-2.3-0.2-3.2 1.5h-1.8l-5.8-1.3-5.2 0.2-1.9 2.6-7 0.6-2.4 0.8-1.1 3.1-1.3 1.1-0.5-0.2-1.5-1.6-4.5 2.4h-0.6l-1.1-1.6-0.8 0.2-1.9 4.4-1 4-3.2 6.9zm-29.6-56.5 1.8-2.1 2.2-0.8 5.4-3.9 2.3-0.6 0.5 0.5-5.1 5.1-3.3 1.9-2.1 0.9zm86.2 32.1 0.6 2.5 3.2 0.2 1.3-1.2s-0.1-1.5-0.4-1.6c-0.3-0.2-1.6-1.9-1.6-1.9l-2.2 0.2-1.6 0.2-0.3 1.1z"/>
		<path id="MN" d="m464.6 66.79-0.6 3.91v10.27l1.6 5.03 1.9 3.32 0.5 9.93 1.8 13.45 1.8 7.3 0.4 6.4v5.3l-1.6 1.8-1.8 1.3v1.5l0.9 1.7 4.1 3.5 0.7 3.2v35.9l60.3-0.6 21.2-0.7-0.5-6-1.8-2.1-7.2-4.6-3.6-5.3-3.4-0.9-2-2.8h-3.2l-3.5-3.8-0.5-7 0.1-3.9 1.5-3-0.7-2.7-2.8-3.1 2.2-6.1 5.4-4 1.2-1.4-0.2-8 0.2-3 2.6-3 3.8-2.9 1.3-0.2 4.5-5 1.8-0.8 2.3-3.9 2.4-3.6 3.1-2.6 4.8-2 9.2-4.1 3.9-1.8 0.6-2.3-4.4 0.4-0.7 1.1h-0.6l-1.8-3.1-8.9 0.3-1 0.8h-1l-0.5-1.3-0.8-1.8-2.6 0.5-3.2 3.2-1.6 0.8h-3.1l-2.6-1v-2.1l-1.3-0.2-0.5 0.5-2.6-1.3-0.5-2.9-1.5 0.5-0.5 1-2.4-0.5-5.3-2.4-3.9-2.6h-2.9l-1.3-1-2.3 0.6-1.1 1.1-0.3 1.3h-4.8v-2.1l-6.3-0.3-0.3-1.5h-4.8l-1.6-1.6-1.5-6.1-0.8-5.5-1.9-0.8-2.3-0.5-0.6 0.2-0.3 8.2-30.1-0.03z"/>
		<path id="MO" d="m593.1 338.7 0.5-5.9 4.2-3.4 1.9-1v-2.9l0.7-1.6-1.1-1.6-2.4 0.3-2.1-2.5-1.7-4.5 0.9-2.6-2-3.2-1.8-4.6-4.6-0.7-6.8-5.6-2.2-4.2 0.8-3.3 2.2-6 0.6-3-1.9-1-6.9-0.6-1.1-1.9v-4.1l-5.3-3.5-7.2-7.8-2.3-7.3-0.5-4.2 0.7-2.4-2.6-3.1-1.2-2.4-7.7 0.8-10 0.6-48.8 1.2 1.3 2.6-0.1 2.2 2.3 3.6 3 3.9 3.1 3 2.6 0.2 1.4 1.1v2.9l-1.8 1.6-0.5 2.3 2.1 3.2 2.4 3 2.6 2.1 1.3 11.6-0.8 40 0.5 5.7 23.7-0.2 23.3-0.7 32.5-1.3 2.2 3.7-0.8 3.1-3.1 2.5-0.5 1.8 5.2 0.5 4.1-1.1z"/>
		<path id="MS" d="m604.3 472.5 2.6-4.2 1.8 0.8 6.8-1.9 2.1 0.3 1.5 0.8h5.2l0.4-1.6-1.7-14.8-2.8-19 1-45.1-0.2-16.7 0.2-6.3-4.8 0.3-19.6 1.6-13 0.4-0.2 3.2-2.8 1.3-2.6 5.1 0.5 1.6 0.1 2.4-2.9 1.1-3.5 5.1 0.8 2.3-3 2.5-1 5.7-0.6 1.9 1.6 2.5-1.5 1.4 1.5 2.8 0.3 4.2-1.2 2.5-0.2 0.9 0.4 5 2 4.5-0.1 1.7 2.3 2-0.7 3.1-0.9 0.3 0.6 1.9-8.6 15-0.8 8.2 0.5 1.5 24.2-0.7 8.2-0.7 1.9-0.3 0.6 1.4-1 7.1 3.3 3.3 2.2 6.4z"/>
		<path id="MT" d="m361.1 70.77-5.3 57.13-1.3 15.2-59.1-6.6-49-7.1-1.4 11.2-1.9-1.7-0.4-2.5-1.3-1.9-3.3 1.5-0.7 2.5-2.3 0.3-3.8-1.6-4.1 0.1-2.4 0.7-3.2-1.5-3 0.2-2.1 1.9-0.9-0.6-0.7-3.4 0.7-3.2-2.7-3.2-3.3-2.5-2.5-12.6-0.1-5.3-1.6-0.8-0.6 1-4.5 3.2-1.2-0.1-2.3-2.8-0.2-2.8 7-17.15-0.6-2.67-3.5-1.12-0.4-0.91-2.7-3.5-4.6-10.41-3.2-1.58-1.8-4.26 1.3-4.63-3.2-7.57 4.4-21.29 32.7 6.89 18.4 3.4 32.3 5.3 29.3 4 29.2 3.5 30.8 3.07z"/>
		<path id="NC" d="m786.7 357.7-12.7-7.7l-3.1-0.8-16.6 2.1-1.6-3-2.8-2.2-16.7 0.5-7.4 0.9-9.2 4.5-6.8 2.7-6.5 1.2-13.4 1.4 0.1-4.1 1.7-1.3 2.7-0.7 0.7-3.8 3.9-2.5 3.9-1.5 4.5-3.7 4.4-2.3 0.7-3.2 4.1-3.8 0.7 1 2.5 0.2 2.4-3.6 1.7-0.4 2.6 0.3 1.8-4 2.5-2.4 0.5-1.8 0.1-3.5 4.4 0.1 38.5-5.6 57.5-12.3 2 4.8 3.6 6.5 2.4 2.4 0.6 2.3-2.4 0.2 0.8 0.6-0.3 4.2-2.6 1.3-0.6 2.1-1.3 2.9-3.7 1.6-2.4-0.3-1.5-0.2-1.6-1.3 0.3 1.3v1h1.9l0.8 1.3-1.9 6.3h4.2l0.6 1.6 2.3-2.3 1.3-0.5-1.9 3.6-3.1 4.8h-1.3l-1.1-0.5-2.7 0.6-5.2 2.4-6.5 5.3-3.4 4.7-1.9 6.5-0.5 2.4-4.7 0.5-5.1 1.5zm49.3-26.2 2.6-2.5 3.2-2.6 1.5-0.6 0.2-2-0.6-6.1-1.5-2.3-0.6-1.9 0.7-0.2 2.7 5.5 0.4 4.4-0.2 3.4-3.4 1.5-2.8 2.4-1.1 1.2z"/>
		<path id="ND" d="m471 126.4-0.4-6.2-1.8-7.3-1.8-13.61-0.5-9.7-1.9-3.18-1.6-5.32v-10.41l0.6-3.85-1.8-5.54-28.6-0.59-18.6-0.6-26.5-1.3-25.2-2.16-0.9 14.42-4.7 50.94 56.8 3.9 56.9 1.7z"/>
		<path id="NH" d="m881.7 141.3 1.1-3.2-2.7-1.2-0.5-3.1-4.1-1.1-0.3-3-11.7-37.48-0.7 0.08-0.6 1.6-0.6-0.5-1-1-1.5 1.9-0.2 2.29 0.5 8.41 1.9 2.8v4.3l-3.9 4.8-2.4 0.9v0.7l1.1 1.9v8.6l-0.8 9.2-0.2 4.7 1 1.4-0.2 4.7-0.5 1.5 1 1.1 5.1-1.2 13.8-3.5 1.7-2.9 4-1.9z"/>
		<path id="NJ" d="m823.7 228.3 0.1-1.5 2.7-1.3 1.7-2.8 1.7-2.4 3.3-3.2v-1.2l-6.1-4.1-1-2.7-2.7-0.3-0.1-0.9-0.7-2.2 2.2-1.1 0.2-2.9-1.3-1.3 0.2-1.2 1.9-3.1v-3.1l2.5-3.1 5.6 2.5 6.4 1.9 2.5 1.2 0.1 1.8-0.5 2.7 0.4 4.5-2.1 1.9-1.1 1 0.5 0.5 2.7-0.3 1.1-0.8 1.6 3.4 0.2 9.4 0.6 1.1-1.1 5.5-3.1 6.5-2.7 4-0.8 4.8-2.1 2.4h-0.8l-0.3-2.7 0.8-1-0.2-1.5-4-0.6-4.8-2.3-3.2-2.9-1-2z"/>
		<path id="NM" d="m270.2 429.4-16.7-2.6-1.2 9.6-15.8-2 6-39.7 7-53.2 4.4-30.9 34 3.9 37.4 4.4 32 2.8-0.3 10.8-1.4-0.1-7.4 97.7-28.4-1.8-38.1-3.7 0.7 6.3z"/>
		<path id="NV" d="m123.1 173.6 38.7 8.5 26 5.2-10.6 53.1-5.4 29.8-3.3 15.5-2.1 11.1-2.6 16.4-1.7 3.1-1.6-0.1-1.2-2.6-2.8-0.5-1.3-1.1-1.8 0.1-0.9 0.8-1.8 1.3-0.3 7.3-0.3 1.5-0.5 12.4-1.1 1.8-16.7-25.5-42.1-62.1-12.43-19 8.55-32.6 8.01-31.3z"/>
		<path id="NY" d="m843.4 200 0.5-2.7-0.2-2.4-3-1.5-6.5-2-6-2.6-0.6-0.4-2.7-0.3-2-1.5-2.1-5.9-3.3-0.5-2.4-2.4-38.4 8.1-31.6 6-0.5-6.5 1.6-1.2 1.3-1.1 1-1.6 1.8-1.1 1.9-1.8 0.5-1.6 2.1-2.7 1.1-1-0.2-1-1.3-3.1-1.8-0.2-1.9-6.1 2.9-1.8 4.4-1.5 4-1.3 3.2-0.5 6.3-0.2 1.9 1.3 1.6 0.2 2.1-1.3 2.6-1.1 5.2-0.5 2.1-1.8 1.8-3.2 1.6-1.9h2.1l1.9-1.1 0.2-2.3-1.5-2.1-0.3-1.5 1.1-2.1v-1.5h-1.8l-1.8-0.8-0.8-1.1-0.2-2.6 5.8-5.5 0.6-0.8 1.5-2.9 2.9-4.5 2.7-3.7 2.1-2.4 2.4-1.8 3.1-1.2 5.5-1.3 3.2 0.2 4.5-1.5 7.4-2.2 0.7 4.9 2.4 6.5 0.8 5-1 4.2 2.6 4.5 0.8 2-0.9 3.2 3.7 1.7 2.7 10.2v5.8l-0.6 10.9 0.8 5.4 0.7 3.6 1.5 7.3v8.1l-1.1 2.3 2.1 2.7 0.5 0.9-1.9 1.8 0.3 1.3 1.3-0.3 1.5-1.3 2.3-2.6 1.1-0.6 1.6 0.6 2.3 0.2 7.9-3.9 2.9-2.7 1.3-1.5 4.2 1.6-3.4 3.6-3.9 2.9-7.1 5.3-2.6 1-5.8 1.9-4 1.1-1-0.4z"/>
		<path id="OH" d="m663.8 211.2 1.7 15.5 4.8 41.1 3.9-0.2 2.3-0.8 3.6 1.8 1.7 4.2 5.4 0.1 1.8 2h1.7l2.4-1.4 3.1 0.5 1.5 1.3 1.8-2 2.3-1.4 2.4-0.4 0.6 2.7 1.6 1 2.6 2 0.8 0.2 2-0.1 1.2-0.6v-2.1l1.7-1.5 0.1-4.8 1.1-4.2 1.9-1.3 1 0.7 1 1.1 0.7 0.2 0.4-0.4-0.9-2.7v-2.2l1.1-1.4 2.5-3.6 1.3-1.5 2.2 0.5 2.1-1.5 3-3.3 2.2-3.7 0.2-5.4 0.5-5v-4.6l-1.2-3.2 1.2-1.8 1.3-1.2-0.6-2.8-4.3-25.6-6.2 3.7-3.9 2.3-3.4 3.7-4 3.9-3.2 0.8-2.9 0.5-5.5 2.6-2.1 0.2-3.4-3.1-5.2 0.6-2.6-1.5-2.2-1.3z"/>
		<path id="OK" d="m411.9 334.9-1.8 24.3-0.9 18 0.2 1.6 4 3.6 1.7 0.9h0.9l0.9-2.1 1.5 1.9 1.6 0.1 0.3-0.2 0.2-1.1 2.8 1.4-0.4 3.5 3.8 0.5 2.5 1 4.2 0.6 2.3 1.6 2.5-1.7 3.5 0.7 2.2 3.1 1.2 0.1v2.3l2.1 0.7 2.5-2.1 1.8 0.6 2.7 0.1 0.7 2.3 4.4 1.8 1.7-0.3 1.9-4.2h1.3l1.1 2.1 4.2 0.8 3.4 1.3 3 0.8 1.6-0.7 0.7-2.7h4.5l1.9 0.9 2.7-1.9h1.4l0.6 1.4h3.6l2-1.8 2.3 0.6 1.7 2.2 3 1.7 3.4 0.9 1.9 1.2-0.3-37.6-1.4-10.9-0.1-8.6-1.5-6.6-0.6-6.8 0.1-4.3-12.6 0.3-46.3-0.5-44.7-2.1-41.5-1.8-0.4 10.7z"/>
		<path id="OR" d="m67.44 158.9 28.24 7.2 27.52 6.5 17 3.7 8.8-35.1 1.2-4.4 2.4-5.5-0.7-1.3-2.5 0.1-1.3-1.8 0.6-1.5 0.4-3.3 4.7-5.7 1.9-0.9 0.9-0.8 0.7-2.7 0.8-1.1 3.9-5.7 3.7-4 0.2-3.26-3.4-2.49-1.2-4.55-13.1-3.83-15.3-3.47-14.8 0.37-1.1-1.31-5.1 1.84-4.5-0.48-2.4-1.58-1.3 0.54-4.68-0.29-1.96-1.43-4.84-1.77-1.1-0.07-4.45-1.27-1.76 1.52-6.26-0.24-5.31-3.85 0.21-9.28-2.05-3.5-4.1-0.6-0.7-2.5-2.4-0.5-5.8 2.1-2.3 6.5-3.2 10-3.2 6.5-5 14.1-6.5 13.6-8.1 12.6-1.9 2.9-0.8 8.6-1.3 6 2.71 3.5z"/>
		<path id="PA" d="m736.6 192.2 1.3-0.5 5.7-5.5 0.7 6.9 33.5-6.5 36.9-7.8 2.3 2.3 3.1 0.4 2 5.6 2.4 1.9 2.8 0.4 0.1 0.1-2.6 3.2v3.1l-1.9 3.1-0.2 1.9 1.3 1.3-0.2 1.9-2.4 1.1 1 3.4 0.2 1.1 2.8 0.3 0.9 2.5 5.9 3.9v0.4l-3.1 3-1.5 2.2-1.7 2.8-2.7 1.2-1.4 0.3-2.1 1.3-1.6 1.4-22.4 4.3-38.7 7.8-11.3 1.4-3.9 0.7-5.1-22.4-4.3-25.9z"/>
		<path id="RI" d="m873.6 175.7-0.8-4.4-1.6-6 5.7-1.5 1.5 1.3 3.4 4.3 2.8 4.4-2.8 1.4-1.3-0.2-1.1 1.8-2.4 1.9-2.8 1.1z"/>
		<path id="SC" d="m759 413.6-2.1-1-1.9-5.6-2.5-2.3-2.5-0.5-1.5-4.6-3-6.5-4.2-1.8-1.9-1.8-1.2-2.6-2.4-2-2.3-1.3-2.2-2.9-3.2-2.4-4.4-1.7-0.4-1.4-2.3-2.8-0.5-1.5-3.8-5.4-3.4 0.1-3.9-2.5-1.2-1.2-0.2-1.4 0.6-1.6 2.7-1.3-0.8-2 6.4-2.7 9.2-4.5 7.1-0.9 16.4-0.5 2.3 1.9 1.8 3.5 4.6-0.8 12.6-1.5 2.7 0.8 12.5 7.4 10.1 8.3-5.3 5.4-2.6 6.1-0.5 6.3-1.6 0.8-1.1 2.7-2.4 0.6-2.1 3.6-2.7 2.7-2.3 3.4-1.6 0.8-3.6 3.4-2.9 0.2 1 3.2-5 5.3-2.3 1.6z"/>
		<path id="SD" d="m471 181.1-0.9 3.2 0.4 3 2.6 2-1.2 5.4-1.76165 4.29174-1.35871 0.13303l-2.379-1.225-4.8-1.5-2.5-1.3-2.9 0.1-3.9 0.4-3.8 1.2-5.3-3.8-2.7-2.4-10.9 0.8-41.5-2.4-35.6-2.2 1.5-24.8 2.8-34 0.4-5 56.9 3.9 56.9 1.7v2.7l-1.3 1.5-2 1.5-0.1 2.2 1.1 2.2 4.1 3.4 0.5 2.7v35.9z"/>
		<path id="TN" d="m670.8 359.6-13.1 1.2-23.3 2.2-37.6 2.7-11.8 0.4 0.9-0.6 0.9-4.5-1.2-3.6 3.9-2.3 0.4-2.5 1.2-4.3 3-9.5 0.5-5.6 0.3-0.2 12.3-0.2 13.6-0.8 0.1-3.9 3.5-0.1 30.4-3.3 54-5.2 10.3-1.5 7.6-0.2 2.4-1.9 1.3 0.3-0.1 3.3-0.4 1.6-2.4 2.2-1.6 3.6-2-0.4-2.4 0.9-2.2 3.3-1.4-0.2-0.8-1.2-1.1 0.4-4.3 4-0.8 3.1-4.2 2.2-4.3 3.6-3.8 1.5-4.4 2.8-0.6 3.6-2.5 0.5-2 1.7-0.2 4.8z"/>
		<path id="TX" d="m282.8 425.6 37 3.6 29.3 1.9 7.4-97.7 54.4 2.4-1.7 23.3-1 18 0.2 2 4.4 4.1 2 1.1h1.8l0.5-1.2 0.7 0.9 2.4 0.2 1.1-0.6v-0.2l1 0.5-0.4 3.7 4.5 0.7 2.4 0.9 4.2 0.7 2.6 1.8 2.8-1.9 2.7 0.6 2.2 3.1 0.8 0.1v2.1l3.3 1.1 2.5-2.1 1.5 0.5 2.1 0.1 0.6 2.1 5.2 2 2.3-0.5 1.9-4h0.1l1.1 1.9 4.6 0.9 3.4 1.3 3.2 1 2.4-1.2 0.7-2.3h3.6l2.1 1 3-2h0.4l0.5 1.4h4.7l1.9-1.8 1.3 0.4 1.7 2.1 3.3 1.9 3.4 1 2.5 1.4 2.7 2 3.1-1.2 2.1 0.8 0.7 20 0.7 9.5 0.6 4.1 2.6 4.4 0.9 4.5 4.2 5.9 0.3 3.1 0.6 0.8-0.7 7.7-2.9 4.8 1.3 2.6-0.5 2.4-0.8 7.2-1.3 3 0.3 4.2-5.6 1.6-9.9 4.5-1 1.9-2.6 1.9-2.1 1.5-1.3 0.8-5.7 5.3-2.7 2.1-5.3 3.2-5.7 2.4-6.3 3.4-1.8 1.5-5.8 3.6-3.4 0.6-3.9 5.5-4 0.3-1 1.9 2.3 1.9-1.5 5.5-1.3 4.5-1.1 3.9-0.8 4.5 0.8 2.4 1.8 7 1 6.1 1.8 2.7-1 1.5-3.1 1.9-5.7-3.9-5.5-1.1-1.3 0.5-3.2-0.6-4.2-3.1-5.2-1.1-7.6-3.4-2.1-3.9-1.3-6.5-3.2-1.9-0.6-2.3 0.6-0.6 0.3-3.4-1.3-0.6-0.6-1 1.3-4.4-1.6-2.3-3.2-1.3-3.4-4.4-3.6-6.6-4.2-2.6 0.2-1.9-5.3-12.3-0.8-4.2-1.8-1.9-0.2-1.5-6-5.3-2.6-3.1v-1.1l-2.6-2.1-6.8-1.1-7.4-0.6-3.1-2.3-4.5 1.8-3.6 1.5-2.3 3.2-1 3.7-4.4 6.1-2.4 2.4-2.6-1-1.8-1.1-1.9-0.6-3.9-2.3v-0.6l-1.8-1.9-5.2-2.1-7.4-7.8-2.3-4.7v-8.1l-3.2-6.5-0.5-2.7-1.6-1-1.1-2.1-5-2.1-1.3-1.6-7.1-7.9-1.3-3.2-4.7-2.3-1.5-4.4-2.6-2.9-1.7-0.5zm174.4 141.7-0.6-7.1-2.7-7.2-0.6-7 1.5-8.2 3.3-6.9 3.5-5.4 3.2-3.6 0.6 0.2-4.8 6.6-4.4 6.5-2 6.6-0.3 5.2 0.9 6.1 2.6 7.2 0.5 5.2 0.2 1.5z"/>
		<path id="UT" d="m228.4 305.9 24.6 3.6 1.9-13.7 7-50.5 2.3-22-32.2-3.5 2.2-13.1 1.8-10.6-34.7-6.1-12.5-2.5-10.6 52.9-5.4 30-3.3 15.4-1.7 9.2z"/>
		<path id="VA" d="m834.7 265.2-0.2 2.8-2.9 3.8-0.4 4.6 0.5 3.4-1.8 5-2.2 1.9-1.5-4.6 0.4-5.4 1.6-4.2 0.7-3.3-0.1-1.7zm-60.3 44.6-38.6 5.6-4.8-0.1-2.2-0.3-2.5 1.9-7.3 0.1-10.3 1.6-6.7 0.6 4.1-2.6 4.1-2.3v-2.1l5.7-7.3 4.1-3.7 2.2-2.5 3.6 4.3 3.8 0.9 2.7-1 2-1.5 2.4 1.2 4.6-1.3 1.7-4.4 2.4 0.7 3.2-2.3 1.6 0.4 2.8-3.2 0.2-2.7-0.8-1.2 4.8-10.5 1.8-5.2 0.5-4.7 0.7-0.2 1.1 1.7 1.5 1.2 3.9-0.2 1.7-8.1 3-0.6 0.8-2.6 2.8-2.2 1.1-2.1 1.8-4.3 0.1-4.6 3.6 1.4 6.6 3.1 0.3-5.2 3.4 1.2-0.6 2.9 8.6 3.1 1.4 1.8-0.8 3.3-1.3 1.3-0.5 1.7 0.5 2.4 2 1.3 3.9 1.4 2.9 1 4.9 0.9 2.2 2.1 3.2 0.4 0.9 1.2-0.4 4.7 1.4 1.1-0.5 1.9 1.2 0.8-0.2 1.4-2.7-0.1 0.1 1.6 2.3 1.5 0.1 1.4 1.8 1.8 0.5 2.5-2.6 1.4 1.6 1.5 5.8-1.7 3.7 6.2z"/>
		<path id="VT" d="m832.7 111.3 2.4 6.5 0.8 5.3-1 3.9 2.5 4.4 0.9 2.3-0.7 2.6 3.3 1.5 2.9 10.8v5.3l11.5-2.1-1-1.1 0.6-1.9 0.2-4.3-1-1.4 0.2-4.7 0.8-9.3v-8.5l-1.1-1.8v-1.6l2.8-1.1 3.5-4.4v-3.6l-1.9-2.7-0.3-5.79-26.1 6.79z"/>
		<path id="WA" d="m74.5 67.7-2.3-4.3-4.1-0.7-0.4-2.4-2.5-0.6-2.9-0.5-1.8 1-2.3-2.9 0.3-2.9 2.7-0.3 1.6-4l-2.6-1.1 0.2-3.7 4.4-0.6-2.7-2.7-1.5-7.1 0.6-2.9v-7.9l-1.8-3.2 2.3-9.4 2.1 0.5 2.4 2.9 2.7 2.6 3.2 1.9 4.5 2.1 3.1 0.6 2.9 1.5 3.4 1 2.3-0.2v-2.4l1.3-1.1 2.1-1.3 0.3 1.1 0.3 1.8-2.3 0.5-0.3 2.1 1.8 1.5 1.1 2.4 0.6 1.9 1.5-0.2 0.2-1.3-1-1.3-0.5-3.2 0.8-1.8-0.6-1.5v-2.6l1.8-3.6-1.1-2.6-2.4-4.8 0.3-0.8 1.4-0.8 4.4 1.5 9.7 2.7 8.6 1.9 20 5.7 23 5.7 15 3.49-4.8 17.56-4.5 20.83-3.4 16.25-0.4 9.18-12.9-3.72-15.3-3.47-14.5 0.32-1.1-1.53-5.7 2.09-3.9-0.42-2.6-1.79-1.7 0.65-4.15-0.25-1.72-1.32-5.16-1.82-1.18-0.16-4.8-1.39-1.92 1.65-5.65-0.25-4.61-3.35zm9.6-55.4 2-0.2 0.5 1.4 1.5-1.6h2.3l0.8 1.5-1.5 1.7 0.6 0.8-0.7 2-1.4 0.4s-0.9 0.1-0.9-0.2 1.5-2.6 1.5-2.6l-1.7-0.6-0.3 1.5-0.7 0.6-1.5-2.3z"/>
		<path id="WI" d="m541.4 109.9 2.9 0.5 2.9-0.6 7.4-3.2 2.9-1.9 2.1-0.8 1.9 1.5-1.1 1.1-1.9 3.1-0.6 1.9 1 0.6 1.8-1 1.1-0.2 2.7 0.8 0.6 1.1 1.1 0.2 0.6-1.1 4 5.3 8.2 1.2 8.2 2.2 2.6 1.1 12.3 2.6 1.6 2.3 3.6 1.2 1.7 10.2 1.6 1.4 1.5 0.9-1.1 2.3-1.8 1.6-2.1 4.7-1.3 2.4 0.2 1.8 1.5 0.3 1.1-1.9 1.5-0.8 0.8-2.3 1.9-1.8 2.7-4 4.2-6.3 0.8-0.5 0.3 1-0.2 2.3-2.9 6.8-2.7 5.7-0.5 3.2-0.6 2.6 0.8 1.3-0.2 2.7-1.9 2.4-0.5 1.8 0.6 3.6 0.6 3.4-1.5 2.6-0.8 2.9-1 3.1 1.1 2.4 0.6 6.1 1.6 4.5-0.2 3-15.9 1.8-17.5 1h-12.7l-0.7-1.5-2.9-0.4-2.6-1.3-2.3-3.7-0.3-3.6 2-2.9-0.5-1.4-2.1-2.2-0.8-3.3-0.6-6.8-2.1-2.5-7-4.5-3.8-5.4-3.4-1-2.2-2.8h-3.2l-2.9-3.3-0.5-6.5 0.1-3.8 1.5-3.1-0.8-3.2-2.5-2.8 1.8-5.4 5.2-3.8 1.6-1.9-0.2-8.1 0.2-2.8 2.4-2.8z"/>
		<path id="WV" d="m758.9 254.3 5.8-6 2.6-0.8 1.6-1.5 1.5-2.2 1.1 0.3 3.1-0.2 4.6-3.6 1.5-0.5 1.3 1 2.6 1.2 3 3-0.4 4.3-5.4-2.6-4.8-1.8-0.1 5.9-2.6 5.7-2.9 2.4-0.8 2.3-3 0.5-1.7 8.1-2.8 0.2-1.1-1-1.2-2-2.2 0.5-0.5 5.1-1.8 5.1-5 11 0.9 1.4-0.1 2-2.2 2.5-1.6-0.4-3.1 2.3-2.8-0.8-1.8 4.9-3.8 1-2.5-1.3-2.5 1.9-2.3 0.7-3.2-0.8-3.8-4.5-3.5-2.2-2.5-2.5-2.9-3.7-0.5-2.3-2.8-1.7-0.6-1.3-0.2-5.6 0.3 0.1 2.4-0.2 1.8-1v-2.2l1.7-1.5 0.1-5.2 0.9-3.6 1.1-0.7 0.4 0.3 1 1.1 1.7 0.5 1.1-1.3-1-3.1v-1.6l3.1-4.6 1.2-1.3 2 0.5 2.6-1.8 3.1-3.4 2.4-4.1 0.2-5.6 0.5-4.8v-4.9l-1.1-3 0.9-1.3 0.8-0.7 4.3 19.3 4.3-0.8 11.2-1.3z"/>
		<path id="WY" d="m353 161.9-1.5 25.4-4.4 44-2.7-0.3-83.3-9.1-27.9-3 2-12 6.9-41 3.8-24.2 1.3-11.2 48.2 7 59.1 6.5z"/>
		<rect id="DC" rx="3" ry="3" height="20" width="53" y="424.4" x="869"/>
		<rect id="MD-button" rx="3" ry="3" height="20" width="53" y="399.4" x="869"/>
		<rect id="DE-button" rx="3" ry="3" height="20" width="53" y="374.4" x="869"/>
		<rect id="NJ-button" rx="3" ry="3" height="20" width="53" y="349.4" x="869"/>
		<rect id="CT-button" rx="3" ry="3" height="20" width="53" y="324.4" x="869"/>
		<rect id="RI-button" rx="3" ry="3" height="20" width="53" y="299.4" x="869"/>
		<rect id="MA-button" rx="3" ry="3" height="20" width="53" y="274.4" x="869"/>
		<rect id="VT-button" rx="3" ry="3" height="20" width="53" y="249.4" x="869"/>
		<rect id="NH-button" rx="3" ry="3" height="20" width="53" y="224.4" x="869"/>
		<rect id="HI-button" rx="3" ry="3" height="20" width="50" y="553" x="250"/>
		<rect id="ME-AL" rx="7" ry="7" height="90.2902" width="81" y="10.0353" x="736.018"/>
		<rect id="ME-D1" rx="3" ry="3" height="20" width="69" y="44" x="742"/>
		<rect id="ME-D2" rx="3" ry="3" height="20" width="69" y="71" x="742"/>
		<rect id="NE-AL" rx="7" ry="7" height="61.0358" width="147" y="9.96421" x="582.022"/>
		<rect id="NE-D1" rx="3" ry="3" height="20" width="67" y="17" x="658"/>
		<rect id="NE-D2" rx="3" ry="3" height="20" width="67" y="44" x="587"/>
		<rect id="NE-D3" rx="3" ry="3" height="20" width="67" y="44" x="658"/>
		<path id="NE-D3-land" d="m352.4 187.699-4.30078 43.7012 33.0508 3.29883c0.0248-0.022 0.0664 0 0.0996 0l-1.44922 21.1016 21.6992 1 10.1504 0.29883 7.29883 0.25c0-0.006-0.00001-0.0117 0-0.0176l0.10156 0.006v0.0117l0.44727 0.0117 0.20703 0.0117 0.002-0.006 12.2422 0.33203 10.1504 0.30078 5.47461 0.0742 0.77539 0.0137v-0.0508h0.0996v0.0508l10.0762 0.13672 5.47461 0.0762 5.47461 0.0742 5.47461 0.0742 5.47656 0.0762 5.47461 0.0742h4.5l-2.20117-3-2.59961-3.90039 0.0996-2.29883-0.44141-0.85156-0.90625-0.0488h-19.8828v-4.91602h-10.157l0.30664-8.14062h-9.21875l0.18555-4.43555 3.69336-2.92578 0.11523-1.49414-1.51562-3.12695h-2.004l0.16797-11.5898 19.9629-0.30859v-5.38281h7.38672l-0.35423-3.0004-2.23904-2.94342-1.65339 0.0495-3.24553-1.48456-4.80078-1.5-2.19922-1.20117-2.59961 0.0996-3.70117 0.40039-4.10742 1.18945-0.19141-0.0215-5.90039-4.06836-2.20117-2-10.6992 0.60156-9.25977-0.5332-0.002-0.01-0.43359-0.0156-0.75391-0.043v0.0176l-0.10156-0.004c-0.00009-0.005 0.00009-0.009 0-0.0137l-10.199-0.598-10.375-0.6-17.125-1.078c-9.26045-0.23487-19.3016-1.11524-28.8496-1.72266z"/>
		<path id="NE-D1-land" d="m473.572 207.127-0.3086 0.0508h-6.25781v5.36719l-19.9766 0.3086-0.13868 9.41564 1.69001-0.0271 1.9905 4.0144-0.0829 2.38958-3.84239 3.07481-0.094 2.74769 9.10637-0.0271-0.30859 8.14062h10.1191v4.918h18.8125l0.4082-0.0508-0.38867-0.75-1.9004-5.1992-0.55378-6.54583-9.56545 4.05284-4.26966-12.1543 12.2795 0.76062-0.19141-1.91601-2.29883-3.69922-1-4.69922-2.799-7.901z"/>
		<path id="NE-D2-land" d="m469.598 228.152 3.33943 8.96545 8.57987-3.06754-1.12735-5.45679z"/>
	</g>
	<g id="text">
		<text id="NY-text" y="153.05663" x="818.16394"><tspan id="tspan73" y="153.05663" x="818.16394">NY</tspan><tspan id="tspan75" y="168.05663" x="818.16394">29</tspan></text>
		<text id="PA-text" y="209.66608" x="782.07806"><tspan id="tspan78" y="209.66608" x="782.07806">PA</tspan><tspan id="tspan80" y="224.66608" x="782.07806">20</tspan></text>
		<text id="OH-text" y="240.423" x="698.93951"><tspan id="tspan83" y="240.423" x="698.93951">OH</tspan><tspan id="tspan85" y="255.423" x="698.93951">18</tspan></text>
		<text id="VA-text" y="282.26245" x="787.45361"><tspan id="tspan88" y="282.26245" x="787.45361">VA</tspan><tspan id="tspan90" y="297.26245" x="787.45361">13</tspan></text>
		<text id="NC-text" y="332.69342" x="788.30316" xml:space="preserve"><tspan id="tspan93" y="332.69342" x="788.30316">NC</tspan><tspan id="tspan95" y="347.69342" x="788.30316">15</tspan></text>
		<text id="SC-text" y="377.11313" x="760.30951"><tspan id="tspan98" y="377.11313" x="760.30951">SC</tspan><tspan id="tspan100" y="392.11313" x="760.30951">9</tspan></text>
		<text id="GA-text" y="409.59967" x="715.9754"><tspan id="tspan103" y="409.59967" x="715.9754">GA</tspan><tspan id="tspan105" y="424.59967" x="715.9754">16</tspan></text>
		<text id="FL-text" y="501.80151" x="763.95477"><tspan id="tspan108" y="501.80151" x="763.95477">FL</tspan><tspan id="tspan110" y="516.80151" x="763.95477">29</tspan></text>
		<text id="AL-text" y="413.86169" x="653.29108"><tspan id="tspan8988-2-7" y="413.86169" x="653.29108">AL </tspan><tspan id="tspan316" y="428.86169" x="653.29108">9</tspan></text>
		<text id="MS-text" y="417.56348" x="599.49976" xml:space="preserve"><tspan id="tspan8988-2-9" y="417.56348" x="599.49976">MS </tspan><tspan id="tspan314" y="432.56348" x="599.49976">6</tspan></text>
		<text id="LA-text" y="442.68225" x="543.47321" xml:space="preserve"><tspan id="tspan8988-2-2" y="442.68225" x="543.47321">LA </tspan><tspan id="tspan312" y="457.68225" x="543.47321">8</tspan></text>
		<text id="TX-text" y="451.78485" x="425.24323" xml:space="preserve"><tspan id="tspan8988-2-97" y="451.78485" x="425.24323">TX </tspan><tspan id="tspan308" y="466.78485" x="425.24323">38</tspan></text>
		<text id="NM-text" y="374.96732" x="300.51709" xml:space="preserve"><tspan id="tspan8988-2-6" y="374.96732" x="300.51709">NM </tspan><tspan id="tspan298" y="389.96732" x="300.51709">5</tspan></text>
		<text id="AZ-text" y="359.95444" x="201.45459" xml:space="preserve"><tspan id="tspan8988-2-29" y="359.95444" x="201.45459">AZ </tspan><tspan id="tspan296" y="374.95444" x="201.45459">11</tspan></text>
		<text id="CA-text" y="286.508" x="71.765541" xml:space="preserve"><tspan id="tspan8988-2-1" y="286.508" x="71.765541">CA </tspan><tspan id="tspan294" y="301.508" x="71.765541">55</tspan></text>
		<text id="NV-text" y="236.30057" x="134.24072" xml:space="preserve"><tspan id="tspan8988-2-4" y="236.30057" x="134.24072">NV </tspan><tspan id="tspan292" y="251.30057" x="134.24072">6</tspan></text>
		<text id="UT-text" y="260.61462" x="217.71013" xml:space="preserve"><tspan id="tspan8988-2-8" y="260.61462" x="217.71013">UT </tspan><tspan id="tspan358" y="275.61462" x="217.71013">6</tspan></text>
		<text id="AK-text" y="498.93817" x="118.62477" xml:space="preserve"><tspan id="tspan8988-2-5" y="498.93817" x="118.62477">AK </tspan><tspan id="tspan310" y="513.93817" x="118.62477">3</tspan></text>
		<text id="OR-text" y="128.97232" x="92.813881" xml:space="preserve"><tspan id="tspan8988-2-3" y="128.97232" x="92.813881">OR </tspan><tspan id="tspan286" y="143.97232" x="92.813881">7</tspan></text>
		<text id="WA-text" y="50.403862" x="114.88856" xml:space="preserve"><tspan id="tspan8988-2-10" y="50.403862" x="114.88856">WA </tspan><tspan id="tspan284" y="65.403862" x="114.88856">12</tspan></text>
		<text id="ID-text" y="151.13513" x="187.10637" xml:space="preserve"><tspan id="tspan8988-2-32" y="151.13513" x="187.10637">ID </tspan><tspan id="tspan288" y="166.13513" x="187.10637">4</tspan></text>
		<text id="MT-text" y="88.959305" x="267.15582" xml:space="preserve"><tspan id="tspan8988-2-61" y="88.959305" x="267.15582">MT </tspan><tspan id="tspan282" y="103.9593" x="267.15582">3</tspan></text>
		<text id="WY-text" y="184.20738" x="298.88071" xml:space="preserve"><tspan id="tspan4124" y="184.20738" x="298.88071">WY </tspan><tspan id="tspan290" y="199.20738" x="298.88071">3</tspan></text>
		<text id="CO-text" y="277.56671" x="317.33667" xml:space="preserve"><tspan id="tspan8988-2-65" y="277.56671" x="317.33667">CO </tspan><tspan id="tspan300" y="292.56671" x="317.33667">9</tspan></text>
		<text id="ND-text" y="96.523651" x="414.06073" xml:space="preserve"><tspan id="tspan8988-2-93" y="96.523651" x="414.06073">ND </tspan><tspan id="tspan280" y="111.52365" x="414.06073">3</tspan></text>
		<text id="SD-text" y="160.07703" x="413.7551" xml:space="preserve"><tspan id="tspan8988-2-45" y="160.07703" x="413.7551">SD </tspan><tspan id="tspan354" y="175.07703" x="413.7551">3</tspan></text>
		<text id="NE-text" y="228.39598" x="414.57352" xml:space="preserve"><tspan id="tspan8988-2-47" y="228.39598" x="414.57352">NE </tspan><tspan id="tspan304" y="243.39598" x="414.57352">5</tspan></text>
		<text id="KS-text" y="292.60141" x="440.67682" xml:space="preserve"><tspan id="tspan8988-2-43" y="292.60141" x="440.67682">KS </tspan><tspan id="tspan302" y="307.60141" x="440.67682">6</tspan></text>
		<text id="OK-text" y="358.8862" x="457.82797" xml:space="preserve"><tspan id="tspan8988-2-78" y="358.8862" x="457.82797">OK </tspan><tspan id="tspan306" y="373.8862" x="457.82797">7</tspan></text>
		<text id="AR-text" y="374.47449" x="542.90167" xml:space="preserve"><tspan id="tspan8988-2-88" y="374.47449" x="542.90167">AR </tspan><tspan id="tspan344" y="389.47449" x="542.90167">6</tspan></text>
		<text id="MO-text" y="296.88016" x="542.75464" xml:space="preserve"><tspan id="tspan8988-2-31" y="296.88016" x="542.75464">MO </tspan><tspan id="tspan342" y="311.88016" x="542.75464">10</tspan></text>
		<text id="IA-text" y="215.34053" x="524.0625" xml:space="preserve"><tspan id="tspan8988-2-92" y="215.34053" x="524.0625">IA </tspan><tspan id="tspan340" y="230.34053" x="524.0625">6</tspan></text>
		<text id="MN-text" y="126.9517" x="504.05328" xml:space="preserve"><tspan id="tspan8988-2-68" y="126.9517" x="504.05328">MN </tspan><tspan id="tspan278" y="141.95169" x="504.05328">10</tspan></text>
		<text id="WI-text" y="161.49774" x="578.27698" xml:space="preserve"><tspan id="tspan8988-2-26" y="161.49774" x="578.27698">WI </tspan><tspan id="tspan276" y="176.49774" x="578.27698">10</tspan></text>
		<text id="IL-text" y="256.01404" x="596.22632" xml:space="preserve"><tspan id="tspan8988-2-49" y="256.01404" x="596.22632">IL </tspan><tspan id="tspan338" y="271.01401" x="596.22632">20</tspan></text>
		<text id="IN-text" y="250.16469" x="643.55707" xml:space="preserve"><tspan id="tspan8988-2-0" y="250.16469" x="643.55707">IN </tspan><tspan id="tspan332" y="265.16467" x="643.55707">11</tspan></text>
		<text id="KY-text" y="298.74237" x="681.9621" xml:space="preserve"><tspan id="tspan8988-2-87" y="298.74237" x="681.9621">KY </tspan><tspan id="tspan334" y="313.74237" x="681.9621">8</tspan></text>
		<text id="TN-text" y="342.21976" x="648.97949" xml:space="preserve"><tspan id="tspan8988-2-72" y="342.21976" x="648.97949">TN </tspan><tspan id="tspan336" y="357.21976" x="648.97949">11</tspan></text>
		<text id="MI-text" y="182.30766" x="658.43652" xml:space="preserve"><tspan id="tspan8988-2-22" y="182.30766" x="658.43652">MI </tspan><tspan id="tspan346" y="197.30766" x="658.43652">16</tspan></text>
		<text id="WV-text" y="273.22974" x="741.71716" xml:space="preserve"><tspan id="tspan8988-2-106" y="273.22974" x="741.71716">WV </tspan><tspan id="tspan328" y="288.22974" x="741.71716">5</tspan></text>
		<text id="ME-text" y="77.755493" x="891.76605" xml:space="preserve"><tspan id="tspan8988-2-59-0-7-1-7-7-5-9-9" y="77.755493" x="891.76605">ME </tspan><tspan id="tspan352" y="92.755493" x="891.76605">4</tspan></text>
		<text id="DC-text" y="440.31741" x="894.5271" xml:space="preserve"><tspan id="tspan8988-2-59" y="440.31741" x="894.5271">DC 3</tspan></text>
		<text id="MD-text" y="415.54175" x="896.20734" xml:space="preserve"><tspan id="tspan8988-2-59-0" y="415.54175" x="896.20734">MD 10</tspan></text>
		<text id="DE-text" y="391.00787" x="893.83398" xml:space="preserve"><tspan id="tspan8988-2-59-0-7" y="391.00787" x="893.83398">DE 3</tspan></text>
		<text id="NJ-text" y="365.79587" x="894.80182" xml:space="preserve"><tspan id="tspan8988-2-59-0-7-1" y="365.79587" x="894.80182">NJ 14</tspan></text>
		<text id="CT-text" y="341.00787" x="894.0694" xml:space="preserve"><tspan id="tspan8988-2-59-0-7-1-7" y="341.00787" x="894.0694">CT 7</tspan></text>
		<text id="RI-text" y="316.62143" x="894.53833" xml:space="preserve"><tspan id="tspan8988-2-59-0-7-1-7-7" y="316.62143" x="894.53833">RI 4</tspan></text>
		<text id="MA-text" y="290.87396" x="895.48035" xml:space="preserve"><tspan id="tspan8988-2-59-0-7-1-7-7-5" y="290.87396" x="895.48035">MA 11</tspan></text>
		<text id="VT-text" y="266.16125" x="894.61737" xml:space="preserve"><tspan id="tspan8988-2-59-0-7-1-7-7-5-9" y="266.16125" x="894.61737">VT 3</tspan></text>
		<text id="NH-text" y="241.00783" x="894.72394" xml:space="preserve"><tspan id="tspan8988-2-59-0-7-1-7-7-5-9-1" y="241.00783" x="894.72394">NH 4</tspan></text>
		<text id="HI-text" y="569.52155" x="275.63611" xml:space="preserve"><tspan id="tspan8988-2-59-0-0" y="569.52155" x="275.63611">HI 4</tspan></text>
		<text id="ME-AL-text" y="30.799999" x="776.71875" xml:space="preserve"><tspan id="tspan8988-2-59-0-7-1-7-7-5-9-1-5" y="30.799999" x="776.71875">ME-AL 2 </tspan></text>
		<text id="ME-D1-text" y="59.707001" x="778.71875" xml:space="preserve"><tspan id="tspan8988-2-59-0-7-1-7-7-5-9-1-5-6" y="59.707001" x="778.71875">ME-01 1 </tspan></text>
		<text id="ME-D2-text" y="86.765503" x="778.71875" xml:space="preserve"><tspan id="tspan8988-2-59-0-7-1-7-7-5-9-1-5-5" y="86.765503" x="778.71875">ME-02 1 </tspan></text>
		<text id="NE-AL-text" y="32.707001" x="623.03076" xml:space="preserve"><tspan id="tspan8988-2-59-0-7-1-7-7-5-9-1-5-1" y="32.707001" x="623.03076">NE-AL 2 </tspan></text>
		<text id="NE-D1-text" y="32.707001" x="694.03076" xml:space="preserve"><tspan id="tspan8988-2-59-0-7-1-7-7-5-9-1-5-1-8" y="32.707001" x="694.03076">NE-01 1 </tspan></text>
		<text id="NE-D2-text" y="59.765499" x="623.03076" xml:space="preserve"><tspan id="tspan8988-2-59-0-7-1-7-7-5-9-1-5-1-0" y="59.765499" x="623.03076">NE-02 1 </tspan></text>
		<text id="NE-D3-text" y="59.84375" x="694.03076" xml:space="preserve"><tspan id="tspan8988-2-59-0-7-1-7-7-5-9-1-5-1-04" y="59.84375" x="694.03076">NE-03 1 </tspan></text>
	</g>
</svg>
