<svg id="svgdata" xmlns="http://www.w3.org/2000/svg" version="1.1" enable-background="new" xmlns:xlink="http://www.w3.org/1999/xlink">
	<g id="outlines">
		<path id="AK" fill="#fff" d="m161.1 453.7-0.3 85.4 1.6 1 3.1 0.2 1.5-1.1h2.6l0.2 2.9 7 6.8 0.5 2.6 3.4-1.9 0.6-0.2 0.3-3.1 1.5-1.6 1.1-0.2 1.9-1.5 3.1 2.1 0.6 2.9 1.9 1.1 1.1 2.4 3.9 1.8 3.4 6 2.7 3.9 2.3 2.7 1.5 3.7 5 1.8 5.2 2.1 1 4.4 0.5 3.1-1 3.4-1.8 2.3-1.6-0.8-1.5-3.1-2.7-1.5-1.8-1.1-0.8 0.8 1.5 2.7 0.2 3.7-1.1 0.5-1.9-1.9-2.1-1.3 0.5 1.6 1.3 1.8-0.8 0.8s-0.8-0.3-1.3-1c-0.5-0.6-2.1-3.4-2.1-3.4l-1-2.3s-0.3 1.3-1 1c-0.6-0.3-1.3-1.5-1.3-1.5l1.8-1.9-1.5-1.5v-5h-0.8l-0.8 3.4-1.1 0.5-1-3.7-0.6-3.7-0.8-0.5 0.3 5.7v1.1l-1.5-1.3-3.6-6-2.1-0.5-0.6-3.7-1.6-2.9-1.6-1.1v-2.3l2.1-1.3-0.5-0.3-2.6 0.6-3.4-2.4-2.6-2.9-4.8-2.6-4-2.6 1.3-3.2v-1.6l-1.8 1.6-2.9 1.1-3.7-1.1-5.7-2.4h-5.5l-0.6 0.5-6.5-3.9-2.1-0.3-2.7-5.8-3.6 0.3-3.6 1.5 0.5 4.5 1.1-2.9 1 0.3-1.5 4.4 3.2-2.7 0.6 1.6-3.9 4.4-1.3-0.3-0.5-1.9-1.3-0.8-1.3 1.1-2.7-1.8-3.1 2.1-1.8 2.1-3.4 2.1-4.7-0.2-0.5-2.1 3.7-0.6v-1.3l-2.3-0.6 1-2.4 2.3-3.9v-1.8l0.2-0.8 4.4-2.3 1 1.3h2.7l-1.3-2.6-3.7-0.3-5 2.7-2.4 3.4-1.8 2.6-1.1 2.3-4.2 1.5-3.1 2.6-0.3 1.6 2.3 1 0.8 2.1-2.7 3.2-6.5 4.2-7.8 4.2-2.1 1.1-5.3 1.1-5.3 2.3 1.8 1.3-1.5 1.5-0.5 1.1-2.7-1-3.2 0.2-0.8 2.3h-1l0.3-2.4-3.6 1.3-2.9 1-3.4-1.3-2.9 1.9h-3.2l-2.1 1.3-1.6 0.8-2.1-0.3-2.6-1.1-2.3 0.6-1 1-1.6-1.1v-1.9l3.1-1.3 6.3 0.6 4.4-1.6 2.1-2.1 2.9-0.6 1.8-0.8 2.7 0.2 1.6 1.3 1-0.3 2.3-2.7 3.1-1 3.4-0.6 1.3-0.3 0.6 0.5h0.8l1.3-3.7 4-1.5 1.9-3.7 2.3-4.5 1.6-1.5 0.3-2.6-1.6 1.3-3.4 0.6-0.6-2.4-1.3-0.3-1 1-0.2 2.9-1.5-0.2-1.5-5.8-1.3 1.3-1.1-0.5-0.3-1.9-4 0.2-2.1 1.1-2.6-0.3 1.5-1.5 0.5-2.6-0.6-1.9 1.5-1 1.3-0.2-0.6-1.8v-4.4l-1-1-0.8 1.5h-6.1l-1.5-1.3-0.6-3.9-2.1-3.6v-1l2.1-0.8 0.2-2.1 1.1-1.1-0.8-0.5-1.3 0.5-1.1-2.7 1-5 4.5-3.2 2.6-1.6 1.9-3.7 2.7-1.3 2.6 1.1 0.3 2.4 2.4-0.3 3.2-2.4 1.6 0.6 1 0.6h1.6l2.3-1.3 0.8-4.4s0.3-2.9 1-3.4c0.6-0.5 1-1 1-1l-1.1-1.9-2.6 0.8-3.2 0.8-1.9-0.5-3.6-1.8-5-0.2-3.6-3.7 0.5-3.9 0.6-2.4-2.1-1.8-1.9-3.7 0.5-0.8 6.8-0.5h2.1l1 1h0.6l-0.2-1.6 3.9-0.6 2.6 0.3 1.5 1.1-1.5 2.1-0.5 1.5 2.7 1.6 5 1.8 1.8-1-2.3-4.4-1-3.2 1-0.8-3.4-1.9-0.5-1.1 0.5-1.6-0.8-3.9-2.9-4.7-2.4-4.2 2.9-1.9h3.2l1.8 0.6 4.2-0.2 3.7-3.6 1.1-3.1 3.7-2.4 1.6 1 2.7-0.6 3.7-2.1 1.1-0.2 1 0.8 4.5-0.2 2.7-3.1h1.1l3.6 2.4 1.9 2.1-0.5 1.1 0.6 1.1 1.6-1.6 3.9 0.3 0.3 3.7 1.9 1.5 7.1 0.6 6.3 4.2 1.5-1 5.2 2.6 2.1-0.6 1.9-0.8 4.8 1.9zm-115.1 28.9l2.1 5.3-0.2 1-2.9-0.3-1.8-4-1.8-1.5h-2.4l-0.2-2.6 1.8-2.4 1.1 2.4 1.5 1.5zm-2.6 33.5 3.7 0.8 3.7 1 0.8 1-1.6 3.7-3.1-0.2-3.4-3.6zm-20.7-14.1l1.1 2.6 1.1 1.6-1.1 0.8-2.1-3.1v-1.9zm-13.7 73.1l3.4-2.3 3.4-1 2.6 0.3 0.5 1.6 1.9 0.5 1.9-1.9-0.3-1.6 2.7-0.6 2.9 2.6-1.1 1.8-4.4 1.1-2.7-0.5-3.7-1.1-4.4 1.5-1.6 0.3zm48.9-4.5 1.6 1.9 2.1-1.6-1.5-1.3zm2.9 3 1.1-2.3 2.1 0.3-0.8 1.9h-2.4zm23.6-1.9 1.5 1.8 1-1.1-0.8-1.9zm8.8-12.5 1.1 5.8 2.9 0.8 5-2.9 4.4-2.6-1.6-2.4 0.5-2.4-2.1 1.3-2.9-0.8 1.6-1.1 1.9 0.8 3.9-1.8 0.5-1.5-2.4-0.8 0.8-1.9-2.7 1.9-4.7 3.6-4.8 2.9zm42.3-19.8 2.4-1.5-1-1.8-1.8 1z"/>
		<path id="HI" fill="#fff" d="m233.1 519.3 1.9-3.6 2.3-0.3 0.3 0.8-2.1 3.1zm10.2-3.7 6.1 2.6 2.1-0.3 1.6-3.9-0.6-3.4-4.2-0.5-4 1.8zm30.7 10 3.7 5.5 2.4-0.3 1.1-0.5 1.5 1.3 3.7-0.2 1-1.5-2.9-1.8-1.9-3.7-2.1-3.6-5.8 2.9zm20.2 8.9 1.3-1.9 4.7 1 0.6-0.5 6.1 0.6-0.3 1.3-2.6 1.5-4.4-0.3zm5.3 5.2 1.9 3.9 3.1-1.1 0.3-1.6-1.6-2.1-3.7-0.3zm7-1.2 2.3-2.9 4.7 2.4 4.4 1.1 4.4 2.7v1.9l-3.6 1.8-4.8 1-2.4-1.5zm16.6 15.6 1.6-1.3 3.4 1.6 7.6 3.6 3.4 2.1 1.6 2.4 1.9 4.4 4 2.6-0.3 1.3-3.9 3.2-4.2 1.5-1.5-0.6-3.1 1.8-2.4 3.2-2.3 2.9-1.8-0.2-3.6-2.6-0.3-4.5 0.6-2.4-1.6-5.7-2.1-1.8-0.2-2.6 2.3-1 2.1-3.1 0.5-1-1.6-1.8z"/>
		<path id="AL" fill="#fff" d="m628.5 466.4 0.6 0.2 1.3-2.7 1.5-4.4 2.3 0.6 3.1 6v1l-2.7 1.9 2.7 0.3 5.2-2.5-0.3-7.6-2.5-1.8-2-2 0.4-4 10.5-1.5 25.7-2.9 6.7-0.6 5.6 0.1-0.5-2.2-1.5-0.8-0.9-1.1 1-2.6-0.4-5.2-1.6-4.5 0.8-5.1 1.7-4.8-0.2-1.7-1.8-0.7-0.5-3.6-2.7-3.4-2-6.5-1.4-6.7-1.8-5-3.8-16-3.5-7.9-0.8-5.6 0.1-2.2-9 0.8-23.4 2.2-12.2 0.8-0.2 6.4 0.2 16.7-0.7 31-0.3 14.1 2.8 18.8 1.6 14.7z"/>
		<path id="AR" fill="#fff" d="m587.3 346.1-6.4-0.7 0.9-3.1 3.1-2.6 0.6-2.3-1.8-2.9-31.9 1.2-23.3 0.7-23.6 0.3 1.5 6.9 0.1 8.5 1.4 10.9 0.3 38.2 2.1 1.6 3-1.2 2.9 1.2 0.4 10.1 25.2-0.2 26.8-0.8 0.9-1.9-0.3-3.8-1.7-3.1 1.5-1.4-1.4-2.2 0.7-2.4 1.1-5.9 2.7-2.3-0.8-2.2 4-5.6 2.5-1.1-0.1-1.7-0.5-1.7 2.9-5.8 2.5-1.1 0.2-3.3 2.1-1.4 0.9-4.1-1.4-4 4.2-2.4 0.3-2.1 1.2-4.2 0.9-3.1z"/>
		<path id="AZ" fill="#fff" d="m135.1 389.7-0.3 1.5 0.5 1 18.9 10.7 12.1 7.6 14.7 8.6 16.8 10 12.3 2.4 25.4 2.7 6-39.6 7-53.1 4.4-31-24.6-3.6-60.7-11-0.2 1.1-2.6 16.5-2.1 3.8-2.8-0.2-1.2-2.6-2.6-0.4-1.2-1.1-1.1 0.1-2.1 1.7-0.3 6.8-0.3 1.5-0.5 12.5-1.5 2.4-0.4 3.3 2.8 5 1.1 5.5 0.7 1.1 1.1 0.9-0.4 2.4-1.7 1.2-3.4 1.6-1.6 1.8-1.6 3.6-0.5 4.9-3 2.9-1.9 0.9-0.1 5.8-0.6 1.6 0.5 0.8 3.9 0.4-0.9 3-1.7 2.4-3.7 0.4z"/>
		<path id="CA" fill="#fff" d="m122.7 385.9-19.7-2.7-10-1.5-0.5-1.8v-9.4l-0.3-3.2-2.6-4.2-0.8-2.3-3.9-4.2-2.9-4.7-2.7-0.2-3.2-0.8-0.3-1 1.5-0.6-0.6-3.2-1.5-2.1-4.8-0.8-3.9-2.1-1.1-2.3-2.6-4.8-2.9-3.1h-2.9l-3.9-2.1-4.5-1.8-4.2-0.5-2.4-2.7 0.5-1.9 1.8-7.1 0.8-1.9v-2.4l-1.6-1-0.5-2.9-1.5-2.6-3.4-5.8-1.3-3.1-1.5-4.7-1.6-5.3-3.2-4.4-0.5-2.9 0.8-3.9h1.1l2.1-1.6 1.1-3.6-1-2.7-2.7-0.5-1.9-2.6-2.1-3.7-0.2-8.2 0.6-1.9 0.6-2.3 0.5-2.4-5.7-6.3v-2.1l0.3-0.5 0.3-3.2-1.3-4-2.3-4.8-2.7-4.5-1.8-3.9 1-3.7 0.6-5.8 1.8-3.1 0.3-6.5-1.1-3.6-1.6-4.2-2.7-4.2 0.8-3.2 1.5-4.2 1.8-0.8 0.3-1.1 3.1-2.6 5.2-11.8 0.2-7.4 1.69-4.9 38.69 11.8 25.6 6.6-8 31.3-8.67 33.1 12.63 19.2 42.16 62.3 17.1 26.1-0.4 3.1 2.8 5.2 1.1 5.4 1 1.5 0.7 0.6-0.2 1.4-1.4 1-3.4 1.6-1.9 2.1-1.7 3.9-0.5 4.7-2.6 2.5-2.3 1.1-0.1 6.2-0.6 1.9 1 1.7 3 0.3-0.4 1.6-1.4 2-3.9 0.6zm-73.9-48.9l1.3 1.5-0.2 1.3-3.2-0.1-0.6-1.2-0.6-1.5zm1.9 0 1.2-0.6 3.6 2.1 3.1 1.2-0.9 0.6-4.5-0.2-1.6-1.6zm20.7 19.8 1.8 2.3 0.8 1 1.5 0.6 0.6-1.5-1-1.8-2.7-2-1.1 0.2v1.2zm-1.4 8.7 1.8 3.2 1.2 1.9-1.5 0.2-1.3-1.2s-0.7-1.5-0.7-1.9v-2.2z"/>
		<path id="CO" fill="#fff" d="m380.2 235.5-36-3.5-79.1-8.6-2.2 22.1-7 50.4-1.9 13.7 34 3.9 37.5 4.4 34.7 3 14.3 0.6z"/>
		<path id="CT" fill="#fff" d="m852 190.9 3.6-3.2 1.9-2.1 0.8 0.6 2.7-1.5 5.2-1.1 7-3.5-0.6-4.2-0.8-4.4-1.6-6-4.3 1.1-21.8 4.7 0.6 3.1 1.5 7.3v8.3l-0.9 2.1 1.7 2.2z"/>
		<path id="DE" fill="#fff" d="m834.4 247.2-1 0.5-3.6-2.4-1.8-4.7-1.9-3.6-2.3-1-2.1-3.6 0.5-2 0.5-2.3 0.1-1.1-0.6 0.1-1.7 1-2 1.7-0.2 0.3 1.4 4.1 2.3 5.6 3.7 16.1 5-0.3 6-1.1z"/>
		<path id="FL" fill="#fff" d="m750.2 445.2-5.2-0.7-0.7 0.8 1.5 4.4-0.4 5.2-4.1-1-0.2-2.8h-4.1l-5.3 0.7-32.4 1.9-8.2-0.3-1.7-1.7-2.5-4.2h-5.9l-6.6 0.5-35.4 4.2-0.3 2.8 1.6 1.6 2.9 2 0.3 8.4 3.3-0.6 6-2.1 6-0.5 4.4-0.6 7.6 1.8 8.1 3.9 1.6 1.5 2.9 1.1 1.6 1.9 0.3 2.7 3.2-1.3h3.9l3.6-1.9 3.7-3.6 3.1 0.2 0.5-1.1-0.8-1 0.2-1.9 4-0.8h2.6l2.9 1.5 4.2 1.5 2.4 3.7 2.7 1 1.1 3.4 3.4 1.6 1.6 2.6 1.9 0.6 5.2 1.3 1.3 3.1 3 3.7v9.5l-1.5 4.7 0.3 2.7 1.3 4.8 1.8 4 0.8-0.5 1.5-4.5-2.6-1-0.3-0.6 1.6-0.6 4.5 1 0.2 1.6-3.2 5.5-2.1 2.4 3.6 3.7 2.6 3.1 2.9 5.3 2.9 3.9 2.1 5 1.8 0.3 1.6-2.1 1.8 1.1 2.6 4 0.6 3.6 3.1 4.4 0.8-1.3 3.9 0.3 3.6 2.3 3.4 5.2 0.8 3.4 0.3 2.9 1.1 1 1.3 0.5 2.4-1 1.5-1.6 3.9-0.2 3.1-1.5 2.7-3.2-0.5-1.9-0.3-2.4 0.6-1.9-0.3-1.9 2.4-1.3 0.3-3.4-0.6-1.8-0.5-12-1.3-7.6-4.5-8.2-3.6-5.8-2.6-5.3-2.9-2.9-2.9-7.4 0.7-1.4 1.1-1.3-1.6-2.9-4-3.7-4.8-5.5-3.7-6.3-5.3-9.4-3.7-9.7-2.3-7.3zm17.7 132.7 2.4-0.6 1.3-0.2 1.5-2.3 2.3-1.6 1.3 0.5 1.7 0.3 0.4 1.1-3.5 1.2-4.2 1.5-2.3 1.2zm13.5-5 1.2 1.1 2.7-2.1 5.3-4.2 3.7-3.9 2.5-6.6 1-1.7 0.2-3.4-0.7 0.5-1 2.8-1.5 4.6-3.2 5.3-4.4 4.2-3.4 1.9z"/>
		<path id="GA" fill="#fff" d="m750.2 444.2-5.6-0.7-1.4 1.6 1.6 4.7-0.3 3.9-2.2-0.6-0.2-3h-5.2l-5.3 0.7-32.3 1.9-7.7-0.3-1.4-1.2-2.5-4.3-0.8-3.3-1.6-0.9-0.5-0.5 0.9-2.2-0.4-5.5-1.6-4.5 0.8-4.9 1.7-4.8-0.2-2.5-1.9-0.7-0.4-3.2-2.8-3.5-1.9-6.2-1.5-7-1.7-4.8-3.8-16-3.5-8-0.8-5.3 0.1-2.3 3.3-0.3 13.6-1.6 18.6-2 6.3-1.1 0.5 1.4-2.2 0.9-0.9 2.2 0.4 2 1.4 1.6 4.3 2.7 3.2-0.1 3.2 4.7 0.6 1.6 2.3 2.8 0.5 1.7 4.7 1.8 3 2.2 2.3 3 2.3 1.3 2 1.8 1.4 2.7 2.1 1.9 4.1 1.8 2.7 6 1.7 5.1 2.8 0.7 2.1 1.9 2 5.7 2.9 1.6 1.7-0.8 0.4 1.2-3.3 6.2 0.5 2.6-1.5 4.2-2.3 10 0.8 6.3z"/>
		<path id="IA" d="m556.8 183.6 2.1 2.1 0.3 0.7-2 3 0.3 4 2.6 4.1 3.1 1.6 2.4 0.3 0.9 1.8 0.2 2.4 2.5 1 0.9 1.1 0.5 1.6 3.8 3.3 0.6 1.9-0.7 3-1.7 3.7-0.6 2.4-2.1 1.6-1.6 0.5-5.7 1.5-1.6 4.8 0.8 1.8 1.7 1.5-0.2 3.5-1.9 1.4-0.7 1.8v2.4l-1.4 0.4-1.7 1.4-0.5 1.7 0.4 1.7-1.3 1-2.3-2.7-1.4-2.8-8.3 0.8-10 0.6-49.2 1.2-1.6-4.3-0.4767-6.85339-1.43835-6.15578-0.585-3.091-2.2-3.7-1-4.6-2.7-7.8-0.86991-6.25192-2.93-4.148 1.7-3.8 1.2-6.1-2.7-2.2-0.3-2.4 0.7-2.4 1.8-0.3 61.1-0.6 21.2-0.7z" fill="#fff"/>
		<path id="ID" fill="#fff" d="m175.3 27.63-4.8 17.41-4.5 20.86-3.4 16.22-0.4 9.67 1.2 4.44 3.5 2.66-0.2 3.91-3.9 4.4-4.5 6.6-0.9 2.9-1.2 1.1-1.8 0.8-4.3 5.3-0.4 3.1-0.4 1.1 0.6 1 2.6-0.1 1.1 2.3-2.4 5.8-1.2 4.2-8.8 35.3 20.7 4.5 39.5 7.9 34.8 6.1 4.9-29.2 3.8-24.1-2.7-2.4-0.4-2.6-0.8-1.1-2.1 1-0.7 2.6-3.2 0.5-3.9-1.6-3.8 0.1-2.5 0.7-3.4-1.5-2.4 0.2-2.4 2-2-1.1-0.7-4 0.7-2.9-2.5-2.9-3.3-2.6-2.7-13.1-0.1-4.7-0.3-0.1-0.2 0.4-5.1 3.5-1.7-0.2-2.9-3.4-0.2-3.1 7-17.13-0.4-1.94-3.4-1.15-0.6-1.18-2.6-3.46-4.6-10.23-3.2-1.53-2-4.95 1.3-4.63-3.2-7.58 4.4-21.52z"/>
		<path id="IL" fill="#fff" d="m618.7 214.3-0.8-2.6-1.3-3.7-1.6-1.8-1.5-2.6-0.4-5.5-15.9 1.8-17.4 1h-12.3l0.2 2.1 2.2 0.9 1.1 1.4 0.4 1.4 3.9 3.4 0.7 2.4-0.7 3.3-1.7 3.7-0.8 2.7-2.4 1.9-1.9 0.6-5.2 1.3-1.3 4.1 0.6 1.1 1.9 1.8-0.2 4.3-2.1 1.6-0.5 1.3v2.8l-1.8 0.6-1.4 1.2-0.4 1.2 0.4 2-1.6 1.3-0.9 2.8 0.3 3.9 2.3 7 7 7.6 5.7 3.7v4.4l0.7 1.2 6.6 0.6 2.7 1.4-0.7 3.5-2.2 6.2-0.8 3 2 3.7 6.4 5.3 4.8 0.8 2.2 5.1 2 3.4-0.9 2.8 1.5 3.8 1.7 2.1 1.6-0.3 1-2.2 2.4-1.7 2.8-1 6.1 2.5 0.5-0.2v-1.1l-1.2-2.7 0.4-2.8 2.4-1.6 3.4-1.2-0.5-1.3-0.8-2 1.2-1.3 1-2.7v-4l0.4-4.9 2.5-3 1.8-3.8 2.5-4-0.5-5.3-1.8-3.2-0.3-3.3 0.8-5.3-0.7-7.2-1.1-15.8-1.4-15.3-0.9-11.7z"/>
		<path id="IN" fill="#fff" d="m622.9 216.1 1.5 1 1.1-0.3 2.1-1.9 2.5-1.8 14.3-1.1 18.4-1.8 1.6 15.5 4.9 42.6-0.6 2.9 1.3 1.6 0.2 1.3-2.3 1.6-3.6 1.7-3.2 0.4-0.5 4.8-4.7 3.6-2.9 4 0.2 2.4-0.5 1.4h-3.5l-1.4-1.7-5.2 3 0.2 3.1-0.9 0.2-0.5-0.9-2.4-1.7-3.6 1.5-1.4 2.9-1.2-0.6-1.6-1.8-4.4 0.5-5.7 1-2.5 1.3v-2.6l0.4-4.7 2.3-2.9 1.8-3.9 2.7-4.2-0.5-5.8-1.8-3.1-0.3-3.2 0.8-5.3-0.7-7.1-0.9-12.6-2.5-30.1z"/>
		<path id="KS" fill="#fff" d="m485.9 259.5-43.8-0.6-40.6-1.2-21.7-0.9-4.3 64.8 24.3 1 44.7 2.1 46.3 0.6 12.6-0.3 0.7-35-1.2-11.1-2.5-2-2.4-3-2.3-3.6 0.6-3 1.7-1.4v-2.1l-0.8-0.7-2.6-0.2-3.5-3.4z"/>
		<path id="KY" fill="#fff" d="m607.2 331.8 12.6-0.7 0.1-4.1h4.3l30.4-3.2 45.1-4.3 5.6-3.6 3.9-2.1 0.1-1.9 6-7.8 4.1-3.6 2.1-2.4-3.3-2-2.5-2.7-3-3.8-0.5-2.2-2.6-1.4-0.9-1.9-0.2-6.1-2.6-2-1.9-1.1-0.5-2.3-1.3 0.2-2 1.2-2.5 2.7-1.9-1.7-2.5-0.5-2.4 1.4h-2.3l-1.8-2-5.6-0.1-1.8-4.5-2.9-1.5-2.1 0.8-4.2 0.2-0.5 2.1 1.2 1.5 0.3 2.1-2.8 2-3.8 1.8-2.6 0.4-0.5 4.5-4.9 3.6-2.6 3.7 0.2 2.2-0.9 2.3-4.5-0.1-1.3-1.3-3.9 2.2 0.2 3.3-2.4 0.6-0.8-1.4-1.7-1.2-2.7 1.1-1.8 3.5-2.2-1-1.4-1.6-3.7 0.4-5.6 1-2.8 1.3-1.2 3.4-1 1 1.5 3.7-4.2 1.4-1.9 1.4-0.4 2.2 1.2 2.4v2.2l-1.6 0.4-6.1-2.5-2.3 0.9-2 1.4-0.8 1.8 1.7 2.4-0.9 1.8-0.1 3.3-2.4 1.3-2.1 1.7z"/>
		<path id="LA" fill="#fff" d="m526.9 485.9 8.1-0.3 10.3 3.6 6.5 1.1 3.7-1.5 3.2 1.1 3.2 1 0.8-2.1-3.2-1.1-2.6 0.5-2.7-1.6 0.8-1.5 3.1-1 1.8 1.5 1.8-1 3.2 0.6 1.5 2.4 0.3 2.3 4.5 0.3 1.8 1.8-0.8 1.6-1.3 0.8 1.6 1.6 8.4 3.6 3.6-1.3 1-2.4 2.6-0.6 1.8-1.5 1.3 1 0.8 2.9-2.3 0.8 0.6 0.6 3.4-1.3 2.3-3.4 0.8-0.5-2.1-0.3 0.8-1.6-0.2-1.5 2.1-0.5 1.1-1.3 0.6 0.8 0.6 3.1 4.2 0.6 4 1.9 1 1.5h2.9l1.1 1 2.3-3.1v-1.5h-1.3l-3.4-2.7-5.8-0.8-3.2-2.3 1.1-2.7 2.3 0.3 0.2-0.6-1.8-1v-0.5h3.2l1.8-3.1-1.3-1.9-0.3-2.7-1.5 0.2-1.9 2.1-0.6 2.6-3.1-0.6-1-1.8 1.8-1.9 1.9-1.7-2.2-6.5-3.4-3.4 1-7.3-0.2-0.5-1.3 0.2-33.1 1.4-0.8-2.4 0.8-8.5 8.6-14.8-0.9-2.6 1.4-0.4 0.4-2-2.2-2 0.1-1.9-2-4.5-0.4-5.1 0.1-0.7-26.4 0.8-25.2 0.1 0.4 9.7 0.7 9.5 0.5 3.7 2.6 4.5 0.9 4.4 4.3 6 0.3 3.1 0.6 0.8-0.7 8.3-2.8 4.6 1.2 2.4-0.5 2.6-0.8 7.3-1.3 3 0.2 3.7z"/>
		<path id="MA" fill="#fff" d="m887.5 172.5-0.5-2.3 0.8-1.5 2.9-1.5 0.8 3.1-0.5 1.8-2.4 1.5v1l1.9-1.5 3.9-4.5 3.9-1.9 4.2-1.5-0.3-2.4-1-2.9-1.9-2.4-1.8-0.8-2.1 0.2-0.5 0.5 1 1.3 1.5-0.8 2.1 1.6 0.8 2.7-1.8 1.8-2.3 1-3.6-0.5-3.9-6-2.3-2.6h-1.8l-1.1 0.8-1.9-2.6 0.3-1.5 2.4-5.2-2.9-4.4-3.7 1.8-1.8 2.9-18.3 4.7-13.8 2.5-0.6 10.6 0.7 4.9 22-4.8 11.2-2.8 2 1.6 3.4 4.3 2.9 4.7zm12.5 1.4 2.2-0.7 0.5-1.7 1 0.1 1 2.3-1.3 0.5-3.9 0.1zm-9.4 0.8 2.3-2.6h1.6l1.8 1.5-2.4 1-2.2 1z"/>
		<path id="MD" d="m834.8 264.1 1.7-3.8 0.5-4.8-6.3 1.1-5.8 0.3-3.8-16.8-2.3-5.5-1.5-4.6-22.2 4.3-37.6 7.6 2 10.4 4.8-4.9 2.5-0.7 1.4-1.5 1.8-2.7 1.6 0.7 2.6-0.2 2.6-2.1 2-1.5 2.1-0.6 1.5 1.1 2.7 1.4 1.9 1.8 1.3 1.4 4.8 1.6-0.6 2.9 5.8 2.1 2.34863 1.12715 1.50476 1.76606l-0.854 3.607-1.8 2.6v2.1l0.3 0.8 2 1.3 3.4 1.1 4.3-0.1 3.1 1 2.1 0.3 1-2.1-1.5-2.1v-1.8l-2.4-2.1-2.1-5.5 1.3-5.3-0.2-2.1-1.3-1.3s1.5-1.6 1.5-2.3c0-0.6 0.5-2.1 0.5-2.1l1.9-1.3 1.9-1.6 0.5 1-1.5 1.6-1.3 3.7 0.3 1.1 1.8 0.3 0.5 5.5-2.1 1 0.3 3.6 0.5-0.2 1.1-1.9 1.6 1.8-1.6 1.3-0.3 3.4 2.6 3.4 3.9 0.5 1.6-0.8 3.2 4.2 1 0.4zm-14.5 0.2 1.1 2.5 0.2 1.8 1.1 1.9s0.9-0.9 0.9-1.2-0.7-3.1-0.7-3.1l-0.7-2.3z" fill="#fff"/>
		<path id="ME" d="m891.5 36.9004-1.80078 1.79883-4 2.90039v1l-0.79883 0.800782-2.70117-0.59961-1.299-2.3008v-1.09961l-1.30078-0.201172h-1.29883l-2.10156 4.20117-2.89844 8.90039-1.80078 4.79883 0.19922 4.80078 0.20117 1.5-0.80078 2.69922-0.79883 1v6l1.89844 2.40039-1.5 4-2.59961 4.69922-0.79883 5.5v2.60156l-1.5-0.40039-1.30078 0.169921 11.6973 37.4336 0.20117 2.5 4 1.09961 0.5 3.0996 2.19922 0.9004 1.09961-6.29883 0.20117-4.40039 1.5-1.30078-1-3.19922 3.09961-3.59961 1.59961 1.5 1.30078-0.5 5.29883-3.10157 0.30078-2.89843 2.90039-0.5 1.59961-2.60157-0.19922-1.5996-0.0449-0.008 0.0137-0.0137-0.267-3.082 0.801-1.301-0.301-1.099-1.30078-1.5 2.10156-1.29883 1.79883 3.19922 1.5-0.30078 0.30078 1.30078v1.59961l1.90039 0.20117 0.5-2.70117 0.5-0.59961-1.60156-1.5 1-1.5 2.40039-1.5 1-1.5 1.80078-0.199219 1 2.09961h1.29883l4.80078-5.5 3.40039-3.09961 1.90039-0.601562 2.099-4.6996v-1.90039l-2.30078-3.69922-1.90039-2.09961-2.79883 0.5 0.5 1.09961-0.20117 0.5h-0.79883l-2.9-2.3008-0.199-4.7988-0.801-1.9004h-6l-9.1-29.9004-1.9-1-6-2.4004zm20.9004 61.7988-2 0.701172l-1.4 2.1996 1.801 1.9s1.29883 0.10078 1.29883-0.19922 0.20117-2 0.20117-2l0.898-0.801zm-8.599 7.3008l-1.5 1.5 1.79883 2.90039 1.70117-0.90039-0.60156-2.40039z" fill="#fff"/>
		<path id="MI" fill="#fff" d="m644.5 211 19.1-1.9 0.2 1.1 9.9-1.5 12-1.7 0.1-0.6 0.2-1.5 2.1-3.7 2-1.7-0.2-5.1 1.6-1.6 1.1-0.3 0.2-3.6 1.5-3 1.1 0.6 0.2 0.6 0.8 0.2 1.9-1-0.4-9.1-3.2-8.2-2.3-9.1-2.4-3.2-2.6-1.8-1.6 1.1-3.9 1.8-1.9 5-2.7 3.7-1.1 0.6-1.5-0.6s-2.6-1.5-2.4-2.1 0.5-5 0.5-5l3.4-1.3 0.8-3.4 0.6-2.6 2.4-1.6-0.3-10-1.6-2.3-1.3-0.8-0.8-2.1 0.8-0.8 1.6 0.3 0.2-1.6-2.6-2.2-1.3-2.6h-2.6l-4.5-1.5-5.5-3.4h-2.7l-0.6 0.6-1-0.5-3.1-2.3-2.9 1.8-2.9 2.3 0.3 3.6 1 0.3 2.1 0.5 0.5 0.8-2.6 0.8-2.6 0.3-1.5 1.8-0.3 2.1 0.3 1.6 0.3 5.5-3.6 2.1-0.6-0.2v-4.2l1.3-2.4 0.6-2.4-0.8-0.8-1.9 0.8-1 4.2-2.7 1.1-1.8 1.9-0.2 1 0.6 0.8-0.6 2.6-2.3 0.5v1.1l0.8 2.4-1.1 6.1-1.6 4 0.6 4.7 0.5 1.1-0.8 2.4-0.3 0.8-0.3 2.7 3.6 6 2.9 6.5 1.5 4.8-0.8 4.7-1 6-2.4 5.2-0.3 2.7-3.2 3.1zm-33.3-72.4-1.3-1.1-1.8-10.4-3.7-1.3-1.7-2.3-12.6-2.8-2.8-1.1-8.1-2.2-7.8-1-3.9-5.3 0.7-0.5 2.7-0.8 3.6-2.3v-1l0.6-0.6 6-1 2.4-1.9 4.4-2.1 0.2-1.3 1.9-2.9 1.8-0.8 1.3-1.8 2.3-2.3 4.4-2.4 4.7-0.5 1.1 1.1-0.3 1-3.7 1-1.5 3.1-2.3 0.8-0.5 2.4-2.4 3.2-0.3 2.6 0.8 0.5 1-1.1 3.6-2.9 1.3 1.3h2.3l3.2 1 1.5 1.1 1.5 3.1 2.7 2.7 3.9-0.2 1.5-1 1.6 1.3 1.6 0.5 1.3-0.8h1.1l1.6-1 4-3.6 3.4-1.1 6.6-0.3 4.5-1.9 2.6-1.3 1.5 0.2v5.7l0.5 0.3 2.9 0.8 1.9-0.5 6.1-1.6 1.1-1.1 1.5 0.5v7l3.2 3.1 1.3 0.6 1.3 1-1.3 0.3-0.8-0.3-3.7-0.5-2.1 0.6-2.3-0.2-3.2 1.5h-1.8l-5.8-1.3-5.2 0.2-1.9 2.6-7 0.6-2.4 0.8-1.1 3.1-1.3 1.1-0.5-0.2-1.5-1.6-4.5 2.4h-0.6l-1.1-1.6-0.8 0.2-1.9 4.4-1 4-3.2 6.9zm-29.6-56.5 1.8-2.1 2.2-0.8 5.4-3.9 2.3-0.6 0.5 0.5-5.1 5.1-3.3 1.9-2.1 0.9zm86.2 32.1 0.6 2.5 3.2 0.2 1.3-1.2s-0.1-1.5-0.4-1.6c-0.3-0.2-1.6-1.9-1.6-1.9l-2.2 0.2-1.6 0.2-0.3 1.1z"/>
		<path id="MN" fill="#fff" d="m464.6 66.79-0.6 3.91v10.27l1.6 5.03 1.9 3.32 0.5 9.93 1.8 13.45 1.8 7.3 0.4 6.4v5.3l-1.6 1.8-1.8 1.3v1.5l0.9 1.7 4.1 3.5 0.7 3.2v35.9l60.3-0.6 21.2-0.7-0.5-6-1.8-2.1-7.2-4.6-3.6-5.3-3.4-0.9-2-2.8h-3.2l-3.5-3.8-0.5-7 0.1-3.9 1.5-3-0.7-2.7-2.8-3.1 2.2-6.1 5.4-4 1.2-1.4-0.2-8 0.2-3 2.6-3 3.8-2.9 1.3-0.2 4.5-5 1.8-0.8 2.3-3.9 2.4-3.6 3.1-2.6 4.8-2 9.2-4.1 3.9-1.8 0.6-2.3-4.4 0.4-0.7 1.1h-0.6l-1.8-3.1-8.9 0.3-1 0.8h-1l-0.5-1.3-0.8-1.8-2.6 0.5-3.2 3.2-1.6 0.8h-3.1l-2.6-1v-2.1l-1.3-0.2-0.5 0.5-2.6-1.3-0.5-2.9-1.5 0.5-0.5 1-2.4-0.5-5.3-2.4-3.9-2.6h-2.9l-1.3-1-2.3 0.6-1.1 1.1-0.3 1.3h-4.8v-2.1l-6.3-0.3-0.3-1.5h-4.8l-1.6-1.6-1.5-6.1-0.8-5.5-1.9-0.8-2.3-0.5-0.6 0.2-0.3 8.2-30.1-0.03z"/>
		<path id="MO" fill="#fff" d="m593.1 338.7 0.5-5.9 4.2-3.4 1.9-1v-2.9l0.7-1.6-1.1-1.6-2.4 0.3-2.1-2.5-1.7-4.5 0.9-2.6-2-3.2-1.8-4.6-4.6-0.7-6.8-5.6-2.2-4.2 0.8-3.3 2.2-6 0.6-3-1.9-1-6.9-0.6-1.1-1.9v-4.1l-5.3-3.5-7.2-7.8-2.3-7.3-0.5-4.2 0.7-2.4-2.6-3.1-1.2-2.4-7.7 0.8-10 0.6-48.8 1.2 1.3 2.6-0.1 2.2 2.3 3.6 3 3.9 3.1 3 2.6 0.2 1.4 1.1v2.9l-1.8 1.6-0.5 2.3 2.1 3.2 2.4 3 2.6 2.1 1.3 11.6-0.8 40 0.5 5.7 23.7-0.2 23.3-0.7 32.5-1.3 2.2 3.7-0.8 3.1-3.1 2.5-0.5 1.8 5.2 0.5 4.1-1.1z"/>
		<path id="MS" fill="#fff" d="m604.3 472.5 2.6-4.2 1.8 0.8 6.8-1.9 2.1 0.3 1.5 0.8h5.2l0.4-1.6-1.7-14.8-2.8-19 1-45.1-0.2-16.7 0.2-6.3-4.8 0.3-19.6 1.6-13 0.4-0.2 3.2-2.8 1.3-2.6 5.1 0.5 1.6 0.1 2.4-2.9 1.1-3.5 5.1 0.8 2.3-3 2.5-1 5.7-0.6 1.9 1.6 2.5-1.5 1.4 1.5 2.8 0.3 4.2-1.2 2.5-0.2 0.9 0.4 5 2 4.5-0.1 1.7 2.3 2-0.7 3.1-0.9 0.3 0.6 1.9-8.6 15-0.8 8.2 0.5 1.5 24.2-0.7 8.2-0.7 1.9-0.3 0.6 1.4-1 7.1 3.3 3.3 2.2 6.4z"/>
		<path id="MT" fill="#fff" d="m361.1 70.77-5.3 57.13-1.3 15.2-59.1-6.6-49-7.1-1.4 11.2-1.9-1.7-0.4-2.5-1.3-1.9-3.3 1.5-0.7 2.5-2.3 0.3-3.8-1.6-4.1 0.1-2.4 0.7-3.2-1.5-3 0.2-2.1 1.9-0.9-0.6-0.7-3.4 0.7-3.2-2.7-3.2-3.3-2.5-2.5-12.6-0.1-5.3-1.6-0.8-0.6 1-4.5 3.2-1.2-0.1-2.3-2.8-0.2-2.8 7-17.15-0.6-2.67-3.5-1.12-0.4-0.91-2.7-3.5-4.6-10.41-3.2-1.58-1.8-4.26 1.3-4.63-3.2-7.57 4.4-21.29 32.7 6.89 18.4 3.4 32.3 5.3 29.3 4 29.2 3.5 30.8 3.07z"/>
		<path id="NC" fill="#fff" d="m786.7 357.7-12.7-7.7l-3.1-0.8-16.6 2.1-1.6-3-2.8-2.2-16.7 0.5-7.4 0.9-9.2 4.5-6.8 2.7-6.5 1.2-13.4 1.4 0.1-4.1 1.7-1.3 2.7-0.7 0.7-3.8 3.9-2.5 3.9-1.5 4.5-3.7 4.4-2.3 0.7-3.2 4.1-3.8 0.7 1 2.5 0.2 2.4-3.6 1.7-0.4 2.6 0.3 1.8-4 2.5-2.4 0.5-1.8 0.1-3.5 4.4 0.1 38.5-5.6 57.5-12.3 2 4.8 3.6 6.5 2.4 2.4 0.6 2.3-2.4 0.2 0.8 0.6-0.3 4.2-2.6 1.3-0.6 2.1-1.3 2.9-3.7 1.6-2.4-0.3-1.5-0.2-1.6-1.3 0.3 1.3v1h1.9l0.8 1.3-1.9 6.3h4.2l0.6 1.6 2.3-2.3 1.3-0.5-1.9 3.6-3.1 4.8h-1.3l-1.1-0.5-2.7 0.6-5.2 2.4-6.5 5.3-3.4 4.7-1.9 6.5-0.5 2.4-4.7 0.5-5.1 1.5zm49.3-26.2 2.6-2.5 3.2-2.6 1.5-0.6 0.2-2-0.6-6.1-1.5-2.3-0.6-1.9 0.7-0.2 2.7 5.5 0.4 4.4-0.2 3.4-3.4 1.5-2.8 2.4-1.1 1.2z"/>
		<path id="ND" fill="#fff" d="m471 126.4-0.4-6.2-1.8-7.3-1.8-13.61-0.5-9.7-1.9-3.18-1.6-5.32v-10.41l0.6-3.85-1.8-5.54-28.6-0.59-18.6-0.6-26.5-1.3-25.2-2.16-0.9 14.42-4.7 50.94 56.8 3.9 56.9 1.7z"/>
		<path id="NH" fill="#fff" d="m881.7 141.3 1.1-3.2-2.7-1.2-0.5-3.1-4.1-1.1-0.3-3-11.7-37.48-0.7 0.08-0.6 1.6-0.6-0.5-1-1-1.5 1.9-0.2 2.29 0.5 8.41 1.9 2.8v4.3l-3.9 4.8-2.4 0.9v0.7l1.1 1.9v8.6l-0.8 9.2-0.2 4.7 1 1.4-0.2 4.7-0.5 1.5 1 1.1 5.1-1.2 13.8-3.5 1.7-2.9 4-1.9z"/>
		<path id="NJ" fill="#fff" d="m823.7 228.3 0.1-1.5 2.7-1.3 1.7-2.8 1.7-2.4 3.3-3.2v-1.2l-6.1-4.1-1-2.7-2.7-0.3-0.1-0.9-0.7-2.2 2.2-1.1 0.2-2.9-1.3-1.3 0.2-1.2 1.9-3.1v-3.1l2.5-3.1 5.6 2.5 6.4 1.9 2.5 1.2 0.1 1.8-0.5 2.7 0.4 4.5-2.1 1.9-1.1 1 0.5 0.5 2.7-0.3 1.1-0.8 1.6 3.4 0.2 9.4 0.6 1.1-1.1 5.5-3.1 6.5-2.7 4-0.8 4.8-2.1 2.4h-0.8l-0.3-2.7 0.8-1-0.2-1.5-4-0.6-4.8-2.3-3.2-2.9-1-2z"/>
		<path id="NM" fill="#fff" d="m270.2 429.4-16.7-2.6-1.2 9.6-15.8-2 6-39.7 7-53.2 4.4-30.9 34 3.9 37.4 4.4 32 2.8-0.3 10.8-1.4-0.1-7.4 97.7-28.4-1.8-38.1-3.7 0.7 6.3z"/>
		<path id="NV" fill="#fff" d="m123.1 173.6 38.7 8.5 26 5.2-10.6 53.1-5.4 29.8-3.3 15.5-2.1 11.1-2.6 16.4-1.7 3.1-1.6-0.1-1.2-2.6-2.8-0.5-1.3-1.1-1.8 0.1-0.9 0.8-1.8 1.3-0.3 7.3-0.3 1.5-0.5 12.4-1.1 1.8-16.7-25.5-42.1-62.1-12.43-19 8.55-32.6 8.01-31.3z"/>
		<path id="NY" fill="#fff" d="m843.4 200 0.5-2.7-0.2-2.4-3-1.5-6.5-2-6-2.6-0.6-0.4-2.7-0.3-2-1.5-2.1-5.9-3.3-0.5-2.4-2.4-38.4 8.1-31.6 6-0.5-6.5 1.6-1.2 1.3-1.1 1-1.6 1.8-1.1 1.9-1.8 0.5-1.6 2.1-2.7 1.1-1-0.2-1-1.3-3.1-1.8-0.2-1.9-6.1 2.9-1.8 4.4-1.5 4-1.3 3.2-0.5 6.3-0.2 1.9 1.3 1.6 0.2 2.1-1.3 2.6-1.1 5.2-0.5 2.1-1.8 1.8-3.2 1.6-1.9h2.1l1.9-1.1 0.2-2.3-1.5-2.1-0.3-1.5 1.1-2.1v-1.5h-1.8l-1.8-0.8-0.8-1.1-0.2-2.6 5.8-5.5 0.6-0.8 1.5-2.9 2.9-4.5 2.7-3.7 2.1-2.4 2.4-1.8 3.1-1.2 5.5-1.3 3.2 0.2 4.5-1.5 7.4-2.2 0.7 4.9 2.4 6.5 0.8 5-1 4.2 2.6 4.5 0.8 2-0.9 3.2 3.7 1.7 2.7 10.2v5.8l-0.6 10.9 0.8 5.4 0.7 3.6 1.5 7.3v8.1l-1.1 2.3 2.1 2.7 0.5 0.9-1.9 1.8 0.3 1.3 1.3-0.3 1.5-1.3 2.3-2.6 1.1-0.6 1.6 0.6 2.3 0.2 7.9-3.9 2.9-2.7 1.3-1.5 4.2 1.6-3.4 3.6-3.9 2.9-7.1 5.3-2.6 1-5.8 1.9-4 1.1-1-0.4z"/>
		<path id="OH" fill="#fff" d="m663.8 211.2 1.7 15.5 4.8 41.1 3.9-0.2 2.3-0.8 3.6 1.8 1.7 4.2 5.4 0.1 1.8 2h1.7l2.4-1.4 3.1 0.5 1.5 1.3 1.8-2 2.3-1.4 2.4-0.4 0.6 2.7 1.6 1 2.6 2 0.8 0.2 2-0.1 1.2-0.6v-2.1l1.7-1.5 0.1-4.8 1.1-4.2 1.9-1.3 1 0.7 1 1.1 0.7 0.2 0.4-0.4-0.9-2.7v-2.2l1.1-1.4 2.5-3.6 1.3-1.5 2.2 0.5 2.1-1.5 3-3.3 2.2-3.7 0.2-5.4 0.5-5v-4.6l-1.2-3.2 1.2-1.8 1.3-1.2-0.6-2.8-4.3-25.6-6.2 3.7-3.9 2.3-3.4 3.7-4 3.9-3.2 0.8-2.9 0.5-5.5 2.6-2.1 0.2-3.4-3.1-5.2 0.6-2.6-1.5-2.2-1.3z"/>
		<path id="OK" fill="#fff" d="m411.9 334.9-1.8 24.3-0.9 18 0.2 1.6 4 3.6 1.7 0.9h0.9l0.9-2.1 1.5 1.9 1.6 0.1 0.3-0.2 0.2-1.1 2.8 1.4-0.4 3.5 3.8 0.5 2.5 1 4.2 0.6 2.3 1.6 2.5-1.7 3.5 0.7 2.2 3.1 1.2 0.1v2.3l2.1 0.7 2.5-2.1 1.8 0.6 2.7 0.1 0.7 2.3 4.4 1.8 1.7-0.3 1.9-4.2h1.3l1.1 2.1 4.2 0.8 3.4 1.3 3 0.8 1.6-0.7 0.7-2.7h4.5l1.9 0.9 2.7-1.9h1.4l0.6 1.4h3.6l2-1.8 2.3 0.6 1.7 2.2 3 1.7 3.4 0.9 1.9 1.2-0.3-37.6-1.4-10.9-0.1-8.6-1.5-6.6-0.6-6.8 0.1-4.3-12.6 0.3-46.3-0.5-44.7-2.1-41.5-1.8-0.4 10.7z"/>
		<path id="OR" fill="#fff" d="m67.44 158.9 28.24 7.2 27.52 6.5 17 3.7 8.8-35.1 1.2-4.4 2.4-5.5-0.7-1.3-2.5 0.1-1.3-1.8 0.6-1.5 0.4-3.3 4.7-5.7 1.9-0.9 0.9-0.8 0.7-2.7 0.8-1.1 3.9-5.7 3.7-4 0.2-3.26-3.4-2.49-1.2-4.55-13.1-3.83-15.3-3.47-14.8 0.37-1.1-1.31-5.1 1.84-4.5-0.48-2.4-1.58-1.3 0.54-4.68-0.29-1.96-1.43-4.84-1.77-1.1-0.07-4.45-1.27-1.76 1.52-6.26-0.24-5.31-3.85 0.21-9.28-2.05-3.5-4.1-0.6-0.7-2.5-2.4-0.5-5.8 2.1-2.3 6.5-3.2 10-3.2 6.5-5 14.1-6.5 13.6-8.1 12.6-1.9 2.9-0.8 8.6-1.3 6 2.71 3.5z"/>
		<path id="PA" fill="#fff" d="m736.6 192.2 1.3-0.5 5.7-5.5 0.7 6.9 33.5-6.5 36.9-7.8 2.3 2.3 3.1 0.4 2 5.6 2.4 1.9 2.8 0.4 0.1 0.1-2.6 3.2v3.1l-1.9 3.1-0.2 1.9 1.3 1.3-0.2 1.9-2.4 1.1 1 3.4 0.2 1.1 2.8 0.3 0.9 2.5 5.9 3.9v0.4l-3.1 3-1.5 2.2-1.7 2.8-2.7 1.2-1.4 0.3-2.1 1.3-1.6 1.4-22.4 4.3-38.7 7.8-11.3 1.4-3.9 0.7-5.1-22.4-4.3-25.9z"/>
		<path id="RI" fill="#fff" d="m873.6 175.7-0.8-4.4-1.6-6 5.7-1.5 1.5 1.3 3.4 4.3 2.8 4.4-2.8 1.4-1.3-0.2-1.1 1.8-2.4 1.9-2.8 1.1z"/>
		<path id="SC" fill="#fff" d="m759 413.6-2.1-1-1.9-5.6-2.5-2.3-2.5-0.5-1.5-4.6-3-6.5-4.2-1.8-1.9-1.8-1.2-2.6-2.4-2-2.3-1.3-2.2-2.9-3.2-2.4-4.4-1.7-0.4-1.4-2.3-2.8-0.5-1.5-3.8-5.4-3.4 0.1-3.9-2.5-1.2-1.2-0.2-1.4 0.6-1.6 2.7-1.3-0.8-2 6.4-2.7 9.2-4.5 7.1-0.9 16.4-0.5 2.3 1.9 1.8 3.5 4.6-0.8 12.6-1.5 2.7 0.8 12.5 7.4 10.1 8.3-5.3 5.4-2.6 6.1-0.5 6.3-1.6 0.8-1.1 2.7-2.4 0.6-2.1 3.6-2.7 2.7-2.3 3.4-1.6 0.8-3.6 3.4-2.9 0.2 1 3.2-5 5.3-2.3 1.6z"/>
		<path id="SD" d="m471 181.1-0.9 3.2 0.4 3 2.6 2-1.2 5.4-1.76165 4.29174-1.35871 0.13303l-2.379-1.225-4.8-1.5-2.5-1.3-2.9 0.1-3.9 0.4-3.8 1.2-5.3-3.8-2.7-2.4-10.9 0.8-41.5-2.4-35.6-2.2 1.5-24.8 2.8-34 0.4-5 56.9 3.9 56.9 1.7v2.7l-1.3 1.5-2 1.5-0.1 2.2 1.1 2.2 4.1 3.4 0.5 2.7v35.9z" fill="#fff"/>
		<path id="TN" fill="#fff" d="m670.8 359.6-13.1 1.2-23.3 2.2-37.6 2.7-11.8 0.4 0.9-0.6 0.9-4.5-1.2-3.6 3.9-2.3 0.4-2.5 1.2-4.3 3-9.5 0.5-5.6 0.3-0.2 12.3-0.2 13.6-0.8 0.1-3.9 3.5-0.1 30.4-3.3 54-5.2 10.3-1.5 7.6-0.2 2.4-1.9 1.3 0.3-0.1 3.3-0.4 1.6-2.4 2.2-1.6 3.6-2-0.4-2.4 0.9-2.2 3.3-1.4-0.2-0.8-1.2-1.1 0.4-4.3 4-0.8 3.1-4.2 2.2-4.3 3.6-3.8 1.5-4.4 2.8-0.6 3.6-2.5 0.5-2 1.7-0.2 4.8z"/>
		<path id="TX" fill="#fff" d="m282.8 425.6 37 3.6 29.3 1.9 7.4-97.7 54.4 2.4-1.7 23.3-1 18 0.2 2 4.4 4.1 2 1.1h1.8l0.5-1.2 0.7 0.9 2.4 0.2 1.1-0.6v-0.2l1 0.5-0.4 3.7 4.5 0.7 2.4 0.9 4.2 0.7 2.6 1.8 2.8-1.9 2.7 0.6 2.2 3.1 0.8 0.1v2.1l3.3 1.1 2.5-2.1 1.5 0.5 2.1 0.1 0.6 2.1 5.2 2 2.3-0.5 1.9-4h0.1l1.1 1.9 4.6 0.9 3.4 1.3 3.2 1 2.4-1.2 0.7-2.3h3.6l2.1 1 3-2h0.4l0.5 1.4h4.7l1.9-1.8 1.3 0.4 1.7 2.1 3.3 1.9 3.4 1 2.5 1.4 2.7 2 3.1-1.2 2.1 0.8 0.7 20 0.7 9.5 0.6 4.1 2.6 4.4 0.9 4.5 4.2 5.9 0.3 3.1 0.6 0.8-0.7 7.7-2.9 4.8 1.3 2.6-0.5 2.4-0.8 7.2-1.3 3 0.3 4.2-5.6 1.6-9.9 4.5-1 1.9-2.6 1.9-2.1 1.5-1.3 0.8-5.7 5.3-2.7 2.1-5.3 3.2-5.7 2.4-6.3 3.4-1.8 1.5-5.8 3.6-3.4 0.6-3.9 5.5-4 0.3-1 1.9 2.3 1.9-1.5 5.5-1.3 4.5-1.1 3.9-0.8 4.5 0.8 2.4 1.8 7 1 6.1 1.8 2.7-1 1.5-3.1 1.9-5.7-3.9-5.5-1.1-1.3 0.5-3.2-0.6-4.2-3.1-5.2-1.1-7.6-3.4-2.1-3.9-1.3-6.5-3.2-1.9-0.6-2.3 0.6-0.6 0.3-3.4-1.3-0.6-0.6-1 1.3-4.4-1.6-2.3-3.2-1.3-3.4-4.4-3.6-6.6-4.2-2.6 0.2-1.9-5.3-12.3-0.8-4.2-1.8-1.9-0.2-1.5-6-5.3-2.6-3.1v-1.1l-2.6-2.1-6.8-1.1-7.4-0.6-3.1-2.3-4.5 1.8-3.6 1.5-2.3 3.2-1 3.7-4.4 6.1-2.4 2.4-2.6-1-1.8-1.1-1.9-0.6-3.9-2.3v-0.6l-1.8-1.9-5.2-2.1-7.4-7.8-2.3-4.7v-8.1l-3.2-6.5-0.5-2.7-1.6-1-1.1-2.1-5-2.1-1.3-1.6-7.1-7.9-1.3-3.2-4.7-2.3-1.5-4.4-2.6-2.9-1.7-0.5zm174.4 141.7-0.6-7.1-2.7-7.2-0.6-7 1.5-8.2 3.3-6.9 3.5-5.4 3.2-3.6 0.6 0.2-4.8 6.6-4.4 6.5-2 6.6-0.3 5.2 0.9 6.1 2.6 7.2 0.5 5.2 0.2 1.5z"/>
		<path id="UT" fill="#fff" d="m228.4 305.9 24.6 3.6 1.9-13.7 7-50.5 2.3-22-32.2-3.5 2.2-13.1 1.8-10.6-34.7-6.1-12.5-2.5-10.6 52.9-5.4 30-3.3 15.4-1.7 9.2z"/>
		<path id="VA" fill="#fff" d="m834.7 265.2-0.2 2.8-2.9 3.8-0.4 4.6 0.5 3.4-1.8 5-2.2 1.9-1.5-4.6 0.4-5.4 1.6-4.2 0.7-3.3-0.1-1.7zm-60.3 44.6-38.6 5.6-4.8-0.1-2.2-0.3-2.5 1.9-7.3 0.1-10.3 1.6-6.7 0.6 4.1-2.6 4.1-2.3v-2.1l5.7-7.3 4.1-3.7 2.2-2.5 3.6 4.3 3.8 0.9 2.7-1 2-1.5 2.4 1.2 4.6-1.3 1.7-4.4 2.4 0.7 3.2-2.3 1.6 0.4 2.8-3.2 0.2-2.7-0.8-1.2 4.8-10.5 1.8-5.2 0.5-4.7 0.7-0.2 1.1 1.7 1.5 1.2 3.9-0.2 1.7-8.1 3-0.6 0.8-2.6 2.8-2.2 1.1-2.1 1.8-4.3 0.1-4.6 3.6 1.4 6.6 3.1 0.3-5.2 3.4 1.2-0.6 2.9 8.6 3.1 1.4 1.8-0.8 3.3-1.3 1.3-0.5 1.7 0.5 2.4 2 1.3 3.9 1.4 2.9 1 4.9 0.9 2.2 2.1 3.2 0.4 0.9 1.2-0.4 4.7 1.4 1.1-0.5 1.9 1.2 0.8-0.2 1.4-2.7-0.1 0.1 1.6 2.3 1.5 0.1 1.4 1.8 1.8 0.5 2.5-2.6 1.4 1.6 1.5 5.8-1.7 3.7 6.2z"/>
		<path id="VT" fill="#fff" d="m832.7 111.3 2.4 6.5 0.8 5.3-1 3.9 2.5 4.4 0.9 2.3-0.7 2.6 3.3 1.5 2.9 10.8v5.3l11.5-2.1-1-1.1 0.6-1.9 0.2-4.3-1-1.4 0.2-4.7 0.8-9.3v-8.5l-1.1-1.8v-1.6l2.8-1.1 3.5-4.4v-3.6l-1.9-2.7-0.3-5.79-26.1 6.79z"/>
		<path id="WA" fill="#fff" d="m74.5 67.7-2.3-4.3-4.1-0.7-0.4-2.4-2.5-0.6-2.9-0.5-1.8 1-2.3-2.9 0.3-2.9 2.7-0.3 1.6-4l-2.6-1.1 0.2-3.7 4.4-0.6-2.7-2.7-1.5-7.1 0.6-2.9v-7.9l-1.8-3.2 2.3-9.4 2.1 0.5 2.4 2.9 2.7 2.6 3.2 1.9 4.5 2.1 3.1 0.6 2.9 1.5 3.4 1 2.3-0.2v-2.4l1.3-1.1 2.1-1.3 0.3 1.1 0.3 1.8-2.3 0.5-0.3 2.1 1.8 1.5 1.1 2.4 0.6 1.9 1.5-0.2 0.2-1.3-1-1.3-0.5-3.2 0.8-1.8-0.6-1.5v-2.6l1.8-3.6-1.1-2.6-2.4-4.8 0.3-0.8 1.4-0.8 4.4 1.5 9.7 2.7 8.6 1.9 20 5.7 23 5.7 15 3.49-4.8 17.56-4.5 20.83-3.4 16.25-0.4 9.18-12.9-3.72-15.3-3.47-14.5 0.32-1.1-1.53-5.7 2.09-3.9-0.42-2.6-1.79-1.7 0.65-4.15-0.25-1.72-1.32-5.16-1.82-1.18-0.16-4.8-1.39-1.92 1.65-5.65-0.25-4.61-3.35zm9.6-55.4 2-0.2 0.5 1.4 1.5-1.6h2.3l0.8 1.5-1.5 1.7 0.6 0.8-0.7 2-1.4 0.4s-0.9 0.1-0.9-0.2 1.5-2.6 1.5-2.6l-1.7-0.6-0.3 1.5-0.7 0.6-1.5-2.3z"/>
		<path id="WI" fill="#fff" d="m541.4 109.9 2.9 0.5 2.9-0.6 7.4-3.2 2.9-1.9 2.1-0.8 1.9 1.5-1.1 1.1-1.9 3.1-0.6 1.9 1 0.6 1.8-1 1.1-0.2 2.7 0.8 0.6 1.1 1.1 0.2 0.6-1.1 4 5.3 8.2 1.2 8.2 2.2 2.6 1.1 12.3 2.6 1.6 2.3 3.6 1.2 1.7 10.2 1.6 1.4 1.5 0.9-1.1 2.3-1.8 1.6-2.1 4.7-1.3 2.4 0.2 1.8 1.5 0.3 1.1-1.9 1.5-0.8 0.8-2.3 1.9-1.8 2.7-4 4.2-6.3 0.8-0.5 0.3 1-0.2 2.3-2.9 6.8-2.7 5.7-0.5 3.2-0.6 2.6 0.8 1.3-0.2 2.7-1.9 2.4-0.5 1.8 0.6 3.6 0.6 3.4-1.5 2.6-0.8 2.9-1 3.1 1.1 2.4 0.6 6.1 1.6 4.5-0.2 3-15.9 1.8-17.5 1h-12.7l-0.7-1.5-2.9-0.4-2.6-1.3-2.3-3.7-0.3-3.6 2-2.9-0.5-1.4-2.1-2.2-0.8-3.3-0.6-6.8-2.1-2.5-7-4.5-3.8-5.4-3.4-1-2.2-2.8h-3.2l-2.9-3.3-0.5-6.5 0.1-3.8 1.5-3.1-0.8-3.2-2.5-2.8 1.8-5.4 5.2-3.8 1.6-1.9-0.2-8.1 0.2-2.8 2.4-2.8z"/>
		<path id="WV" fill="#fff" d="m758.9 254.3 5.8-6 2.6-0.8 1.6-1.5 1.5-2.2 1.1 0.3 3.1-0.2 4.6-3.6 1.5-0.5 1.3 1 2.6 1.2 3 3-0.4 4.3-5.4-2.6-4.8-1.8-0.1 5.9-2.6 5.7-2.9 2.4-0.8 2.3-3 0.5-1.7 8.1-2.8 0.2-1.1-1-1.2-2-2.2 0.5-0.5 5.1-1.8 5.1-5 11 0.9 1.4-0.1 2-2.2 2.5-1.6-0.4-3.1 2.3-2.8-0.8-1.8 4.9-3.8 1-2.5-1.3-2.5 1.9-2.3 0.7-3.2-0.8-3.8-4.5-3.5-2.2-2.5-2.5-2.9-3.7-0.5-2.3-2.8-1.7-0.6-1.3-0.2-5.6 0.3 0.1 2.4-0.2 1.8-1v-2.2l1.7-1.5 0.1-5.2 0.9-3.6 1.1-0.7 0.4 0.3 1 1.1 1.7 0.5 1.1-1.3-1-3.1v-1.6l3.1-4.6 1.2-1.3 2 0.5 2.6-1.8 3.1-3.4 2.4-4.1 0.2-5.6 0.5-4.8v-4.9l-1.1-3 0.9-1.3 0.8-0.7 4.3 19.3 4.3-0.8 11.2-1.3z"/>
		<path id="WY" fill="#fff" d="m353 161.9-1.5 25.4-4.4 44-2.7-0.3-83.3-9.1-27.9-3 2-12 6.9-41 3.8-24.2 1.3-11.2 48.2 7 59.1 6.5z"/>
		<rect id="MD-button" rx="3" ry="3" height="20" width="50" y="399.4" x="869" fill="#fffff3"/>
		<rect id="DE-button" rx="3" ry="3" height="20" width="50" y="374.4" x="869" fill="#fffff3"/>
		<rect id="NJ-button" rx="3" ry="3" height="20" width="50" y="349.4" x="869" fill="#fffff3"/>
		<rect id="CT-button" rx="3" ry="3" height="20" width="50" y="324.4" x="869" fill="#fffff3"/>
		<rect id="RI-button" rx="3" ry="3" height="20" width="50" y="299.4" x="869" fill="#fffff3"/>
		<rect id="MA-button" rx="3" ry="3" height="20" width="50" y="274.4" x="869" fill="#fffff3"/>
		<rect id="VT-button" rx="3" ry="3" height="20" width="50" y="249.4" x="869" fill="#fffff3"/>
		<rect id="NH-button" rx="3" ry="3" height="20" width="50" y="224.4" x="869" fill="#fffff3"/>
		<rect id="HI-button" rx="3" ry="3" height="20" width="50" y="553" x="250" fill="#fffff3"/>
		<path id="NE" d="m352.4 187.699-4.30078 43.7012 33.0508 3.29883c0.0248-0.022 0.0664 0 0.0996 0l-1.44922 21.1016 21.6992 1 10.1504 0.29883 7.29883 0.25c0-0.006-0.00001-0.0117 0-0.0176l0.10156 0.006v0.0117l0.44727 0.0117 0.20703 0.0117 0.002-0.006 12.2422 0.33203 10.1504 0.30078 5.47461 0.0742 0.77539 0.0137v-0.0508h0.0996v0.0508l10.0762 0.13672 5.47461 0.0762 5.47461 0.0742 5.47461 0.0742 5.47656 0.0762 5.47461 0.0742h4.5l-2.20117-3-2.59961-3.90039 0.0996-2.29883-0.44141-0.85156h-0.0176l-1.16015-2.45117-1.67969-4.59766-0.55469-6.54492-0.0684 0.0293 0.002-0.004-0.375-1.47656-1.30469-7.80664-2.29883-3.69922-1-4.69922-2.80078-7.90039-0.625-3.375-0.33594-2.84375-2.24023-2.94336-1.65235 0.0488-3.24609-1.48438-4.80078-1.5-2.19922-1.20117-2.59961 0.0996-3.70117 0.40039-4.10742 1.18945-0.19141-0.0215-5.90039-4.06836-2.20117-2-10.6992 0.60156-9.25977-0.5332-0.002-0.01-0.43359-0.0156-0.75391-0.043v0.0176l-0.10156-0.004c-0.00009-0.005 0.00009-0.009 0-0.0137l-10.199-0.598-10.375-0.6-17.125-1.078c-9.26045-0.23488-19.3016-1.11524-28.8496-1.72266z" fill="#fff"/>
	</g>
	<g id="special" class="state">
		<rect id="WA-S" rx="10" ry="10" height="20" width="20" y="59.4789" x="135.199"/>
		<rect id="OR-S" rx="10" ry="10" height="20" width="20" y="143.944" x="116.154"/>
		<rect id="CA-S" rx="10" ry="10" height="20" width="20" y="339.484" x="106.792"/>
		<rect id="NV-S" rx="10" ry="10" height="20" width="20" y="281.242" x="135.582"/>
		<rect id="UT-S" rx="10" ry="10" height="20" width="20" y="279.278" x="227.465"/>
		<rect id="AZ-S" rx="10" ry="10" height="20" width="20" y="401.54" x="207.748"/>
		<rect id="NM-S" rx="10" ry="10" height="20" width="20" y="401.044" x="318.489"/>
		<rect id="AK-S" rx="10" ry="10" height="20" width="20" y="505.91" x="129.689"/>
		<rect id="HI-S" rx="15" ry="15" height="13" width="13" y="556.719" x="282.267"/>
		<rect id="TX-S" rx="10" ry="10" height="20" width="20" y="483.925" x="456.125"/>
		<rect id="OK-S" rx="10" ry="10" height="20" width="20" y="366.462" x="477.098"/>
		<rect id="KS-S" rx="10" ry="10" height="20" width="20" y="297.395" x="473.571"/>
		<rect id="CO-S" rx="10" ry="10" height="20" width="20" y="295.12" x="348.741"/>
		<rect id="NE-S" rx="10" ry="10" height="20" width="20" y="230.65" x="451.032"/>
		<rect id="WY-S" rx="10" ry="10" height="20" width="20" y="201.608" x="319.417"/>
		<rect id="MT-S" rx="10" ry="10" height="20" width="20" y="113.578" x="327.306"/>
		<rect id="ID-S" rx="10" ry="10" height="20" width="20" y="166.102" x="212.123"/>
		<rect id="ND-S" rx="10" ry="10" height="20" width="20" y="100.241" x="440.387"/>
		<rect id="SD-S" rx="10" ry="10" height="20" width="20" y="164.418" x="442.832"/>
		<rect id="MN-S" rx="10" ry="10" height="20" width="20" y="153.113" x="503.077"/>
		<rect id="WI-S" rx="10" ry="10" height="20" width="20" y="171.206" x="583.224"/>
		<rect id="IA-S" rx="10" ry="10" height="20" width="20" y="216.429" x="532.068"/>
		<rect id="IL-S" rx="10" ry="10" height="20" width="20" y="276.576" x="592.831"/>
		<rect id="MO-S" rx="10" ry="10" height="20" width="20" y="305.425" x="557.522"/>
		<rect id="AR-S" rx="10" ry="10" height="20" width="20" y="385.501" x="541.384"/>
		<rect id="LA-S" rx="10" ry="10" height="20" width="20" y="464.434" x="570.21"/>
		<rect id="MS-S" rx="10" ry="10" height="20" width="20" y="430.948" x="596.051"/>
		<rect id="AL-S" rx="10" ry="10" height="20" width="20" y="422.441" x="655.035"/>
		<rect id="GA-S" rx="10" ry="10" height="20" width="20" y="419.847" x="725.112"/>
		<rect id="FL-S" rx="10" ry="10" height="20" width="20" y="521.319" x="767.705"/>
		<rect id="SC-S" rx="10" ry="10" height="20" width="20" y="371.135" x="758.273"/>
		<rect id="NC-S" rx="10" ry="10" height="20" width="20" y="323.448" x="791.931"/>
		<rect id="TN-S" rx="10" ry="10" height="20" width="20" y="335.956" x="653.913"/>
		<rect id="KY-S" rx="15" ry="15" height="13" width="13" y="290.589" x="688.527"/>
		<rect id="WV-S" rx="15" ry="15" height="13" width="13" y="247.894" x="741.41"/>
		<rect id="VA-S" rx="15" ry="15" height="13" width="13" y="260.424" x="778.406"/>
		<rect id="OH-S" rx="15" ry="15" height="13" width="13" y="250.214" x="699.768"/>
		<rect id="IN-S" rx="15" ry="15" height="13" width="13" y="268.678" x="642.694"/>
		<rect id="MI-S" rx="15" ry="15" height="13" width="13" y="190.775" x="671.812"/>
		<rect id="PA-S" rx="15" ry="15" height="13" width="13" y="211.157" x="809.69"/>
		<rect id="NY-S" rx="15" ry="15" height="13" width="13" y="167.618" x="825.83"/>
		<rect id="ME-S" rx="15" ry="15" height="13" width="13" y="95.6804" x="878.484"/>
		<rect id="NH-S" rx="15" ry="15" height="13" width="13" y="228.235" x="903"/>
		<rect id="VT-S" rx="15" ry="15" height="13" width="13" y="253.645" x="903"/>
		<rect id="MA-S" rx="15" ry="15" height="13" width="13" y="278.062" x="903"/>
		<rect id="RI-S" rx="15" ry="15" height="13" width="13" y="303.226" x="903"/>
		<rect id="CT-S" rx="15" ry="15" height="13" width="13" y="327.968" x="903"/>
		<rect id="NJ-S" rx="15" ry="15" height="13" width="13" y="352.777" x="903"/>
		<rect id="DE-S" rx="15" ry="15" height="13" width="13" y="377.709" x="903"/>
		<rect id="MD-S" rx="15" ry="15" height="13" width="13" y="403.296" x="903"/>
	</g>
	<g id="text">
		<text id="NY-text" y="164.94463" x="814.8877" xml:space="preserve"><tspan id="tspan4864" x="814.8877" y="164.94463">NY</tspan></text>
		<text id="PA-text" y="217.97284" x="779.57208" xml:space="preserve"><tspan id="tspan8878" x="779.57208" y="217.97284">PA</tspan></text>
		<text id="OH-text" y="239.95192" x="697.55566" xml:space="preserve"><tspan id="tspan3064" x="697.55566" y="239.95192">OH</tspan></text>
		<text id="VA-text" y="297.98315" x="783.05811" xml:space="preserve"><tspan id="tspan8922" x="783.05811" y="297.98315">VA</tspan></text>
		<text id="NC-text" y="337.13416" x="772.11945" xml:space="preserve"><tspan id="tspan8922-1" x="772.11945" y="337.13416">NC</tspan></text>
		<text id="SC-text" y="375.54971" x="745.70471" xml:space="preserve"><tspan id="tspan8966" x="745.70471" y="375.54971">SC</tspan></text>
		<text id="GA-text" y="408.20993" x="708.37604" xml:space="preserve"><tspan id="tspan8988" x="708.37604" y="408.20993">GA</tspan></text>
		<text id="FL-text" y="500.95892" x="758.54132" xml:space="preserve"><tspan id="tspan8988-2" x="758.54132" y="500.95892">FL</tspan></text>
		<text id="AL-text" y="409.30746" x="649.68488" xml:space="preserve"><tspan id="tspan8988-2-7" x="649.68488" y="409.30746">AL</tspan></text>
		<text id="MS-text" y="414.10382" x="595.3385" xml:space="preserve"><tspan id="tspan8988-2-9" x="595.3385" y="414.10382">MS</tspan></text>
		<text id="LA-text" y="448.216" x="544.6413" xml:space="preserve"><tspan id="tspan8988-2-2" x="544.6413" y="448.216">LA</tspan></text>
		<text id="TX-text" y="455.53119" x="419.85382" xml:space="preserve"><tspan id="tspan8988-2-97" x="419.85382" y="455.53119">TX</tspan></text>
		<text id="NM-text" y="380.03018" x="297.59476" xml:space="preserve"><tspan id="tspan5110" x="297.59476" y="380.03018">NM</tspan></text>
		<text id="AZ-text" y="368.85352" x="192.65363" xml:space="preserve"><tspan id="tspan5108" x="192.65363" y="368.85352">AZ</tspan></text>
		<text id="CA-text" y="265.97507" x="60.013393" xml:space="preserve"><tspan id="tspan5102" x="60.013393" y="265.97507">CA</tspan></text>
		<text id="NV-text" y="244.91568" x="133.09644" xml:space="preserve"><tspan id="tspan5104" x="133.09644" y="244.91568">NV</tspan></text>
		<text id="UT-text" y="257.34555" x="219.72461" xml:space="preserve"><tspan id="tspan5106" x="219.72461" y="257.34555">UT</tspan></text>
		<text id="AK-text" y="499.51486" x="119.20147" xml:space="preserve"><tspan id="tspan8988-2-5" x="119.20147" y="499.51486">AK</tspan></text>
		<text id="OR-text" y="133.88765" x="83.506927" xml:space="preserve"><tspan id="tspan5100" x="83.506927" y="133.88765">OR</tspan></text>
		<text id="WA-text" y="58.577694" x="104.78831" xml:space="preserve"><tspan id="tspan5088" x="104.78831" y="58.577694">WA</tspan></text>
		<text id="ID-text" y="158.2198" x="184.52431" xml:space="preserve"><tspan id="tspan5098" x="184.52431" y="158.2198">ID</tspan></text>
		<text id="MT-text" y="99.853523" x="285.68491" xml:space="preserve"><tspan id="tspan5090" x="285.68491" y="99.853523">MT</tspan></text>
		<text id="WY-text" y="187.0751" x="296.31979" xml:space="preserve"><tspan id="tspan5096" x="296.31979" y="187.0751">WY</tspan></text>
		<text id="CO-text" y="279.39874" x="319.59891" xml:space="preserve"><tspan id="tspan5112" x="319.59891" y="279.39874">CO</tspan></text>
		<text id="ND-text" y="100.67806" x="408.01151" xml:space="preserve"><tspan id="tspan5092" x="408.01151" y="100.67806">ND</tspan></text>
		<text id="SD-text" y="165.68591" x="411.88556" xml:space="preserve"><tspan id="tspan5094" x="411.88556" y="165.68591">SD</tspan></text>
		<text id="NE-text" y="234.94601" x="417.20612" xml:space="preserve"><tspan id="tspan5114" x="417.20612" y="234.94601">NE</tspan></text>
		<text id="KS-text" y="297.9035" x="434.59491" xml:space="preserve"><tspan id="tspan8988-2-43" x="434.59491" y="297.9035">KS</tspan></text>
		<text id="OK-text" y="364.48419" x="452.81979" xml:space="preserve"><tspan id="tspan8988-2-78" x="452.81979" y="364.48419">OK</tspan></text>
		<text id="AR-text" y="370.2388" x="544.0199" xml:space="preserve"><tspan id="tspan8988-2-88" x="544.0199" y="370.2388">AR</tspan></text>
		<text id="MO-text" y="296.05002" x="537.20837" xml:space="preserve"><tspan id="tspan8988-2-31" x="537.20837" y="296.05002">MO</tspan></text>
		<text id="IA-text" y="219.54893" x="515.0094" xml:space="preserve"><tspan id="tspan5116" x="515.0094" y="219.54893">IA</tspan></text>
		<text id="MN-text" y="126.13158" x="502.37958" xml:space="preserve"><tspan id="tspan5120" x="502.37958" y="126.13158">MN</tspan></text>
		<text id="WI-text" y="156.74237" x="574.83044" xml:space="preserve"><tspan id="tspan5122" x="574.83044" y="156.74237">WI</tspan></text>
		<text id="IL-text" y="258.14197" x="599.18109" xml:space="preserve"><tspan id="tspan5124" x="599.18109" y="258.14197">IL</tspan></text>
		<text id="IN-text" y="256.41882" x="646.14594" xml:space="preserve"><tspan id="tspan3060" x="646.14594" y="256.41882">IN</tspan></text>
		<text id="KY-text" y="316.4567" x="672.39069" xml:space="preserve"><tspan id="tspan8988-2-87" x="672.39069" y="316.4567">KY</tspan></text>
		<text id="TN-text" y="356.58911" x="629.00427" xml:space="preserve"><tspan id="tspan8988-2-72" x="629.00427" y="356.58911">TN</tspan></text>
		<text id="MI-text" y="188.11806" x="661.61267" xml:space="preserve"><tspan id="tspan8988-2-22" x="661.61267" y="188.11806">MI</tspan></text>
		<text id="WV-text" y="287.3461" x="735.2168" xml:space="preserve"><tspan id="tspan8988-2-106" x="735.2168" y="287.3461">WV</tspan></text>
		<text id="ME-text" y="86.469826" x="889.30444" xml:space="preserve"><tspan id="tspan8988-2-59-0-7-1-7-7-5-9-9" x="889.30444" y="86.469826">ME</tspan></text>
		<text id="MD-text" y="414.93405" x="886.73798" xml:space="preserve"><tspan id="tspan8988-2-59-0" x="886.73798" y="414.93405">MD</tspan></text>
		<text id="DE-text" y="390.08749" x="885.57422" xml:space="preserve"><tspan id="tspan8988-2-59-0-7" x="885.57422" y="390.08749">DE</tspan></text>
		<text id="NJ-text" y="365.0289" x="886.40625" xml:space="preserve"><tspan id="tspan8988-2-59-0-7-1" x="886.40625" y="365.0289">NJ</tspan></text>
		<text id="CT-text" y="340.08749" x="885.65625" xml:space="preserve"><tspan id="tspan8988-2-59-0-7-1-7" x="885.65625" y="340.08749">CT</tspan></text>
		<text id="RI-text" y="315.08749" x="887.8125" xml:space="preserve"><tspan id="tspan8988-2-59-0-7-1-7-7" x="887.8125" y="315.08749">RI</tspan></text>
		<text id="MA-text" y="290.10703" x="887.55078" xml:space="preserve"><tspan id="tspan8988-2-59-0-7-1-7-7-5" x="887.55078" y="290.10703">MA</tspan></text>
		<text id="VT-text" y="265.08749" x="886.05078" xml:space="preserve"><tspan id="tspan8988-2-59-0-7-1-7-7-5-9" x="886.05078" y="265.08749">VT</tspan></text>
		<text id="NH-text" y="240.08749" x="887.70312" xml:space="preserve"><tspan id="tspan8988-2-59-0-7-1-7-7-5-9-1" x="887.70312" y="240.08749">NH</tspan></text>
		<text id="HI-text" y="568.63818" x="268.15173" xml:space="preserve"><tspan id="tspan8988-2-59-0-0" x="268.15173" y="568.63818">HI</tspan></text>
	</g>
</svg>
