<?xml version="1.0" encoding="UTF-8"?>
<svg id="svg114" width="6300" height="4410" version="1.0" xmlns="http://www.w3.org/2000/svg" xmlns:cc="http://creativecommons.org/ns#" xmlns:dc="http://purl.org/dc/elements/1.1/" xmlns:rdf="http://www.w3.org/1999/02/22-rdf-syntax-ns#" xmlns:xlink="http://www.w3.org/1999/xlink">
 <metadata id="metadata118">
  <rdf:RDF>
   <cc:Work rdf:about="">
    <dc:format>image/svg+xml</dc:format>
    <dc:type rdf:resource="http://purl.org/dc/dcmitype/StillImage"/>
    <dc:title/>
   </cc:Work>
  </rdf:RDF>
 </metadata>
 <defs id="defs42">
  <path id="D" d="m-31.5 0h33a30 30 0 0 0 30-30v-10a30 30 0 0 0-30-30h-33zm13-13h19a19 19 0 0 0 19-19v-6a19 19 0 0 0-19-19h-19z" fill-rule="evenodd"/>
  <path id="E" transform="translate(-31.5)" d="m0 0h63v-13h-51v-18h40v-12h-40v-14h48v-13h-60z"/>
  <path id="e" d="m-26.25 0h52.5v-12h-40.5v-16h33v-12h-33v-11h39.25v-12h-51.25z"/>
  <g id="G">
   <clipPath id="gcut">
    <path id="path5" d="m-31.5 0v-70h63v70zm31.5-47v12h31.5v-12z"/>
   </clipPath>
   <use id="use8" width="100%" height="100%" clip-path="url(#gcut)" xlink:href="#O"/>
   <rect id="rect10" x="5" y="-35" width="26.5" height="10"/>
   <rect id="rect12" x="21.5" y="-35" width="10" height="35"/>
  </g>
  <path id="M" d="m-31.5 0h12v-48l14 48h11l14-48v48h12v-70h-17.5l-14 48-14-48h-17.5z"/>
  <path id="O" d="m0 0a31.5 35 0 0 0 0-70 31.5 35 0 0 0 0 70m0-13a18.5 22 0 0 0 0-44 18.5 22 0 0 0 0 44" fill-rule="evenodd"/>
  <path id="P" d="m-31.5 0h13v-26h28a22 22 0 0 0 0-44h-40zm13-39h27a9 9 0 0 0 0-18h-27z" fill-rule="evenodd"/>
  <g id="R">
   <use id="use18" width="100%" height="100%" xlink:href="#P"/>
   <path id="path20" d="m28 0c0-10 0-32-15-32h-19c22 0 22 22 22 32"/>
  </g>
  <path id="S" d="m-15.75-22c0 7 6.75 10.5 16.75 10.5s14.74-3.25 14.75-7.75c0-14.25-46.75-5.25-46.5-30.25 0.25-21.5 24.75-20.5 33.75-20.5s26 4 25.75 21.25h-15.25c0-7.5-7-10.25-15-10.25-7.75 0-13.25 1.25-13.25 8.5-0.25 11.75 46.25 4 46.25 28.75 0 18.25-18 21.75-31.5 21.75-11.5 0-31.55-4.5-31.5-22z"/>
  <g id="star" fill="#fff">
   <g id="c">
    <path id="t" transform="rotate(18,0,-1)" d="m0-1v1h0.5"/>
    <use id="use25" transform="scale(-1,1)" width="100%" height="100%" xlink:href="#t"/>
   </g>
   <use id="use28" transform="rotate(72)" width="100%" height="100%" xlink:href="#c"/>
   <use id="use30" transform="rotate(-72)" width="100%" height="100%" xlink:href="#c"/>
   <use id="use32" transform="rotate(144)" width="100%" height="100%" xlink:href="#c"/>
   <use id="use34" transform="rotate(216)" width="100%" height="100%" xlink:href="#c"/>
  </g>
  <use id="star1" transform="scale(31.5)" width="100%" height="100%" xlink:href="#star"/>
  <use id="star2" transform="scale(26.25)" width="100%" height="100%" xlink:href="#star"/>
  <use id="star3" transform="scale(21)" width="100%" height="100%" xlink:href="#star"/>
  <use id="star4" transform="scale(15)" width="100%" height="100%" xlink:href="#star"/>
  <use id="star5" transform="scale(10.5)" width="100%" height="100%" xlink:href="#star"/>
 </defs>
 <rect id="rect44" width="100%" height="100%" fill="#009b3a"/>
 <path id="path46" d="m1407 2205 1743 1113 1743-1113-1743-1113z" fill="#fedf00"/>
 <circle id="circle48" cx="3150" cy="2205" r="735" fill="#002776"/>
 <clipPath id="band">
  <circle id="circle50" r="735"/>
 </clipPath>
 <path id="path53" transform="translate(3150,2205)" d="m-2205 1470a1785 1785 0 0 1 3570 0h-105a1680 1680 0 1 0-3360 0z" clip-path="url(#band)" fill="#fff"/>
 <g id="g85" transform="translate(2730,3675)" fill="#009b3a">
  <use id="use55" transform="rotate(-7)" y="-1697.5" width="100%" height="100%" xlink:href="#O"/>
  <use id="use57" transform="rotate(-4)" y="-1697.5" width="100%" height="100%" xlink:href="#R"/>
  <use id="use59" transform="rotate(-1)" y="-1697.5" width="100%" height="100%" xlink:href="#D"/>
  <use id="use61" transform="rotate(2)" y="-1697.5" width="100%" height="100%" xlink:href="#E"/>
  <use id="use63" transform="rotate(5)" y="-1697.5" width="100%" height="100%" xlink:href="#M"/>
  <use id="use65" transform="rotate(9.75)" y="-1697.5" width="100%" height="100%" xlink:href="#e"/>
  <use id="use67" transform="rotate(14.5)" y="-1697.5" width="100%" height="100%" xlink:href="#P"/>
  <use id="use69" transform="rotate(17.5)" y="-1697.5" width="100%" height="100%" xlink:href="#R"/>
  <use id="use71" transform="rotate(20.5)" y="-1697.5" width="100%" height="100%" xlink:href="#O"/>
  <use id="use73" transform="rotate(23.5)" y="-1697.5" width="100%" height="100%" xlink:href="#G"/>
  <use id="use75" transform="rotate(26.5)" y="-1697.5" width="100%" height="100%" xlink:href="#R"/>
  <use id="use77" transform="rotate(29.5)" y="-1697.5" width="100%" height="100%" xlink:href="#E"/>
  <use id="use79" transform="rotate(32.5)" y="-1697.5" width="100%" height="100%" xlink:href="#S"/>
  <use id="use81" transform="rotate(35.5)" y="-1697.5" width="100%" height="100%" xlink:href="#S"/>
  <use id="use83" transform="rotate(38.5)" y="-1697.5" width="100%" height="100%" xlink:href="#O"/>
 </g>
 <use id="αCMi" transform="translate(3150,2205)" x="-600" y="-132" width="100%" height="100%" xlink:href="#star1"/>
 <use id="αCMa" transform="translate(3150,2205)" x="-535" y="177" width="100%" height="100%" xlink:href="#star1"/>
 <use id="βCMa" transform="translate(3150,2205)" x="-625" y="243" width="100%" height="100%" xlink:href="#star2"/>
 <use id="γCMa" transform="translate(3150,2205)" x="-463" y="132" width="100%" height="100%" xlink:href="#star4"/>
 <use id="δCMa" transform="translate(3150,2205)" x="-382" y="250" width="100%" height="100%" xlink:href="#star2"/>
 <use id="εCMa" transform="translate(3150,2205)" x="-404" y="323" width="100%" height="100%" xlink:href="#star3"/>
 <use id="αVir" transform="translate(3150,2205)" x="228" y="-228" width="100%" height="100%" xlink:href="#star1"/>
 <use id="αSco" transform="translate(3150,2205)" x="515" y="258" width="100%" height="100%" xlink:href="#star1"/>
 <use id="βSco" transform="translate(3150,2205)" x="617" y="265" width="100%" height="100%" xlink:href="#star3"/>
 <use id="εSco" transform="translate(3150,2205)" x="545" y="323" width="100%" height="100%" xlink:href="#star2"/>
 <use id="θSco" transform="translate(3150,2205)" x="368" y="477" width="100%" height="100%" xlink:href="#star2"/>
 <use id="ιSco" transform="translate(3150,2205)" x="367" y="551" width="100%" height="100%" xlink:href="#star3"/>
 <use id="κSco" transform="translate(3150,2205)" x="441" y="419" width="100%" height="100%" xlink:href="#star3"/>
 <use id="λSco" transform="translate(3150,2205)" x="500" y="382" width="100%" height="100%" xlink:href="#star2"/>
 <use id="μSco" transform="translate(3150,2205)" x="365" y="405" width="100%" height="100%" xlink:href="#star3"/>
 <use id="αHya" transform="translate(3150,2205)" x="-280" y="30" width="100%" height="100%" xlink:href="#star2"/>
 <use id="γHya" transform="translate(3150,2205)" x="200" y="-37" width="100%" height="100%" xlink:href="#star3"/>
 <use id="αCru" transform="translate(3150,2205)" y="330" width="100%" height="100%" xlink:href="#star1"/>
 <use id="βCru" transform="translate(3150,2205)" x="85" y="184" width="100%" height="100%" xlink:href="#star2"/>
 <use id="γCru" transform="translate(3150,2205)" y="118" width="100%" height="100%" xlink:href="#star2"/>
 <use id="δCru" transform="translate(3150,2205)" x="-74" y="184" width="100%" height="100%" xlink:href="#star3"/>
 <use id="εCru" transform="translate(3150,2205)" x="-37" y="235" width="100%" height="100%" xlink:href="#star4"/>
 <use id="αTrA" transform="translate(3150,2205)" x="220" y="495" width="100%" height="100%" xlink:href="#star2"/>
 <use id="βTrA" transform="translate(3150,2205)" x="283" y="430" width="100%" height="100%" xlink:href="#star3"/>
 <use id="γTrA" transform="translate(3150,2205)" x="162" y="412" width="100%" height="100%" xlink:href="#star3"/>
 <use id="αCar" transform="translate(3150,2205)" x="-295" y="390" width="100%" height="100%" xlink:href="#star1"/>
 <use id="σOct" transform="translate(3150,2205)" y="575" width="100%" height="100%" xlink:href="#star5"/>
</svg>
