<?xml version="1.0" encoding="UTF-8"?>
<svg id="svgdata" version="1.0" xmlns="http://www.w3.org/2000/svg" xmlns:cc="http://creativecommons.org/ns#" xmlns:dc="http://purl.org/dc/elements/1.1/" xmlns:rdf="http://www.w3.org/1999/02/22-rdf-syntax-ns#">
 <g id="outlines">
  <path id="Zurich" d="m641.998 223.198-2.96502 1.8109-3.1021-0.25851-0.77553-0.90478-0.77552-2.84359-0.90478-0.12926-3.61913-0.38776-1.29254-0.51702-0.77553-1.42179-0.12925-2.19733-0.64627-2.06807-0.51702-2.32658-0.12925-2.06807-1.29255-0.51701-1.4218 0.25851-1.03403-2.45583-2.45583 0.38776-1.29255-1.68031-1.03403-1.03404-4.13614 0.25851-3.23136-0.25851-2.06807 0.77553-2.19732 1.93882-3.10211 1.16329-4.65315 0.2585-3.10211 0.25851-3.87763-1.16329-1.42179-1.16329-4.29239 0.12389c-0.6487-1.0239-1.11424-2.6001-1.67943-3.66893-0.46035-0.87056-1.25129-1.9326-1.68889-2.81482-0.40415-0.81477-0.84611-1.94943-1.12593-2.81481-0.10712-0.33129-0.33226-0.86421-0.30687-0.85433 0.2182-0.90269-0.0528-2.17612-0.25609-3.08642-0.21542-0.96463-0.82109-2.15608-1.12593-3.09629-0.18961-0.58479-0.37335-1.38558-0.56296-1.97037-0.30485-0.94021-0.69273-2.20789-1.12593-3.0963-0.34916-0.71606-1.21542-1.71757-1.62171-2.42349l3.28602-0.65791 2.37631-1.09676 2.37631-2.6505 1.7614-3.1859 1.76062-3.01799-0.95642-0.44589-1.97477 2.79734-2.72162-0.50055-1.37095-1.12083-1.70977-2.07917-0.47266-7.76904 0.57428-2.58546-6.85048-3.61912-0.38777-2.19732 6.07496-7.23825 0.77552-1.80956-0.64627-3.1021-3.61912-2.06807-2.19732-1.03404-0.25851-0.90478-0.90478-5.04092-0.51702-2.84359-0.38776-1.68031-1.55106-1.29254-1.80956-5.42868 2.06807-6.46272 1.80956-3.36061v-4.13614l3.36062-2.8436 4.13614-4.13614 2.32657-5.9457 0.25851-3.87763-0.64627-0.743213 1.30537-2.05754c0.52958 0.242592 1.15843 0.694542 1.70171 0.854979 0.73337 0.216574 1.76885 0.264626 2.53334 0.281481 1.26917 0.02798 2.96811-0.08453 4.22222-0.281481 1.03187-0.162051 2.36445-0.591111 3.37778-0.844445 1.35111-0.337778 3.33158-0.373779 4.5037-1.12593 0.45507-0.292019 0.62321-1.20832 1.14899-1.41127 0.5321-0.215996 1.3517 0.243016 1.94731 0.285345 0.67386 0.04789 1.58502-0.108212 2.25185 0 0.79077 0.128324 1.77816 0.577088 2.53334 0.844445 0.68013 0.240786 1.58232 0.575602 2.25185 0.844445 0.5968 0.239636 1.43783 0.483898 1.97037 0.844444 0.69223 0.468662 1.51779 1.26752 1.97037 1.97037 0.39061 0.606614 0.59112 1.5763 0.84445 2.25185 0.25333 0.675555 0.20566 1.91643 0.84444 2.25185 0.30826 0.161867 0.8329-0.09344 1.12593-0.281482 0.45507-0.292019 0.8779-0.926937 1.12592-1.40741 0.28199-0.546278 0.5115-1.35776 0.56297-1.97037 0.064-0.761992-0.62813-1.85174-0.28148-2.53333 0.30863-0.606838 1.54489-0.594442 1.97037-1.12593 0.7178-0.896643 0.58323-2.64699 1.12592-3.65926 0.56707-1.05776 1.72801-2.20642 2.45178-3.06064 0.64249-0.655481 1.54451-1.34169 2.05193-2.00603 0.41325-0.541047 0.91863-1.32189 1.12593-1.97037 0.25841-0.808357 0.28614-1.96617 0.28148-2.81482-4e-3 -0.764666-0.0956-1.7916-0.28148-2.53333-0.11056-0.441104-0.45241-0.966304-0.56297-1.40741-0.18591-0.741733-0.29342-1.76875-0.28148-2.53333 9e-3 -0.59704 0.13356-1.39187 0.28148-1.97037 0.17873-0.699005 0.12308-2.26521 0.84445-2.25185 0.53398 0.0099 0.42588 1.17271 0.56296 1.68889 0.11052 0.416159-3e-3 1.08461 0.28148 1.40741 0.17673 0.200193 0.58806 0.20682 0.84445 0.281481 0.33429 0.09734 0.78386 0.346428 1.12592 0.281482 0.71367-0.135503 1.60621-0.77886 1.97037-1.40741 0.42544-0.734317 0.34309-1.9684 0.28149-2.81482-0.0506-0.69451-0.19277-1.66206-0.56297-2.25185-0.35063-0.55861-1.34564-0.844233-1.72321-1.32673-0.40211-0.659534-0.49194-1.83634-0.52864-2.61401-0.0321-0.680056 0.0166-1.62466 0.28148-2.25185 0.21034-0.498121 0.90548-0.91368 1.12593-1.40741 0.20942-0.469025 0.20739-1.1806 0.28148-1.68889 0.0982-0.673693 0.23918-1.57236 0.28148-2.25185 0.0157-0.252844-0.16375-0.651147 0-0.844445 0.33201-0.39193 1.18061-0.207388 1.68889-0.281481 0.67369-0.09821 1.57149-0.30634 2.25185-0.281482 0.4303 0.01572 1.01433 0.105731 1.40741 0.281482 0.38545 0.172338 0.79215 0.585865 1.12593 0.844444 0.42745 0.331141 0.98858 0.783945 1.4074 1.12593 0.51086 0.417136 1.20187 0.962661 1.68889 1.40741 0.17637 0.161063 0.32591 0.533781 0.56408 0.563131l-2.07049 2.77335-0.44194 1.85616 1.5026 3.35876 1.85758 2.89282 1.8125 1 2 1.125 4.375 0.875 4.1875 0.125 2.9375-1.875 1.5625-1.625 1-0.75 1-1.5 0.5625-1.0625 0.5625 0.1875 3.875 0.4375v0.9375l2.5 1.25 3.0625 1.125 2.8125 0.8125 0.6875 0.875-4.25 7.75-3.9375 5.4375-1.96875-1.25 0.125-0.8125-4.6875-0.75-2.59375 0.15625-1.15625 1-0.21875 1.84375 0.37685 1.4169 0.85022 2.50788c0.79909 0.05679 1.75584-0.651336 2.53333-0.844445 0.49851-0.123818 1.17564-0.301978 1.68889-0.281481 1.39159 0.05558 3.21376 0.600917 4.48436 1.11922l0.2985 4.30472 2.91681 1.94454 3.77782 1.16216 2.82322 2.5455 1.25 1.625-0.25 1-3.625 0.125 0.5 2.625 1 2.25 1.625 1 2.625-0.125 2-0.625 2.375 1.25 4.375 2 0.625 3.5-1.125 6.375-1.75 4-0.625 4.25 2.60696 4.87256-0.17677 2.91682 1.06066 2.91681 1.76776 1.59099 1.41422 1.14905-2.74004 0.97227-1.23744 3.27037-1.77932 2.81972c1.60626 0.24153 3.69146 0.93077 5.17497 1.5923 0.63598 0.2836 1.35774 0.90325 1.99038 1.19422 1.02929 0.47341 2.56934 0.68756 3.58267 1.19423 0.84444 0.42223 2.094 3.79277 2.08686 6.52574l1.05365 2.40692 2.56326 5.48007 3.09359 4.86136 0.7955 5.83363-0.88389 3.88909-4.15425 0.70711-2.91682 2.74004-2.03293 2.29809 0.61872 2.03294 1.41421-0.44195 0.44195 1.14905-1.67938 3.71231 0.0884 3.00521-5.74525 1.5026-4.65766 1.62095-2.1875 1.625-1.5625 0.9375h-2.25l-4-0.5625-2.25-1.25-2.5625-0.5625-2.375 0.75-1.9375 2-1.25 2.0625 0.5 1.6875 0.0625 4.5625m-23.3125 17.9062-0.46875-1.5-1.15625-2.4375 0.1875-1.90625 2.0625-1.5 2.125-2.625 1.4375-2.6875 0.75-1.5625 2.25-0.25 9.48247-3.13859 6.72065-0.34578"/>
  <path id="Bern" d="m320.34 422.463 2.80745-3.63742 4.77297-3.71231 3.53553-1.94454 5.30331 0.53033 3.53553-2.12132-3.35876-5.3033 0.35356-6.89429 0.35355-5.30331 0.53033-2.65165 3.0052-1.94454 3.71231 1.59099 1.59099-0.35355 3.00521 0.17677 0.53033-4.94974-0.17678-7.95495-2.65165-2.65166-4.24264-3.71231-2.82843-1.76776-4.97346-1.84297c-0.59315-0.61922-2.06894-0.65857-2.50241-1.39527-0.42103-0.71555-0.2496-1.97559 0-2.76741 0.30467-0.96653 1.5167-1.84534 1.93718-2.76741 0.28406-0.62291 0.69488-1.54406 0.55348-2.21392-0.1955-0.92619-1.4662-1.66956-1.93718-2.49067-0.66735-1.16346-1.48003-2.82203-1.66045-4.15111-0.10113-0.74497-0.10679-1.84406 0.27674-2.49067 0.517-0.87162 2.25041-1.06557 2.76741-1.93719 0.38353-0.64661 0.20119-1.74267 0.27674-2.49066 0.0922-0.91237-8e-3 -2.17241 0.27674-3.04415 0.30046-0.9204 1.26925-1.88176 1.66045-2.76741 0.35022-0.79287 0.51069-1.96168 0.83022-2.76741 0.41062-1.03541 1.06657-2.37856 1.66045-3.32089 0.5047-0.80083 1.22207-1.87046 1.93718-2.49067l-0.74953-0.4834-2.2981-1.41421s-2.65165-2.12132-2.47487-2.82843c0.17677-0.7071 0.88388-2.29809 0.88388-2.29809l1.94454-2.65165 0.70711 1.59099 2.47487 1.94454 0.89581 1.43566c0.63401-1.45391 2.92328-2.32827 3.87437-3.59763 0.22263-0.29713 0.61295-0.74047 0.55348-1.10696-0.094-0.57948-1.1294-0.85459-1.38371-1.38371-0.32567-0.6776-0.23517-1.74002-0.27674-2.49067-0.0413-0.74605 0.28594-1.80034 0-2.49066-0.35945-0.86779-1.40753-1.73227-2.21392-2.21393-0.74414-0.44447-1.90159-0.78947-2.76741-0.83022-0.84573-0.0398-2.07533 0.0658-2.76741 0.55348-0.39571 0.27886-0.36862 1.23783-0.83022 1.3837-0.77967 0.24638-1.7512-0.75799-2.49067-1.10696-0.50366-0.23769-1.10768-0.76217-1.66044-0.83022-0.75969-0.0935-1.78666 0.25306-2.49067 0.55348-0.27532 0.11749-0.53709 0.49282-0.83022 0.55348-0.90896 0.18811-2.18922-0.19197-3.04415-0.55348-1.31559-0.5563-2.48283-2.44518-3.87438-2.76741-0.49199-0.11392-1.1643 0.37094-1.66044 0.27674-0.4756-0.0903-1.028-0.50184-1.3837-0.83022-0.52476-0.48445-1.38371-1.93719-1.35245-1.92661l-4.22784-0.30553 1.06066-8.13173-0.35356-5.83363-1.59099-5.83363 1.76777-2.2981 4.06586-2.65165-0.7071-3.53553-3.53554-3.88909-2.2981 1.41422-9.01561 4.24264-9.72271 1.59099-4.41942 0.17677-6.85459 2.02581-0.74681-0.43482-3.88909-1.23743-5.22534-2.65145-5.20372-4.85535c1.4e-4 0.0231 0.87556-1.90754 1.26908-2.7263 0.36874-0.76721 0.90019-1.77066 1.26893-2.53787 0.39351-0.81876 0.74934-2.0042 1.26893-2.74935 0.46189-0.66241 1.2789-1.39143 1.90341-1.9034 0.70764-0.58012 1.76164-1.20737 2.53786-1.69191 0.74771-0.46674 1.7398-1.10625 2.53787-1.48043 0.67239-0.31525 1.60161-0.68409 2.32638-0.84595 0.68394-0.15274 1.63199-0.11699 2.32638-0.21149 0.70287-0.0956 2.30667-0.4313 2.30667-0.4313l2.9043-1.37351 0.93479-4.82976 0.3116-3.73917-0.9348-3.27177-6.54354-4.36236-7.01094-3.73917-1.71379-1.09059-5.92035 0.1558-8.41312 1.09059-5.14136 2.49277-4.36236 2.18119-3.42757 1.55798-3.58337 1.55799-0.6232-3.73917 2.18118-2.80437 1.09059-4.20657-0.46739-5.92035-1.75274-3.77812 5.8035-0.66214 3.27178-2.10328 4.75186-4.20657 2.72647-2.64857 5.92035 0.62319 3.11598-0.3116 1.55798-2.49278 0.3116-2.49277 5.92035-0.9348 3.73917-4.98555 3.11597-6.85515 0.6232-3.42757 7.47833 1.55799 13.0871-0.93479-1.24639-6.54355 3.73917-2.18118-0.3116-4.36236 1.55799-3.42757 3.73917-0.6232h4.05076l3.11598 3.42757 5.92035 1.24639 7.16674-0.31159 6.23194-1.24639 5.29716-2.80438 5.29715-4.36236 3.73917-4.98556 1.55799 0.62319 0.93479 4.98556 4.36236-0.3116 9.03633 0.9348 5.29715 0.62319 6.23195 2.18118 3.42757-2.49278 3.11597-3.73916h6.54355l1.7957 0.20302-2.2631 3.45824-2.02538 1.79169-1.48009 2.18118-2.33698 1.55799-6.07615 1.71378-2.88227 1.09059-2.49278 2.10329-0.7011 2.88227-0.62319 1.09059-1.40219 0.4674-4.28446 0.93479-3.66127 0.4674-0.0779 3.11597-3.50547 2.96017-3.97287 2.41488-5.99825 2.72648-5.37505 2.18118 0.85689 6.85514 1.63589 1.94749 3.34967 1.01269 1.32429 0.62319 1.16849 4.75186 0.90689 1.71988c0.43054-0.35776 1.22166-0.49376 1.67347-0.8194 0.381-0.27461 0.71983-0.84109 1.10696-1.10697 0.67402-0.46292 1.83491-0.61852 2.49067-1.10696 0.61386-0.45723 1.30916-1.25713 1.66044-1.93719 0.3142-0.60826 0.21617-1.61817 0.55348-2.21392 0.23139-0.40869 0.6638-0.95151 1.10697-1.10697 0.70942-0.24885 1.74464 0.36978 2.49066 0.27675 0.70389-0.0878 1.60074-0.47362 2.21393-0.83023 0.56053-0.32598 1.12562-1.01708 1.66045-1.3837 0.70502-0.48328 1.69346-1.07533 2.49066-1.38371 0.67614-0.26155 1.77692-0.11245 2.30244-0.5911l0.2979 4.17368 0.3116 4.05076 3.03807 4.67396-1.86958 3.66127-1.63589 0.4674-2.88227-0.1558-4.05077-0.2337-2.02538 2.64858-1.48009 2.18118v2.88228l-0.70109 2.10328-4.59606 0.3116-2.25909 0.23369-1.40218-1.16849-2.88228-0.46739-1.09059 0.77899-0.1558 2.25908 1.01269 2.41488 1.32429 2.88228 2.25908 3.81706 0.5453 0.7011 0.85689-0.6232 3.03808-2.18118 2.41487-1.32429 2.41488-0.70109-0.0779 2.33698-0.23369 1.79168 1.32429 1.79169 2.80437-0.1558 2.88228-1.09059 1.71378-1.32429 0.3895-2.10328-1.09059-1.55799-1.01269-1.86958 0.46739-1.09059 3.73917-1.79169 3.11598-1.79168 3.03807-2.02539 2.10328-3.97286 1.09059-4.36236 0.5453-3.34968 3.03807-0.93479 2.10328-0.77899 2.57068 0.54529 2.57068 1.63589 2.18118 2.10328 5.37506 1.01269 5.37505 0.3116 3.03807-0.93479 3.66127-3.11598 2.33698-3.11597 0.0779-2.25908-0.38949-2.88228-2.33698-2.25908-2.49278-1.24639-1.86959-1.94748-1.63588-2.41488-2.57068-5.06346 0.1558-1.24638-0.5453-2.02539-2.10328-1.16849-1.40219-1.09059-1.86958 0.0779-1.86959-0.3895v-2.72647l-0.85689-2.64858 0.3895-2.33698-0.0779-1.63588-0.2337-1.86959 2.41488 0.2337 7.55624 0.77899 2.02538-0.3116 3.03807-1.24639 3.03808-1.01269 2.02538-1.16849 3.42757 0.3895 1.09059 1.32429 2.80438 3.89496 1.79168 4.44027 3.42757 0.46739 3.50547-0.38949 3.58337-1.71379 1.32429-0.85689 1.83177 2.81579c0.58599-0.49692 1.27762-1.31382 1.89547-1.81103 0.47611-0.38314 1.21979-0.75215 1.67334-1.16175 0.40168-0.36276 0.72496-1.06779 1.17411-1.3698 0.30811-0.20718 0.80501-0.35119 1.17412-0.39137 1.11498-0.12138 2.59661 0.37254 3.71802 0.39137 0.82385 0.0138 1.91614-0.16631 2.73959-0.19568 0.76269-0.0272 1.83883 0.29205 2.53623 1e-5l-0.45655 1.0474-0.77116 3.30499 0.0551 5.45323 0.44067 3.47024v1.10166l-0.22034 2.42366 1.10167 4.18632 2.64399 5.50831 1.98299 2.644 1.6525 2.42365 0.3305 1.76267-0.661 5.06765v3.30498l2.20332 3.30499 0.9915 2.53383-0.9915 2.53382-1.87282 2.09316-0.88133 2.53383 0.77116 3.74565 0.22033 2.09316 0.11017 2.86433-0.55083 2.42365-0.44067 4.51682-1.10166 2.75416 2.20333 2.09316 2.31349 2.75416 0.88133 1.98299 0.3305 2.97449 0.77116 3.19482 3.19482-0.44066 3.52533 0.22033 2.42365 0.77117 0.661 2.97449 1.322 3.74565 0.22033 2.31349-1.54233 3.19482-2.09316 3.41516-0.77116 3.41516-1.10166 2.09316-2.3135 2.42365-3.74565-0.44066-1.98299 1.87283-2.644 1.43216-2.86432 2.31349 1.76266 1.322 0.9915 2.09316-0.11017 5.06765-1.21183 2.53382-3.52532-0.11017 0.44067 7.16081 1.32199 3.63549 0.9915 2.09316 5.83881 4.18632 5.50832 3.19482 6.27948 5.28799 3.96598 4.73715 3.58123 5.67078 2.92123-1.36324 6.62144-1.94749 4.5206-0.65484 2.02295 0.3043 7.78993 1.09059 2.80438 0.77899 7.01094 5.60875 6.23194 2.18118 5.45296-2.33698 2.96017-0.93479 5.60875-0.1558 3.42757-0.62319 4.67397 1.86958 4.82975 3.11598 6.38775-4.67396 3.42757-3.11598 3.62232-1.51903 3.97287-1.71379 0.70352-1.13198 5.72317 3.62476 1.36811 1.36811 1.47522 1.90366 4.08971-3.23282 5.68909 2.71918-2.10572 3.98016-0.2337 1.94749 0.4674 5.29715 1.79169 3.34967 1.16849 3.81707 0.15579 3.03807v3.03808l-0.85689 1.63588-1.86958 1.16849-2.57068-0.31159-2.57068-0.9348-3.11597-0.54529-2.10328-0.2337 0.23369 1.94748 0.6232 3.50548 0.93479 2.41487 1.95235 3.20362-3.89983 4.35262-2.49278 3.42757-2.33698 4.05077-1.24639 5.60875v5.29715l-0.779 3.11598-3.58336 3.27177-3.11598 2.18118-3.58337 1.86959-1.40219 2.33698-7.47833 4.67396-4.82976 1.71378-10.2827 2.64858-5.29716 0.93479-3.58337-3.42757-6.38774-1.24639-5.92035-3.89497-4.51817-1.71378-3.89496 0.3116-4.98556-2.33698-3.73917-2.02539-3.11597 0.1558-2.80438 1.86959-3.89497 2.02538-4.36236 1.71378-0.77899 9.97112-7.01094 3.42757-2.18118 2.96018-5.29716 4.36236-5.76455 0.93479-9.50372 0.4674-12.9313 11.2175-14.8009 12.1523-4.51817-6.85514-7.78993-5.60876-5.60875-1.09059-2.64858 2.64858-2.18118 4.05077-2.96018 3.73916-4.98555-0.15579h-4.51817l-2.33698 1.24639-1.86958 1.86958 4.51816 2.96017-1.09059 1.71379-2.64858 2.80438-4.20656 2.02538-4.36236 1.40219-8.10153-2.64858-4.82976-1.09059s-7.94574 2.02538-8.56893 2.33698c-0.6232 0.3116-6.69934 4.98556-6.69934 4.98556l-4.51817 3.11597-4.51816 2.80438-2.80437-1.09059-1.40219-2.18119v-6.38774l-4.05077-0.779-3.89496 2.49278-2.64858 2.02539-0.77899 4.36236-1.24639 3.89497-2.96018 2.02538-5.85962-0.12495 1.08394-2.88744-1.41421-6.36396 0.17678-2.82843-3.35876-3.0052v-7.42463l1.76776-3.18198-0.17677-3.35875-2.12132-3.00521-0.17678-3.53553 1.23744-1.59099s3.0052 0 3.71231-0.53033 2.47487-2.47488 2.47487-2.47488-0.17677-3.35875 0-4.41941c0.17678-1.06066-0.53033-5.3033-0.53033-5.3033l3.18198-4.06587 2.2981-3.35875-0.35355-5.65686-0.70711-6.18718zm97.5506-195.776 1.32429-1.12954 1.59694-0.93479 1.28534 0.19475 1.51903 1.51904-0.0779 1.09059-0.89585 1.86958s-1.28534 1.32429-1.44114 1.36324c-0.15579 0.0389-2.18118 0.89584-2.18118 0.89584l-1.36323-0.11685-0.7011-0.97374v-2.10328z"/>
  <path id="Lucerne" d="m499.186 347.442 1.48478-2.9333 3.10748-2.7419-0.36559-1.64514-4.56983-7.12893v-2.7419l1.27956-2.92469 2.37631-1.82793 1.46234-2.9247 0.73118-2.37631 0.54838-7.12894 1.64514-1.46234 2.92469-3.29028 1.46234-2.01073 2.9247 1.82794-0.36559 2.5591 1.82793 0.54838 2.19352-4.38704 1.46235-3.47307 2.5591-2.92469 3.10749-2.55911-2.37631-5.11821 5.11821-4.20424 4.20424-0.36559 1.82793 1.46235 5.72406-2.20421-2.04077-7.78264 6.07495-2.84359 3.23136 0.51701 3.1021-1.6803 5.81645 2.19732 4.00688 0.12925 2.06807-0.2585 1.03404 1.03403 2.19732-1.4218 2.97285 1.16329 3.10211-2.97285 2.32657-1.29254 2.45584-0.12926 0.38776 4.2654h3.48987l2.88377-0.63704c0.71659 0.0972 1.68796 0.0325 2.41049 1e-3 0.61781-0.0268 1.43576-0.15177 2.05357-0.17858 0.8831-0.0383 2.06263 0.0152 2.94643 0 0.77713-0.0134 2.0041-0.60081 2.58929-0.0893l1.85289 1.33822 1.76085-0.87671 3.26743 0.43414 1.27955-0.41129 1.09676-1.09676-0.18279-6.67195-1.55375-0.77687-1.59944-0.95967-1.64514-1.82793-2.97039-2.6505-1.58722-2.01224-1.68031-0.4524-1.4218 0.32314-2.58508 0.12926-3.05341-0.63827-4.02145-0.91396-2.28491-1.55374-0.45699-0.63978 1.46235-1.55374 1.37095-1.55375 1.00536-2.4677 0.0914-0.73118 3.56447-3.29028 3.93005-4.93541 1.73654-1.27956 1.87363-1.23385-0.31989-2.97039-0.45698-1.55374-0.91397 0.27419-1.46235 1.37095-2.01072-0.63978-1.82793-2.7419-2.84707-4.62668-4.83868 1.52397-5.39814 1.32199-2.3135 0.3305-1.54232-2.53382-2.09316-4.18632-1.983-4.18632-2.20332-5.83881-0.77117-4.51682-1.76266-5.28798-2.09316-6.83032-0.9915-4.62698-0.22033-3.30499-0.661-2.09316-0.66099-0.44066-4.29649-1.21183-0.9915-1.76266-3.41515-0.77117-2.20333 0.11017-4.51682 5.83881-2.53382 1.43216-0.9915 2.64399-0.77116 3.96599-0.3305 2.42366-1.10166 2.20333-1.87283 1.54232-1.98299 0.3305-2.3135-0.66099-1.76266-1.54233-0.22033-1.322v-1.54233l2.53383-1.21183-0.3305-1.43216-1.76266 0.44067-5.06765 0.55083-5.28799 0.44066-2.64399-0.55083-0.11016-2.86432-0.88133-2.20333-0.3305-0.55083-1.6525-0.3305-2.53382-0.55083-2.53383 0.77117-1.21183 0.88133-0.55083 2.20332-0.77116 2.31349-2.64399 0.77117-2.53383 0.22033-2.86432-0.22033h-1.87283l0.22033-1.21183 0.22034-3.74566v-2.75415l-0.661-1.983-1.54233-2.86432-1.76266 0.661-2.97449 0.88133h-3.30499l-1.322-1.21183-1.32199-0.22033-0.11017 2.09316v8.70313l-0.55083 1.10167-0.88133 0.99149-1.322 0.77117-3.96598-0.22034-1.87283-0.88133-3.30499-0.44066-4.29648 0.55083-1.983 0.55083-1.98299 1.322-4.17603 0.3562-0.0103 1.07596-0.22034 2.42366 1.10167 4.18632 2.64399 5.50831 1.98299 2.644 1.6525 2.42365 0.3305 1.76267-0.661 5.06765v3.30498l2.20332 3.30499 0.9915 2.53383-0.9915 2.53382-1.87282 2.09316-0.88133 2.53383 0.77116 3.74565 0.22033 2.09316 0.11017 2.86433-0.55083 2.42365-0.44067 4.51682-1.10166 2.75416 2.20333 2.09316 2.31349 2.75416 0.88133 1.98299 0.3305 2.97449 0.77116 3.19482 3.19482-0.44066 3.52533 0.22033 2.42365 0.77117 0.661 2.97449 1.322 3.74565 0.22033 2.31349-1.54233 3.19482-2.09316 3.41516-0.77116 3.41516-1.10166 2.09316-2.3135 2.42365-3.74565-0.44066-1.98299 1.87283-2.644 1.43216-2.86432 2.31349 1.76266 1.322 0.9915 2.09316-0.11017 5.06765-1.21183 2.53382-3.52532-0.11017 0.44067 7.16081 1.32199 3.63549 0.9915 2.09316 5.83881 4.18632 5.50832 3.19482 6.27948 5.28799 3.96598 4.73715 3.58123 5.67078 2.92123-1.36324 6.62144-1.94749z"/>
  <path id="Uri" d="m684.39 337.887-4.09195 4.1625-2.82203 0.37627-2.82203 1.31695-2.06949 1.69322 1.31695 4.89152-1.50508 4.32711-3.19831 3.19831-0.94067 4.32711-2.82204 2.6339-3.57457-0.18814-1.88135-3.1983-3.38644 0.37627-0.56441 2.6339-1.50508 5.07965-4.13898 2.25763-3.38644 3.57457-5.07965 0.18814-2.82203 1.69322-1.69322 3.57457 0.37627 2.25762 2.06949 4.51525-1.88136 1.12882-2.44576 3.38643v6.20847l2.82203 3.76271 3.38644 5.07966-1.314 6.20259-1.50803 2.63977-3.01017 2.53983-4.32711 0.2822-1.12881-1.69321-2.6339-1.12882-7.43135-0.75254-2.06949-1.50508-4.32711-1.03475-5.2678 1.03475-3.29237 3.1983-1.41101 3.38644 0.65847 4.23304-0.2822 2.53983-1.22288 1.50509-5.01779 1.64775-3.74296 0.2327-2.75594-0.46748-2.25908-1.24639-2.25908-1.32429-1.32429-1.94748-1.16849-2.72648-0.93479-2.18118-2.49278-4.05077-0.9348-2.02538 1.71379-4.98556 2.18118-5.68665 0.5453-10.6722-0.3116-2.33698-2.26534-1.45673-1.78542-0.47615-1.94749-3.20848-0.93479-2.41487-0.6232-3.50548-0.23369-1.94748 2.10328 0.2337 3.11597 0.54529 2.57068 0.9348 2.57068 0.31159 1.86958-1.16849 0.85689-1.63588v-3.03808l-0.15579-3.03807-1.16849-3.81707-1.79169-3.34967-0.4674-5.29715 0.2337-1.94749 2.10498-3.98367 2.79146-0.28444 1.46235 0.18279 1.82793 0.45698 1.09676 0.73118 3.01609-2.8333-0.1828-0.91397-1.46234-2.37631-1.46235-1.27955 0.36559-1.91933-4.20425-1.00536 0.0914-1.09676 1.82793 0.0914 1.18816-0.45698 0.54838-1.55374-0.91397-1.46235-1.18815-1.09676 1.55374-4.47843 2.5591-2.7419 3.83866-2.01073-0.36558-2.5591-2.10213-0.63978-1.27955-0.54838-4.31692-9e-3 -0.0178-6.66351 1.5625-4.0625-0.6875-1.1875-0.6875 0.1875-0.1875-1.5-1.8125 0.125 2.375-3.4375 2.375-1.1875 3.75-1.375 3.3125-2 2.1875-1.8125 1.3125-0.5625 3.125-2.0625 2.4375-3.0625 3.625-2.625 1.1875-1.5-0.25-2.8125 0.1875-2.4375 1.5625-1.9375 1.375-1.4375-0.25-1.125-0.6332-2.01244 2.3832-0.80006 2.125 3.25 0.375 5.375 0.5 5.8125 4.875-0.375 3.1875 1.1875 1.57212 0.18542 2.82842-0.44194 5.83363-1.5026 0.88389 7.07106-0.35356 2.38649 1.50261 2.65165 2.47487-1.23744 2.03293-0.79549 3.27037-3.18198 2.56326-1.41422 3.62393-1.06066 1.14904 0.44195 2.03294 1.94454 1.41421-0.17678 1.94454-1.5026 1.14905-0.88388 2.47488-0.35356 3.18198 0.97228 1.23743 2.03293-0.35355 3.09359-0.88388 3.27037 0.97227 2.20971 2.82842-1.76777 0.70711 8.30851 1.59099-1.23744 1.06066-1.94454 1.5026-1.14905 5.83363-1.76777 9.18504-5.12715 2.05464 2.67664 2.66064 4.39005 0.66516 3.59186-0.13304 2.86018-2.26154 2.79367-3.92444 2.66064-5.05521 2.12851-4.32353 1.39683-3.72489 1.06426-0.0333 1.33031 0.3991 1.49661 1.4966 4.12399 0.86471 3.69163"/>
  <path id="Schwyz" d="m695.696 303.748-9.18397 5.12256-5.83363 1.76777-1.5026 1.14905-1.06066 1.94454-1.59099 1.23744-0.70711-8.30851-2.82842 1.76777-0.97227-2.20971 0.88388-3.27037 0.35355-3.09359-1.23743-2.03293-3.18198-0.97228-2.47488 0.35356-1.14905 0.88388-1.94454 1.5026-1.41421 0.17678-2.03294-1.94454-1.14904-0.44195-3.62393 1.06066-2.56326 1.41422-3.27037 3.18198-2.03293 0.79549-2.47487 1.23744-1.50261-2.65165 0.35356-2.38649-0.88389-7.07106-5.83363 1.5026-2.82842 0.44194-1.57212-0.18542-3.1875-1.1875-4.875 0.375-0.5-5.8125-0.375-5.375-2.125-3.25-2.37216 0.80006-7.1787 2.70293-7.68979 1.23744-9.19238-2.82843-0.50881-2.55515 1.76987-0.87748 3.26743 0.43414 1.27955-0.41129 1.09676-1.09676-0.18279-6.67195-1.55375-0.77687-1.59944-0.95967-1.64514-1.82793-2.97039-2.6505-1.58722-2.01224-1.68031-0.4524-1.4218 0.32314-2.58508 0.12926-3.05341-0.63827-4.02145-0.91396-2.28491-1.55374-0.45699-0.63978 1.46235-1.55374 1.37095-1.55375 1.00536-2.4677 0.0914-0.73118 3.56447-3.29028 3.93005-4.93541 1.73654-1.27956 1.91252-1.27566 2.563-1.26947 2.8436-1.55105 1.6803-0.38776 1.4218 4.91166 0.90478 2.19733 1.68031 0.64627 4.00688 1.55105 2.45584-1.03403 2.97285-0.25851 3.61912-0.12926 0.77552 3.36062 2.71435 0.12925 2.58508-1.29254 2.06807-1.55106 2.32658-0.77552 1.4218-0.90478 3.48987 0.90478 2.84359 0.51702 1.16329-0.77553 0.12925-1.29254 0.25851-2.71435 1.29255-1.6803 1.93881-1.4218 1.29255-2.19732 0.77552-4.13614 1.93881-4.78242-0.2585-1.29254-0.78428-2.70407-0.46633-1.64651-1.15625-2.4375 0.1875-1.90625 2.0625-1.5 2.125-2.625 1.4375-2.6875 0.75-1.5625 2.25-0.25 9.48247-3.13859 6.71284-0.3536 8.24219 3.42969 12.4012 0.0175 7.82237-1.37002 5.52427-1.98874 1.76777 1.81196 1.63518 0.97227 0.22097 7.95495 0.66291 2.34229 2.51907-0.44194 2.94154 0.72341-0.86441 1.75147-7.07107 15.3796 2.12132 2.20971 0.7955 2.91681-0.61872 1.59099-1.59099 0.7955-2.12132 1.85615-0.35356 1.5026 1.41422 1.23744 1.85615 0.35355 1.5026 0.44195-2.2097 6.0104-2.79276 5.11967-4.3125 3.9375-2.625-0.1875-1.9375-0.375-1.875 0.1875 0.3125 4.875-1.4375 1.125 1.25 1.6875 1.4375 1.375 1.4375 2.5625 0.625 1.1875 0.9375-0.3125 0.4375 1.3125 2.1875 2.5625 1.3125 1.25-1.25 1.625 0.9375 1.5 2.4375 3.1875 3.125 2.75 1.7373 1.13472-1.94454 1.59099-1.14905 1.85616-0.17678 1.59099 0.26517 1.32582 0.61871 1.59099 0.70711 0.70711-2.47487 1.06066-0.7955 1.32583z"/>
  <path id="Obwalden" d="m570.111 346.181-9.85003-8.25341 1.27956-1.82794 1.46234-3.47307-0.36558-3.83866v-4.56983l1.09676-8.0429 0.73117-5.66659 1.09676-6.76335-2.19352-0.36559-2.7419 1.09676-3.10748-1.46234-2.01073-0.91397-0.91397-2.7419-0.36558-1.64514 1.27955-2.19352 2.55911-4.93542-0.1828-2.37631-4.20424-1.46234-7.12894-1.46235-7.06489 2.1779-5.73064 2.20914-1.82793-1.46235-4.20424 0.36559-5.11821 4.20424 2.37631 5.11821-3.10749 2.55911-2.5591 2.92469-1.46235 3.47307-2.19352 4.38704-1.82793-0.54838 0.36559-2.5591-2.9247-1.82794-1.46234 2.01073-2.92469 3.29028-1.64514 1.46234-0.54838 7.12894-0.73118 2.37631-1.46234 2.9247-2.37631 1.82793-1.27956 2.92469v2.7419l4.56983 7.12893 0.36559 1.64514-3.10748 2.7419-1.49112 2.92601 2.02476 0.3082 7.78993 1.09059 2.80438 0.77899 7.01094 5.60875 6.23194 2.18118 5.45296-2.33698 2.96017-0.93479 5.60875-0.1558 3.42757-0.62319 4.67397 1.86958 4.82975 3.11598 6.38775-4.67396 3.42757-3.11598 3.62232-1.51903 3.97287-1.71379zm23.0353-21.402 4.31313-0.0125 1.27955 0.54838 2.10213 0.63978 0.36558 2.5591-3.83866 2.01073-2.5591 2.7419-1.55374 4.47843 1.18815 1.09676 0.91397 1.46235-0.54838 1.55374-1.18816 0.45698-1.82793-0.0914-0.0914 1.09676 4.20425 1.00536-0.36559 1.91933 1.46235 1.27955 1.46234 2.37631 0.1828 0.91397-3.01609 2.8333-1.09676-0.73118-1.82793-0.45698-1.46235-0.18279-2.79389 0.29174-5.68592-2.72297-4.08971 3.23282-1.46334-1.90623 3.14011-2.59633 0.64627-1.4218v-1.16329l-1.16329-1.29254-1.55105-0.77553-2.45583-1.80956-1.4218-2.58509-1.68031-2.19732-0.90478-2.58509-0.77552-4.39465-0.25851-3.87763-0.25851-3.36061 0.90478-1.68031h1.68031l1.42179 1.16329 0.12926 0.90478-1.4218 0.64628 0.12925 1.03403 1.80957 0.64627 1.55105-0.25851 2.19732-1.29254 1.80956-2.19732 3.23136 3.23135z"/>
  <path id="Nidwalden" d="m593.144 324.772-0.0194-6.67758 1.5625-4.0625-0.6875-1.1875-0.6875 0.1875-0.1875-1.5-1.8125 0.125 2.375-3.4375 2.375-1.1875 3.75-1.375 3.3125-2 2.1875-1.8125 1.3125-0.5625 3.125-2.0625 2.4375-3.0625 3.625-2.625 1.1875-1.5-0.25-2.8125 0.1875-2.4375 1.5625-1.9375 1.375-1.4375-0.25-1.125-0.63036-2.00535-7.1705 2.69584-7.68979 1.23744-9.19238-2.82843-0.51026-2.56956-1.84242-1.32458c-0.58519-0.51153-1.81216 0.0759-2.58929 0.0893-0.8838 0.0152-2.06333-0.0383-2.94643 0-0.61781 0.0268-1.43576 0.15177-2.05357 0.17858-0.72253 0.0314-1.6939 0.096-2.41049-1e-3l-2.88377 0.63704h-3.48987l-0.38776-4.2654-2.45584 0.12926-2.32657 1.29254-3.10211 2.97285-2.97285-1.16329-2.19732 1.4218-1.03404-1.03403-2.06807 0.2585-4.00688-0.12925-5.81645-2.19732-3.1021 1.6803-3.23136-0.51701-6.07495 2.84359 2.04233 7.78264 7.06991-2.18283 7.12894 1.46235 4.20424 1.46234 0.1828 2.37631-2.55911 4.93542-1.27955 2.19352 0.36558 1.64514 0.91397 2.7419 2.01073 0.91397 3.10748 1.46234 2.7419-1.09676 2.19352 0.36559-1.09676 6.76335-0.73117 5.66659-1.09676 8.0429v4.56983l0.36558 3.83866-1.46234 3.47307-1.27956 1.82794 9.8476 8.25585 5.72301 3.62324 1.38486 1.37041 3.13524-2.6012 0.64627-1.4218v-1.16329l-1.16329-1.29254-1.55105-0.77553-2.45583-1.80956-1.4218-2.58509-1.68031-2.19732-0.90478-2.58509-0.77552-4.39465-0.25851-3.87763-0.25851-3.36061 0.90478-1.68031h1.68031l1.42179 1.16329 0.12926 0.90478-1.4218 0.64628 0.12925 1.03403 1.80957 0.64627 1.55105-0.25851 2.19732-1.29254 1.80956-2.19732 3.23136 3.23135z"/>
  <path id="Glarus" d="m709.087 218.561c0.56349 1.95407 2.95811 3.71266 4.46893 5.07403 3.01185 2.71393 7.70924 5.48288 10.9778 7.88149 0.6808 0.4996 1.53353 1.24493 2.25186 1.68888 0.96374 0.59562 2.26656 1.46806 3.37777 1.68889 1.1625 0.23102 2.63904-0.81418 3.78213-1.12744 0.91054-0.24953 3.23779-0.87868 3.23779-0.87868l12.7218 3.86998v3.04098l0.20273 3.44644 0.40546 7.70381 0.20273 2.73688-3.14234 4.05463-2.53415 0.9123-3.5478 1.11502-1.01366 0.6082-0.3041 1.92595 0.70956 2.02732 1.31776 1.72322 2.63551 0.81092 5.27103 0.3041 2.23005-1.01366 2.12868-1.11502 2.33142-0.70956 2.02732 0.70956 2.73688 1.92595 1.01365 4.96693 1.31776 7.19698 0.40546 10.3393-2.23005 2.63551-0.81092 0.9123 2.12868 1.82458 1.82459 2.12869 1.62185 3.64917-0.69228 3.30374-3.06344 0.6877-2.72796 2.82203-2.72797 3.10424-1.59915 2.06949-1.22288 3.38644-2.35169-0.65848-4.98559 0.18814-2.6339 0.75254-1.88135 1.78728-2.6339 2.9161-2.72796 2.25763-1.69322 1.31695-1.78729-1.03475-1.31694-2.25762-2.06949-3.29237-2.9161-1.41102-2.9161 0.2822-2.82203 1.69322s-0.75254 2.72797-0.84661 3.10424c-0.0941 0.37627-1.97542 3.95084-1.97542 3.95084l-1.31695 4.89152-0.65848 3.10424-2.63389 2.82203-3.85678 1.41101-7.05508 1.41102-3.10423 0.94068-4.13898 1.78728h-3.76271l-1.22288-2.82203-3.76271-0.84661-3.3666-0.35718-0.84488-3.67253-1.4966-4.12399-0.3991-1.49661 0.0333-1.33031 3.72489-1.06426 4.32353-1.39683 5.05521-2.12851 3.92444-2.66064 2.26154-2.79367 0.13304-2.86018-0.66516-3.59186-2.66064-4.39005-2.06307-2.67268 3.28615-1.59432 0.7955-1.32583 2.47487-1.06066-0.70711-0.70711-0.61871-1.59099-0.26517-1.32582 0.17678-1.59099 1.14905-1.85616 1.94454-1.59099-1.7373-1.13472-3.125-2.75-2.4375-3.1875-0.9375-1.5 1.25-1.625-1.3125-1.25-2.1875-2.5625-0.4375-1.3125-0.9375 0.3125-0.625-1.1875-1.4375-2.5625-1.4375-1.375-1.25-1.6875 1.4375-1.125-0.3125-4.875 1.875-0.1875 1.9375 0.375 2.625 0.1875 4.3125-3.9375 2.79276-5.11967 2.2097-6.0104-1.5026-0.44195-1.85615-0.35355-1.41422-1.23744 0.35356-1.5026 2.12132-1.85615 1.59099-0.7955 0.61872-1.59099-0.7955-2.91681-2.12132-2.20971 7.07107-15.3796z"/>
  <path id="Zug" d="m641.997 223.203-2.96335 1.80606-3.1021-0.25851-0.77553-0.90478-0.77552-2.84359-0.90478-0.12926-3.61913-0.38776-1.29254-0.51702-0.77553-1.42179-0.12925-2.19733-0.64627-2.06807-0.51702-2.32658-0.12925-2.06807-1.29255-0.51701-1.4218 0.25851-1.03403-2.45583-2.45583 0.38776-1.29255-1.68031-1.03403-1.03404-4.13614 0.25851-3.23136-0.25851-2.06807 0.77553-2.19732 1.93882-3.10211 1.16329-4.65315 0.2585-3.10211 0.25851-3.87763-1.16329-1.42179-1.16329-4.29239 0.12389c-0.6487-1.0239-1.11424-2.6001-1.67943-3.66893-0.46035-0.87056-1.25129-1.9326-1.68889-2.81482-0.40415-0.81477-0.84611-1.94943-1.12593-2.81481-0.10712-0.33129-0.27757-0.84468-0.27953-0.84456-0.18167 0.85074-1.03606 1.74826-1.40936 2.53345-0.39051 0.82139-1.14952 1.90562-1.12592 2.81481 0.0314 1.20865 1.22297 2.54358 1.68888 3.65926 0.27803 0.66577 0.68857 1.5474 0.84445 2.25185 0.23788 1.07502 0.23923 2.55906 0.28148 3.65927 0.0454 1.18135-0.17168 2.77105 0 3.94074 0.12802 0.87228 0.6311 1.95939 0.84445 2.81481 0.2084 0.83557 0.28348 2.00026 0.56296 2.81482 0.24512 0.71441 1.10878 1.49675 1.12593 2.25185 0.0189 0.83147-0.89978 1.73299-1.12593 2.53334-0.34748 1.22972-0.17614 3.0043-0.56978 4.24028l2.74992 4.51522 1.82793 2.7419 2.01072 0.63978 1.46235-1.37095 0.91397-0.27419 0.45698 1.55374 0.3248 3.00944 2.59698-1.35033 2.8436-1.55105 1.6803-0.38776 1.4218 4.91166 0.90478 2.19733 1.68031 0.64627 4.00688 1.55105 2.45584-1.03403 2.97285-0.25851 3.61912-0.12926 0.77552 3.36062 2.71435 0.12925 2.58508-1.29254 2.06807-1.55106 2.32658-0.77552 1.4218-0.90478 3.48987 0.90478 2.84359 0.51702 1.16329-0.77553 0.12925-1.29254 0.25851-2.71435 1.29255-1.6803 1.93881-1.4218 1.29255-2.19732 0.77552-4.13614 1.93881-4.78242-0.2585-1.29254z"/>
  <path id="Solothurn" d="m394.404 173.716-2.25908 3.50547-2.02538 1.79169-1.48009 2.18118-2.33698 1.55799-6.07615 1.71378-2.88227 1.09059-2.49278 2.10329-0.7011 2.88227-0.62319 1.09059-1.40219 0.4674-4.28446 0.93479-3.66127 0.4674-0.0779 3.11597-3.50547 2.96017-3.97287 2.41488-5.99825 2.72648-5.37505 2.18118 0.85689 6.85514 1.63589 1.94749 3.34967 1.01269 1.32429 0.62319 1.16849 4.75186 0.90689 1.71988c0.43054-0.35776 1.22166-0.49376 1.67347-0.8194 0.381-0.27461 0.71983-0.84109 1.10696-1.10697 0.67402-0.46292 1.83491-0.61852 2.49067-1.10696 0.61386-0.45723 1.30916-1.25713 1.66044-1.93719 0.3142-0.60826 0.21617-1.61817 0.55348-2.21392 0.23139-0.40869 0.6638-0.95151 1.10697-1.10697 0.70942-0.24885 1.74464 0.36978 2.49066 0.27675 0.70389-0.0878 1.60074-0.47362 2.21393-0.83023 0.56053-0.32598 1.12562-1.01708 1.66045-1.3837 0.70502-0.48328 1.69346-1.07533 2.49066-1.38371 0.67614-0.26155 1.77692-0.11245 2.30244-0.5911l0.2979 4.17368 0.3116 4.05076 3.03807 4.67396-1.86958 3.66127-1.63589 0.4674-2.88227-0.1558-4.05077-0.2337-2.02538 2.64858-1.48009 2.18118v2.88228l-0.70109 2.10328-4.59606 0.3116-2.25909 0.23369-1.40218-1.16849-2.88228-0.46739-1.09059 0.77899-0.1558 2.25908 1.01269 2.41488 1.32429 2.88228 2.25908 3.81706 0.5453 0.7011 0.85689-0.6232 3.03808-2.18118 2.41487-1.32429 2.41488-0.70109-0.0779 2.33698-0.23369 1.79168 1.32429 1.79169 2.80437-0.1558 2.88228-1.09059 1.71378-1.32429 0.3895-2.10328-1.09059-1.55799-1.01269-1.86958 0.46739-1.09059 3.73917-1.79169 3.11598-1.79168 3.03807-2.02539 2.10328-3.97286 1.09059-4.36236 0.5453-3.34968 3.03807-0.93479 2.10328-0.77899 2.57068 0.54529 2.57068 1.63589 2.18118 2.10328 5.37506 1.01269 5.37505 0.3116 3.03807-0.93479 3.66127-3.11598 2.33698-3.11597 0.0779-2.25908-0.38949-2.88228-2.33698-2.25908-2.49278-1.24639-1.86959-1.94748-1.63588-2.41488-2.57068-5.06346 0.1558-1.24638-0.5453-2.02539-2.10328-1.16849-1.40219-1.09059-1.86958 0.0779-1.86959-0.3895v-2.72647l-0.85689-2.64858 0.3895-2.33698-0.0779-1.63588-0.2337-1.86959 2.41488 0.2337 7.55624 0.77899 2.02538-0.3116 3.03807-1.24639 3.03808-1.01269 2.02538-1.16849 3.42757 0.3895 1.09059 1.32429 2.80438 3.89496 1.79168 4.44027 3.42757 0.46739 3.50547-0.38949 3.58337-1.71379 1.32429-0.85689 1.83177 2.81579c0.58599-0.49692 1.27762-1.31382 1.89547-1.81103 0.47611-0.38314 1.21979-0.75215 1.67334-1.16175 0.40168-0.36276 0.72496-1.06779 1.17411-1.3698 0.30811-0.20718 0.80501-0.35119 1.17412-0.39137 1.11498-0.12138 2.59661 0.37254 3.71802 0.39137 0.82385 0.0138 1.91614-0.16631 2.73959-0.19568 0.76269-0.0272 1.83883 0.29205 2.54391 0 0.84373-0.34948 1.59052-1.43271 2.15254-2.15254 0.84265-1.07924 1.68933-2.71343 2.34822-3.91371 0.37901-0.69043 0.71358-1.70927 1.17411-2.34822 0.53398-0.74086 1.63552-1.39974 2.15254-2.15254 0.32733-0.4766 0.43415-1.29989 0.78274-1.76117 0.55287-0.7316 1.76806-1.2467 2.34823-1.95685 0.54839-0.67125 1.25088-1.68533 1.3698-2.54391 0.14852-1.07224-0.91501-2.44796-0.78275-3.52233 0.0802-0.65143 0.69411-1.36529 0.8878-2.0118l1.86483 1.32214 1.92791 1.54232 2.36857 0.93642 3.02958 0.661 5.83881 0.49574 3.80074 0.27542 1.65249-0.27542 1.26692-0.49574 1.21182-1.76267 0.9915-3.47023 1.92791-5.45324 1.87283-3.80073 1.92791-4.51682-0.44067-2.14824-2.75415-2.644-2.36858-0.38558-1.81774-0.82625-2.03808-1.21182-3.2499-1.76267-1.87283-1.81774 2.42366-1.43216-0.11017-2.58891-0.71608-3.02957-1.59741-0.44067-0.71609-2.36857-0.0551-1.76266-2.14824-0.22034-1.11586-0.2196-0.71529 2.28263-1.0127 2.25908-0.31159 3.03808 1.48008 1.86958s0.9348 2.10328 1.32429 2.10328l-0.31159 2.64858-4.12867 3.03807-3.42757 1.63589-4.51816-0.5453-2.80438 0.6232-2.64858 3.19387-3.66126 3.66127-3.03808 2.02538-3.50547 1.48009-4.75186 1.79169-3.11597 2.33698-0.3895 2.41488v2.25908l-2.33698 0.23369-2.57068-0.38949-2.49278-1.09059-1.79168-1.48009-2.18118-2.02538-1.79169-2.41488-1.09059-2.25908-2.25908-1.40219-6.07615 0.85689-5.53085 0.3116h-3.73917l-0.93479-4.12867-0.62319-3.66127-0.2337-5.06345 5.06345-0.3116 1.94749-0.85689 2.25908-1.16849 1.01269-2.49278 0.2337-4.05077 0.54529-3.11597 2.49278-2.49278 1.79169-2.33698 2.18118-4.28446 0.46739-1.24639-2.88227-1.32429-3.27177 0.3116-4.28447-0.7011-2.02538-2.96017-1.24639-0.4674-2.18118 2.49278-2.64858 0.1558-4.82976 0.1558-0.1558 3.58337 2.02539 2.64857 0.62319 2.64858-1.24639 3.73917-1.71378 2.88228-0.2337 2.96017-7.24464 0.5453-1.09059 3.89496-7.63414 1.09059-1.24639 3.42758-0.54529 1.79168-3.58337 1.09059-2.80438 2.25908-3.34967-2.25908-0.46739-2.18118-3.58337-0.0779-3.19388 0.1558-1.55798 1.01269-0.8569 2.02538-0.27264 1.55799 2.92123 4.90766 6.23194 1.40219 5.45295-1.40219 4.36237 0.46739v4.44027l0.38949 3.03807 1.48009 3.58337 0.70109 1.55799 6.77725-0.0779-0.42845 2.76543m-33.8718-42.3408 1.11516 0.70364 1.71378-0.7011 1.09059 1.16849 2.80438 2.10329 2.64858 2.64857 1.16849 2.33698-0.1558 2.41488-0.77899 1.86959-0.9348 0.93479-2.33698 0.2337-2.80437-1.40219-3.81707-0.93479-6.83566-0.95427-0.60373-5.12188-0.0225-0.0241 3.72553-1.89431zm57.0858 95.2734 1.32429-1.12954 1.59694-0.93479 1.28534 0.19475 1.51903 1.51904-0.0779 1.09059-0.89585 1.86958s-1.28534 1.32429-1.44114 1.36324c-0.15579 0.0389-2.18118 0.89584-2.18118 0.89584l-1.36323-0.11685-0.7011-0.97374v-2.10328zm-38.5395-110.299 1.96577 0.1489 2.10329 1.32429 0.15579 1.63588 0.1558 1.40219-1.48008 2.33698-0.779 1.63589-1.16849 1.32429-1.16849-0.1558-2.18118-0.0779-1.86958-0.2337-2.96018 1.24639-2.10328 0.3116-2.02538-0.7011-1.40219-0.54529-0.79332-1.39711 0.49782-0.63502 1.69192-1.69192-2.53787-2.32637-2.32638-1.48043-1.9034-0.63446 2.32638-2.74936 1.9034-0.21149 1.9034 1.05745 2.53787 2.53786s0.63446 1.69191 2.11488 1.9034c1.48043 0.21149 5.07574-1.26893 5.07574-1.26893z"/>
  <path id="Basel-Stadt" d="m394.357 95.1297 2.92964 1.30964 0.46739 4.36236 2.33698-0.31159 1.86959 2.33698 3.27177-0.6232 1.71379-1.71378-0.6232-4.82976 2.61499-2.03712 1.56204-1.76058 0.84595-2.11489 0.63447-1.26893 2.11489 0.211489 1.9034-1.48042v-1.05744l-0.42298-0.845955-1.69191-0.634467-0.21149-2.32638 1.9034-1.9034 0.21149-1.26893-1.48042-0.211489-2.32638 1.69191-2.11489 1.05744-2.81565 1.12441-3.10537 0.345414-2.49345 1.19137-3.42891 3.68348-0.74652 4.15087z"/>
  <path id="Basel-Landschaft" d="m353.717 141.851 0.41293 2.02918 1.09059 1.94748 5.21926 4.67396 1.59694 2.41488 2.92122 0.5453 1.8735-0.29581 0.22978-1.65168 0.8569-2.02538 1.55798-1.01269 3.19388-0.1558 3.58337 0.0779 0.46739 2.18118 3.34967 2.25908 2.80438-2.25908 3.58337-1.09059 0.54529-1.79168 1.24639-3.42758 7.63414-1.09059 1.09059-3.89496 7.24464-0.5453 0.2337-2.96017 1.71378-2.88228 1.24639-3.73917-0.62319-2.64858-2.02539-2.64857 0.1558-3.58337 4.82976-0.1558 2.64858-0.1558 2.18118-2.49278 1.24639 0.4674 2.02538 2.96017 4.28447 0.7011 3.27177-0.3116 2.88227 1.32429-0.46739 1.24639-2.18118 4.28446-1.79169 2.33698-2.49278 2.49278-0.54529 3.11597-0.2337 4.05077-1.01269 2.49278-2.25908 1.16849-1.94749 0.85689-5.06345 0.3116 0.2337 5.06345 0.62319 3.66127 0.93479 4.12867h3.73917l5.53085-0.3116 6.07615-0.85689 2.25908 1.40219 1.09059 2.25908 1.79169 2.41488 2.18118 2.02538 1.79168 1.48009 2.49278 1.09059 2.57068 0.38949 2.33698-0.23369v-2.25908l0.3895-2.41488 3.11597-2.33698 4.75186-1.79169 3.50547-1.48009 3.03808-2.02538 3.66126-3.66127 2.64858-3.19387 2.80438-0.6232 4.51816 0.5453 3.42757-1.63589 4.12867-3.03807 0.31159-2.64858c-0.38949 0-1.32429-2.10328-1.32429-2.10328l-1.48008-1.86958 0.31159-3.03808 1.0127-2.25908 0.71549-2.3336-2.68508-1.71242-0.55083-3.52532 0.22033-2.31349-2.86432-0.3305-2.42366-0.11017-1.87283-1.10166-2.42365-3.19482-1.10167-4.07616-3.08465-5.50831-2.53383-3.41516-2.09316-2.64399-0.9915-1.21183-1.65249-1.10166-1.54233-0.110166-1.43216 0.88133-0.77116 1.43216-0.55084 2.42366-0.55083 1.983-0.77116 2.42365-2.20333 2.09316-2.31349 1.6525-3.41516 0.22033-0.22033-2.31349 0.3305-1.54233-0.661-1.21183-1.54232-0.77116-3.24991-2.86432-2.86433-1.48725-2.9194-1.04658-0.36684-1.61334c-0.93513 0.221299-2.21805 0.445679-3.09437 0.844536-0.55423 0.25226-1.1388 0.86477-1.68889 1.12593-1.03757 0.4926-2.5603 0.79201-3.65926 1.12592-0.84355 0.25631-1.93329 0.8578-2.81482 0.84445-0.80102-0.0121-1.7932-0.53788-2.53333-0.84445-0.87225-0.3613-2.07066-0.82639-2.81482-1.40741-0.61365-0.47912-1.19643-1.36737-1.68889-1.97037-0.60902-0.745722-1.45703-1.71878-1.97037-2.53333-0.50338-0.79873-0.66291-2.13373-1.21587-2.75477l-2.57983 2.00978 0.6232 4.82976-1.71379 1.71378-3.27177 0.6232-1.86959-2.33698-2.33698 0.31159-0.46739-4.36236-2.92964-1.30964-2.7909 1.41684-2.83819 0.345414-3.18362 0.735915-3.59531 1.21391-2.74935 3.59532 0.63446 4.44126 1.9034 2.32638v3.8068l-2.36255 3.38475c1.18404 0.0812 1.2672 0.0892 1.94233 0.14109l2.10329 1.32429 0.15579 1.63588 0.1558 1.40219-1.48008 2.33698-0.779 1.63589-1.16849 1.32429-1.16849-0.1558-2.18118-0.0779-1.86958-0.2337-2.96018 1.24639-2.10328 0.3116-2.02538-0.7011-1.40219-0.54529-0.8109-1.46938-1.59949 1.34065-1.48042 1.48042-1.90408 4.02116 1.12093 0.7033 1.71378-0.7011 1.09059 1.16849 2.80438 2.10329 2.64858 2.64857 1.16849 2.33698-0.1558 2.41488-0.77899 1.86959-0.9348 0.93479-2.33698 0.2337-2.80437-1.40219-3.81707-0.93479zm-0.6612-5.16166 0.66517 5.16545-5.58928-0.54529-4.12867-3.81707 0.12463-2.84704c1.05743 0.12963 2.35248 0.79111 3.39142 0.99146 1.23682 0.23851 2.95931 0.0865 4.17979 0.39808 0.44062 0.11247 1.00868 0.41851 1.35694 0.65441z"/>
  <path id="Schaffhausen" d="m621.639 81.8482c-0.80533 0.889878-1.8129 1.95868-2.37997 3.01644-0.54269 1.01228-0.40812 2.76262-1.12592 3.65926-0.42548 0.531484-1.66174 0.519088-1.97037 1.12593-0.34665 0.68159 0.3455 1.77134 0.28148 2.53333-0.0515 0.612607-0.28098 1.42409-0.56297 1.97037-0.24802 0.480471-0.67085 1.11539-1.12592 1.40741-0.29303 0.188038-0.81767 0.443349-1.12593 0.281482-0.63878-0.335424-0.59111-1.5763-0.84444-2.25185-0.25333-0.675556-0.45384-1.64524-0.84445-2.25185-0.45258-0.702851-1.27814-1.50171-1.97037-1.97037-0.53254-0.360546-1.37357-0.604808-1.97037-0.844444-0.66953-0.268843-1.57172-0.603659-2.25185-0.844445-0.75518-0.267357-1.74257-0.716121-2.53334-0.844445-0.66683-0.108212-1.57799 0.04789-2.25185 0-0.59561-0.04233-1.41521-0.501341-1.94731-0.285345l0.55521-2.30058-2.74935 0.422978-2.96085-0.845956-1.05744-1.26893 0.63446-2.32638 0.42298-1.9034 1.05745-2.32638 2.32637-1.48042 1.9034-1.05744 2.74936-1.48042 3.38382-1.69191 2.74936-0.211489 1.48042 1.26893 2.11489 1.48042 1.9034 0.634467 2.11489 1.05744 1.05744 1.69191 0.63447 1.69191-0.84595 1.48042 0.84595 1.26893 1.9034 0.845955 1.48042 0.211489zm17.1231-29.8174c-0.48702-0.444747-0.97735-0.808316-1.48821-1.22545-0.41882-0.341982-0.97995-0.794786-1.4074-1.12593-0.33378-0.258579-0.74048-0.672106-1.12593-0.844444-0.39308-0.175751-0.97711-0.26576-1.40741-0.281482-0.68036-0.02486-1.57816 0.183277-2.25185 0.281482-0.50828 0.07409-1.35688-0.110449-1.68889 0.281481-0.16375 0.193298 0.0157 0.591601 0 0.844445-0.0423 0.679498-0.18328 1.57816-0.28148 2.25185-0.0741 0.508284-0.0721 1.21986-0.28148 1.68889-0.22045 0.493728-0.91559 0.909287-1.12593 1.40741-0.26484 0.62719-0.31357 1.5718-0.28148 2.25185 0.0367 0.777674 0.11091 1.95448 0.52082 2.61401l-1.40735-1.51601-0.84596-0.845956-1.58616-0.9517-1.48043-0.528723-1.05744 0.317234-1.48042 0.740211-2.74936-0.105744-3.48957-0.105745-1.58616 0.422978-0.42298 0.845956-1.39374 0.729836-0.89727 1.04682-1.645 0.598181-0.59818 2.09363 0.59818 0.897271-0.29909 0.448636-6.43044-0.149545-3.29 0.747726-0.74772 1.04682-0.44864 0.747726-1.04682-0.299091-0.29909-1.04682 0.29909-1.49545-0.29909-2.09363-1.04681-0.598181h-5.68272l-1.645-1.49545-1.94409-1.49545-1.79454-0.448636 0.29909-2.39272 1.34591-2.69181 0.29909-1.79454-0.89728-2.84136 1.19637-2.39272 2.24318-2.09363 2.09363-1.94409 1.79454-1.79454 1.19636-2.09363 0.59818-2.24318 1.04682-2.39272 0.89727-2.24318 1.645-1.79454 1.645-1.49545 1.94409-1.49545 2.39272-1.19636 2.69181-0.598181h1.94409l1.645-0.448636 1.79454-1.19636 1.79455-0.897271 2.69181 0.598181 1.94409-0.149546 1.34591-1.34591-0.29909-1.94409-0.59819-1.645-1.04681-0.897271 0.29909-1.94409 1.645-0.448636h2.84136l3.43954 0.897272 1.64499 0.747726 3.29 1.34591-0.44864 1.645-0.14954 1.49545 0.14954 2.09363 0.44864 1.94409 0.89727 2.39272 1.49545 1.34591 2.09364 0.448635 0.89727-1.04682 1.34591-2.54227-1.19637-4.18727-0.29909-2.09363 0.29909-1.49545 2.09364 1.79454 1.94408 1.79454 1.645 1.49545 1.19636 1.19636 0.44864 1.19636v1.79454l-0.29909 2.9909 0.29909 1.19636 1.94409-0.149545 0.74772-1.04682 1.94409-0.897272 1.94409-0.149545 2.54227 1.19636 0.89727 2.69182-0.89727 0.747726-1.645 2.39272-0.89727 2.24318 0.44864 2.24318 1.94408 1.645 1.34591 1.94409-0.29909 2.09363-1.645 0.299091-1.49545-0.299091-1.19636-1.49545-1.04682-0.747726-2.84136-0.299091-2.09363 0.149545-1.94409 0.299091-0.89727 0.897271-1.04682 1.49545 0.29909 1.645-0.44863 1.94409-0.29909 1.645zm47.4924 10.5941c-0.8017-0.366797-1.97707-0.575655-2.81758-0.84175-0.76375-0.241793-1.83348-0.45459-2.53333-0.844445-0.57617-0.320958-1.18517-0.981677-1.68889-1.40741-0.59462-0.50255-1.37076-1.19231-1.97037-1.68889-0.41644-0.344883-0.97996-0.794784-1.40741-1.12593-0.33378-0.258579-0.74469-0.662986-1.12593-0.844445-0.62876-0.299269-1.55677-0.52099-2.25185-0.562963-0.67957-0.04104-1.57235 0.239177-2.25185 0.281481-0.84281 0.05247-1.97785 0.112086-2.80791-5.92e-4l0.91797-1.79632 0.59818-1.645 1.04682-1.94409 0.44864-1.49545-1.04682-1.19636-1.49545-0.897272-1.79455-0.29909-1.49545-0.598181-0.89727-1.19636 0.44863-1.19636-0.14954-1.49545 1.34591-1.04682 1.49545-1.19636 1.19636-0.747726 1.04682-0.299091 1.49545 0.299091 0.14955 0.747726 0.74772 1.645 1.04682 0.448635 1.79454 0.897272 2.54227 0.897271 1.19636 0.299091 2.39273 0.747726 2.09363 1.645 1.645 0.897271 0.44863 1.49545-0.74772 0.59818-1.19637 0.299091-1.3459-0.299091-1.19636 1.19636v1.79454l1.94408 2.24318 1.19637 2.69181 0.59818 0.897272 1.3459 1.49545 0.89728 1.49545z"/>
  <path id="St. Gallen" d="m818.685 91.4858-11.6096 16.1322-1.62185 1.31776-2.93961 2.73688-3.14235 1.31776-1.01365 3.44644-0.70957 3.2437-1.62185-0.60819-3.04098-0.91229-0.50683-2.53415-2.63551-3.64917-2.33142-0.40547-2.83824-2.53414 0.3041-0.3041 0.91229-1.92595-1.72322-0.40547 1.21639-2.43278-2.73688-1.52049-1.11502 1.11503-2.63552 0.30409-2.93961 0.50683-2.23005 0.40547-1.21639 2.12868-2.12868 1.11503-1.11503 0.50683-0.20273 1.21639 2.83825 0.60819 1.62185-0.81093 2.63551-0.20273 2.53415 2.93961 0.91229 4.35874 0.40547 2.12868-2.83825 1.21639-4.156 0.50683-4.156 1.62186-2.83825 1.21639-3.34507-0.3041-3.75054-2.63551-2.02732-1.2164-4.35873 0.40547-1.41912-1.52049-0.70956-1.82459-1.52049-0.10136-2.23005-0.6082-3.75054-3.14234-1.11502 3.24371-3.64918 3.44644-2.73688 0.91229-5.37239 0.50683-2.93961-1.72322-1.92595-2.02732-4.4601-2.12868-2.93961-0.50683-2.83825 1.31776-3.8519 0.91229-1.72322 1.82459-0.10137 2.43278 1.92595 3.34507 1.82459 1.31776 3.85191 3.04098 1.52048 1.01365-0.50683 4.05464-1.31775 2.23005h-3.95327l-5.16966 0.6082-1.11503 1.52048-0.91229 4.96693-2.02732 1.72322-1.11502 3.24371-0.62155 2.09529-1.2185 0.50174-1.36186 1.79191-1.92764 1.06828 1.04618 2.40171 2.56326 5.48007 3.09359 4.86136 0.7955 5.83363-0.88389 3.88909-4.15425 0.70711-2.91682 2.74004-2.03293 2.29809 0.61872 2.03294 1.41421-0.44195 0.44195 1.14905-1.67938 3.71231 0.0884 3.00521-5.74525 1.5026-4.65766 1.62095-2.1875 1.625-1.5625 0.9375h-2.25l-4-0.5625-2.25-1.25-2.5625-0.5625-2.375 0.75-1.9375 2-1.25 2.0625 0.5 1.6875 0.0937 4.53125 8.28125 3.40625 12.4012 0.0175 7.82237-1.37002 5.52427-1.98874 1.76777 1.81196 1.63518 0.97227 0.22097 7.95495 0.66291 2.34229 2.51907-0.44194 2.90677 0.73077c0.5301 1.96142 2.9595 3.71265 4.47032 5.07402 3.01185 2.71393 7.70924 5.48288 10.9778 7.88149 0.6808 0.4996 1.53353 1.24493 2.25186 1.68888 0.96374 0.59562 2.26656 1.46806 3.37777 1.68889 1.1625 0.23102 2.63904-0.81418 3.78213-1.12744 0.91054-0.24953 3.23779-0.87868 3.23779-0.87868l12.7218 3.86998v3.04098l0.20273 3.44644 0.40546 7.70381 0.20273 2.73688-3.14234 4.05463-2.53415 0.9123-3.5478 1.11502-1.01366 0.6082-0.3041 1.92595 0.70956 2.02732 1.31776 1.72322 2.63551 0.81092 5.27103 0.3041 2.23005-1.01366 2.12868-1.11502 2.33142-0.70956 2.02732 0.70956 2.73688 1.92595 1.01365 4.96693 1.31776 7.19698 0.40546 10.3393-2.23005 2.63551-0.81092 0.9123 2.12868 1.82458 1.82459 2.12869 1.62185 3.64917-0.72223 3.3324 3.86457 4.06731 1.11503-0.6082 1.82459-1.31775 2.02731-0.3041 2.53415 0.10136 2.83825 1.01366 3.75053 0.9123 5.67649 0.70956 6.48742 0.40546 4.25737 1.01366 3.14234 1.21639 4.86556 2.63551 3.44645 1.72322 0.70956-0.60819 0.91229-1.52049 0.20273-1.92595-0.70956-2.43278 3.54781-0.10137-0.10137-2.23005-1.01366-2.02732 0.3041-3.04097 1.72322-4.25737 3.75054-4.156 3.95327-6.89288 1.21639-2.73688 2.12868-1.01366 3.40992-1.84384c-0.6069-0.91385-1.75209-1.88314-2.38633-2.78313-0.55463-0.78702-1.18311-1.91499-1.5923-2.78653-0.86729-1.84722-1.50156-4.5313-2.38845-6.3692-0.9079-1.88144-2.75119-4.05469-3.58267-5.97113-0.34604-0.79757-0.31449-2.06273-0.78908-2.78924-0.52815-0.70475-1.73647-0.87081-1.99745-1.58958-0.22521-0.62026 0.0601-1.61356 0.43587-2.156 0.45365-0.65486 1.68626-0.84638 2.25186-1.4074 0.7817-0.77537 1.32507-2.2042 1.97037-3.0963 0.70342-0.97244 1.96998-2.03655 2.53333-3.0963 0.41382-0.77847 0.62201-1.96171 0.84445-2.81481 0.19643-0.75335 0.47801-1.75945 0.56296-2.53334 0.10136-0.92334 0.15854-2.18104 0-3.0963-0.21426-1.23694-0.96311-2.76664-1.40741-3.94074-0.32189-0.85062-0.80403-1.96419-1.12592-2.81481-0.4443-1.17411-0.93279-2.77857-1.40741-3.94075-0.45712-1.11932-1.34646-2.49971-1.68889-3.65926-0.16912-0.57266-0.16669-1.38439-0.28148-1.97037-0.20079-1.02504-0.61529-2.35871-0.84445-3.37778-0.18893-0.84019-0.40771-1.96775-0.56296-2.81481-0.1852-1.01048-0.439-2.35797-0.56296-3.37778-0.13286-1.09298-0.39225-2.56382-0.28149-3.65926 0.0618-0.61165 0.28098-1.42409 0.56297-1.97037 0.49604-0.96094 1.60366-1.94919 2.25185-2.81482 0.61783-0.82509 1.37525-1.97319 1.97037-2.81481 0.83881-1.18623 2.04667-2.70759 2.81482-3.94075 0.65922-1.05828 1.59918-2.46899 1.97037-3.65926 0.22766-0.73 0.20464-1.77252 0.28148-2.53333 0.0937-0.928-0.0609-2.22869 0.28148-3.0963 0.35342-0.89561 1.20818-1.94505 1.97037-2.53333 0.50911-0.39294 1.43783-0.4839 1.97037-0.84445 0.69223-0.46866 1.53918-1.2542 1.97037-1.97037 0.59244-0.98398 0.79926-2.55813 1.12593-3.65926 0.17485-0.58937 0.27553-1.42694 0.56296-1.97037 0.30837-0.583 0.86267-1.31709 1.40741-1.68889 0.44112-0.30108 1.24079-0.27238 1.68889-0.56296 1.15338-0.74793 2.37245-2.20914 3.0963-3.37778 0.61934-0.9999 0.89833-2.59896 1.40741-3.65926 0.50776-1.05756 1.44275-2.32998 1.97037-3.37778 0.57847-1.14879 1.06345-2.81683 1.68889-3.94074 0.50123-0.90071 1.41853-1.9442 1.97037-2.81482 0.36448-0.57503 0.80467-1.37012 1.12592-1.97037 0.35639-0.66592 0.44744-1.92001 1.12593-2.25185 0.3868-0.18918 0.97892 0.23905 1.40741 0.28148 1.0084 0.0998 2.367 0.0718 3.37778 0 0.59561-0.0423 1.40951-0.0766 1.97037-0.28148 0.74828-0.27335 1.91603-0.685 2.25185-1.40741 0.25171-0.54147-0.10344-1.40042-0.28148-1.97037-0.1126-0.36047-0.36161-0.80644-0.56296-1.12593-0.51334-0.81455-1.26515-1.87783-1.97037-2.53333-0.22301-0.20729-0.70078-0.29452-0.84445-0.56296-0.27892-0.52117-0.0645-1.38279 0-1.97037 0.085-0.77389 0.5022-1.75717 0.56296-2.53334 0.10565-1.34962-0.023-3.17485-0.28148-4.5037-0.30587-1.57275-1.77287-3.46665-1.68889-5.06667 0.0535-1.01894 1.46543-2.0776 1.40741-3.0963-0.028-0.49159-0.56334-1.00314-0.84444-1.40741-0.30868-0.44394-0.66404-1.1263-1.12593-1.40741-0.73564-0.44771-2.02865-0.21146-2.81482-0.56296-0.7709-0.34468-1.58429-1.17173-2.25185-1.68889-0.42745-0.33114-0.8751-1.03098-1.40741-1.12592-0.26289-0.0469-0.5937 0.18963-0.84444 0.28148-0.427 0.15641-0.96087 0.47696-1.40741 0.56296-0.0829 0.016-0.19704 0-0.28148 0-0.42222 0-1.03198 0.1932-1.40741 0-0.64591-0.3324-0.99477-1.37253-1.40741-1.97037-0.17295-0.25058-0.40546-0.58388-0.56296-0.84445-0.54733-0.90552-1.05499-2.24911-1.68889-3.09629-0.50082-0.66933-1.40238-1.35701-1.97037-1.97037-0.52898-0.57123-1.32011-1.28471-1.68889-1.97037-0.2912-0.54142-0.56296-1.97038-0.54121-1.88642l-7.86676-15.0201zm-35.1103 103.441 6.17536 3.81139 2.91682 1.14905 3.44715 0.0884 1.5026-0.88389 4.41941-2.56326 2.82843-2.12132 6.27557-6.0988 3.62393-4.86136 2.12132-5.65685 1.32582-7.33623 0.0884-4.86136-0.88262-4.3248-0.4167-2.29847-1.25-2.5v-2.25l1.625-4.125 1.18654-3.16568 1.06361-0.6931 2.74003 0.0884 2.56327 0.26516 2.73906 0.37289 1.58249-0.99266 1.75-1.875 4-0.875 2.5711-2.02854 3.6208-1.3192 1.81591-1.53117 3.86719-4.37109-2.125-1.25-5-2.75-4.5-1.5-4.125-2.25-3.25-2.375-3.5-0.125-2.75 2.625-3.25 3.625-5 2.25-4.75 1.375-4.375 0.875-1.375 4.625h-2.37501l-3.75 1.75-5 0.875h-1.625l-4.5-0.125-4.5 0.75-3.5 2.5-5.375 1.375-5.375 0.375-4.25 0.75-2.75 2.75-3 2-0.25 1.875-0.625 3-2.625 2.75-2.625 1.375 0.125 1.625 2.25 2.375v2.5l0.75 0.625 2.375-1.75 3 2.5-1.5 1.5-3.25 2.625-0.375 2.625 1.125 5.375 1.875 0.875-2.75 5.875 3.125 1.875 3 1.5 3.375 0.5 3-0.5 2.375-1.5 2.5 2 5 3.25 4.125 2.125zm33.3332-84.7748-0.40546 1.62185-1.52049 3.14235-2.73688 2.12868-2.53414-0.50683-2.12869-1.82458 0.10137-2.93962 1.72322-3.14234 2.23005-1.62185 2.43278 0.91229z"/>
  <path id="Appenzell Outer Rhodes" d="m843.008 138.348-2.97656-2.53516-3.40625-2.65625-2.84375-1.09375-3.8125 1.09375 0.28125 3.1875 2.75 1.9375 2.21875 1.53125 2.39648 1.37305-2.61523 2.0332-4 0.875-1.75 1.875-1.57812 0.95312-0.20313-2.79687 4.78125-2.53125-2.0625-1.78125-2.15625-3.34375-1.09375-2-1.625 0.65625-2.8125 0.875-1.28125 0.96875-1.1875 1.5625 2.75 1.9375-1.09375 1.4375-2.375 1.21875-1.5625 1.96875 0.79492 1.86328-1.16992 3.13672-1.625 4.125v2.25l1.25 2.5 0.40566 2.34266-3.40566 0.78234-3.375 0.125-2.75-1.25-2-4-5.125-2.25-6.25-2.5-3.875-1.625-3.5 0.75-2.5 0.75 1.5 3.625 1.125 1.5-1.75 2.75-4.125 3.625-3.125 3.5-0.75 5.875-1.125 6.375 2.125 4.25 2.375 2 1.875 4.625 0.85567 4.77029-2.73067 2.10471-4.125-2.125-5-3.25-2.5-2-2.375 1.5-3 0.5-3.375-0.5-3-1.5-3.125-1.875 2.75-5.875-1.875-0.875-1.125-5.375 0.375-2.625 3.25-2.625 1.5-1.5-3-2.5-2.375 1.75-0.75-0.625v-2.5l-2.25-2.375-0.125-1.625 2.625-1.375 2.625-2.75 0.625-3 0.25-1.875 3-2 2.75-2.75 4.25-0.75 5.375-0.375 5.375-1.375 3.5-2.5 4.5-0.75 4.5 0.125h1.625l5-0.875 3.75-1.75h2.375l1.375-4.625 4.375-0.875 4.75-1.375 5-2.25 3.25-3.625 2.75-2.625 3.5 0.125 3.25 2.375 4.125 2.25 4.5 1.5 5 2.75 2.125 1.25z"/>
  <path id="Appenzell Inner Rhodes" d="m783.594 195-0.84385-4.78097-1.875-4.625-2.375-2-2.125-4.25 1.125-6.375 0.75-5.875 3.125-3.5 4.125-3.625 1.75-2.75-1.125-1.5-1.5-3.625 2.5-0.75 3.5-0.75 3.875 1.625 6.25 2.5 5.125 2.25 2 4 2.75 1.25 3.375-0.125 3.40439-0.78857 0.89493 4.28684-0.0884 4.86136-1.32582 7.33623-2.12132 5.65685-3.62393 4.86136-6.27557 6.0988-2.82843 2.12132-4.41941 2.56326-1.5026 0.88389-3.44715-0.0884-2.91682-1.14905zm59.4218-56.656-2.98437-2.53126-3.40625-2.65625-2.84375-1.09375-3.8125 1.09375 0.28125 3.1875 2.75 1.9375 2.21875 1.53125 2.39337 1.37967 3.57978-1.32116zm-15.3325 8.57078-0.21438-2.78954 4.78125-2.53125-2.0625-1.78125-2.15625-3.34375-1.09375-2-1.625 0.65625-2.8125 0.875-1.28125 0.96875-1.1875 1.5625 2.75 1.9375-1.09375 1.4375-2.375 1.21875-1.5625 1.96875 0.79787 1.87729 1.07728-0.73607 2.74003 0.0884 2.56327 0.26516z"/>
  <path id="Graubnden" d="m684.343 337.91 3.38644 0.37627 3.76271 0.84661 1.22288 2.82203h3.76271l4.13898-1.78728 3.10423-0.94068 7.05508-1.41102 3.85678-1.41101 2.63389-2.82203 0.65848-3.10424 1.31695-4.89152s1.88135-3.57457 1.97542-3.95084c0.0941-0.37627 0.84661-3.10424 0.84661-3.10424l2.82203-1.69322 2.9161-0.2822 2.9161 1.41102 2.06949 3.29237 1.31694 2.25762 1.78729 1.03475 1.69322-1.31695 2.72796-2.25763 2.6339-2.9161 1.88135-1.78728 2.6339-0.75254 4.98559-0.18814 2.35169 0.65848 1.22288-3.38644 1.59915-2.06949 2.72797-3.10424 2.72796-2.82203 3.05077-0.70037 3.84729 4.10864 1.11503-0.6082 1.82459-1.31775 2.02731-0.3041 2.53415 0.10136 2.83825 1.01366 3.75053 0.9123 5.67649 0.70956 6.48742 0.40546 4.25737 1.01366 3.14234 1.21639 4.86556 2.63551 3.44645 1.72322 0.70956-0.60819 0.91229-1.52049 0.20273-1.92595-0.70956-2.43278 3.54781-0.10137-0.10137-2.23005-1.01366-2.02732 0.3041-3.04097 1.72322-4.25737 3.75054-4.156 3.95327-6.89288 1.21639-2.73688 2.12868-1.01366 3.40992-1.84384c-0.6069-0.91385-1.75209-1.88314-2.38633-2.78313-0.55463-0.78702-1.18311-1.91499-1.5923-2.78653-0.86729-1.84722-1.50156-4.5313-2.38845-6.3692-0.9079-1.88144-2.75119-4.05469-3.58267-5.97113-0.34604-0.79757-0.31449-2.06273-0.74036-2.7538l2.70965 1.29451 3.58909-0.14955 1.19636-1.3459 1.19636-1.94409 3.73863 0.14954 2.69181 1.94409 0.89728 1.79454 2.84136 0.29909 3.73863-1.19636 1.3459-1.19636 1.645-0.74773 3.73863 0.89728 3.73863 0.44863 3.43954-1.34591 8.07545 1.79455 5.68272 3.28999 7.17817 1.19636 5.38363 0.59819 5.38363 2.69181 3.58908 3.58909 3.88818 1.79454 3.58908 0.89727 6.2809-2.99091 0.59818 3.29 1.49546 2.69181 0.89727 3.29-1.79454 2.39272-1.79455 6.2809 0.89727 2.39273 0.29909 4.48636-0.29909 2.09363 1.49546 1.49545 4.18726 2.09363 5.98181 3.88818 3.58909 2.09363 7.47726-0.89727 4.18727 4.48636 3.88817 0.59818 5.98181 3.58909 2.99091 5.98181 2.39272 2.69181 4.48636-0.29909 2.39272 4.18727 11.3654 0.59818 5.08454-2.09364 4.18727-3.88817 3.88817-2.09363 7.17818 0.29909 0.29909-10.4682 1.49545-2.99091 0.59818-3.88817 2.09363-2.09364 2.39273 1.49546 3.28999 0.59818h5.08459l2.9909-2.09364 0.2991-3.58908-0.5982-2.69182 2.0936-0.29909 2.3928-3.58908 1.7945-4.78545 0.8973-4.78545 4.1872-1.79454 4.4864-1.19636 2.0936 0.59818 5.6828 6.2809 0.1038 4.16445c0.4804 0.27627 1.4271 0.0314 2.0567 0.27627 1.2811 0.49834 2.1139 2.55559 3.3777 3.09629 1.1672 0.49935 3.0143-0.10892 4.2223 0.28148 0.758 0.24498 1.6604 0.87368 2.2518 1.40741 0.7148 0.64507 1.5604 1.66217 1.9704 2.53334 0.3315 0.70443 0.4022 1.77157 0.563 2.53333 0.1779 0.8426 0.5629 2.81482 0.5629 2.81482s0.1758 0.23793 0.1758 0.23793-0.387 1.0069-0.7387 1.45096c-0.4095 0.51702-1.2794 0.89038-1.6889 1.4074-0.5862 0.74011-1.0206 1.95356-1.4074 2.81482-0.3726 0.82968-0.8462 1.94943-1.126 2.81482-0.3214 0.99385-0.6526 2.35101-0.8444 3.37777-0.125 0.66924-0.026 1.62061-0.2815 2.25186l1.1211 2.48382-0.4487 3.28999 0.5982 1.94409-0.2991 2.39273-0.8972 3.88817-1.7946 3.14045-1.0468 2.99091 0.1495 2.54227-1.645 2.24317-2.2431 1.49546-1.7946 1.64499-0.4486 2.24318 0.5982 3.43954 1.645 2.39273 1.9441 3.14045-0.1496 1.49545-2.9909 1.645-3.8882 2.39272-2.5422 2.24318-0.5982 1.645 0.8973 2.24318 1.7945 1.3459 0.7477 2.24318-6.58 6.2809-1.3459 1.645 0.4487 6.2809 1.1963 1.645 1.4955 5.68272 0.8972 3.14045 1.7946 1.19636 2.8413-0.44864 4.7855-1.19636 4.6359 1.79455 1.9441 2.39272 3.29 3.58908 0.1495 6.87909-0.8972 5.23408-1.645 3.43954-1.0469 3.73863-2.6918 3.73863-2.6918-0.29909-1.9441-1.19636-3.5891-0.89727-5.234 0.44863-2.8414-0.89727-6.1314-0.29909-2.8413 1.04682-7.4773 0.14954-0.5982-1.94408-1.1963-2.24318-1.3459-2.99091-2.84143-1.645-4.18727-0.29909-1.645-0.59818-1.79454-1.64499 0.29909-2.69182 2.39272-1.94409-0.14954-3.43954-0.44864-1.645-2.09363-2.69181-1.04682-2.84136-0.44863-1.34591-2.69182-0.14954-0.89727 1.94409v1.04681l-0.89727 1.645h-1.49545l-2.54227-1.04682-2.24318-0.14954-3.29 0.89727-0.89727 2.09363-2.54227 0.74773-1.64499 1.645-3.88818 1.19636-1.04682 0.59818-2.69181-0.59818-3.29 0.59818-1.49545 3.29 0.74773 4.78544-2.99091 1.34591-2.24318 1.94409-0.89727 3.14045-4.6359 4.78545-0.59818 2.69181v4.6359l-0.29909 3.73863-0.89727 1.645-1.79455 3.43954 0.74773 5.83227 0.74773 2.39272-0.74773 2.39273-0.29909 4.33681 2.24318 3.28999 1.79454 3.43954 1.94409 0.44864 2.84136 1.34591 2.24318-0.29909 4.03772-0.44864s1.79454-0.29909 2.84136-0.74773c1.04682-0.44863 3.43954-1.3459 3.43954-1.3459l0.74773 1.94408 1.04681 2.24318 2.69182 2.99091 0.74772 2.24318-0.59818 1.3459-3.88817 2.99091-2.84136 1.19636-1.79455 1.645-0.14954 0.59818-0.84374 3.55319-1.05744 4.01829-1.26893 4.01829 0.63446 3.38382 2.11489 4.44127 2.96085 4.01829 2.53786 2.11489 2.96085 3.8068 1.9034 3.38382 2.11489 3.8068-3.59531 3.8068-4.44127 5.7102-1.9034 0.42298-3.38382-0.21149-3.8068-1.05745-3.38383 0.21149-1.69191 2.32638-1.05744 1.26893-1.26894-1.48042-2.11489-1.48042 0.21149-3.8068 0.63447-5.28722-1.05744-3.8068-4.65276-3.17234-5.49871-2.32638-1.69191-1.05744 0.42297-4.22978v-3.17233l-1.48042-1.9034-0.21149-4.22978 1.48043-0.63447-0.42298-4.65275-3.8068-3.59531-3.8068-5.49872-2.11489-1.9034-2.53787 1.26894-2.74935 1.48042-3.59532-0.84596-3.38382 0.84596-2.96084 1.48042-1.9034 1.05745-2.53787 1.05744h-6.34467l-4.01829 1.26893-1.69191 3.17234-2.53787 1.69191-2.32637 1.48042-2.32638 0.42298-4.65276-2.32638-3.38382-2.11489-3.38382 2.11489-1.48043 2.32638-0.42297 5.92169 0.21149 3.17233-1.05745 2.96085-1.9034 1.48042-1.48042-0.63447-4.01829-0.84595-4.44127 1.69191-4.65275 1.26893-3.17234 0.42298-2.53786-0.84596-4.86425-0.21148-3.38382-1.9034-6.13318-2.96085-3.17233-3.17233-2.74936-3.8068-0.84596-2.74936-1.69191-4.86424-2.74935-1.9034-3.59531-2.32638-3.38383-1.9034 0.84596-2.96085 0.42298-4.86424-2.74936-5.7102-1.05744-3.59531v-4.65276l0.42297-3.38382 1.69192-4.44127 1.05744-5.7102-0.21149-3.59531-1.9034-2.53787-4.86424-0.42298-1.69192 1.48043-2.74935 3.17233-0.42298 3.17233-1.69191 2.53787-0.42298 1.05744-2.74935-0.63446-1.69192-1.9034-3.8068-3.17234v-2.74935l-0.21148-2.96085-3.59532-1.26893-6.13317 0.84595-5.07574 0.84596-4.65275 1.9034-3.17234 3.38382 0.21149 3.59531 0.63447 5.28723-1.05745 2.32638-3.38382 2.11488-2.32638 2.11489 0.21149 4.86425 7.40211 6.55616v9.09402l0.63447 5.92169 1.9034 3.38382 0.42298 6.55616-2.53787 5.07573-4.01829 8.24807-4.01829 4.86424-0.42298 7.19063-0.21148 2.32637-2.11489 1.05745-3.17234 2.53787-0.42297 2.32637-1.90341 2.96085-1.48042 1.26893-2.32638 4.01829-0.63446 3.38382-0.21149 2.74936-5.03874 0.89188-3.8796-3.70342-4.13898-5.8322-3.57457-3.38643-4.89152-3.57458-0.75254-3.76271 0.75254-5.07965-1.88135-5.07966-3.01017-5.07965-1.31695-3.57458 1.69322-3.01016 1.69322-4.89153-0.18814-5.26779 1.12882-3.01016 2.25762-1.88136 2.06949-3.38644-1.12881-5.83219 0.18813-4.32712 1.50509-3.95084 0.5644-3.01017-2.82203-3.38644-0.75254-3.38644 1.88135-3.7627 0.47034-5.2678-3.29237-3.66864-3.4805-1.12881-2.16356-0.18813-3.29237-3.29237-2.44576-3.66865-2.72796-6.20846-0.37627-4.98559 0.8466-7.24322 2.16356-1.59915 3.01017-3.1983-0.56441-2.06949-1.03474-0.56441-3.85678-0.94067-3.10423-4.04491-1.88136-1.88136-4.51525 1.31695-3.76271-0.37627-0.5644-2.35169-0.37627-3.19831-0.47034-4.70338-0.56441-3.1983-0.65847 0.75254-1.69322 1.22288-5.92627 0.47034-3.29237 2.63389-1.12881 2.44576 1.97542 4.04491 0.84661 1.69322-0.0941 2.6339-2.53982 2.44576-2.72797 1.88135-2.72796 1.22288-3.85678 0.65848-3.85677 1.03474h-1.97542l-1.50509-0.84661-3.76271 2.82203-3.38643-0.5644-3.29237-1.88136-2.25763-1.22288-4.60932-0.84661-3.57457 0.75255-3.6137-0.16401-4.12399-1.86245-3.92474-0.88204 1.31498-6.21607-3.38644-5.07966-2.82203-3.76271v-6.20847l2.44576-3.38643 1.88136-1.12882-2.06949-4.51525-0.37627-2.25762 1.69322-3.57457 2.82203-1.69322 5.07965-0.18814 3.38644-3.57457 4.13898-2.25763 1.50508-5.07965 0.56441-2.6339 3.38644-0.37627 1.88135 3.1983 3.57457 0.18814 2.82204-2.6339 0.94067-4.32711 3.19831-3.19831 1.50508-4.32711-1.31695-4.89152 2.06949-1.69322 2.82203-1.31695 2.82203-0.37627 4.09195-4.1625"/>
  <path id="Aargau" d="m581.528 89.0763-1.30537 2.05754 0.64627 0.743213-0.25851 3.87763-2.32657 5.9457-4.13614 4.13614-3.36062 2.8436v4.13614l-1.80956 3.36061-2.06807 6.46272 1.80956 5.42868 1.55106 1.29254 0.38776 1.68031 0.51702 2.84359 0.90478 5.04092 0.25851 0.90478 2.19732 1.03404 3.61912 2.06807 0.64627 3.1021-0.77552 1.80956-6.07496 7.23825 0.38777 2.19732 6.85048 3.61912-0.57428 2.58546 0.47266 7.76904 1.70977 2.07917 1.37095 1.12083 2.72162 0.50055 1.97477-2.79734 0.95642 0.44589-1.76062 3.01799-1.7614 3.1859-2.37631 2.6505-2.37631 1.09676-3.28602 0.65791c0.40629 0.70592 1.27255 1.70743 1.62171 2.42349 0.4332 0.88841 0.82108 2.15609 1.12593 3.0963 0.18961 0.58479 0.37335 1.38558 0.56296 1.97037 0.30484 0.94021 0.91051 2.13166 1.12593 3.09629 0.20329 0.9103 0.47429 2.18373 0.28148 3.0963-0.17972 0.85063-1.03411 1.74815-1.40741 2.53334-0.39051 0.82139-1.14952 1.90562-1.12592 2.81481 0.0314 1.20865 1.22297 2.54358 1.68888 3.65926 0.27803 0.66577 0.68857 1.5474 0.84445 2.25185 0.23788 1.07502 0.23923 2.55906 0.28148 3.65927 0.0454 1.18135-0.17168 2.77105 0 3.94074 0.12802 0.87228 0.6311 1.95939 0.84445 2.81481 0.2084 0.83557 0.28348 2.00026 0.56296 2.81482 0.24512 0.71441 1.10878 1.49675 1.12593 2.25185 0.0189 0.83147-0.89978 1.73299-1.12593 2.53334-0.34748 1.22972-0.17614 3.0043-0.57613 4.19279l-4.92948 1.46-5.39814 1.32199-2.3135 0.3305-1.54232-2.53382-2.09316-4.18632-1.983-4.18632-2.20332-5.83881-0.77117-4.51682-1.76266-5.28798-2.09316-6.83032-0.9915-4.62698-0.22033-3.30499-0.661-2.09316-0.66099-0.44066-4.29649-1.21183-0.9915-1.76266-3.41515-0.77117-2.20333 0.11017-4.51682 5.83881-2.53382 1.43216-0.9915 2.64399-0.77116 3.96599-0.3305 2.42366-1.10166 2.20333-1.87283 1.54232-1.98299 0.3305-2.3135-0.66099-1.76266-1.54233-0.22033-1.322v-1.54233l2.53383-1.21183-0.3305-1.43216-1.76266 0.44067-5.06765 0.55083-5.28799 0.44066-2.64399-0.55083-0.11016-2.86432-0.88133-2.20333-0.3305-0.55083-1.6525-0.3305-2.53382-0.55083-2.53383 0.77117-1.21183 0.88133-0.55083 2.20332-0.77116 2.31349-2.64399 0.77117-2.53383 0.22033-2.86432-0.22033h-1.87283l0.22033-1.21183 0.22034-3.74566v-2.75415l-0.661-1.983-1.54233-2.86432-1.76266 0.661-2.97449 0.88133h-3.30499l-1.322-1.21183-1.32199-0.22033-0.11017 2.09316v8.70313l-0.55083 1.10167-0.88133 0.99149-1.322 0.77117-3.96598-0.22034-1.87283-0.88133-3.30499-0.44066-4.29648 0.55083-1.983 0.55083-1.98299 1.322-4.19219 0.34004-0.4348-3.47978-0.0551-5.45323 0.77116-3.30499 0.47999-1.10208c0.82797-0.29481 1.57476-1.37804 2.13678-2.09787 0.84265-1.07924 1.68933-2.71343 2.34822-3.91371 0.37901-0.69043 0.71358-1.70927 1.17411-2.34822 0.53398-0.74086 1.63552-1.39974 2.15254-2.15254 0.32733-0.4766 0.43415-1.29989 0.78274-1.76117 0.55287-0.7316 1.76806-1.2467 2.34823-1.95685 0.54839-0.67125 1.25088-1.68533 1.3698-2.54391 0.14852-1.07224-0.91501-2.44796-0.78275-3.52233 0.0802-0.65143 0.69411-1.36529 0.8878-2.0118l1.86483 1.32214 1.92791 1.54232 2.36857 0.93642 3.02958 0.661 5.83881 0.49574 3.80074 0.27542 1.65249-0.27542 1.26692-0.49574 1.21182-1.76267 0.9915-3.47023 1.92791-5.45324 1.87283-3.80073 1.92791-4.51682-0.44067-2.14824-2.75415-2.644-2.36858-0.38558-1.81774-0.82625-2.03808-1.21182-3.2499-1.76267-1.87283-1.81774 2.42366-1.43216-0.11017-2.58891-0.71608-3.02957-1.59741-0.44067-0.71609-2.36857-0.0551-1.76266-2.14824-0.22034-1.07412-0.19279-2.72662-1.7902-0.55083-3.52532 0.22033-2.31349-2.86432-0.3305-2.42366-0.11017-1.87283-1.10166-2.42365-3.19482-1.10167-4.07616-3.08465-5.50831-2.53383-3.41516-2.09316-2.64399-0.9915-1.21183-1.65249-1.10166-1.54233-0.110166-1.43216 0.88133-0.77116 1.43216-0.55084 2.42366-0.55083 1.983-0.77116 2.42365-2.20333 2.09316-2.31349 1.6525-3.41516 0.22033-0.22033-2.31349 0.3305-1.54233-0.661-1.21183-1.54232-0.77116-3.24991-2.86432-2.86433-1.48725-2.9194-1.04658-0.29262-1.63288c0.76584-0.178236 1.90065-0.362058 2.74252-0.543343 1.10138-0.237168 2.58417-0.507573 3.65926-0.844444 0.86789-0.271946 1.95422-0.831725 2.81482-1.12593 1.16342-0.397726 2.79485-0.680194 3.94074-1.12593 0.8799-0.342265 2.06546-0.833113 2.81482-1.40741 0.80709-0.618534 1.73105-1.65998 2.25185-2.53333 0.50623-0.84892 0.76222-2.17725 1.12593-3.0963 0.23665-0.597986 0.48389-1.43783 0.84444-1.97037 0.20086-0.296671 0.51345-0.707342 0.84445-0.844445 0.39008-0.161576 0.99647-0.09701 1.4074 0 0.73509 0.173531 1.53092 0.900722 2.25186 1.12593 0.56995 0.178039 1.3733 0.288424 1.97037 0.281482 0.51362-6e-3 1.19423-0.143074 1.68889-0.281482 0.43793-0.122534 1.00002-0.360891 1.4074-0.562963 0.44111-0.218801 0.94088-0.686969 1.40741-0.844445 0.72452-0.244558 1.76894-0.302313 2.53334-0.281481 0.51347 0.01399 1.20501 0.109144 1.68889 0.281481 0.64135 0.22842 1.48896 0.644519 1.97037 1.12593s0.82244 1.36094 1.12592 1.97037c0.28667 0.575683 0.59834 1.37621 0.84445 1.97037 0.17402 0.420131 0.44553 0.968086 0.56296 1.40741 0.1542 0.576859 0.15695 1.38639 0.28148 1.97037 0.12821 0.601247 0.28098 1.42409 0.56297 1.97037 0.24802 0.48047 0.69167 1.08524 1.12592 1.40741 0.73044 0.541893 2.09294 0.572691 2.81482 1.12593 0.33512 0.256832 0.44845 0.979437 0.84444 1.12593 0.73018 0.270113 1.8911-0.122895 2.53334-0.562963 0.50233-0.3442 0.78002-1.18774 1.12592-1.68889 0.41264-0.597843 0.7615-1.63798 1.40741-1.97037 0.67577-0.347761 1.77399-0.03159 2.53333 0 1.01597 0.04226 2.36445 0.197037 3.37778 0.281482 1.01333 0.08445 2.3987 0.0069 3.37778 0.281482 0.54543 0.152948 1.14673 0.68029 1.68889 0.844444 0.6516 0.197289 1.57235 0.239178 2.25185 0.281482 1.09566 0.06821 2.56971 0.134131 3.65927 0 0.69113-0.08508 1.62784-0.253909 2.25185-0.562963 0.48454-0.239979 0.98519-0.788148 1.40741-1.12593 0.42222-0.337777 1.02506-0.743589 1.4074-1.12593 0.38234-0.382339 0.67086-1.11539 1.12593-1.40741 0.29303-0.188037 0.78155-0.332727 1.12593-0.281481 0.48703 0.07247 0.99879 0.569696 1.4074 0.844444 0.35038 0.235596 0.72537 0.710927 1.12593 0.844445 0.80111 0.267037 1.97037 0 2.81482 0 0.33778 0 0.83199 0.166421 1.12592 0 0.42848-0.242601 0.60751-0.975774 0.84445-1.40741 0.27259-0.496571 0.71429-1.13757 0.84444-1.68889 0.13581-0.575299 0-1.37926 0-1.97037 0-0.168889-0.0575-0.404162 0-0.562963 0.22452-0.62014 0.81014-1.40915 1.40741-1.68889 0.38236-0.179088 0.98835 0.05159 1.40741 0 0.69113-0.08508 1.59876-0.321367 2.25185-0.562963 0.17709-0.06551 0.4066-0.175622 0.56296-0.281482 0.84202-0.570075 1.75606-1.59624 2.53334-2.25185 0.41332-0.34862 0.89718-0.946948 1.40741-1.12593 0.71716-0.251565 1.77903 0.09286 2.53333 0 0.34557-0.04254 0.79938-0.160684 1.12593-0.281482 0.70838-0.262046 1.57629-0.788148 2.25185-1.12593 0.50667-0.253334 1.33443-0.402574 1.68889-0.844445 0.21786-0.27159 0.10278-0.827112 0.28148-1.12593 0.64433-1.07739 2.10682-2.04225 3.0963-2.81482 0.47997-0.374748 1.24004-0.714414 1.68889-1.12593 0.39855-0.365402 0.62092-1.21417 1.12592-1.40741 0.47973-0.183567 1.27571-0.02368 1.68889 0.281481 0.30378 0.224361 0.31763 0.838821 0.56296 1.12593 0.4719 0.552262 1.31088 1.10286 1.97038 1.40741 0.3161 0.145969 0.78036 0.23894 1.12592 0.281481 0.33525 0.04127 0.78952 0.03033 1.12593 0 0.9403-0.08479 2.156-0.478176 3.0963-0.562963 0.58872-0.05308 1.38689-0.09468 1.97037 0 0.52718 0.08555 1.16171 0.477414 1.68889 0.562963 0.75019 0.121738 1.77903-0.09286 2.53333 0 0.69113 0.08508 1.69235 0.148407 2.25185 0.562963 0.39563 0.293136 0.68954 0.940019 0.84445 1.40741 0.267 0.805563-0.0819 2.04791 0.28148 2.81482 0.46026 0.971266 1.77333 1.77333 2.53333 2.53333 0.92889 0.92889 1.40741 2.81482 3.0963 3.0963 1.68889 0.281482 1.36043 1.01287 1.97037 1.40741 0.98502 0.637169 2.25185 1.97037 3.37778 1.97037s2.5518 0.478272 3.65926 0.562963c1.01038 0.07727 2.36445 0 3.37778 0 0.92889 0 2.36414 0.571651 3.0963 0 0.27443-0.21427 0.10994-0.822946 0.28148-1.12593 0.35304-0.623529 1.0269-1.41468 1.68889-1.68889 0.31206-0.129261 0.79424-0.06388 1.12592 0 0.44654 0.086 0.97975 0.366139 1.39459 0.552429z"/>
  <path id="Thurgau" d="m696.473 63.9026s-1.45583 0.760541-2.33924 0.976808c-0.82431 0.201799-1.96954 0.357179-2.81481 0.281482-0.61231-0.05484-1.40967-0.310876-1.97037-0.562963-1.0042-0.451479-2.09509-1.5123-3.0963-1.97037-0.8017-0.366797-1.97431-0.57835-2.81482-0.844445-0.76375-0.241793-1.83348-0.45459-2.53333-0.844445-0.57617-0.320958-1.18517-0.981677-1.68889-1.40741-0.59462-0.50255-1.37076-1.19231-1.97037-1.68889-0.41644-0.344883-0.97996-0.794784-1.40741-1.12593-0.33378-0.258579-0.74469-0.662986-1.12593-0.844445-0.62876-0.299269-1.55677-0.52099-2.25185-0.562963-0.67957-0.04104-1.57235 0.239177-2.25185 0.281481-0.84281 0.05247-1.97785 0.112086-2.81482 0-0.95429-0.127797-2.18931-0.521328-3.09629-0.844444-0.78345-0.27911-1.82714-0.686631-2.53334-1.12593-0.56002-0.348366-1.08623-1.13949-1.68889-1.40741-0.54563-0.242561-1.38639-0.15695-1.97037-0.281482-0.60125-0.128213-1.39113-0.357022-1.97037-0.562963-0.60595-0.215436-1.36924-0.615897-1.97037-0.844445-0.24961-0.0949-0.57941-0.248854-0.84445-0.281481-1.09277-0.134525-2.56481 0.161341-3.65926 0.281481-0.59355 0.06516-1.38507 0.399677-1.97037 0.281482-0.48265-0.09747-0.9434-0.679701-1.40741-0.844445-0.5627-0.199781-1.39707-0.448427-1.97037-0.281482-0.74749 0.21767-1.30444 1.28557-1.97037 1.68889-0.38897 0.235581-1.00003 0.360889-1.40741 0.562963-0.44111 0.2188-0.9187 0.904605-1.42562 0.816991l-2.05116 2.80097-0.44194 1.85616 1.5026 3.35876 1.85758 2.89282 1.8125 1 2 1.125 4.375 0.875 4.1875 0.125 2.9375-1.875 1.5625-1.625 1-0.75 1-1.5 0.5625-1.0625 0.5625 0.1875 3.875 0.4375v0.9375l2.5 1.25 3.0625 1.125 2.8125 0.8125 0.6875 0.875-4.25 7.75-3.9375 5.4375-1.96875-1.25 0.125-0.8125-4.6875-0.75-2.59375 0.15625-1.15625 1-0.21875 1.84375 0.37685 1.4169 0.85022 2.50788c0.79909 0.05679 1.75584-0.651336 2.53333-0.844445 0.49851-0.123818 1.17564-0.301978 1.68889-0.281481 1.39159 0.05558 3.21376 0.600917 4.48436 1.11922l0.2985 4.30472 2.91681 1.94454 3.77782 1.16216 2.82322 2.5455 1.25 1.625-0.25 1-3.625 0.125 0.5 2.625 1 2.25 1.625 1 2.625-0.125 2-0.625 2.375 1.25 4.375 2 0.625 3.5-1.125 6.375-1.75 4-0.625 4.25 2.60696 4.87256-0.17677 2.91682 1.06066 2.91681 1.76776 1.59099 1.41422 1.14905-2.74004 0.97227-1.23744 3.27037-1.77932 2.81972c1.60626 0.24153 3.69146 0.93077 5.17497 1.5923 0.63598 0.2836 1.35774 0.90325 1.99038 1.19422 1.02929 0.47341 2.56934 0.68756 3.58267 1.19423 0.84444 0.42223 2.094 3.79277 2.07924 6.53262l1.94273-1.06995 1.36186-1.79191 1.2185-0.50174 0.62155-2.09529 1.11502-3.24371 2.02732-1.72322 0.91229-4.96693 1.11503-1.52048 5.16966-0.6082h3.95327l1.31775-2.23005 0.50683-4.05464-1.52048-1.01365-3.85191-3.04098-1.82459-1.31776-1.92595-3.34507 0.10137-2.43278 1.72322-1.82459 3.8519-0.91229 2.83825-1.31776 2.93961 0.50683 4.4601 2.12868 1.92595 2.02732 2.93961 1.72322 5.37239-0.50683 2.73688-0.91229 3.64918-3.44644 1.11502-3.24371 3.75054 3.14234 2.23005 0.6082 1.52049 0.10136 0.70956 1.82459 1.41912 1.52049 4.35873-0.40547 2.02732 1.2164 3.75054 2.63551 3.34507 0.3041 2.83825-1.21639 4.156-1.62186 4.156-0.50683 2.83825-1.21639-0.40547-2.12868-0.91229-4.35874-2.53415-2.93961-2.63551 0.20273-1.62185 0.81093-2.83825-0.60819 0.20273-1.21639 1.11503-0.50683 2.12868-1.11503 1.21639-2.12868 2.23005-0.40547 2.93961-0.50683 2.63552-0.30409 1.11502-1.11503 2.73688 1.52049-1.21639 2.43278 1.72322 0.40547-0.91229 1.92595-0.3041 0.3041 2.83824 2.53414 2.33142 0.40547 2.63551 3.64917 0.50683 2.53415 3.04098 0.91229 1.62185 0.60819 0.70957-3.2437 1.01365-3.44644 3.14235-1.31776 2.93961-2.73688 1.62185-1.31776 11.6096-16.1322-49.7232-28.1212-14.37-0.281337-4.47275 0.131791-3.43954-0.897271-2.84136-0.897272-0.59818-1.645-2.09363-0.747726-7.02863-3.29-16.1509-2.24318-5.83226 2.09363zm120.435 46.2495-0.40546 1.62185-1.52049 3.14235-2.73688 2.12868-2.53414-0.50683-2.12869-1.82458 0.10137-2.93962 1.72322-3.14234 2.23005-1.62185 2.43278 0.91229z"/>
  <path id="Ticino" d="m640.418 413.354-1.51 2.63218-3.01017 2.53983-4.32711 0.2822-1.12881-1.69321-2.6339-1.12882-7.43135-0.75254-2.06949-1.50508-4.32711-1.03475-5.2678 1.03475-3.29237 3.1983-1.41101 3.38644 0.65847 4.23304-0.2822 2.53983-1.22288 1.50509-5.01779 1.64775-3.74503 0.22489-1.58538 3.3574-3.66127 3.34967-0.93479 2.64858-1.24639 2.25908-1.55799 0.46739-3.03807-0.3116h-3.89497l-2.02538-0.54529 0.23369 4.28446-0.0779 2.88228-1.58475 6.33698 6.14537-2.95318 5.07573-0.84596 4.22978 1.48042 3.38382 6.34467 0.42298 2.74936-0.42298 5.49871v12.4778l0.63447 7.19063-0.84596 5.49871-2.74935 5.28722-2.96085 3.59531-0.84595 4.86425 3.59531 4.86424 1.26893 3.8068-0.42298 2.11489 0.84596 2.96085 4.65276 4.01828 5.92169 3.38383 5.92168 3.17233 3.38383 5.07574 5.7102 8.45955 3.38382 3.17234 0.42298 3.8068 4.21899 4.45088 1.94409 4.03772 2.39272 0.29909 2.9909 0.59818 2.09364 1.79454 2.84136 1.645 3.88817 0.44864 2.24318 1.64499 1.71032 0.81343 2.92559 1.28021 5.68271-4.935 3.47013 2.38819 3.10987 1.64954 2.9909 2.54226 1.645-0.89727 2.24318-1.94409 1.04681-1.19636 1.49546 0.44864 5.08453 5.23408 3.58909 4.33681 2.09363 2.99091 0.29909 3.14045-1.94408 2.09363-1.645 1.19636-0.7887 0.20037-0.21149 1.58617-0.52872 3.59531-1.58617 1.37468-4.01829 2.53786-2.53786 2.22064-0.9517 2.64361 1.26893 2.74935h1.37468l2.74936 0.42298 3.70105 1.37468 2.43212 2.64361 3.06659 2.64361 2.43213 2.64361 2.16776 0.50229 2.2735 1.29537 0.42298 2.8551 0.42298 5.39297 2.74935 3.91254 1.68284 2.21477 1.27801 1.59203v2.11489l1.69191 4.44127 2.96084 4.86424-0.42297 2.74936-2.74936 2.53787-2.53787 4.01828v2.11489l1.48043 0.21149 2.53786-2.53786 3.38383 0.21148 2.53786 2.53787 2.96085 0.63447 3.17233-0.21149 1.9034 0.84596 0.42298 3.17233 2.74935 0.84595 3.80681-1.9034 0.84595-5.07573 0.63447-2.96084 1.69191-3.59532 1.05744-4.22977 3.17234-2.11489 2.11489-2.32638 0.84595-2.96085-0.84595-0.63446s-2.32638-2.96085-3.17234-4.01829c-0.84595-1.05745-3.38382-2.53787-3.38382-2.53787h-4.44127l-2.11489-1.69191-0.63446-2.32638 0.42297-3.17233-1.48042-2.53787-1.69191-2.11489-1.26893-3.59531-0.42298-1.69191 1.48042-1.9034 1.9034-1.9034 2.32638-0.63447 0.0529-2.16776-0.26436-5.23435-1.05744-1.26893-1.26894-2.53787 0.21149-4.22978 1.69191-4.44127 2.32638-1.48042 4.01829-1.48042 4.22978-1.48042 1.9034-1.26894 1.48042-2.32637 0.84596-3.17234-0.21149-3.38382-1.69191-3.59531-0.63447-2.53787 1.48042-3.59531 6.13318-2.53787 4.22978-4.01829 2.53787-2.53786 1.9034-0.84596 2.11489-3.59531 2.15188-1.01152-3.8796-3.70342-4.13898-5.8322-3.57457-3.38643-4.89152-3.57458-0.75254-3.76271 0.75254-5.07965-1.88135-5.07966-3.01017-5.07965-1.31695-3.57458 1.69322-3.01016 1.69322-4.89153-0.18814-5.26779 1.12882-3.01016 2.25762-1.88136 2.06949-3.38644-1.12881-5.83219 0.18813-4.32712 1.50509-3.95084 0.5644-3.01017-2.82203-3.38644-0.75254-3.38644 1.88135-3.7627 0.47034-5.2678-3.29237-3.66864-3.4805-1.12881-2.16356-0.18813-3.29237-3.29237-2.44576-3.66865-2.72796-6.20846-0.37627-4.98559 0.8466-7.24322 2.16356-1.59915 3.01017-3.1983-0.56441-2.06949-1.03474-0.56441-3.85678-0.94067-3.10423-4.04491-1.88136-1.88136-4.51525 1.31695-3.76271-0.37627-0.5644-2.35169-0.37627-3.19831-0.47034-4.70338-0.56441-3.1983-0.65847 0.75254-1.69322 1.22288-5.92627 0.47034-3.29237 2.63389-1.12881 2.44576 1.97542 4.04491 0.84661 1.69322-0.0941 2.6339-2.53982 2.44576-2.72797 1.88135-2.72796 1.22288-3.85678 0.65848-3.85677 1.03474h-1.97542l-1.50509-0.84661-3.76271 2.82203-3.38643-0.5644-3.29237-1.88136-2.25763-1.22288-4.60932-0.84661-3.57457 0.75255-3.6137-0.16401-4.12399-1.86245zm66.1666 193.801 1.05745 1.05745 1.05744-0.21149 0.84596-1.05745 0.84595-1.26893-0.21149-1.58617-0.84595-0.31723-1.69191 1.69191z"/>
  <path id="Vaud" d="m272.333 280.07 5.20593 2.6372 3.88909 1.23743 0.76403 0.4176-0.94081 3.82504v5.48008l1.23744 1.59099 4.41942 7.77818 2.82842 5.83363-3.0052 2.65165-3.71231 2.82842-0.53033 5.30331-1.59099 3.35875-3.0052 2.82843-1.76777 2.12132-1.94454-1.23744 1.59099-4.06586-0.17678-4.94975-2.47487-1.76776-2.2981-2.47488-4.06587-3.35876-1.59099-4.24264-1.23743-4.77297-3.18198-1.59099-0.17678-0.17677-6.04746-4.9893-5.8e-4 -8e-3zm-56.8427 77.7673-1.94454 3.18198 0.53033 2.82843 2.2981 1.76777 1.76776-1.591 0.88389-3.53553-0.17678-3.0052zm12.0208 1.76777 3.88908-4.94975 2.12133-3.71231-0.70711-1.59099 1.59099-0.88388 2.2981 3.0052 3.18198 3.18198 1.06066 1.59099-2.82843 5.3033-1.94454 3.00521-2.12132-0.35356-2.2981-2.29809zm-3.18198 0.88388 2.65165 0.35356 2.29809 1.59099-1.94454 2.82842-2.2981 1.06066-1.06066-1.59099zm-135.58 130.285 5.88149 3.38655-6.22912 12.2202-0.68771-0.34685-4.45283-2.70948-5.12652-3.0052-4.17971-2.77752-1.20341-0.0435 2.74936-4.65275 2.53787-4.01829 0.211489-4.01829-1.48042-3.38383-6.55616-6.76764-6.76764-4.86425-4.86424-3.17233 2.11489-3.59531 0.845956-4.22978-0.422978-7.40211 2.53787-4.44127 3.59531-5.49871 2.96084-4.44127 2.74936-2.96084 3.8068-3.17233-1.26893-5.92169-2.11489-2.74936-5.7102-6.34467 2.53787-3.59531 4.86424-4.44127 22.8408-20.9374 4.22977-4.44127 4.44127-4.01828 5.07574-2.11489 10.1515-6.76765 7.40211-6.76764 0.63447-2.74936 1.9034-1.05744 4.86425-1.05745 3.59531-2.11489 2.96084-3.17233 2.96085-4.22978-1.26894-3.17233-3.38382-1.69192-1.48042-1.69191-0.84596-2.11489 2.11489-1.48042 0.42298-5.07573 0.21149-2.32638 2.11489-1.9034 3.23916-3.77448 16.4321-2.33165 9.19239-6.01041 5.65685-2.65165 7.77818-2.12132 3.71231-4.77297 6.54074-4.24264 5.3033-4.94975 3.18198-1.23744 2.29809 5.48008-1.41421 4.06586 3.18198 1.94455 0.70711 7.24784 2.65165 1.94455 2.50118 7.817 0.49852 11.1298 1.95005 1.55924 4.06586 3.00521-1.59099 1.06066 4.59619 3.35875 4.94975 2.12132 2.12132 0.35356 2.2981-1.23744 2.2981-2.47487 2.82842 1.76776 3.88909 1.59099h3.0052l2.12132-2.12132 1.06066-3.88908v-3.88909l0.88389-2.2981-1.23744-0.70711-1.76777 0.17678-0.53033 1.76777-2.47487-0.17678 1.76777-4.77297 0.17677-1.94454 2.2981-5.48008 2.65165-2.2981-3.35876-5.12652-3.35875 1.41421-0.17678-1.06066 5.12652-2.82843-2.47487-2.65165-2.12132 0.17678-5.21519-4.72611 7.65217-6.29734 5.3412 7.48792 4.77297 5.3033 4.06586 3.35876 2.12132 0.88388v5.3033l1.59099 3.53553-0.17678 6.18719-4.06586 3.0052-0.88388 4.24264-1.59099 5.65686-2.47488 2.82842-4.41942 4.94975-0.88388 2.65165 2.65165 2.2981-0.53033 3.71231-8.3085 10.253-6.18719 6.71751-0.35355 4.5962-1.41421 2.65165-3.35876 0.17677-1.59099-1.41421-2.12132-0.17678-2.65165 1.94455-3.53554 3.35875-1.59099 0.53033v6.18719l0.88389 5.65685v8.83884l0.7071 2.12132 3.18198-1.41422 1.76777-0.7071 1.41421 2.47487 3.35876-1.76777 2.82843-0.53033 3.18198 2.82843 3.18198 1.41421 3.0052 0.70711 1.46219 1.10856-0.93186 1.54309-3.0052 2.65165-1.76777 2.47488-1.23743 1.59099-1.59099 0.17677-0.88389 1.76777 0.17678 2.65165-3.53553-1.06066-3.18199-3.0052-3.88908-0.17678-0.88389 2.2981-0.53033 3.0052 3.00521 1.94454 0.88388 1.94455 1.59099 3.35876 3.53554 0.53033 3.88908-2.12132 1.94455-3.00521 3.88908-3.35876 1.41422 0.53033 2.47487 2.47488 4.41942 3.88909 4.06586 1.94454 4.5962 1.23744 0.35355 3.71231 1.59099 6.89429 1.23744 5.12652-0.70711 2.12132 4.24264-1.41421 3.18198-2.65165s3.18198-3.71231 3.00521-4.5962c-0.17678-0.88388 3.18198-4.41941 3.18198-4.41941l3.35875-3.18198 3.71231-0.88389 6.18719-0.7071 3.71231-2.2981 4.06586-4.41942 2.65165-4.24264 3.35876-1.76777 2.82843-1.59099 3.35875-2.82842 3.71232 1.94454 6.59765-3.45087 1.18052 4.15798 0.70711 6.18718 0.35355 5.65686-2.2981 3.35875-3.18198 4.06587s0.70711 4.24264 0.53033 5.3033c-0.17677 1.06066 0 4.41941 0 4.41941s-1.76776 1.94455-2.47487 2.47488-3.71231 0.53033-3.71231 0.53033l-1.23744 1.59099 0.17678 3.53553 2.12132 3.00521 0.17677 3.35875-1.76776 3.18198v7.42463l3.35876 3.0052-0.17678 2.82843 1.41421 6.36396-1.07566 2.87636-4.22764 2.95727-2.82843 2.65165 2.12132 4.59619-1.76776 3.18198-1.94455 3.71231-3.88908 5.65686-4.77297 4.41942-6.01041 5.83363-5.48008 4.41941-7.17295 4.3355-5.79167 4.14972-0.67028 0.66531c-0.7027-2.041-2.22767-4.55177-2.76741-6.64178-0.18798-0.72792-0.17658-1.74557-0.27674-2.49066-0.21277-1.58273-0.22953-3.77839-0.83022-5.25808-0.64982-1.60071-2.31467-3.3003-3.32089-4.7046-0.65771-0.91791-1.39933-2.26211-2.21393-3.04414-0.43188-0.41461-1.26423-0.65815-1.66044-1.10697-0.73715-0.83504-1.22033-2.29767-1.66045-3.32089-0.38397-0.89267-0.93836-2.08714-1.10696-3.04415-0.17285-0.98116 0-2.32462 0-3.32089 0-0.7472 0.1085-1.75138 0-2.49066-0.12587-0.85759-0.52331-1.95679-0.83022-2.76741-0.4209-1.11169-1.14552-2.52625-1.66045-3.59763-0.40209-0.8366-0.87026-1.99413-1.3837-2.76741-0.42339-0.63767-1.24707-1.29299-1.66045-1.93719-0.64198-1.00043-1.02543-2.59276-1.66044-3.59763-0.69279-1.09629-1.80279-2.4541-2.76741-3.32089-0.66797-0.60022-1.91639-0.97005-2.49067-1.66044-0.40434-0.48609-0.58409-1.35478-0.83022-1.93719-0.42014-0.99416-1.04431-2.29635-1.3837-3.32089-0.21528-0.64989-0.21618-1.61817-0.55349-2.21393-0.40494-0.7152-1.37569-1.33701-1.93718-1.93718-0.60294-0.64447-1.38953-1.52187-1.93719-2.21393-0.33758-0.42659-1.05372-1.47578-1.12661-1.59603l-3.34466-8.066-13.4241-1.05087-33.6181-7.41596-34.2612 1.69191-37.222 13.3238-17.7566 14.5996-7.13992-3.10253-5.29746-2.98903-4.77297-1.41421-1.06066 4.06586 2.47487 1.06066 3.88909 1.76777-0.353553 3.18198 2.65165 1.06066"/>
  <path id="Fribourg" d="m254.552 294.311 6.01682 5.01355 0.17678 0.17677 3.18198 1.59099 1.23743 4.77297 1.59099 4.24264 4.06587 3.35876 2.2981 2.47488 2.47487 1.76776 0.17678 4.94975-1.59099 4.06586 1.94454 1.23744 1.76777-2.12132 3.0052-2.82843 1.59099-3.35875 0.53033-5.30331 3.71231-2.82842 3.0052-2.65165-2.82842-5.83363-4.41942-7.77818-1.23744-1.59099v-5.48008l0.91536-3.80893 6.86282-2.0247 4.41942-0.17677 9.72271-1.59099 9.01561-4.24264 2.2981-1.41422 3.53554 3.88909 0.7071 3.53553-4.06586 2.65165-1.76777 2.2981 1.59099 5.83363 0.35356 5.83363-1.06066 8.13173 4.22784 0.30553c-0.0313-0.0106 0.82769 1.44216 1.35245 1.92661 0.3557 0.32838 0.9081 0.73992 1.3837 0.83022 0.49614 0.0942 1.16845-0.39066 1.66044-0.27674 1.39155 0.32223 2.55879 2.21111 3.87438 2.76741 0.85493 0.36151 2.13519 0.74159 3.04415 0.55348 0.29313-0.0607 0.5549-0.43599 0.83022-0.55348 0.70401-0.30042 1.73098-0.647 2.49067-0.55348 0.55276 0.0681 1.15678 0.59253 1.66044 0.83022 0.73947 0.34897 1.711 1.35334 2.49067 1.10696 0.4616-0.14587 0.43451-1.10484 0.83022-1.3837 0.69208-0.48772 1.92168-0.59328 2.76741-0.55348 0.86582 0.0408 2.02327 0.38575 2.76741 0.83022 0.80639 0.48166 1.85447 1.34614 2.21392 2.21393 0.28594 0.69032-0.0413 1.74461 0 2.49066 0.0416 0.75065-0.0489 1.81307 0.27674 2.49067 0.25431 0.52912 1.28967 0.80423 1.38371 1.38371 0.0595 0.36649-0.33085 0.80983-0.55348 1.10696-0.95109 1.26936-3.24036 2.14372-3.87437 3.59763l-0.89581-1.43566-2.47487-1.94454-0.70711-1.59099-1.94454 2.65165s-0.70711 1.59099-0.88388 2.29809c-0.17678 0.70711 2.47487 2.82843 2.47487 2.82843l2.2981 1.41421 0.74953 0.4834c-0.71511 0.62021-1.43248 1.68984-1.93718 2.49067-0.59388 0.94233-1.24983 2.28548-1.66045 3.32089-0.31953 0.80573-0.48 1.97454-0.83022 2.76741-0.3912 0.88565-1.35999 1.84701-1.66045 2.76741-0.28458 0.87174-0.18459 2.13178-0.27674 3.04415-0.0755 0.74799 0.10679 1.84405-0.27674 2.49066-0.517 0.87162-2.25041 1.06557-2.76741 1.93719-0.38353 0.64661-0.37787 1.7457-0.27674 2.49067 0.18042 1.32908 0.9931 2.98765 1.66045 4.15111 0.47098 0.82111 1.74168 1.56448 1.93718 2.49067 0.1414 0.66986-0.26942 1.59101-0.55348 2.21392-0.42048 0.92207-1.63251 1.80088-1.93718 2.76741-0.2496 0.79182-0.42103 2.05186 0 2.76741 0.43347 0.7367 1.90926 0.77605 2.50241 1.39527l4.97346 1.84297 2.82843 1.76776 4.24264 3.71231 2.65165 2.65166 0.17678 7.95495-0.53033 4.94974-3.00521-0.17677-1.59099 0.35355-3.71231-1.59099-3.0052 1.94454-0.53033 2.65165-0.35355 5.30331-0.35356 6.89429 3.35876 5.3033-3.53553 2.12132-5.30331-0.53033-3.53553 1.94454-4.77297 3.71231-2.77 3.61268-6.59916 3.45839-3.71232-1.94454-3.35875 2.82842-2.82843 1.59099-3.35876 1.76777-2.65165 4.24264-4.06586 4.41942-3.71231 2.2981-6.18719 0.7071-3.71231 0.88389-3.35875 3.18198s-3.35876 3.53553-3.18198 4.41941c0.17677 0.88389-3.00521 4.5962-3.00521 4.5962l-3.18198 2.65165-4.24264 1.41421 0.70711-2.12132-1.23744-5.12652-1.59099-6.89429-0.35355-3.71231-4.5962-1.23744-4.06586-1.94454-4.41942-3.88909-2.47487-2.47488-1.41422-0.53033-3.88908 3.35876-1.94455 3.00521-3.88908 2.12132-3.53554-0.53033-1.59099-3.35876-0.88388-1.94455-3.00521-1.94454 0.53033-3.0052 0.88389-2.2981 3.88908 0.17678 3.18199 3.0052 3.53553 1.06066-0.17678-2.65165 0.88389-1.76777 1.59099-0.17677 1.23743-1.59099 1.76777-2.47488 3.0052-2.65165 0.93186-1.54309-1.46219-1.10856-3.0052-0.70711-3.18198-1.41421-3.18198-2.82843-2.82843 0.53033-3.35876 1.76777-1.41421-2.47487-1.76777 0.7071-3.18198 1.41422-0.7071-2.12132v-8.83884l-0.88389-5.65685v-6.18719l1.59099-0.53033 3.53554-3.35875 2.65165-1.94455 2.12132 0.17678 1.59099 1.41421 3.35876-0.17677 1.41421-2.65165 0.35355-4.5962 6.18719-6.71751 8.3085-10.253 0.53033-3.71231-2.65165-2.2981 0.88388-2.65165 4.41942-4.94975 2.47488-2.82842 1.59099-5.65686 0.88388-4.24264 4.06586-3.0052 0.17678-6.18719-1.59099-3.53553v-5.3033l-2.12132-0.88388-4.06586-3.35876-4.77297-5.3033-5.35934-7.47006zm-15.2808 12.8374 5.21099 4.72726 2.12132-0.17678 2.47487 2.65165-5.12652 2.82843 0.17678 1.06066 3.35875-1.41421 3.35876 5.12652-2.65165 2.2981-2.2981 5.48008-0.17677 1.94454-1.76777 4.77297 2.47487 0.17678 0.53033-1.76777 1.76777-0.17678 1.23744 0.70711-0.88389 2.2981v3.88909l-1.06066 3.88908-2.12132 2.12132h-3.0052l-3.88909-1.59099-2.82842-1.76776-2.2981 2.47487-2.2981 1.23744-2.12132-0.35356-4.94975-2.12132-4.59619-3.35875 1.59099-1.06066-4.06586-3.00521-1.95005-1.55924-0.51942-11.1721zm-23.7804 50.6892-1.94454 3.18198 0.53033 2.82843 2.2981 1.76777 1.76776-1.591 0.88389-3.53553-0.17678-3.0052zm8.83884 2.65165 2.65165 0.35356 2.29809 1.59099-1.94454 2.82842-2.2981 1.06066-1.06066-1.59099zm3.18198-0.88388 3.88908-4.94975 2.12133-3.71231-0.70711-1.59099 1.59099-0.88388 2.2981 3.0052 3.18198 3.18198 1.06066 1.59099-2.82843 5.3033-1.94454 3.00521-2.12132-0.35356-2.2981-2.29809z"/>
  <path id="Valais" d="m575.026 455.193 1.58475-6.33698 0.0779-2.88228-0.23369-4.28446 2.02538 0.54529h3.89497l3.03807 0.3116 1.55799-0.46739 1.24639-2.25908 0.93479-2.64858 3.66127-3.34967 1.63381-3.35749-2.8023-0.45958-2.25908-1.24639-2.25908-1.32429-1.32429-1.94748-1.16849-2.72648-0.93479-2.18118-2.49278-4.05077-0.9348-2.02538 1.71379-4.98556 2.18118-5.68665 0.5453-10.6722-0.3116-2.33698-2.26534-1.45673-1.7903-0.48588-3.89009 4.35749-2.49278 3.42757-2.33698 4.05077-1.24639 5.60875v5.29715l-0.779 3.11598-3.58336 3.27177-3.11598 2.18118-3.58337 1.86959-1.40219 2.33698-7.47833 4.67396-4.82976 1.71378-10.2827 2.64858-5.29716 0.93479-3.58337-3.42757-6.38774-1.24639-5.92035-3.89497-4.51817-1.71378-3.89496 0.3116-4.98556-2.33698-3.73917-2.02539-3.11597 0.1558-2.80438 1.86959-3.89497 2.02538-4.36236 1.71378-0.77899 9.97112-7.01094 3.42757-2.18118 2.96018-5.29716 4.36236-5.76455 0.93479-9.50372 0.4674-12.9313 11.2175-14.8009 12.1523-4.51817-6.85514-7.78993-5.60876-5.60875-1.09059-2.64858 2.64858-2.18118 4.05077-2.96018 3.73916-4.98555-0.15579h-4.51817l-2.33698 1.24639-1.86958 1.86958 4.51816 2.96017-1.09059 1.71379-2.64858 2.80438-4.20656 2.02538-4.36236 1.40219-8.10153-2.64858-4.82976-1.09059s-7.94574 2.02538-8.56893 2.33698c-0.6232 0.3116-6.69934 4.98556-6.69934 4.98556l-4.51817 3.11597-4.51816 2.80438-2.80437-1.09059-1.40219-2.18119v-6.38774l-4.05077-0.779-3.89496 2.49278-2.64858 2.02539-0.77899 4.36236-1.24639 3.89497-2.96018 2.02538-5.85365-0.12792-4.22533 2.94916-2.82843 2.65165 2.12132 4.59619-1.76776 3.18198-1.94455 3.71231-3.88908 5.65686-4.77297 4.41942-6.01041 5.83363-5.48008 4.41941-7.17295 4.3355-5.79167 4.14972-0.67028 0.66531c-0.7027-2.041-2.22767-4.55177-2.76741-6.64178-0.18798-0.72792-0.17658-1.74557-0.27674-2.49066-0.21277-1.58273-0.22953-3.77839-0.83022-5.25808-0.64982-1.60071-2.31467-3.3003-3.32089-4.7046-0.65771-0.91791-1.39933-2.26211-2.21393-3.04414-0.43188-0.41461-1.26423-0.65815-1.66044-1.10697-0.73715-0.83504-1.22033-2.29767-1.66045-3.32089-0.38397-0.89267-0.93836-2.08714-1.10696-3.04415-0.17285-0.98116 0-2.32462 0-3.32089 0-0.7472 0.1085-1.75138 0-2.49066-0.12587-0.85759-0.52331-1.95679-0.83022-2.76741-0.4209-1.11169-1.14552-2.52625-1.66045-3.59763-0.40209-0.8366-0.87026-1.99413-1.3837-2.76741-0.42339-0.63767-1.24707-1.29299-1.66045-1.93719-0.64198-1.00043-1.02543-2.59276-1.66044-3.59763-0.69279-1.09629-1.80279-2.4541-2.76741-3.32089-0.66797-0.60022-1.91639-0.97005-2.49067-1.66044-0.40434-0.48609-0.58409-1.35478-0.83022-1.93719-0.42014-0.99416-1.04431-2.29635-1.3837-3.32089-0.21528-0.64989-0.21618-1.61817-0.55349-2.21393-0.40494-0.7152-1.37569-1.33701-1.93718-1.93718-0.60294-0.64447-1.38953-1.52187-1.93719-2.21393-0.33758-0.42659-1.05372-1.47578-1.12661-1.59603l-3.34466-8.066-13.4703-1.01507 0.90084 8.6214 0.84595 5.49871-1.48042 2.53786-2.32638 2.32638-4.01829 1.26894 0.84596 2.11488 2.53787 3.17234 1.69191 3.59531 1.26893 1.9034 1.69191 0.42298 3.59531 2.53786 1.48042 2.11489 1.48043 1.9034 2.96084 0.84596 1.9034 2.74936v5.07573l-0.84595 4.65276-2.74936 4.65275-4.22978 5.7102-2.96084 5.92169 0.63446 5.28722 0.42298 5.7102-3.59531 2.11489-2.96084 4.22978-0.84596 2.32638 2.11489 1.69191 2.32638 2.74936 5.7102-0.21149 5.92169-0.84596 4.22978 1.69191 5.07573 1.26894 1.69191 2.96084-1.48042 2.53787 0.63447 6.13318-0.42298 3.17233-2.11489 1.69191-0.63447 4.65276 0.21149 2.96084 2.53787-0.42297 1.48042-1.69192 1.48042-2.96084 0.63447-1.48042 3.59531-0.21149 1.9034 0.63446 1.9034 3.80681 1.9034 0.63446 2.74936 4.01829 3.59531 5.92169 4.65275 5.7102 3.38383 6.13318 1.05744 4.44127-1.48042 4.01829 3.38382 0.84595 3.38382 0.84596 0.42298 4.86424v4.65276l2.74936 2.96084s3.38382 4.86425 4.44127 6.13318c1.05744 1.26894 2.32637 4.01829 2.32637 4.01829l2.32638 3.8068 1.48042 4.22978 0.84596 1.9034 1.69191-0.21149 2.11489-4.01829 2.53787-2.74935 4.86424-0.42298 4.22978 3.38382 2.32638 2.96085 1.9034 0.42297v-4.44126l0.21149-2.74936 2.53786-2.32638h2.74936l3.8068-0.42298 2.31293-0.33884 2.99091-0.59818 1.79454-1.79454 2.39273-3.58909 1.19636-2.69181 4.50761 0.64949 5.06328 1.14505 4.01207-0.21149 4.36247 1.70695 3.88817 1.79454 1.79455-1.49545 1.79454-0.89728 2.69181-0.59818 1.49546-2.9909 3.88817-1.79454 4.78545-2.69182 2.09363-0.89727-0.59818-0.89727 1.49546-4.48636 2.09363-0.29909 2.09363-1.49545 2.09364-0.89727 3.58908-0.59818h2.69182l2.69181-1.79455-0.59818-2.39272 1.79454-3.58909 1.5909-0.40297 1.9034-0.84596 3.17233 1.48043 3.38383 3.8068 3.8068 0.63446 6.13317-1.05744 5.07574 0.63447 2.96084 1.9034 1.48043 1.9034 2.96084 2.11489 3.38382 2.11488 1.26894 5.28723 1.69191 0.84595 1.05744-0.42297 4.86425-2.32638 3.17233-0.21149 4.22978 1.26893 4.65276 4.44127 4.01828-2.74936 4.44127 0.84596 3.8068 0.21149 2.74936-1.48042v-1.05745l-0.63447-7.6136 1.26893-4.65276 4.01829-4.44126 4.22978-2.74936 17.3421-1.05744 2.74936-2.53787 2.53787-5.28722 2.11489-4.65276 2.96084-2.53787-1.9034-3.59531 0.21149-8.03658 1.26893-2.11489 3.8068-3.59531 5.7102-2.96084 4.44127-0.42298h3.8068l0.63447-2.96084 2.11489-3.59532 3.17233-2.74935 2.96084-0.84596 0.21149-1.69191-0.84595-4.65275 3.17233-2.96085-0.63447-4.01829-2.32637-2.32638-1.48043-5.07573-0.42297-3.8068-3.17234-4.44127-4.01829-3.38382-5.49871-2.74936 0.42298-3.59531 2.96084-2.74935 3.59532-5.49872 3.38382-3.38382 3.17233-1.26893 3.8068 0.42298 3.8068 1.48042 4.01829-1.05745 4.65276-5.92169 1.9034-3.17233v-1.9034l1.9034-1.48042 3.8068-1.26894 2.32638-3.8068 3.38382-2.11488 7.6136-3.17234 1.69191-3.38382-1.05744-2.96085-3.38383-0.84595-2.53786-2.32638 1.05744-4.22978 1.9034-2.53786 4.44127-1.05745 4.86424-3.38382z"/>
  <path id="Neuchtel" d="m284.856 260.623s-1.6038 0.33565-2.30667 0.4313c-0.69439 0.0945-1.64244 0.0587-2.32638 0.21149-0.72477 0.16186-1.65399 0.5307-2.32638 0.84595-0.79807 0.37418-1.79016 1.01369-2.53787 1.48043-0.77622 0.48454-1.83022 1.11179-2.53786 1.69191-0.62451 0.51197-1.44152 1.24099-1.90341 1.9034-0.51959 0.74515-0.87542 1.93059-1.26893 2.74935-0.36874 0.76721-0.90019 1.77066-1.26893 2.53787-0.39352 0.81876-1.26894 2.74936-1.26908 2.7263l5.18668 4.83718-17.7456 14.2648-7.67183 6.55738-7.60205 6.28339-24.3112 18.2854-2.48084-7.89633-2.65165-1.94455-0.70711-7.24784-3.18198-1.94455 1.41421-4.06586-2.29809-5.48008-3.18198 1.23744-5.3033 4.94975-6.54074 4.24264-3.71231 4.77297-7.77818 2.12132-5.65685 2.65165-9.19239 6.01041-16.4321 2.33165c0.71649-3.09183 0.14466-6.79997 0.14466-6.79997l0.63447-6.13317-2.53787-2.32638-2.74936-3.8068-2.53786-3.17234 3.8068-5.7102 5.7102-6.34466 3.17233-3.38383 1.69191 0.42298 2.74936-1.05744 4.65276-1.69191 5.7102-2.11489 6.13317-2.32638 2.74936-1.48042 5.7102-0.21149 1.9034-1.26894 2.96085-4.65275 2.96084-5.92169 3.38382-1.9034 2.53787-0.21149 2.53787-1.05745 0.21149-1.9034-0.63447-1.9034-2.53787-0.84595v-1.9034l0.84596-1.9034h3.38382l1.05745-1.69191 0.84595-1.69191 0.42298-2.96085 1.05744-0.84595 3.8068 0.21148 3.38383-0.84595 0.84595-1.9034-1.9034-4.01829 0.94902-0.2752c0.60517-0.37924 1.43218-0.8787 1.93718-1.3837 0.50501-0.50501 0.85895-1.45274 1.38371-1.93719 0.3557-0.32838 0.91255-0.719 1.3837-0.83022 1.05352-0.2487 2.55612 0.57174 3.59763 0.27674 1.08648-0.30774 2.11755-1.56851 3.04415-2.21392 1.22814-0.85545 2.95521-1.86744 4.15111-2.76741 1.12967-0.85013 2.54563-2.0996 3.59763-3.04415 1.79149-1.60852 4.86314-3.32184 5.80524-5.47716l4.62867-0.0787 2.57068 2.77516 1.71379 3.72943 0.46739 5.92035-1.09059 4.20657-2.18118 2.80437 0.6232 3.73917 3.58337-1.55799 3.42757-1.55798 4.36236-2.18119 5.14136-2.49277 8.41312-1.09059 5.92035-0.1558 1.71379 1.09059 7.01094 3.73917 6.54354 4.36236 0.9348 3.27177-0.3116 3.73917-0.93479 4.82976z"/>
  <path id="Geneva" d="m91.2139 484.048 7.137 3.09445-3.71937 7.01839-5.88554-3.38689-2.6557-1.061 0.353553-3.18198-3.88909-1.76777-2.47487-1.06066 1.06066-4.06586 4.77297 1.41421zm-17.2583 13.494-1.20341-0.0435-2.53787 2.32638-0.634466 5.28722-1.26893 1.48043-1.48042 2.96084v3.38382l1.69191 2.11489 0.211489 3.59531-1.05744 2.11489-2.32638 1.05745-3.59531 1.26893s-2.53787 0.21149-3.8068 0.63447c-1.26893 0.42297-1.9034 0.63446-1.9034 0.63446l-1.9034 1.69192-2.11489 0.21148-3.17233-0.21148-1.48042-0.21149-1.9034 0.63446-1.48042 1.69191-1.26893 1.9034-1.05744 1.48043-2.74936 0.63446-2.11489 3.38383-0.634467 1.9034 1.9034 1.05744 1.9034 0.63447 0.634467 1.48042-0.211489 3.59531-1.26893 3.17234-1.48042 3.38382-0.422978 2.32638 4.22978-0.21149 4.22978 0.84595 4.22978 1.05745 1.9034-3.17234 1.69191-1.48042 1.48042-0.21149 2.74936 0.84596 4.65276 0.21149 3.8068 0.84595 3.38382 0.42298 2.32638-1.05744 1.9034-1.69192 2.96084-1.69191 2.74936-1.26893 2.74936-1.9034 2.96084-3.38382 2.53787-2.96085 2.96084-3.38382 2.11489-2.11489 3.38382-0.84596 2.96084-1.48042 3.59531-1.48042 2.96085-1.48042 1.69191-2.53787 1.48042-1.69191-0.21149-2.53787-0.21149-1.9034-1.9034-1.05744h-1.26893l-0.42298 1.26893-1.9034 0.63447h-2.96085l-1.9034-1.9034-3.17233-2.32638-1.92239-3.97082-4.63377-5.1232-0.68771-0.34685-4.45283-2.70948-5.12652-3.0052z"/>
  <path id="Jura" d="m344.099 134.651c-1.77805-0.22588-4.14641 0.0611-5.9341 0.19002-1.07861 0.0778-2.5204 0.19549-3.58267 0.39808-0.66876 0.12754-1.53072 0.42497-2.18941 0.59711-0.71459 0.18674-1.6842 0.37456-2.38846 0.59711-0.79303 0.2506-1.83998 0.6306-2.58748 0.99519-0.62587 0.30527-1.45836 0.74494-1.99038 1.19423-0.42059 0.35519-0.86829 0.94961-1.28523 1.47914l-3.31245-1.92271-1.69191-2.32638-4.22978 0.42298-4.22978-1.9034-4.01829-1.26893-1.26893-1.05745v-4.22977l1.48042-3.38383 2.11489-3.17233v-3.38382l-3.17233 1.26893-3.38383-1.05744-1.69191-2.11489-3.17233-2.32638h-2.96085l-3.59531 1.48042-4.01829 1.9034-5.92169-1.26893-5.28722-1.26894-3.59531-1.69191-5.28722 0.42298-2.11489 1.26893-1.05745 1.9034-0.63446 2.74936 2.53786 4.01829 1.48042 3.8068-1.05744 2.11489-2.96084 0.84595-3.59532 2.53787-1.9034 1.69191-2.53786 0.63447-1.26894 1.9034-1.05744 4.65276-1.69191 0.84595-2.53787 2.11489-0.63447 4.01829-2.74935 2.53787-1.26894 3.17233 0.84596 4.01829 9.30551 0.42298 4.01829 0.21149 3.8068-1.48043 3.17234-1.48042 4.65275-1.26893 4.65276 0.42298 1.9034 1.69191 2.32638 2.32638 2.53786 4.65275-1.48042 1.69191-0.21149 2.11489-1.26893 2.11489-4.44127 1.05745-2.32638 2.11488-1.26893 2.96085-0.49914 2.68089c-0.38665 0.20017-2.02371 1.20892-2.51729 1.52674-0.5964 0.38403-1.51597 0.70366-2.21393 0.83022-0.73521 0.13332-1.78181-0.23629-2.49067 0-0.78762 0.26254-1.50769 1.22397-2.21392 1.66044-0.47375 0.2928-1.12546 0.67543-1.66045 0.83023-0.80149 0.23191-2.11568-0.24423-2.76741 0.27674-0.20507 0.16393-0.23469 0.57107-0.27674 0.83022-0.0532 0.3278-0.12708 0.80015 0 1.10696 0.22466 0.54237 1.15905 0.84134 1.38371 1.38371 0.47657 1.15054 0.0518 2.90685 0 4.15111-0.0415 0.99886-0.29734 2.32138-0.27674 3.32089 0.0138 0.66921 0.29039 1.54472 0.27674 2.21393-0.0103 0.5049-9e-3 1.232-0.27674 1.66044-0.37806 0.60591-1.41037 0.90151-1.93719 1.38371-0.56462 0.5168-1.11214 1.40311-1.66045 1.93718-1.22606 1.19422-3.05009 2.58216-4.42785 3.59763-1.20481 0.888-3.04789 1.75596-4.15111 2.76741-1.17553 1.07775-2.43238 2.82674-3.32089 4.15111-0.47621 0.70982-0.92393 1.77009-1.38371 2.49067-0.60741 0.95194-1.3523 2.31425-2.21392 3.04415-0.5666 0.47998-1.49122 0.93635-2.21393 1.10696-0.48481 0.11445-1.20023-0.19063-1.66044 0-0.54237 0.22466-1.38371 0.79665-1.38371 1.38371s0.80864 1.26566 1.38371 1.3837c0.43796 0.0899 0.99407-0.77274 1.3837-0.55348 0.44011 0.24766 0.23509 1.15716 0.27674 1.66045 0.0411 0.49643 0.19622 1.20258-6e-3 1.7181l4.62867-0.0787 2.53173 2.7362 5.8035-0.67187 3.27178-2.10328 4.75186-4.20657 2.72647-2.64857 5.92035 0.62319 3.11598-0.3116 1.55798-2.49278 0.3116-2.49277 5.92035-0.9348 3.73917-4.98555 3.11597-6.85515 0.6232-3.42757 7.47833 1.55799 13.0871-0.93479-1.24639-6.54355 3.73917-2.18118-0.3116-4.36236 1.55799-3.42757 3.73917-0.6232h4.05076l3.11598 3.42757 5.92035 1.24639 7.16674-0.31159 6.23194-1.24639 5.29716-2.80438 5.29715-4.36236 3.73917-4.98556 1.55799 0.62319 0.93479 4.98556 4.36236-0.3116 9.03633 0.9348 5.29715 0.62319 6.23195 2.18118 3.42757-2.49278 3.11597-3.73916h6.54355l2.16288 0.26616 0.3299-2.83684-6.77725 0.0779-0.70109-1.55799-1.48009-3.58337-0.38949-3.03807v-4.44027l-4.36237-0.46739-5.45295 1.40219-6.23194-1.40219-2.92123-4.81028-1.83064 0.29212-2.92122-0.5453-1.59694-2.41488-5.21926-4.67396-1.09059-1.94748-0.37808-2.06552-5.62016-0.50516-4.12867-3.81707z"/>
 </g>
 <metadata id="metadata862">
  <rdf:RDF>
   <cc:Work rdf:about="">
    <dc:title/>
   </cc:Work>
  </rdf:RDF>
 </metadata>
</svg>
