<?xml version="1.0" encoding="UTF-8"?>
<!-- Generator: Adobe Illustrator 22.0.0, SVG Export Plug-In . SVG Version: 6.00 Build 0)  -->
<svg id="svgdata" version="1.1" xml:space="preserve" xmlns="http://www.w3.org/2000/svg" xmlns:cc="http://creativecommons.org/ns#" xmlns:dc="http://purl.org/dc/elements/1.1/" xmlns:rdf="http://www.w3.org/1999/02/22-rdf-syntax-ns#"><g id="outlines"><path id="Córdoba" class="st1" d="m237.6 301.3-11.5 0.1 0.2-2.7-1-1.5-0.1-1.3 1.1-2-0.2-1.7-6.6-3.5-0.4-1.3v-3.4c-5.7-0.5-11.5-1-16.9-1.7l-1-0.5-0.3-1.9-2.4-0.4-1.6 0.6-2.6-0.1-3-1.4-2.2-0.1-1.3 0.6-1.5-1.5-4-1-10.3 0.2-7.8 1.1-2.5 0.7 0.6 3.2 1.9 6-0.6 3.1-6.1 5-6 1.1-10.5 27.7 1 30.2 5.8 1.2 4.9 4 3.1 4.1 1.5 5.1 4.8-0.5 0.9 0.6-0.1 1.2 0.2 1.5 0.9 0.6 0.4 1.9-1.1 2.2-0.2 2.6 0.2 3.5-0.8 2.3-0.4 2.7-0.8 3.1v2.5l-1.3 2-2 1 1.1 14.2c0.7 13.5 1.3 28.5 2 43 16.1-0.6 32.4-1.2 46.2-2l-0.3-20 13.3 0.2 17.9-31.2 3.8-5.2 4.9-4.9 1.1-3.1 0.4-2.5-1.2-4-1.2-5.5-0.9-3.5-1.6-3.4-2.4-4.3-2-3.4-1.7-2.3-0.4-2.1 0.4-1.4 2.1-3 0.3-2-1.3-3.1-0.4-1.4 0.6-2.8 3.5-10.2 5.1-16 0.6-1.4z"/><path id="Santa Fe" class="st1" d="m219.6 432.1 29.7 0.1 21.7-27.1c1.7-2.1 4.2-1 6.4-0.2 1.5 1 2.9 1.4 3.8-0.9l4-5.6 2.2-3.2-5.4-4.7-4.1-4.9-2.3-6.2-0.2-4.6s-0.6-1.4-0.5-1.7 0.1-6 0.1-6 0-2.3 0.5-2.9c0.5-0.7 1.4-4.9 1.5-5.5 0.2-0.6-0.7-4.5-0.7-4.5l0.5-4.3 6.9-6.9 6.3-3.4 3.9-5.2 6.2-13 5.9-11.1-0.2-4.5-0.9-6.8 1.3-6.9 0.2-3.6-1.6-3 1.5-5.5 0.9-8.4s1.7-3.8 1.9-4.2 4.9-2.8 4.9-2.8l3.9-4.3s1.4-3.4 1.4-4.9 0.5-5 0.5-5.7 1.3-2.9 1.3-2.9l0.2-7.7 1.1-4.9 1.7-3.4 2.8-2.8v-0.5l-77.1-0.5-1 10.1-1.5 11.1-1.6 10.2-3.6 24.2-4 19.4 9.6 13.3-0.7 2.4-8.2 25.6c-0.6 2.1-0.6 4.1 0.4 6.2 1.2 2-0.1 3.2-0.9 4.6-1.1 1.5-1.4 3.1-1.1 4.8l8.2 12.9 0.2 2 0.2 2.1 0.9 2.7s0.5 1.8 0.6 2.3 1.1 3.4 1.1 3.4l-0.1 2.6-0.8 2.5-0.5 1.6-5.9 5.7-2.9 4.2-2.6 5-5 7.9z"/><path id="Chaco" class="st2" d="m249.5 226.7 77.2 0.5 1.1-2.9 0.1-4.3 0.1-5.4-0.8-2.6s1.1-4.1 1.2-4.7 5.2-3.3 5.2-3.3c0.1-0.8 0.3-1.8 0.4-2.9-0.8-2.4-0.5-3.3 1-5.2 1.1-0.8 2.6-1.1 2.3-3.7l3.1-2-1.8-2.5-1.9-2.2c-1.8 0-3.2-2.3-4.7-3.8 0 0-4.2-4.5-4.4-4.9s-4.3-3.9-4.3-3.9l-6.3-1.9-2.6-0.5c-1.9-0.7-3.3-2.9-4.7-4.9-2.5-2.5-4.7-0.4-6.5-2.4 0.2-1.1 0.5-2.1 0.2-3.7l-2.4-2.4-1-3.3-4.1-3.2-6.4-3.8-0.3-3.5-2-1.6-2-2.1-1.3-1.6-1.4 0.1-1.2-3.4-4.9-3.5-7.7-4-2.2-3.6-4.1-2.5c-0.3-4.2-2.3-4.5-4-5.6h-3l-7.7-7.3c-3.6-0.1 0.8-3.1-3.1-4.1 0.1 1.2-4.7-1.1-5.4-2-1.7-1.3-4.8-1.1-7.4-1.4l0.2 8.3-29.9 41.7 47.3 0.1z"/><path id="Jujuy" class="st3" d="m119.5 26.6c-2.1-1.2-4.2 0.2-4.2 0.2l-0.2 5.4 0.2 2.7c2.8 2 1.4 3.2-1.3 4.5l-2.6 0.8c-1.8-0.1-2.5 0.8-3.3 1.7l-0.7 1.9c0.2 2.5-0.8 2.6-1.6 3.4-1.6 0.6-3.8 0.9-3.9 2.6l-1.5 2.6-3.4 2.5-2.5 1.9-1.5 3 2 3.6c2.7 2.3 4.2 4.5 3.9 6.2l-0.4 5.8-0.8 5.7-2.3 6-1.4 5.5 4 1.7 3.4 3.4 4.3 3.3 2.4 3.5 3 1.1c2.1-0.4 4.1-0.3 6.2-1.4l1.6-1.4-0.1-2.7-0.6-2.8-0.1-5.8-0.6-5.1-0.8-0.9c-0.5-0.6 0.8-7.8 2.1-6.9l8.9 5.4-0.7 3.4-0.4 5 1.3 3.7c4.7 0.1 4.7 2.9 6.5 4.7l2.3 4.6 2.4 6.1c3 1 6 1.9 9.1 2.2l3.3-0.1 3.9 3.2c0.6 0.9 2.1 0.9 3.7 1 2.2-1.9 1.6-4.6 3.8-3.6 5.3 1.8 5.1 2.4 6.6-1.5l2.9 0.1 1.9-3.2c2.4-0.7 3.5-3 5-4.7l1.6-2.9-0.2-20-7-0.1-3.2 3.4s-1.2-1.5-1.4-2c-0.3-0.5-1.4-1.5-1.4-1.5-1.5-1.3-3.3-1.1-5.3 0l-2.8-0.3-1.4-1.5-1.6-2.1-1.6-2.3-0.6-1.3-0.1-1.6c2.5-3.6 1.2-7.8-1.6-7.6-1.6 0.1-2.7-0.3-3.3-2.2l-1.4-2.9-1.4-3.2c0.6-0.7-0.3-1.4-1.3-2.1-1.7-2-0.5-2.7-0.6-4l1.9-4.5 0.5-4c1-1.8 3.6-3.5 1.7-5.6l-2.7-0.1c-1.6-1.6-3.2-0.6-4.8-0.4l-1.3 0.7-5.1-0.6-2.5-0.1c-1.6-3.4-4-3.2-6.4-2.9l-2.2-0.1c-0.1-3.4-2-5.1-4.3-6.5z"/><path id="Salta" class="st3" d="m60.4 139 1.7-1.8 0.4-0.8-3.4-4.2-2.6-4.7 0.9-3.4 5.1-5.5-0.4-3 1.1-1.1 5.3-3.2 19.3-9.4 4.3-2.1 1.6-6.8 3.6 0.7 3.7 4 4.9 4 1.8 2.5 2.4 1.7 4.3-0.5 4.4-2.2-0.7-11-0.9-5.9c-0.9-2.7-0.2-4.5 0.2-6.4l1.7-0.4c3.1 1.5 5.4 2.5 7.5 4.3l0.6 3.2-0.4 5.6 0.4 3.2 1 0.7c1.9-0.4 3.2 0 3.8 1.2l3.2 4.9 3.5 6.9c0.5 2 2.4 3.3 5.7 3.7l5.1 0.6 2.7 0.5 3.9 3.4 3.3 0.6 0.8-2.5 1.3-1.5 2.8 0.3 1.7 1.3 1.4 0.1 1.8-2.2 3-1.1 1.3-2.2 1.8-1 2.8-3.4 2.7-3.5-0.3-19.9-2.3-0.5h-3.7l-1.3 0.2-1.8 2.8-1.3 0.3s-1.2-2.2-1.4-2.8c-0.3-0.5-2.4-1.4-2.4-1.4l-3.5 0.6-2.8 0.4-1.3-1.7-2.2-2.8-2-2.5-0.6-2.7 1.3-3-0.2-3.2-1.8-1.7-2.4-0.3-1.9-2.8-0.5-1.8-1.7-2.3-0.1-1.9-1.1-1.1c-1.7-0.8-1.4-2.2-1.3-3.5l2.1-3.9 0.7-2.1c-1-3.9 1.9-5.5 1.9-8.7l4.1-1.2 3.8 0.8 2.6 1.8 3.2 0.7 2.6 1.8 2.4 2.8 0.7 2.2 1.6 2.6c-0.7 2.7 0.4 6.1 3.3 10.4l2-3.9s0.7-4.3 0.6-4.7 0.1-3.5 0.1-3.5l4.2-5.3 3.2-7.3 8 0.3 2.2 3.1 2.6-4.3 19.5 1.4 1.3 2.1 3.4 2.7c2.4 2.2 4.9 4.8 7.3 7.9 1.5 0.1 3.4-0.5 4.2 0.6l0.1 3.1 0.1 59-32.2 45.4-7.5-1.3-8.6-0.3c0.1 2.8-2 2.4-4.4 1.7-1.2-0.5-2.4-0.7-3.4 0.4 0 0-0.3 3.1-0.3 3.8s-0.3 2.3-0.3 2.3c-1 0.8-2 1.7-1.4 3.1-1.5 1.8-1.1 5.3-3 7.1-0.6 0-5.3-0.4-5.3-0.4l-3-0.5-2.3 1.4c-1.5-1.2-3.1-0.9-4.6-1l-4.9-1.2-1.1-1c-2.4-4.2-3-2.1-4.4-1.4-1.1 1-2.4 0.6-3.7 0l-3-1.1-0.7 1.5 1.2 3.2v2.8l-1.7 1.4-2.6-1.2-4.9-2.5-2.2-0.3-2.4-2.2c-1.6 0.1-2.4 0.9-3.4 1.8 0 0-1.1 3.2-1.2 3.7-0.6 1.4-1.7 3.3-3 2.5-1.1-0.6-2.9-5.2-2.9-5.2-4-8-2.2-5.4-6.9-9.6-1.3-1.2-1.1-5.2-1.1-5.2s0-1.8 0.7-2.5c0.7-0.6 4.1-0.3 4.1-0.3s1.9 0.8 2.6-1.5 0.2-10.5 0.2-10.5l-11.2-0.6-15.6 0.3-8.8 0.7-7.6-1.3-5.1-0.9z"/><path id="Catamarca" class="st1" d="m151.7 297.3 6.5-1.8c2.4-2.1 4.4-3.9 5.8-5.2-0.6-4.1-1.6-8.1-2.4-12.2l3.3 0.3-0.3-6.3c-0.8-1-0.9-1.9 0.4-2.6l-0.6-1.5-0.8-2.1 0.1-3.6c-4-1.7 0.5-5.6-5.5-8.7-3.9-1.5-0.8-5.6-0.9-8.6l-0.9-11.2-1.6-1.6-0.6-4.6-0.7-2.8c-1.5-1.8-3.1-4-5.1 0.6l-2.4 1.9-2.1 0.1c-0.5-1.6-2.1-2.3-2.2-3.6-0.1-2.8-1.5-4.6-3.3 0.1l-1.3-3.7-2.6-5.7v-3.3c2.5-3.7-0.9-4-2.3-5.7-6.8-0.8 0.6-6.2 1.1-9.2 1-2.8 1-6.3 1.4-9-2.8-1.3-5.8-3.1-8.1-3.5-1.8-1-0.6-3.4-0.2-5.4 2.8-8.1-1.6-14.1-5.5-5.1-1.1 2.3-1.8 5.4-4.2 2.2-1.6-3.3-3.1-6.6-4.9-10.1l-3.8-2.4-1.2-6c-0.3-3.6 1.6-3.2 3.3-3.1l3.3 0.5 1.1-3.8-0.2-7.5-0.5-0.9-12.7-0.7-13.6 0.6-10.1 0.6-7.1-1.9-8.5-1.7c-3.1-0.6-4 0.6-3.5 4 0.1 0.4 0.1 2.9 0.1 3.3s0.2 5.6 0.2 5.6l0.9 2.9 2.9 3.6c-0.5 2.4-0.5 5.1 1.3 8.6l0.4 5-5.1 5.7v5.2l7.5 10.9c1.5 1.5 1.2 3.7-2.1 6.6-0.9 0.2-7.2 1.2-7.6 1.3s-4.7-1.8-4.4 1.8c0.3 3.7-0.1 7.9-0.1 7.9l-3.9 5.5-1.1 3.9-0.2 3.2 4.8 0.6c3.3-0.3 6.6-0.7 9.6-2.7 2.2 0.1 2 0.9 2.1 3.1 1.1 2.7 2.3 1.8 2.2 5.5 0.8 3.8 6.9 3.4 11.6 4.2 1.8 1.9 3.6 3.9 4.9 6.6 2 0.9 4.1 0.8 6.5-1.2 1.5 0.7 0.4 1.1 3.6 2.9 3.6 0 9.2 3 8.3-4.3 0 0 0.7-2.3 1.5-2.3 0.9 0 11.2 1.6 11.2 1.6l2 1.5 2.4 4 2.5 3.1 0.9 1-0.7 4.8 0.4 2.6s1.7 1 2.5 1.1 3.3 2.2 3.3 2.2 2.6 0.8 3.3 1.1 12.7 12.2 12.7 12.2l1.1 7.9 5.6 10.1c1 2.2 1.8 4.7 2.3 7.6z"/><path id="La Rioja" class="st3" d="m50.8 224.7h-3.3l-0.4 2.6-1 1.9c-1.4 1.9-3 3.9-3 5.8-0.3 2.1-2 3.9-3.6 5.7l-2.4 3.4 9.8 11c7.6 6.5 7.1 1.5 7.9 11.4 3 2.2 1.4 3.2-0.4 4.1 0 0-0.6 6-0.7 7.5 0.7 2.1-0.5 5.2 4.1 5l5.4-1 6.8 2.6 7.4 6.3 9.9 9.7 5.9 8.5 1.5 1.6 2.5 1.2 2.6 0.4s0.8 1.3 1.2 1.4 5.2 6.1 5.2 6.1l-0.3 4.1 0.4 6 0.8 3.3 0.5 2.6 0.8 4.1 0.1 2.6c2.7 5 5.5 10.3 6.9 12.9 1 3.1 3 2.6 5.4 2.3 2.6-0.2 5.4 4.2 5-0.4 1.1-2.1 3.1-0.6 4.9-0.1 1.1-0.9 2 0.9 3.7-1 1.1-1.2 5.1-1.4 7.6-1.7l-1-31.6 10.7-26.2-0.7-2.6c-0.6-3.5-2.8-6.4-4.6-9.4l-2.4-4.7-1.1-2.7c0.4-1.8 0.6-3.5 0-4.7-2.7-5.2-8.3-7.9-12.5-12.9l-4-1.8-2-1.7-3.2-0.4-0.8-0.8 0.4-8.2-1.3-1.2-1.3-0.7-2.3-4.4-1.8-2.4-6-1.2-7.5 0.1c-0.5 3.9 0.9 8-6 6.3l-3.5-0.8-1.7-1.9h-2.1l-2.4 1.4c-6.7 0.3-2.7-9-15.6-8.3-5-0.9-3.5-3.3-3.9-5.2l-1.8-2.9c0.2-2.1-0.2-3.8-3.3-3.8l-4.4 2.7z"/><path id="San Juan" class="st3" d="m29.2 381.4 2.2 1.2 2.2-1 2.3-0.2c1.6 0.5 3.2 0.8 4.6-1.6l0.3-5.1 0.6-2.2 3.1-3.7 2.8-2.1c3.3 0.5 3.7-1.3 3.5-3.6l2.6-0.2 3.1 0.8 4.2 2.2s0.3 1.7 0 2.6c-0.6 3.1 1.1 4.3 5.4 3.4l2.9-0.1c3.2-2.2 4.1-6.7 10.3-6l3.2-0.4 1.3-0.9 1.3 2.1 2.1 2s3.3 1.6 3.7 1.6 2-0.2 2-0.2l1.9-0.5 0.6-2 2.8 1.2 2.2 2.2c3 2.7 2 0.4 2.4-0.1l-1.3-2.8-1.7-2.5-0.5-9.6h16.2l-1.3-5.2-4.5-7.5s-0.8-3.4-0.8-3.9-1-5.8-1-5.8l-1.3-5.1-0.1-8.2c-2.1-3.3-4.2-6.6-8.6-8.8l-3.3-0.7-6.8-9.8-10.3-10.4-7.7-6.1-2.7-1.4-1.8-0.6h-3.3l-3.2 0.2-1.3 0.5-1.9-0.4-1.3-2.1 0.1-4.1 0.5-6c3.8-1.4 0.4-2.9 0.1-4.3 0 0-0.3-2.4-0.4-2.8 0.5-2.6-0.5-3.9-2-4.8-1.1-0.1-2.2-0.4-5.3-3.3-2.6-2.6-3.8-4.4-5.5-6.5l-2.7-2.8-2.4-1-1.6 1.5-0.1 2.9c0.6 2.2-0.3 3.9-1.4 5.6l-0.6 2.7c-0.3 2.1-0.3 4.2-1.1 6.2l0.3 2.7c1.2 4-1.6 4.3-2.4 6.7l-2.1 2.2-0.8 0.6-0.3 2.7 1.7 3.8s0.8 1 0.8 1.6v3c0 0.4 0.9 3 0.9 3v3.4c0 0.4-0.6 4-0.6 4.6s0.1 2.2 0.2 2.7c2.1 0.5 3.5 0.6 1.3 4.6l-0.9 2.3c-0.4 1.3 0.1 3.8-3.3 1l-1.7 1s-1 1.1-1 1.5 0.4 2.7 0.4 2.7l-0.3 2.7-2.5 3.8-0.7 7.5 1.2 4-4.9 5.2-1.1 5.6 0.2 5.1 1.1 4.7 1.4 3.1s0.7 0.6 0.8 1.3c0.8 2.9 2.8 3.1 4.9 3l1.2 1.7 0.1 2.2-1.5 1.8c-2.6 2.2 0.1 3.2 0.9 4.9 0 0 2.9 2.6 3.2 3s0.2 3.8 0.2 3.8c0.3 1.2 2.8 1.5 0.6 4z"/><path id="San Luis" class="st1" d="m125.1 488.3 1.6-3.9 0.9-19.4-0.2-5.8-0.8-2-0.3-5.9-3-5-1.6-2.7-1.2-5.7-0.4-2.4-1.7-1.6v-2.5l1.8-5.4 0.2-4.2-4.8-3.3-3.3-3.9-0.7-4.2-3.9-9.7-1.3-6.5-0.4-6.6-0.7-7.1-2.4-4-0.2-3.2-3-4.2-0.7-13 16.4-0.3 2.3 2.7 3.8-0.5 3.5 1.5 0.9-0.3 0.2-2.3v-0.9l2.6 0.2 3.8 1 1.5-0.3 1.7-1.7 6-0.6 5.3 1.1 4.6 3 3.3 3.8 2 4.6 0.4 2.4 5.3-0.5 0.7 0.8-0.5 1.5 1.5 2.2v1.2l-0.7 1.5-0.6 4.1 0.3 3.5-0.9 1.5-0.3 2.7-0.8 3-0.2 3.3-0.7 1.4-2.7 0.9 1.4 19.3c1 23 2.2 47.6 3.1 71z"/><path id="Mendoza" class="st1" d="m32.1 499.1 1.8 5.6 1.1 2.3-0.2 1.9 2.2 1.4 1.5 2.6 4.3 3 8.7 8.7 0.4 2.7 1 2.1 3.5 2.2 3.7 0.9 6.9-0.4 3.3 4.1 1.6 1.4 6.5-0.2 2.6 1.7 2.8-0.2 3.9 2 1.8 1 0.5-0.5-3-42.9-1.7-3.1-0.4-5.7 2.8 0.2 36.5-1.4 1-0.5 1.4-3.9 1.1-19.6-0.2-5.6-0.7-1.3-0.7-6.5-4.4-7.9-1.5-7.7-1.4-1.9-0.4-2.2 2-5 0.2-5-4.9-2.9-3.5-4-0.3-4-4-10.1-1.3-5.8-1.1-14.4-2.3-4-0.3-3-3.2-4.2-0.9 0.4-7.3-0.7-6.1-2.9 0.1-2.5-1.5-1.6-1.3 1.3-5.2 0.5-7 6.1-2.2 2.3c-2.4-0.1-4.9-0.2-7.3-0.3l-0.5-5.8c-1.6-1-2.8-2-7.6-3.8-1.4 0.6-2.7 1.2-3.9 4.2-3.9 0.7-4.9 2.2-7.2 5.3-2.9 3.5-0.6 7.6-3.4 10.1-3.4-2.2-7.7 2.4-9.7-0.5-1.1 1.6-1 2.9 1.3 6.2 3 3.9 2.2 8.2 3.2 12.4 0.5 1.8 0.6 3.7 1.7 5.5 1.2 0.2 2.1 0.7 4.5-0.4 3.8 1.5 1.7 5.7 1 9.2l0.1 4.7-0.3 3.4 1.1 4.7c0.3 2.3 0.6 4.9 1.2 6.4l-1.6 1-2.6 4.5 0.8 3.7-2.1 2.6s-1.6 2.3-1.5 2.7-1.1 2.6-1.1 2.6-2.2 1-2.3 1.4-0.6 2-0.6 2l1.6 1.8 0.4 1.6-0.7 2.7-0.3 3.9-2 2.1-2.1 2.9-0.8 2.1 3.1 3.3v2l1.8 3.7 0.3 3.2 1.9 5.6 0.3 4-1.3 4.6z"/><path id="Neuquén" class="st1" d="m13.9 667.2 15.5-1.2c1.1-0.7 2.2-1.2 3.4-3.5l-1.4-2.3-0.4-3.5c1.7-5.6 2.3-5.6 4.9-7.5 4.4-1.3 9.3-2.2 12.8-4.5l1.9-3.2 2.2-3.4-0.7-2.5 1.4-1.5 1-0.8-1.1-6.9 0.8-1.1c2.1 0.3 3-1.2 4-2.5s3-1.7 5.1-2.5l2.4-2.2 2.8-3.4 7.7-5.8 5.3-9.2 1.8-4.4 1.4-0.6 2-0.1 2.4-1.2 2.3-1.2 3-1 1.3-0.4-1.2-2.2-0.5-3-1.5-3-1-4-1.5-37.2-3.1-1.7-2.8-1-3.3 0.4-1.8-1.2-1.7-0.8-2.6 0.2-3 0.3-1.4-1.3-2.8-3.5-1.7-0.7-9.6-0.3s-3-2.5-3.6-2.9-0.8-2.9-0.8-2.9l-0.6-1.7-1.9-2.2-4.5-4.9-2.7-2s-0.9-0.5-2.6-1.8-2.3-2.9-3.1-3.5-1.5 0.1-1.4-1.5-0.8-3.8-0.8-3.8l-1.6-5.2-1.2 0.3s-1.3 0.6-2 1.3c-1.2 1.2-2.5 6.6-1.9 6.3 0 0 1.7 0.7-0.6 1.6s-2.8 1-2.8 1l-2.2-0.3-0.1 1.3-2 2.8-0.5 1.4 0.8 2.1-1 1.3-1.4 0.7-0.6 2.7 0.2 4.5 0.6 2.9 0.9 3.8-0.9 2.4-0.7 3.2-0.3 2.3 1.4 1.2 1.2 3.7-0.2 1.8-1.2 3.2 1 3.9 1.2 3.7 1.5 3 2 2.4 0.7 4v4.1l0.2 2.9 2 2.2 2.9 3.1-0.2 5.4-0.1 1.4-5.6 2.7c-2.2 2.6-5.9 4.2-6.3 8l0.5 2 1.1 0.8 1.1 3.2-0.6 3.4c-1.1 1.8-2.8 3.5-2.7 5.5v4.5c0.2 2.9-2.2 1.3-3.4 1.7l-1.5 1-0.5 1.7c-1.6 4.1 1.5 5.1 3.3 6.9l0.1 1.4-0.7 2.5-1.3 1.6-1.7 0.9-0.6 2 0.5 2.3 1.7 1.4 1.7 1.9-1.3 2.8c-1.1 1.6-3.3 3.2-1.5 4.8l-0.9 3.4-0.7 2.9 1.3 4.1 1.8 3.1z"/><path id="La Pampa" class="st1" d="m89.7 541.6 2.2 0.2 2.7 0.3 1.3 0.1 2.8-0.6 1.3 0.1 2.1 2.9 0.4 1.7-0.4 2.7-2.2 2.9-1.6 3.5-1 2 1.8 2.7 3.5 2.2 2.2 1.7 5.1-0.7 2.7 1.8 3.2-0.7 2.4 0.8 0.5 3 1.7 1.5 4.1 0.2 5.5 3.8 2 2.1 1.3 1.5 2.3 0.8 11 0.4 2.8 1.2 2.9 0.7 1.7-1.1 2-0.5s1.3-0.1 2.2 0.5 5.2 0.6 5.2 0.6l8.4-0.7 8.7 1.1 10.8 4.1 7.1 3.8 4.6 5.3 3.6 2.6 1.9-0.5c-0.1-48.2-1-95.8-1.5-144l-46.1 1.7 1.2 33c-36.2 1.6-77.3 3.4-77.2 4l0.2 4.3c0.4 1.9 1 3.4 2.1 4.2 0.7 14.2 1.3 28.2 2.5 42.8z"/><path id="Río Negro" class="st1" d="m173 684.1c-0.3-1.8-0.1-4.1-0.1-4.1l0.3-0.2-0.4-0.3 0.1-0.6 1-1.1-0.1-2.6-0.3-0.4-0.2-5.5 0.8-0.8-0.2-0.9-0.8-1.2-1.1-1.8-0.8-1.5-0.1-1.8-0.5-0.5 0.1-2.1-0.5-0.4 0.1-0.4-0.3-0.1-0.1-2.8-0.5-0.3 0.1-1.9-0.5 0.1 0.2-2.5 1-2.9 0.5-1.7 1.2-1.2 0.5-1.3 2.5 0.2-0.5-1-0.6-0.7 1.4-0.2 2.9 0.8c-0.1 1-0.6 1.7-2.1 1.6-1-0.1-1.3 1.9 0.8 1.6l0.1-0.6 2.5-0.1 0.2 0.7c2.5 0.1 2.5-0.4 4.7 1l1.1-0.1v0.6l1.2 0.2 1.2 1 1.5 0.5 1.4 1.5 1.8 0.1 0.5 0.6 1.2-0.2 3.9 2.2 1.4 1.4 10.8-0.1c1.4-0.8 7.1-0.2 7.1-0.2l1.8-1.1c1.6-1.3 2.5-2.7 4.9-3.5l-2.8-3.3-2.2-3.1-2.5-1.3c-2.7-2.2-7.6-2.7-7.5-4.8l-0.2-41.3-5.1-1.9-2.4-4-6.3-4.2-5.4-1.9-5.8-2.2-7.2-1.9-8.5-0.4-6.5 0.9-4.6-1-1.6-0.5-1.3 0.6-2.3 0.8h-2.2l-2.6-1.3-8.8-0.4-3.4-0.6-1.5-0.4-1.8-2.2-1.1-1.5-6-3.8-2.3-0.1-1.9-0.6-1.3-0.9-0.5-2.2-1.2-1.3-3.2-0.2-4 0.2-2-0.5-5-1.2-1.1-1-1.9-2.3-1.9-3 3.2-5.5 1.2-3.7-0.2-2.2-0.8-1.4-1.1-1.4-1.1-1-1.4 0.2-1.3 0.6-1.9-0.2-1.9-0.6-3 0.3 1.9 38.4 1.4 2.4 1.2 2.7 0.4 2.9 1.4 2.3-0.4 1-2.9 0.1-2.2 1.2-2.6 1.8-3.2 0.3-1.7 1.3-2 4-3.8 6.9-10.9 9.4-2.4 3.3-3.2 1.4-1.2-0.1-1.2 1.6-1.2 1.4-2.9 1.3-0.9 1.8 0.8 6.6-1.7 1.4-0.2 2.6-1.5 4.2-2.8 2.7-7.3 2.2-4.8 2.1-1.5 0.7-2.3 2.7-1.3 3 0.8 3.6 0.7 3.4-1 1.4-1.9 1.8-4.6 0.1-10.9 1.4-0.7 2.4-0.4 3.8 1.9 5.2 0.9 4.2 0.9 6.6 2.2 3.6 0.2 2.6c71.8-5.9 101.2-11.2 154-11.4z"/><path id="Chubut" class="st4" d="m125.5 815.8-0.1-1.1 0.9-1.1 1.2-1.5 0.2-1.4 1.2-1.3-0.2-1.1 0.2-1.4-0.3-1.4 0.6-1.4 1.5-2.1 1.8-3.4 0.8-2.3 3.4-3.9 2.6-1.7 1.3 0.2 0.7-0.5 0.6 0.2 0.4-0.8 3.8 0.1-0.2-0.5-0.4-0.4-0.3-0.9h-1l0.1-0.5 1.6 0.2-0.1 0.4 0.7 0.3-0.1-0.7 0.8-0.5-1.4-0.2-0.3-1 1.2-0.5 0.9-0.4 0.3-0.6 1.1-0.4 0.1-0.8 0.6 1 0.9-0.1 0.9-2.1 2.1-0.6 1.6 0.8 0.7-0.6 0.7 0.5 0.6 0.2 0.8 1.4 0.3-0.5 0.6-0.5 0.1-0.8 0.7-0.2 0.6 0.2-0.2 0.6 0.6 0.4 0.1-0.9 1.7 0.3-0.1 0.8 0.6 0.5 1.3-1.2 0.6 0.2-0.1 0.8 0.5-0.2 0.5-0.9-0.6-0.4v-0.8h0.7l-0.6-0.6 0.4-0.6 0.6-0.8 0.7-0.8-0.6-0.4 0.4-0.2-0.1-0.8-0.3 0.5-0.3 0.3-0.8-0.2v-0.5l-2.5-0.2-0.2-0.8v-1.2l0.6 0.1v-2.9l-0.4-0.5 1.5-1.4 1.9-0.8 1.8-2.1 0.6-0.4 0.2 0.8 1.1-0.4-0.1-1.2-0.6 0.2 0.6-0.6 0.3-1 0.8 0.6 0.6-0.6-0.4-0.6-0.2-0.5 0.3-1.1 1.4-1.4-0.1-1.8-0.5-0.9-0.4-1.5-0.7-1.1-0.6-1.1 1-1.5 0.9 0.2v-0.7h0.4l-0.3-1-0.4-0.8 0.4-0.8 1.3-0.5-1.7 0.1-0.3-1.7 0.4-0.8-0.9-0.1-0.6-1.5-0.6-1.6 0.1-2.5-0.9-0.9 0.1-1.9 0.8-2.4s0.6-2.1 1.2-2.1 1.7-2.3 1.7-2.3l0.4-1.1 1.4-1.8 0.8-0.9-0.4-0.9v-1.5l1.1-1.8 2-1.4 2.5-1.6 3.4-2.5 2.2-0.5 0.9-0.4 2-1.8 1.5-1.2 0.6-0.8-0.6-0.5-2.8-0.2-0.7 0.4-0.9-1.1h-3.3l-1.6-1.5-1.7-1-1.7 0.2-0.1-0.7-1.2-0.3-1.2-0.8-0.8-0.8 0.9-1.5 1.1-2.3 2.3-0.5 4.2-4 2.2-0.5s2.2 0.8 2.7 0.8c0.4-0.1 2.1 0.5 2.1 0.5l1.7 2 0.6 1.7-0.5 1.8 0.3 1.8 0.9 1.4 1.2 1.5 1.9 0.8 3-1 4.3-1.8 2.9-2.2 0.4-2.6 0.6-2.1-0.6-1.4-0.1-2.3-0.2-2.4v-1.6l-0.2-1.4-0.1-1.1-0.8-0.6-1.1-2.2-0.9-2.5-0.6-1.5-0.4 0.5-0.6-0.8-0.2 0.5-1.2 0.5-0.8 0.1-1.1 0.9-1.7 1-0.5 0.8-1.9 0.8-2.4 1-1.7 0.6-1.3 0.2-0.1 0.2 1.4 0.2 1.4-0.2 2.9-0.4s0.3 0.3 0.6 0.3c0.4 0 0.5 1.4 0.5 1.4l0.5 1.5 0.5 0.8-0.5 0.6-0.8 0.5-0.6 0.8-2.9 0.2-1.1-0.5-0.9 0.2-0.4 0.9-1.4 0.2h-3.4l-1.1-0.2-0.3-0.6 1.3-0.5 0.3-1.4-0.1-1 1-1.8 1.1-1.1h-3l-1.7-0.4-1 0.6-1.3-0.7-1-0.3-1.1-0.5-0.6-0.1-1.2-0.7-0.9-0.7-1.1-1.2-0.6-2.1c-26.8-1.7-88.3 5.1-154.3 11.1l-0.1 2.4-1.8 1.1-1.2 0.4-3.1 1.9-1.6 1.5-0.7 2-0.7 2.4 0.2 2.6 1.3 0.8 1.4-0.4 1.2 0.2s-0.1 1.2 0 1.7-0.5 4.1-0.5 4.1l-0.8 1.8-0.5 2.3-0.1 1.8 1 2.8 2.2 2.4 2.7 2.4 0.9 1.4-0.3 1.4 0.9 1.1 1.9 1.2 1.7 0.8-0.1 1.5-0.6 2.1-0.7 1.3s-0.8 1-0.6 1.4c0.1 0.5-0.3 2.7-0.3 2.7l0.6 1.6 2 2.2 2.7 2.3 0.6 1.1 0.3 1.8 0.4 6.5v2.2l-0.1 1.4 0.1 1.1-0.6 0.2-0.8 0.3-0.3 0.8 0.3 1.1 0.7 1.1-0.4 4.7 0.5 1.4 0.6 0.6 0.6-0.1 3.4-1.1s1.1-0.2 1.7-0.2c0.6-0.1 1.7-0.3 1.7-0.3l3.7 0.3 2.7 1 1.3 1.8 0.5 1.4-0.5 2.5-0.6 4.3-0.8 1h-0.9l-1.5-0.2-1.2-1.3-1.1-0.7-1 0.5-0.6 0.6-0.7 0.8-0.6 0.9h-1.3l-8.7 0.5-0.9 0.4-0.4 0.8 0.6 1.3 0.1 1.8 2 1.9h2.1l2.7-0.7 2.3 0.1 1 0.5 1.8 1.9 1.4 1.6 4.1 5.4 0.5 1.1-0.3 0.9-0.8 0.4h-1.3l-1.2 0.6-0.4 1.4 0.7 1.4 0.2 0.9-0.7 0.4-1.7 0.1-2.3 0.4-0.7 1-0.2 1.4-0.1 4.4 0.9 3 0.4 1.4v0.5l1.4 1.1 1.9 1.4c33.9-3.5 61.1-5.7 88.8-7.7z"/><path id="Tucumán" class="st3" d="m130.1 172-2.7-1-0.2 4.7s-1 2.5-1.1 3.1-0.4 3.5-0.4 3.5l0.2 2h3.1s1.7 1 2.2 1.4c5.5 0.8 2.7 4.1 2.6 8.8l-2 4.2s-2.2 2.9-2.2 3.5v2.1l3.3 1.9 1.9 0.8 0.2 3c-0.4 1.8-1.1 3.6 0.2 5.7l1.8 4.5c2 7.8 2.3 1.4 3.4 1 1.9 0.6 1.2 1.2 1.5 3 0.3 0.8 1.5 2.5 1.5 2.5 1.7 2.5 2.3 0.6 3.4 0.4l2.1-2.3c2.2-4.3 3.2-0.8 4.7-0.1 4.1-1.6 5.8-3.5 7.9-5.3-0.2-1-1.8-2.2-1.8-2.2l-0.3-1.3 0.7-4.6 0.3-4 0.8-1.8c2.6 1 1.7-1.6 2-3.1l2.9-10.5 1.9-2.5 1.3-2.3-0.4-1.6s0.8-1.1 1.2-1.5 0.9-2.8 0.9-2.8l-0.9-2.7c-0.7-1.7 4.7-8.1-2.4-7.4h-1.6c-0.3 0-2.8-0.7-2.8-0.7s-2.2 1.6-2.7 1.7-1.9-0.3-1.9-0.3l-2.9-0.6-2.4-1.2-2.6-0.1-2.4-1.9c-1.3-0.5-2.2-2.8-3.2-1.3l-3-0.3-3.6 0.2-0.7 2.3s0 2.1 0.3 2.6c1.1 4.6-1 4-3.9 1.8z"/><path id="Formosa" class="st3" d="m231.6 50.8c2.6 3.3 4.2 7 7.9 10 0.6 1.2 1.2 1.1 1.7 3.7 3.5 2.7 7.1 4.9 10.3 8.3 1.2 2 2.1 4.9 5.3 5.3 4.1 0.4 2.6 1.4 3.9 2.2 2 0.7 4.3 1.1 4.3 3.6 1.8 3.2 3.7 6.3 8.9 7.4l4.6 5.6c5 1.4 7.8 8.2 9.9 4.3 4.5-1.8 5.5 0.3 6.7 1.9h2.7l3.1 1.2c13.5 2.5 14.1 8 22.8 13.2l2.5 0.7 4.8 3.1c5.4-0.4 8 2.5 13 6.3l2.5 0.1 8 3.8 5.7 5.8 1.9 1.9v1.5l2.1 2.5 0.6 1.4c-7.3 11.3-5.5 2.4-7.9 11.6-3.7 8.2-8.3 10.9-11.1 17.1l-0.5 3.4c0.3 6.5-0.9 3.9-2.8 9.8l-2.1 3.5-3.7-4c-2.7-0.9-4.5-4-6.7-6.1l-3.3-3.7c-1.5-1.6-4.5-3.2-7.5-4.8-4.5-0.7-5.9-0.8-8.5-3.8-0.8-2.1-2.4-3.2-4.9-3.4-3.3 0-1.9-2.8-2.6-5-0.3-0.4-2.2-1.7-2.2-1.7l-2.5-4.5c-0.8-1.4-1.9-2.3-3.8-2.4 0 0-1.6-2-2.1-2.3s-2.9-1.1-2.9-1.1c0-2.1-0.2-3.8-1.3-4.9l-3.4-3.4c-1.6 0.2-2.6-1.4-3.4-3.9l-3.3-2.8-2.5-1.1-5.9-3.6-2.6-2.9-4.2-3.3c-1.9-1 0-5-7.5-6.1l-2.9-2.6c-1.8-1.8-3.7-3.9-5.6-4.6-0.5-0.2-0.9 0.4-1.5-0.3 1.2-3.5-1-4-4.3-3.7-0.6-2.1-2.7-2.8-5.3-3.1l-4.4 0.1z"/><path id="Corrientes" class="st3" d="m341.974 201.883 10.4136 0.90548 8.8772 3.80301 8.70649 1.81096 4.4386 2.35424 6.6579 2.89754 2.90216 0.36219c-0.68287-2.17315 0.85357-2.35425 1.36572-3.62192 1.02429-1.62986 2.39001-1.81096 4.09717-0.72438l1.53644 3.62192 2.04858-1.08658 2.73145-4.3463 5.29217-2.35425 4.60932 2.17315-1.70715 2.89754s0.34143 1.62986 0.34143 2.17315c0 0.72438-0.17072 3.62192-0.17072 3.62192l0.68286 2.53534 2.39002 3.62192 1.70715 1.44876 0.34143 2.17315 2.73145 3.07863 1.53644 2.35425 0.51214 2.71644-2.2193 2.71643c-1.53644 3.25973-1.53644 2.17316-3.92645 4.7085-0.17072 0.36219-1.36572 1.99205-1.36572 1.99205l-2.04859 0.90548s-1.02429 2.17315-1.36572 2.53534c-0.34143 0.3622-2.2193 1.44877-2.2193 1.44877l-1.70715 2.17315-2.90217 3.98411s-1.36572 2.89753-1.87787 3.44082c-0.68286 0.72439-2.90216 3.25973-2.90216 3.25973l-2.90216 1.08657-1.36572 1.81096-1.70716 2.35425-0.68286 3.25972s-2.2193 2.35425-2.56073 2.89754c-0.34143 0.54328-1.70715 2.35424-1.70715 2.35424l-2.2193 0.54329c-1.36572-0.36219-1.19501 1.44877-1.36572 2.89753l-2.2193 1.81096-3.07288 2.35425c-1.70715 0.36219-2.90216 1.26767-3.58502 2.35425l-0.51215 1.44876s-1.53644 0.36219-1.70715 0.72439c-0.17072 0.36219-0.34143 2.35424-0.34143 2.35424s0 2.17315-0.34144 2.35425c-0.34143 0.1811-2.90216 2.35425-2.90216 2.35425l-2.39001 1.08657-2.04859 1.08658-1.195 2.17315-1.19501 3.80301-2.04859 3.62192s-1.53643 1.81096-1.53643 2.53534c-0.17072 0.72438-0.68287 3.80301-0.68287 3.80301l-3.07287-5.61397v-4.1652l-3.75574-2.17315-1.53644-2.17316-2.04858-1.44876-4.60932-1.26767-4.78003 0.72438-4.4386 2.17315-4.09717-0.54329-2.90216 1.26767-3.24359 1.08658-4.60932 0.1811-3.75574-0.90548-2.90216 1.62986-1.19501 0.54329 0.85358-6.15726s0.85358-3.25973 0.85358-3.80302c0-0.54328-1.19501-4.1652-1.36573-4.70849-0.17071-0.54329-0.34143-3.07863 0.17072-3.80301 0.51215-0.72439 2.39002-7.06274 2.2193-7.60603-0.17072-0.72438 0.34143-6.33835 0.34143-6.33835 0.51215-2.71644 3.58502-3.62192 5.80432-4.7085l5.12147-5.07068 0.85357-6.15726 0.51215-4.5274 0.51214-1.44876 0.68287-3.62192 0.17071-5.43288 2.04859-6.70055 2.56073-3.25972s2.04858-2.17315 2.04858-2.89753c0-0.72439 1.02429-5.61398 0.85358-6.15726-0.17072-0.54329-0.68286-4.16521-0.68286-4.16521l-0.34143-5.97616s0.85357-1.99206 1.02429-2.35425c3.92645-2.53534 8.19434-4.1652 13.4865-5.07068z"/><path id="Entre Ríos" class="st1" d="m333.1 420.3-1.7-6.7 1.5-10.2 1.5-5 1.9-6.1 4.6-1.2 2.2-2.3-0.9-10-1.7-6.3 1.8-5.9 1.4-2.5-1.6-4.3 0.5-3.6-0.6-2.2-0.2-2.4 4-3.1 1.2-4.8 0.4-2.2-0.9-1.6 0.1-1.9 2.8-3.8 1.8-5.9 1.2-9.8-0.4-4.3-1.3-2.7-2.9-5.2 0.2-3.7-4.3-2.2-2.3-2.7-2.6-0.8-4.8-0.7-3.3 0.6-3.4 1.5-1.9 0.3-3.1-0.3-1.8 0.9-3.1 1.3-4.2 0.2-1.7 0.4-3.3-1.2-4.4 2.4 0.4 9.1-1.4 4.5-2.7 5s-5.7 9.1-5.7 9.5-3.6 7.4-3.6 7.4l-7.2 5.6-5.3 4.6-2.2 4.8-0.1 5.5-0.9 7-1.1 6.9 1.2 7.2s0.6 4.5 1 4.3 4.3 5.9 4.3 5.9l4.5 4.2 8.6 9.2 7 3.6 1.7 2.4 4.7 1.6 3.3 3.5 4.1 0.6 3.9 1.5 5.3 0.9 3 1.8 3 2 2.3 0.1z"/><path id="Buenos Aires" class="st3" d="m287.004 394.388 7.17005 7.60602 3.92645 1.81096 3.58502 2.53534 0.85358 1.81096 3.24359 0.54329 3.41431 2.71644 2.90216 1.99205 3.58502-0.18109 6.14576 2.71643 1.70715-0.18109 3.92646 2.89753 2.56073 1.44877 2.90216-0.54329 0.68286 2.17315v0.90548l-0.17072 1.44877-0.51214 1.99205-0.34143 1.99206-0.34143 1.26767-1.0243 0.54329-0.68286-0.90548-1.19501 0.54328v0.90548l0.68287 0.3622v1.08657l-0.51215 0.54329 0.17072 0.72438-0.85358 0.54329 0.34143 1.08657 0.85358 0.72439 0.17071 0.54329 0.17072 0.72438 2.90216 4.5274 0.51214 0.90548 0.85358 0.36219 0.51215 0.36219 1.19501 0.36219s-0.17072 1.44877 0.34143 1.44877c0.51214 0 1.70715 0.18109 1.70715 0.18109h1.19501l0.51214 0.54329 1.19501 0.90548 1.02429 0.90548 1.87787 0.54329 1.0243 0.54329 0.85357 1.08657 2.56073 1.81096 1.36573 0.54329 0.17071 0.90548 1.19501 0.90548 1.19501 0.90547 1.36572 0.3622 1.87787 1.81096 0.85358 1.62986 1.195 1.26767 0.85358 1.26767 2.73145 3.98411 1.02429 1.99205 0.34143 1.81096-0.51215 1.62987-1.02429 1.08657-1.02429 1.44877-1.19501 0.90548v0.90548l-1.02429 1.08657-0.51215 1.26767-1.36572 2.17315-0.51215 1.26767-0.17071 1.81096v1.44877l0.17071 1.62986 0.85358 1.44877 1.19501 2.17315 0.85357 1.08658 0.51215 2.17315 2.04859 1.81095s0.85357 1.08658 1.02429 1.44877c0.17071 0.36219 1.70715 1.26767 1.70715 1.26767l2.39002 0.54329 1.02429 0.1811 0.34143 0.54328 0.34143-0.90548 1.19501 0.1811 1.19501 0.54329h0.51214l-0.17071-1.08658 0.34143-0.36219 0.51214 1.44877 0.85358 6.15726 0.17072 0.90548s-0.34143 0.72438-0.34143 1.08657v1.99206c0 0.54328 0.34143 1.44876 0.34143 1.44876v1.26767l-0.17072 1.08658-0.34143 0.90548 0.51215 1.26767-0.34143 1.62986-0.85358 1.62987s-0.34143-0.1811-0.85358 0.72438c-0.34143 0.90548-1.70715 3.07863-1.70715 3.07863l-1.02429 0.36219-0.51215 1.81096s-1.02429 0.90548-1.19501 1.44877c-0.34143 0.54328-1.36572 1.99205-1.36572 1.99205s-0.68286 0.90548-0.68286 1.26767-0.34143 1.44877-0.34143 1.44877-0.68287-0.1811-1.0243 0.18109c-0.34143 0.3622-0.51214 1.44877-0.51214 1.44877l0.17071 0.90548-0.68286 1.26767-0.85358 0.90548-1.70715 2.71644-1.02429 1.08657s-0.17072 0.3622-0.68286 0.72439c-0.51215 0.36219-0.68286 0.36219-1.0243 0.54329-0.34143 0.18109-0.68286 0.36219-0.68286 0.36219l-0.34143 0.90548s-0.51214 0.18109-1.02429 0.54328c-0.51215 0.3622-1.19501 2.17316-1.19501 2.17316s-0.85357 0.36219-1.02429 0.90547c-0.17071 0.3622-0.85358 1.08658-1.19501 1.44877-0.34143 0.54329-0.85357 2.17315-0.85357 2.17315v1.08658l-0.34143 1.26767-0.85358 0.54329 0.68286 0.90548s0.17072 0.54328 0 1.08657-0.68286 1.44877-0.68286 1.44877-0.34143 0.36219-0.85358 0.90548c-0.34143 0.54328-0.85358 1.08657-0.85358 1.08657s-1.36572 1.81096-1.87786 1.99206c-0.51215 0.18109-2.04859 1.08657-2.04859 1.08657s-0.68286 0.36219-1.19501 0.54329c-0.51214 0.1811-1.02429 0.36219-1.53644 0.72438-0.51214 0.36219-1.36572 0.90548-1.87786 0.90548-0.34144 0-0.51215-0.18109-0.85358 0.36219-0.34143 0.54329-0.34143 0.54329-0.85358 0.90548-0.51214 0.36219-0.34143 0.36219-1.19501 0.72439-0.85357 0.36219-0.68286 0-1.195 0.36219-0.51215 0.36219-1.0243 1.08657-1.0243 1.08657s-0.17071 0.3622-1.02429 0.54329c-0.85358 0.1811-0.85358 0-2.39001 0.72438-0.85358 0.3622-1.36573 0.90548-2.39002 0.90548s-1.02429 0.1811-1.87787 0.3622c-0.85358 0.18109-0.85358 0.36219-1.70715 0.90548-0.85358 0.36219-1.36572 0.36219-1.36572 0.36219l-2.90217 0.90548-3.24359 1.08657-3.24359 1.26767s-1.36572 0.36219-2.39002 0.54329c-1.02429 0.1811-1.87787 0.36219-2.39001 0.36219-0.51215 0.1811-1.70716 0.1811-2.2193 0.36219-0.51215 0.1811-0.51215 0.72439-1.70716 0.90548-1.195 0.1811-2.39001 0.1811-3.07287 0.36219-0.68286 0.1811-1.19501 0-2.04859 0.3622-0.85357 0.36219-2.73144 1.26767-3.24359 1.26767-0.51214 0-2.73144 1.26767-2.73144 1.26767s-1.87787 0.18109-3.58503 0.18109c-1.70715 0-2.90216 0.90548-3.92645 0.90548s-4.26789 0.54329-4.26789 0.54329-1.02429 0.72439-2.56073 0.90548c-1.53644 0.1811-2.73144 0.36219-3.4143 0.54329-0.68287 0.18109-1.36573 0.54329-2.73145 0.54329-1.19501 0.18109-0.34143 0.18109-3.41431 0.36219-2.90216 0.18109-6.48718 1.26767-6.48718 1.26767l-3.58503-0.1811-3.4143 0.36219s-1.87787-0.90547-2.39002-0.90547c-0.34143 0.18109-1.53644 1.62986-1.87787 1.44876-0.34143-0.18109-1.70715 0.72439-1.70715 0.72439l-1.02429-1.44877-2.2193 0.18109-3.2436-0.54328s-1.53643-0.36219-2.39001-0.72439c-0.85358-0.36219-1.36572-0.36219-1.70716-0.90548-0.34143-0.36219-1.53643-2.53534-1.53643-2.53534l-1.19501-1.26767-1.19501-0.18109-1.02429-0.54329-0.85358 0.54329v0.90547l-0.51214 0.3622 0.17071-0.72439-0.34143-0.54328-0.51215 1.08657v1.44877l1.0243 0.18109 0.17071 0.90548s1.19501 0.72439 0.34143 1.08658c-0.68286 0.36219-0.51214 0.90548-0.51214 0.90548l1.02429 1.08657 1.36572 0.1811-0.85357 1.08657-1.0243 0.54329 0.34143 0.90548-0.51214 0.54329-0.68286 0.36219 0.34143 0.54329 0.51214 0.18109-0.17071 0.54329-0.34143 0.36219 0.85357 0.90548 0.17072 0.72439 0.34143 0.54328 0.51215 0.36219 0.34143-0.54328 0.51214 0.54328-0.34143 0.90548 0.68286 0.3622h1.70716l0.17071 0.90548 0.68286-0.3622 0.51215 0.3622 1.02429 1.08657 0.68286 0.54329 0.51215 1.62986h-1.19501l-0.68286-0.36219v-0.36219h-1.02429v-1.08658l-0.51215-0.18109-0.85357-0.54329-0.51215-0.36219-1.02429 0.18109 0.17071 0.90548h1.0243l1.02429 0.36219v1.08658l0.85357 0.36219 0.85358 0.54329s-0.17071 0.36219 0.17072 0.36219 0.68286 0.1811 0.68286 0.1811l0.51214 0.54328-0.34143 0.54329-0.17071 1.08658 0.17071 1.08657s-0.34143 0.1811-0.34143 0.54329v0.90548l-0.51214 0.36219v1.44877c0 0.36219 0.17071 1.08657 0 1.44876-0.17072 0.3622-0.34143 1.08658-0.34143 1.08658l0.51214 0.72438-0.17071 0.90548s-0.17072 0-0.17072 0.54329v1.44877c0 0.54328 0.34143 0.18109 0.34143 0.18109v0.72439h-0.51214l0.17071 0.36219v0.72438l-0.68286 0.1811-0.68286-0.54329-0.51215-0.1811-0.17071 0.54329-1.0243-0.18109-1.195 0.36219-0.85358 0.54329v0.54328l0.85358 0.54329-0.85358 0.36219-0.17072 0.54329 0.51215 0.72438h-0.68286l-0.17072 1.26767 0.17072 2.71644 1.02429 1.08658-0.85358 0.54329s-0.17071 0.54328-0.17071 0.90547c0 0.3622-0.51215 0.54329-0.51215 0.54329l-0.17071 1.62986-0.68286-1.08657-0.68287 0.90548-0.51214 0.72438-0.34143 1.26767 0.34143 1.26767s-0.17072 0.3622 0.34143 1.08658c0.51215 0.90548 0.68286 0.72438 0.68286 1.08658 0 0.36219 0.34143 1.44876 0.34143 1.44876l1.87787 0.54329 0.68286 0.90548 1.53644 0.72438s0.17072 0.54329 0.51215 0.72439c0.34143 0.18109 0.34143 0.90548 0.34143 0.90548v1.62986l-0.68286 0.90548s-0.51215 0-0.51215 0.36219 0 0.72438-0.17072 1.26767c-0.17071 0.54329-1.02429 3.07863-1.02429 3.07863l-0.51214 1.44877-1.0243 0.90548-0.85357 0.72438h-0.68286s0.17071 0.72438-0.17072 0.72438h-1.53644l-1.02429 0.3622-0.34143 0.54328-1.87787 0.36219s-0.51215 1.26768-0.68286 1.26768c-0.17072 0-1.19501 0.18109-1.19501 0.18109v0.54329c0 0.36219-0.68286 0-0.68286 0h-1.53644l-4.4386-6.15726-4.26788-2.71644-2.2193-0.54329-1.36573-1.08657h-2.90216l-1.70715-207.536 42.8496 0.1811 20.1444-25.7156 0.34143-1.26767s0.51215-1.08657 0.85358-1.08657c0.34143-0.1811 2.56073-0.54329 2.56073-0.54329l2.39002 0.90548 2.04858 0.54329 1.70715 0.90548z"/><path id="Misiones" class="st3" d="m406.2 207.7-1.1 1.8-0.7 2.1s0.2 1.8 0.2 2.6-0.2 3-0.2 3.4c0 0.3 1.1 1.8 1.1 1.8l3.7 5s-0.1 1.8 0.1 2.2c0.1 0.4 1.4 2.5 2 3 0.6 0.6 1.9 2.8 1.9 2.8s1.2 0.9 2 0.4 2.8 0.5 2.8 0.5l1.6-1.4 1.8-3 3.2-3 2-1h2.9l2.3-3 2-0.6 0.8-2.1 3.1-2.7 3.2-1.7 3.2-1.1 2-0.9 2.3-1 0.4-0.5 2.6-0.1 1.7-0.2 2.1-4 2.2-0.5 1.6-0.7 0.1-0.9 1.5-1.4 2-0.5 0.8-1 1.6 1.5 1.1-0.4 0.1-1.4 2.7-3.3 1.1-2 0.2-1.8-0.3-0.8-0.6-0.6 0.1-1.8-0.8-1-0.1-2.6 1.1-5.4 0.5-1.4 0.9-2.2s-0.1-3.3-0.1-3.8v-3.5l-1.9-3.2-1.7-1.9s-0.1-2.1-0.1-2.6-0.2-4.1-0.2-4.4 0.2-1.9-0.1-2.2-2-2.5-2-2.5l-1.4-2.4-0.9-1.6-1.2 0.3s-1.1 0.5-1.5 0.2c-0.4-0.2-1.4-1.2-1.4-1.2s-0.4-0.2-0.8-0.2c-0.4 0.1-1.9 1.7-1.9 1.7l-0.9 0.6-1.2-0.2s-0.5-1-0.8-0.6-2.2 1.4-2.2 1.4l-2.2-1.1-0.8-0.8h-1.8s0.1 1 0.1 1.5-0.2 1.8-0.6 2.4-1.4 2.3-1.4 2.3-0.1 1.3 0.1 2c0.1 0.7 1.7 2.2 1.7 2.2s-0.1 1.5-0.3 1.9l-0.9 1.8s-0.7 1.3-0.8 1.9-0.1 1.1-0.1 1.9v2c0 1-0.1 1.6-0.1 2-0.1 0.4-0.6 2.2-0.8 2.6-0.1 0.4-0.5 1.2-0.6 2.2s-0.5 1.3-0.7 1.6-1.1 1.7-1.1 1.7-0.7 1-0.9 1.3-0.8 1-0.8 1-0.1 0.4-0.1 1.1v1.5c0 0.5-0.1 0.9-0.1 0.9l-1.4 0.2-1.7-0.2s-1.3 1.4-1.3 1.9 0.4 0.8 0.4 0.8l-1.2 1.7-2.3-0.1s-1.4 1-1.7 1.1-1 0.3-1.3 1c-0.3 0.6-0.4 3-0.4 3l-1.4 0.2s-5.1-0.2-5.4 0-1.1 0.7-1.1 1.1 0.7 3 0.7 3l-2.4 0.2-1.1 1.3-0.5 1.5s-1 0-0.9 0.5 0.8 1.4 0.8 1.8c0.1 0.4-1.4 1.4-1.7 1.7-0.3 0.2-0.8 1-1.4 1.2-0.7 0.2-1.5 0.6-2 0.2-0.5-0.3-1.9-1.2-1.9-1.2l-2.8-1.8z"/><path id="Tierra del Fuego" class="st10" d="m128.077 1107.01 1.70715-0.7244 1.53644-0.3621 1.36572-1.0866 1.53644-1.6299 1.0243-0.3622 0.51214 0.9055 1.87787 0.3622 6.14575 0.1811 4.26789-0.1811 5.63361-0.5433 4.95074 0.3622 2.73145-0.3622 0.85358 1.0866 1.02429 1.0866 3.41431 1.6298 1.70715-0.3622 0.68286-1.6298 1.53644-0.7244 2.90216 0.1811 2.39002-1.811 0.68286-1.0866-0.85358-0.5432 4.4386-0.1811 0.68286 1.0865 0.17072 1.0866h0.85357l1.36573-1.2677 1.53644-1.8109 0.85357-0.9055 0.17072 1.9921 0.68286 0.5432 1.87787-2.7164 0.68286-2.1731 0.68286-3.9842 1.02429-1.4487-2.56073-0.1811-3.07287 0.7244-5.80433 1.0865-3.07287-0.1811-1.70716-0.9054-2.39001-1.6299-2.73145-1.6299-1.36572-0.9054-1.53644-0.7244-1.53644-0.1811-0.34143-0.7244-1.02429-0.3622-0.68286-0.3622-0.68286-1.2677-1.0243-0.9054-1.53644-1.0866-1.02429-0.7244-0.68286 0.1811-2.04858-1.9921-2.39002-0.7243-1.87787-1.4488-2.04858-1.0866-1.02429-0.7244-0.34144-1.0865-0.85357-0.5433-1.02429-1.0866-1.0243-0.5433-0.17071-1.992-0.34143-0.5433-0.85358-0.3622-1.70715-1.4488-2.04859-1.6299-0.34143-0.181v-0.7244l-1.02429-0.7244-0.85358-0.7244-0.68286-0.3622-1.36572-1.2677v-0.9054l-0.68286-0.9055 0.17071-0.9055-1.02429-1.0866-0.17072-2.1731-1.02429-0.9055-1.02429-1.0866-1.02429 0.1811-1.87787 0.7244-1.70716-0.3622-1.36572-0.5433-1.36572-1.2677v-2.8975l1.02429-1.8109 1.02429-1.0866 0.68286-1.9921 1.87787-0.3622 0.34143 1.6299h0.34143l-0.17071-1.6299-0.85358-1.4487-0.85358-1.811-0.68286 0.1811-0.34143-1.2677-0.85357-0.9054-1.0243-0.1811 0.34143-0.9055-0.85357-0.3622-0.85358-0.9055-0.17071-1.811-1.70716-1.6298-0.17071-0.1811h-0.17072c2.04859 24.4479 3.58502 48.8959 6.31647 72.9816z"/><path id="Santa Cruz" class="st4" d="m122.1 1024.4 2.8-0.3-0.6 1.4 0.5 0.2 0.9-1.5 0.2-2.3-1.5-1.1-3.3-4-2.3-3.3-1.9-3.2-1.9-4.1-1.7-2.6-1.3-2.1-0.8 0.2-0.8 1-1.1 1.7-1.4-2.2 1.3 0.2 1-1.7h0.8l2 0.1v-0.8l-5.9-15.6 0.4-1.6-0.6-0.9-1-0.3-0.2-0.7 1.2-1.4 0.4-2.3-1.1-2.6 0.4-3 0.7-3.1 1-2.8 1.2-3.6 1.7-2.2 2.6-2.1 5.8-3.3 0.9-0.9s-0.7-0.1-0.8-0.6-1.8-1.3-1.8-1.3l-1.1-1.1-1.3-2.8-1.1-3.9 0.3 0.1 4 6.7 1.6 1.9 2-0.1 2.9-1.6 1.9-2.2s3.3-3.4 3.2-4c-0.1-0.7 0.7-3.8 0.7-3.8l0.4-3.8-0.4-4 0.9-4.1 0.4-4.7 0.4-2.4-1-0.8-0.1-3 2.6-5.5 2.2-3.3 2.2-0.9 1.9-3.7 0.2-1.7 2.7-2.4 2.5-1.6 4-4.7 2.1-0.3 0.1-0.6 1.2-0.3-0.2-0.9 0.4-1.1 1.9 0.1 0.1-2.7 2.7-2.4 1.4-2.4 1.6-0.2 0.8-0.8 1.9-0.1-0.3-0.9-1.1-0.8 0.8-0.6-0.3-3 2.4-0.1 0.2 1.1 0.9-0.8-0.4-1.8-1.7-0.7 0.4-1.4-0.6-1.1-0.6-1.8 1 0.5 0.4-1.7 0.8-2.5 0.3-2.3 0.4-1.7v-1.3l-0.2-1.4 0.6-1.4-0.5-0.7-0.6-2-0.1-2.5 0.4-0.7-1.2-0.7-2.6-2.5-1.9-0.5-1.7-0.4-4.3 0.8-2.6-0.9-1.3 0.6-2.5-0.1-0.4 0.8-1.2-1-1.2 0.4-1.5-0.8-1.3-1.7-1.9-2.1-2.7-2.6-0.7-0.6-0.3 0.1-0.4-0.9-1.6-2.1-1.2 0.3-0.4-1-1.2-0.3-0.2-0.7-1.2 0.6-0.8-1.8-1-0.1-2.4-5.9-1.8-2.7-0.7-4-0.1-3.1 0.8-1.8-0.3-0.5 0.8-1.2c-28.6 1.2-58.4 4.5-88.2 7.7l0.3 2.7-5.1 4.4 3.7 2.8 1.2 3.4 1.4 6.9 0.4 4.2-1.7 0.9-3.8 2.6 0.3 2.4 0.8 3.2 0.6 2.1-0.7 1.2 1.2 1.7 0.3 0.6-5 8.1-3.3 3.9 0.5 1 0.6 4-1.4 1.9-1.2 2.8-0.8 1.4 0.2 3 2.6 3.1 1.8 2.1 0.5 3.8 1.9 2.8 0.7 1.5v1.6l-2 1.5-2.8 2.9-0.7 2.8 0.4 1.1 0.9 3.2-0.4 3.8-1.1 1.9-2.7 2.1-2.2 2.2-1.5 3.9-0.1 1.4 6.3 1.2-0.4 0.7-10.6-0.3-1.2 1-0.1 3.6 0.4 4.4 0.7 3.3 0.6 2.9-0.5 4.4 0.1 1.6 0.3 5 1.1 4.4 3 9.2 0.7 2.6 2.7 3.1 1.7 5.9 0.8 1.5 5.6-4.3 1.9-2.3 4.1-0.5 3.5-1.7 1.2-1 1.4 0.6 0.9 4.5 0.4 5.7-0.3 3.9 2 6.4-0.8 4.4-0.8 2.5 1.4 3.3 4.3 4.7 6.8 6.3 8.5-0.7 20.6-2.4 7.8-0.7 2.6 1.5 4.3 1.8 5.8 0.3h3.1l3.9 2 4.7 0.8 2.7 1.2z"/><path id="Santiago del Estero" class="st2" d="m238.4 301.7-12.3-0.5c-0.1-0.8-0.5-1.5-0.7-2.2-0.3-0.8 0.1-1.9-0.2-2.5 3.5-6.2-1.7-5.2-4.4-6.6-2.1-1.4-1.4-4.1-1.8-6.3h-5.8l-7 0.1c-2.7-0.1-4.2-1.1-5.1-2.6 0.2-1.7-0.7-1.4-1.3-1.8-5.4 1.8-6 1.4-8.3-1.2-2.6-0.8-2.2 2.5-5.1-0.4l-4.1-1.1-5.1 0.2-6 0.3-6.9 1.1 0.2-3.8-1.4-3c3.8-3.7 0.3-1.4 0.5-6 0.8-2-0.8-3-2.3-4.4v-3.8c-0.2-0.8-3.8-3.7-5.7-5.6l0.5-5.3 0.6-9.6-1.3-4-1.4-1.3-0.4-5.2-0.3-1.8c2.4-1.2 4.4-1 7.8-5.6l-2.2-2.7 1.4-10.2c1.3 0 2.7 0.1 2.7-3.4 0.4-2.5 1.8-6.9 2.5-10.8 0.8-1.7 3.9-2.8 2.9-5.4-0.2-0.4 0.3-1.1 0-1.7 2.7-0.8 2.1-4 1.7-7l0.7-7.4 3-7.1s1.1-1.7 1.4-2.1 0.2-3.8 0.2-3.8l0.9-3.2 1.5-0.3 1.7 0.7 3.4 0.6 0.4-1.8 6.1-0.7 6.2 0.9 3.6 0.8 3-3.8 3.7 0.2 43.1-0.3 0.6 76.1c-3.1 25.3-6.2 50.3-11.2 75.3z"/><circle id="Buenos Aires City" cx="330.048" cy="440.736" r="14"/></g><metadata id="metadata857"><rdf:RDF><cc:Work rdf:about=""><dc:title/></cc:Work></rdf:RDF></metadata></svg>
