<?xml version="1.0" standalone="no"?>
<!DOCTYPE svg PUBLIC "-//W3C//DTD SVG 1.1//EN" "http://www.w3.org/Graphics/SVG/1.1/DTD/svg11.dtd">
<meta http-equiv="Cache-control" content="public">
<svg xmlns="http://www.w3.org/2000/svg" xmlns:xlink="http://www.w3.org/1999/xlink" width="24" height="24" version="1.1" viewBox="0 0 512 512">
<style><![CDATA[
g {
	fill: #1c408c;
}
g:hover {
	opacity: 0.3;
}
path.bg {
    fill: white;
}
]]></style>
<g>
<path class="bg" pointer-events="visiblePoint" onclick="window.parent.displayMenu('mapmenu');" d="M256 8C119 8 8 119 8 256s111 248 248 248 248-111 248-248S393 8 256 8z"/>
<path pointer-events="visiblePoint" onclick="window.parent.displayMenu('mapmenu');" d="M256 504C119 504 8 393 8 256S119 8 256 8s248 111 248 248-111 248-248 248zM142.1 273l135.5 135.5c9.4 9.4 24.6 9.4 33.9 0l17-17c9.4-9.4 9.4-24.6 0-33.9L226.9 256l101.6-101.6c9.4-9.4 9.4-24.6 0-33.9l-17-17c-9.4-9.4-24.6-9.4-33.9 0L142.1 239c-9.4 9.4-9.4 24.6 0 34z"/>
</g>
</svg>
