<?xml version="1.0" standalone="no"?>
<!DOCTYPE svg PUBLIC "-//W3C//DTD SVG 1.1//EN" "http://www.w3.org/Graphics/SVG/1.1/DTD/svg11.dtd">
<svg xmlns="http://www.w3.org/2000/svg" xmlns:xlink="http://www.w3.org/1999/xlink" width="24" height="24" version="1.1" viewBox="0 0 512 512">
<script type="text/javascript"><![CDATA[
function closeAllPopups() {
	var popups = window.parent.document.getElementsByClassName('popup');
	for(var index = 0; index < popups.length; ++index) {
		var popup = popups[index];
		popup.style.display = 'none';
	}
}
]]></script>
<style><![CDATA[
g {
	fill: red;
}
g:hover {
	fill: pink;
}
path.bg {
    fill: white;
}
]]></style>
<g>
<path class="bg" pointer-events="visiblePoint" onclick="closeAllPopups();" d="M256 8C119 8 8 119 8 256s111 248 248 248 248-111 248-248S393 8 256 8z"/>
<path pointer-events="visiblePoint" onclick="closeAllPopups();" d="M256 8C119 8 8 119 8 256s111 248 248 248 248-111 248-248S393 8 256 8zm121.6 313.1c4.7 4.7 4.7 12.3 0 17L338 377.6c-4.7 4.7-12.3 4.7-17 0L256 312l-65.1 65.6c-4.7 4.7-12.3 4.7-17 0L134.4 338c-4.7-4.7-4.7-12.3 0-17l65.6-65-65.6-65.1c-4.7-4.7-4.7-12.3 0-17l39.6-39.6c4.7-4.7 12.3-4.7 17 0l65 65.7 65.1-65.6c4.7-4.7 12.3-4.7 17 0l39.6 39.6c4.7 4.7 4.7 12.3 0 17L312 256l65.6 65.1z"/>
</g>
</svg>
