<?xml version="1.0" encoding="UTF-8"?>
<svg id="svg10" width="24" height="24" version="1.1" viewBox="0 0 512 512" xmlns="http://www.w3.org/2000/svg" xmlns:cc="http://creativecommons.org/ns#" xmlns:dc="http://purl.org/dc/elements/1.1/" xmlns:rdf="http://www.w3.org/1999/02/22-rdf-syntax-ns#">
 <style id="style2"><![CDATA[
g {
	fill: white;
}
]]></style>
 <g id="g8">
  <path id="path6" d="m377.6 321.1c4.7 4.7 4.7 12.3 0 17l-39.6 39.5c-4.7 4.7-12.3 4.7-17 0l-65-65.6-65.1 65.6c-4.7 4.7-12.3 4.7-17 0l-39.5-39.6c-4.7-4.7-4.7-12.3 0-17l65.6-65-65.6-65.1c-4.7-4.7-4.7-12.3 0-17l39.6-39.6c4.7-4.7 12.3-4.7 17 0l65 65.7 65.1-65.6c4.7-4.7 12.3-4.7 17 0l39.6 39.6c4.7 4.7 4.7 12.3 0 17l-65.7 65z"/>
 </g>
</svg>
