<?xml version="1.0" encoding="UTF-8"?>
<!-- Generator: Adobe Illustrator 16.0.0, SVG Export Plug-In . SVG Version: 6.00 Build 0)  -->
<svg id="svgdata" width="462.73" height="266.93" enable-background="new 0 0 462.734 266.93" version="1.1" viewBox="0 0 462.73 266.93" xml:space="preserve" xmlns="http://www.w3.org/2000/svg" xmlns:cc="http://creativecommons.org/ns#" xmlns:dc="http://purl.org/dc/elements/1.1/" xmlns:rdf="http://www.w3.org/1999/02/22-rdf-syntax-ns#"><g id="outlines" transform="matrix(2.9215 .83472 .84576 -2.8833 -486.24 1391.3)" font-size="12px" style="fill:#228b22;stroke-width:.09995;stroke:#fff"><path id="path4255" d="m114.21 514.38-1.9824-2.4238-2.2051-0.66015h-0.43946l0.43946 0.2207-0.21875 0.43945-0.66016-0.43945-0.88086-0.88281-1.3223-1.543-0.88282-0.44141-0.66015 0.22266-0.88086-0.88281-1.3223-1.9824-0.66211-1.9805-1.3223-1.543-0.66016-0.21875-1.9824-0.22266-1.543 0.22266-0.2207-1.5449-0.43946-1.3203 0.66016-0.88086 1.3223-0.66015 2.2031-2.4258 0.66016-2.4238 1.543-0.65821h0.88281l1.1016 0.21875 0.66016-0.4414v-0.21875l-0.21875 0.21875-0.44141-1.3203 0.66016-0.88282 0.4414-0.2207-0.4414-0.21875-0.88086 0.88086-0.66406 1.543h-0.4375l-0.22071-0.2207 0.22071-0.66211 0.4375-0.21875 0.88476-1.1035 1.3203-0.87891 0.22266-0.4414h-0.66211l-1.1016-1.0996-3.9668 0.4375-0.2207 0.88281 0.4414 1.543-0.4414 0.21875h-0.88281l0.22265-2.2031v-1.7617l0.44141-0.22071v-0.66015l0.21875-0.22071h0.2207v-0.88281l7.7129-0.2207h0.43945v0.44336h0.44141v2.2012h1.3203v0.88086h2.2031v1.9824h1.7617v-0.87891h0.88281l0.70148-0.87566 0.265-0.78066 1.3215 0.15875 0.712-0.49643 0.342-0.57689 3.219 1.1494-0.104 0.71215 1.09 0.46989-0.031 0.61037 1.465 0.37031-0.036 0.88086 1.175 0.66709 0.643-0.0713 0.544 0.42729 1.823 0.43725 0.6 0.51055-0.085 0.75475 1.554 0.42729 0.712 1.2155 2.113 0.0285 0.98 1.8972 0.821 0.42728 0.126 0.94174-0.34553 1.9512-0.43945 2.4219 9.0312 2.2031-0.66016 2.2031-1.1016 3.5254-3.5234 1.1016-1.543 0.21875-0.44141-0.43945-0.21875-0.22071-0.88281-0.66015-0.43945-0.22266-1.543 0.44141h-1.3223l-1.1016-0.21875h-0.88086l-0.22265 0.21875-0.65821 0.2207h-0.66406l-1.541 0.44141-2.4238-0.22071-1.1016-0.66015h-0.88085l0.2207 0.66015-1.3223 0.22071v0.2207l0.43946 0.6582-0.21875 0.22266h-1.7637l-1.0996-0.22266-0.21875-0.43945-0.6621 0.2207-0.21875 0.88282-0.66211 0.66015-0.43946-0.4414-0.4414-1.1016-0.66016-0.2207v0.66211l0.66016 0.66016v0.4414z" style="fill:#228b22;stroke-width:.09995;stroke:#fff"/><path id="path4293" d="m183.14 456.07-0.19051-0.83836-0.43084-0.21351 0.42468-0.12617 0.4414-1.543-0.4414-0.87891v-0.4414l0.66211-0.44141 1.1016-0.2207 0.21875 0.44141-0.21875 0.4414 0.21875 0.87891 0.44141-1.7617-0.22071-0.66016h-0.2207l0.66211-0.66211h0.66016v1.543l-0.43946 0.22071 0.43946 0.2207 0.6621-1.3223-0.2207-0.43945v-0.44141l0.24414-0.0703 0.19532-0.5918 0.6621-0.66211-0.2207 0.88282-0.49414 0.33007 1.1543-0.33007 0.88086 0.2207 0.2207 0.66211-0.43945 1.3203-1.7637 1.541 1.543-1.0996 0.88086-1.543-0.2207-0.88086 1.1035-1.543 0.4375-0.21875 0.66015 0.21875 0.44141 1.543v1.7617l-1.5391 1.9824v1.3223l-0.66407 0.43945-0.21875-0.43945h-0.66015l-1.3223 0.66015-0.88086-0.2207-1.7637 0.44141-0.43945-0.22071-0.66211 0.66211-0.68419 0.0765v-1e-5zm-0.63808-2.5003-0.66211-0.4414v-0.65821h0.66211l0.44141 0.21875zm2.3652-3.3086-0.44727-1.168 0.0234-0.47851-0.83789-0.33008-0.88282-0.88282 0.22071-0.4414 2.6445-1.7617h0.66016l-0.44141 1.1016-0.43945 0.22071-0.44141-0.44141-1.1016 1.541 1.9824-0.66016 1.3223-1.0996 0.6621 0.21875v0.66211l-1.1035 1.9824-0.88086 0.43945-0.93945 1.0977zm2.9238-0.87695 0.21875-0.88282 0.22071-0.43945 0.66211 0.43945-0.22071 0.66211zm1.541-0.88282-0.43945-0.6582h0.66015v0.43945z" style="fill:#228b22;stroke-width:.09995;stroke:#fff"/><path id="path7118" d="m177.87 461.06-0.43945-1.541v-0.2207l0.2207-0.66211v-0.43945l0.82518-1.414 0.12449-0.71778 0.37259-0.0713h0.66016l1.1016 0.2207 0.21875-0.43945 0.66016-0.44336 0.89963-0.31326 0.43079 0.21351 0.19047 0.83836-0.11256 0.78473-0.96497 0.0196v0.66016l-0.66211 0.66211zm-2.4238-1.1016-0.66016-0.43946-0.2207-0.2207v-0.2207h-0.66211l0.88281-1.7617 1.1016-0.88086v-1.3242l0.66015-0.87891 0.66211 1.0996v0.66211l0.44141 0.66016-0.2207 0.4414-1.543 1.541 0.2207 0.2207 0.66016-0.88086h0.4414l-1.7637 1.7637zm-4.1836-0.88086-0.44336-0.44141-0.88086-0.2207-0.21875-1.0996 0.21875-0.66211 0.66211-0.21875 1.9805-1.7637h0.4414l0.66211-0.43946 0.43946 0.21875v-0.43945l0.4414-0.44141 0.44141-1.3203 0.66015-0.2207 0.22071-0.44141 0.43945 0.44141v-0.66211l1.1035-1.0996 0.43945-0.22266v0.66211l-0.87891 1.9824-1.5449 2.4219h-0.43945l0.43945 0.2207-0.21875 0.44336-0.88086-0.22265-0.88281 0.4414-0.2207-0.66211-0.66211 0.88281 0.22265 0.22071 1.543-0.66016 0.66016 0.21875v0.2207l-0.66016 1.1016-0.88281-0.44141-1.1016 0.44141 1.1016-0.22071 0.43945 0.22071 0.22071 0.21875-0.22071 0.66211-0.21875 0.43945zm1.7598-4.4062-0.21875-0.22071 0.66016-1.541 0.43945 0.21875v0.66211zm7.2734 1.1035-0.66211-0.44336h-1.543l-0.2207-0.43945 0.66211-0.44141 0.2207-0.21875 0.43945-0.2207 0.22071-0.2207 0.66015-1.3203 0.44336 0.21875v0.22071h0.66016l0.21875 0.43945-0.21875 0.44141-0.88086 0.4414v0.43946l1.0996-0.66016v-0.44141h0.66211l0.66211 0.88086zm-1.1035-1.7637h-0.66015l-0.66211 0.43945-0.43945-0.21875-0.22071-0.66211 0.44141-0.66015 1.1016-0.66016 0.43945-0.4414h-0.43945v-0.66211l0.43945-1.1016 0.44141-0.21875-0.2207 1.1016 0.43945-0.44141v1.3223h-0.43945l-0.22071 0.6621v0.43946l0.44141 0.21875zm2.2031-1.541-1.0996-0.4414v-0.2207l0.43945-1.1016-0.2207-0.66211 0.2207-0.21875 0.44141 0.21875 0.2168 0.66211 0.66406-0.88086-0.22266-0.2207h-0.4414l-0.2168-0.2207 1.1016-0.44141h0.66016l0.66211-0.6582 0.83789 0.33008-0.0234 0.47851 0.44727 1.168-0.38086 0.44531zm-0.88086-2.6445-0.21875-0.2207 0.21875-0.2207zm-1.1016-0.4414-0.22071-0.22071 0.44141-0.2207 0.21875 0.44141zm3.084-0.66016-0.88281-0.44141v-0.6621l0.88281-0.21876 0.44141 1.0996z" style="fill:#228b22;stroke-width:.09995;stroke:#fff"/><path id="path4277" d="m169.06 466.57-0.44336-0.66016-0.88086-1.1016v-2.2031l-0.66015-0.22071-1.3223-1.9824-0.88086-0.88086 2.2031-0.88281 0.66015-0.2207h0.44141l0.88281-0.43946 1.3203 1.3223-0.88281 1.3203-1.3203 0.44141h-0.88086v0.2207l1.9824-0.44141h0.21875v0.44141l0.66211-0.66211 0.44141-1.3203 1.0996 0.66016 0.66211-0.66016h0.88086l-1.1016 1.7617-0.8789 1.3223-1.1035 1.7617v0.22071l0.66016-0.43946 0.66211-1.1016 0.21875 0.21875 1.7637 0.66211h-0.2207l-0.43946 0.66016-0.22265-0.22071-0.43946 0.43946h-0.8789l-0.22266 0.22265-0.43945 1.1016-0.66211 0.44141zm4.8438-3.3027 0.0469-0.50782-0.54102-0.6875 0.0605-0.57031 0.53125-0.49609 0.58398-0.15235-0.22656-0.43164-0.44727-0.4082 0.43555-0.27148 1.0996 0.43945 1.5449-1.3223h0.43946v0.66211l0.43945 1.541-1.1016 0.66211v0.43945l-2.2031 0.88086-0.66211 0.22266zm0.44336-3.5254-0.22265-0.22071-0.88086 0.88086h-0.22071v-0.2207l0.88086-1.1016h0.66211v0.2207l0.2207 0.2207 0.66016 0.43946z" style="fill:#228b22;stroke-width:.09995;stroke:#fff"/><path id="path7032" d="m173.91 463.27-0.43945 0.43945-1.7637-0.66211-0.21875-0.21875 1.0996-1.9844 1.3301-0.82862 0.447 0.40868 0.226 0.43133-0.583 0.152-0.532 0.496-0.06 0.572 0.542 0.68736-0.0478 0.50704z" style="fill:#228b22;stroke-width:.09995;stroke:#fff"/><path id="path4273" d="m145.77 466.96-1.0508-0.16602-2.084-1.1113-0.0254-0.34766-1.9648-0.30274v-1.1016l0.2207 0.21875 0.21875-0.43945 0.88086 0.43945-0.21875-0.21875-0.88086-0.66015 0.21875-0.22266h0.88086l1.1035 0.44141v-0.44141l-0.44141-0.43945-0.88086-0.44141h-0.43945l-0.22266-0.66016 0.44141-0.66211 1.9824 1.7637 1.7637-0.66016-0.4414 0.43945 0.88086 0.44141v-0.66211l2.8652-0.88086 3.084 1.1016 2.8633 0.22071 1.3203-0.66016 1.9844 0.21875 0.88086 0.88086 0.22071 0.66211 0.66015-1.1016v-0.44141h-0.43945v-0.43945l0.2207-0.22071 4.8438-1.1016 0.66211-0.4414v-0.43946l0.88086 0.88086-0.66016 1.543-3.3047 1.7617-0.43946 0.66016-1.1035 0.21875-0.43945 0.22265-0.22071 1.3203-1.3203-0.4414-0.44141-0.87891-1.3223 0.2207-0.22266-0.44335h-1.0996l-0.2207 0.44335h-0.43945l-1.543-0.44335v0.44335h-0.43946l-0.20117 0.4668-2.0117-0.59765-0.33789 0.82812-1.2656-0.39844-0.16797 0.44336-0.75586-0.12109-0.11523 0.81055-1.7774-0.26172-0.13867 0.75781zm-16.58-1.9277-2.6465-0.2207-0.44141-0.22265h-0.88086l-0.88086-0.21875h-0.2207v-0.43946l0.2207-1.9824v-0.2207l0.44141-2.2031h-0.44141l0.22071-1.7617h-0.44141l0.2207-0.4414v-1.3223h-0.2207v-0.4414h-0.43945v-0.44141l-0.22071-0.43945-0.2207-0.22071-0.44141-0.43945-0.21875-0.88281h-0.66211v-0.87891l0.22071-0.2207v-0.44141l0.2207-1.543h0.88086v-1.1016l-0.66016-0.44141-1.1016-0.43945-0.88086-0.4414 0.21875-1.7598-0.88086-0.66211-0.43945-0.66211-0.2207-0.21875-0.22071 0.21875-0.21875-0.21875-0.66211-0.44141-0.43945-0.6582-0.21875-0.44141-0.43945-0.2207v-0.44336h1.0976v0.88282l-0.43945-0.21876v0.21876l1.3203 0.88085v0.44141l0.22071-0.2207 0.43945 0.2207 0.66211 0.88086h0.43945l0.44141 1.1016 0.43945 0.44141 0.66211 0.21875 0.43945-0.21875 0.66211 0.43945 0.44141 0.66211 0.21875 1.541 0.44141 0.66015 0.43945 0.22266 0.44141 0.43945 0.22265 0.66016v0.2207l-1.1035 0.88281-0.88086-0.2207-0.22071-0.2207-0.2207 0.4414 0.2207 1.3203 0.66016 0.4414 0.66211 0.87891 1.1016 0.66406 1.1016 1.7598v1.1016l0.87891 2.4238 0.88281 1.543 1.1035 0.88086 0.4414 0.4414-0.4414 0.21875h-0.66016zm6.6094-1.9844v-0.43945l0.2207-0.22071h0.21875v-0.2207l0.2207-0.88086v-0.2207l-0.45898-0.0918 2e-3 -0.14453-0.3457-0.0566 0.0586-0.43945-0.8125-0.14649 0.3789-0.46484-0.30078-0.17578 0.1543-0.35547-0.34375-0.1543 0.0391-0.27539-0.3125-0.041-0.10742 0.5293-0.64649 0.66602 0.0312-0.53711-0.7793-0.57227 0.26368-0.61133-0.43946-0.45898 2e-3 -1.0098-1.0137-0.20117-0.0801 0.33399-0.44531 0.17968-0.79492-0.59765h0.44336l-0.44336-0.88281-1.5391-1.1016v-0.66015l0.65821-0.44141 1.9844 0.66211 0.44336 1.0996 0.43945 0.44141 0.21875-0.22071 1.543 1.3223v1.3223l0.88086 0.43946 1.7637 0.2207 1.541 0.2207 0.43945 0.66211-0.88086 0.88086 0.22266 0.88086-0.66211 1.543-0.66016 0.21875h-1.1016l-8e-5 -6e-5zm1.9805-0.21875v-0.2207l0.2207-0.22071 0.22266 0.22071zm1.3242 0v-0.44141l0.4375 0.22071zm-0.22265-0.66211-0.43945-0.66016-0.21875-1.1016 0.6582-0.4414zm1.3223-0.88086-0.2207-0.2207v-0.44141l-1.1016-1.7617v-0.88086l0.88281 0.43946 0.21875 1.3242 0.44141 0.66015 0.4414 0.66016zm-11.898-10.795-0.65821-0.21875-0.88281-1.543-0.88086-1.3223 1.1016-0.4414 0.21875 0.2207-0.43945 0.43946 0.2207 0.22265 0.66211-0.44141 1.7617 0.66016 0.21875 0.43945-0.21875 0.66211-0.43945 0.22071-0.88086-0.22071v0.44141zm0.4414-3.5254-0.4414-0.21875-0.87696-0.88086-0.22461 0.21875 0.22461 0.66211h-0.66406l-0.44141-0.2207-1.3223-0.22071-0.43945-0.43945 0.2207-1.7637 0.43945-0.44141-0.43945 0.2207-0.2207 0.66016v0.66211l-1.1016-0.2207-0.66211-0.66016-0.21875-1.0996 0.43946-0.44141 0.2207-0.66406 0.66211-1.0996 0.43945-0.66015 0.66016 0.21875 0.66406 0.66211 0.6582 1.543h0.22071l-0.22071-0.44335 0.22071-0.43946 0.2207 0.21875 1.0996 1.3223 1.1055 1.1016 0.43945 0.88086h-0.43945l-0.44141 0.66211zm-5.2871-7.2695-0.66211-0.66211v-0.44141l1.1035 0.88281zm0.44141-0.22071 0.21875-0.21875h0.88086l0.2207 0.21875-0.88086 0.22071zm-3.3047-3.5234-0.4414-0.44141v-0.44141l0.88086-0.21875v0.88086z" style="fill:#228b22;stroke-width:.09995;stroke:#fff"/><path id="path8275" d="m129.74 460.83-0.33525 0.67163 0.883 0.441 1.32 1.322 0.442-0.441h0.66l0.66 0.441 0.661-0.221h0.882l0.22-0.22 0.662-0.441h0.439v-0.221l0.221-0.88v-0.221l-0.45849-0.0917 2e-3 -0.14481-0.34553-0.0559 0.0581-0.44029-0.81278-0.14709 0.37948-0.46504-0.30008-0.1742 0.15318-0.35534-0.34325-0.15435 0.0383-0.27543-0.31157-0.0422-0.10819 0.53047-0.64519 0.66511-0.60037 0.28524-0.081 0.508-0.30146-0.0174-0.27601-0.35321-0.74349 0.13657-0.87283-0.0779-0.36335 3e-3 -0.0217 0.27302-0.28735 0.21834-0.47317-0.0555z" style="fill:#228b22;stroke-width:.09995;stroke:#fff"/><path id="path8263" d="m130.53 460.4-0.21298-0.24913-0.46349-0.12403v0.59863l-0.10575 0.21037 0.47314 0.0555 0.28735-0.21834 0.0217-0.273z" style="fill:#228b22;stroke-width:.09995;stroke:#fff"/><path id="path8249" d="m133.76 459.91 0.0299-0.53717-0.77809-0.57181 0.26405-0.61246-0.43943-0.45784 2e-3 -1.0103-1.0137-0.20192-0.0807 0.33454-0.44651 0.17944-0.7945-0.59771-0.658-0.66-0.441 0.219-0.44 0.441 0.221 1.322 0.437 1.101 0.223 0.883v0.28037l0.46354 0.12386 0.21298 0.24913 0.36335-3e-3 0.87283 0.0779 0.74349-0.13657 0.27601 0.35321 0.30146 0.0174 0.081-0.508z" style="fill:#228b22;stroke-width:.09995;stroke:#fff"/><path id="path8366" d="m133.33 464.1 0.036 0.10583-0.0618 0.42193-0.2032-0.0153 0.04-0.38123z" style="fill:#228b22;stroke-width:.09995;stroke:#fff"/><path id="path8374" d="m132.49 464.37-0.2207-0.22071 0.1685-0.13196 0.27806 0.0904-0.0661 0.22879-0.15976 0.0335z" style="fill:#228b22;stroke-width:.09995;stroke:#fff"/><path id="path8386" d="m132.86 464.6-0.15245-0.0109-0.0724-0.1009-0.14692-0.11845 0.16013-0.0329 0.22373 0.0439-0.0121 0.21825 1e-3 1e-3 -1e-3 -2e-5z" style="fill:#228b22;stroke-width:.178;stroke:#fff"/><path id="path8410" d="m133.1 463.68 0.13788 0.1304 0.0972 0.2887-0.39488-0.11189z" style="fill:#228b22;stroke-width:.09995;stroke:#fff"/><path id="path8414" d="m133.15 464.23-0.0405 0.38125-0.12562-0.01 0.0362-0.25594z" style="fill:#228b22;stroke-width:.09995;stroke:#fff"/><path id="path8454" d="m132.62 463.87 0.36919-0.29705 0.11381 0.10788-0.16 0.30722z" style="fill:#228b22;stroke-width:.09995;stroke:#fff"/><path id="path8446" d="m132.94 463.99-0.22004 0.11365-0.27816-0.0904 0.1752-0.1413z" style="fill:#228b22;stroke-width:.09995;stroke:#fff"/><path id="path8438" d="m132.94 463.99-0.059 0.245-0.1917-0.0248 0.0307-0.10655z" style="fill:#228b22;stroke-width:.09995;stroke:#fff"/><path id="path8430" d="m132.94 463.99 0.39534 0.11189-0.18889 0.13124-0.26549 2e-3 0.059-0.24513z" style="fill:#228b22;stroke-width:.09995;stroke:#fff"/><path id="path8422" d="m133.15 464.23-0.13045 0.11546-0.13804 0.0284 3e-3 -0.14197 0.26549-2e-3z" style="fill:#228b22;stroke-width:.09995;stroke:#fff"/><path id="path8398" d="m133.02 464.35-0.036 0.25609-0.11364-9e-3 0.0116-0.21871 0.13804-0.0284z" style="fill:#228b22;stroke-width:.09995;stroke:#fff"/><path id="path8390" d="m132.88 464.38-0.224-0.0445 0.035-0.12224 0.19227 0.0248-3e-3 0.14194z" style="fill:#228b22;stroke-width:.09995;stroke:#fff"/><path id="path8354" d="m133.31 464.63-0.38023 0.3877-0.21618-0.43267 0.59641 0.045z" style="fill:#228b22;stroke-width:.09995;stroke:#fff"/><path id="path8341" d="m133.31 464.63 0.13349 0.35162 0.21228 0.0314-0.085 0.44853-0.19702 0.22507-0.21875-0.21875-0.22523-0.45014z" style="fill:#228b22;stroke-width:.09995;stroke:#fff"/><path id="path8322" d="m133.37 464.21 0.15429 0.0332 0.16602-0.13477 0.0469-0.28711 0.51953 0.0918 0.12305 0.11523 0.0977 0.0176 0.24023-0.10352 0.42233 0.0418-0.0376 0.34517-0.89528 0.74401-0.2629-0.11349-0.2903 0.055-0.2123-0.0314-0.13349-0.35162 0.0618-0.4219z" style="fill:#228b22;stroke-width:.09995;stroke:#fff"/><path id="path8283" d="m135.14 463.98 0.35112 0.0422 0.11914 0.0762 0.62695 0.0449v0.66211l-0.21875 0.66016v0.66015l-0.14644 0.73239-0.74219-0.29102-0.39648 0.084-0.2461-0.14843-0.16015-0.21094-0.5-0.19727-0.44922-0.0879-6e-3 -0.32226 0.19712-0.22511 0.0847-0.44853 0.2903-0.055 0.26296 0.11349 0.89501-0.74401 0.038-0.34513z" style="fill:#228b22;stroke-width:.09995;stroke:#fff"/><path id="path4275" d="m136.24 464.15 0.221-0.22v-0.881h-0.66v-0.441l0.22-0.22h-0.22l-0.662 0.441-0.22 0.22h-0.882l-0.661 0.221-0.38775 0.31024 0.25307 0.23815 0.13238 0.39363 0.15381 0.0333 0.16545-0.13501 0.0486-0.28689 0.51783 0.0922 0.12435 0.11425 0.0968 0.0182 0.24036-0.10381 0.77281 0.0845 0.12024 0.0755 0.62605 0.0457z" style="fill:#228b22;stroke-width:.09995;stroke:#fff"/><path id="path8231" d="m131.73 473.04 0.3484-0.15219-0.36477-0.81551-0.4543-0.6481 0.78201-0.5885 0.0222-0.47947 1.1073-0.42621 0.0114-0.40598-0.17692-0.3583 0.5726-0.13134 0.11544-1.241-0.29556-0.57456-0.12869-0.51181 0.53078 0.19212 0.24091-0.0825 0.58474 0.0545 0.11154-0.21624 0.39958-0.0831 0.73991 0.29237 0.14711-0.73378v-0.66015l0.21875-0.66016v-0.66211l0.2207-0.21875v-0.88281h0.4414l0.21875 1.1016 0.44141 0.22071-0.22266-1.3223h0.22266l1.543 0.66211 0.21875 0.66016 1.3223 0.6621 1.9648 0.30274 0.0254 0.34766 2.084 1.1113 0.38086 0.64063-0.86718 0.41797-0.62891 1.0976-1.3027 1.7441-1.0469 5.293-0.60937 0.28125 0.43945 0.21875 0.51953 0.11328 0.66016-0.30468 0.34961 0.32812-0.75586 0.53711 0.49804 0.625-0.30859 0.95703 0.41406 0.56836-0.625 0.81446-0.0937 0.54687-0.93359 0.41406 0.23828 0.34571 0.88476 0.0137-0.4414 2.209-0.17774-0.0586-1.5488-1.1602h-0.66016l-0.66211-0.44336-0.44141-0.6582-1.3203-0.44141 0.88086-3.9648-2.4235-0.44159 0.221-0.44v-0.219l-2.631-0.377-1.0012-2.4097zm8.0378-9.1107-0.44141-0.2207h0.44141z" style="fill:#228b22;stroke-width:.09995;stroke:#fff"/><path id="path8259" d="m130.93 464.37-0.19525-3.7e-4 -0.439-0.441-0.442 0.22h-0.66v0.882l-2.647-0.22-0.441-0.222h-0.881v0.442l-0.22 0.221v1.982l-0.22 0.22v1.542l-0.221 2.202 2.424 0.222v0.44l5.289 3.525 0.45425 0.0651-1.001-2.4103 0.34836-0.15212-0.36483-0.81535-0.45445-0.64779 0.78173-0.58787 0.0234-0.48045 1.1056-0.4251 0.0123-0.4067-0.17693-0.3576 0.57285-0.13123 0.1152-1.2412-0.29601-0.57386-0.12909-0.51224-0.36221-0.18588-0.36201-0.038-0.21202 0.107-0.39202-0.34-0.77807-0.051-0.366-0.378 0.025-0.226 0.26799-0.134-0.21499-0.562 0.0561-0.53z" style="fill:#228b22;stroke-width:.09995;stroke:#fff"/><path id="path8317-1" d="m133.65 466.84 0.14602 0.0528 0.24241-0.0836 0.58324 0.0562 0.11319-0.21624-0.24621-0.14813-0.15907-0.21163-0.49975-0.19584-0.4498-0.0891-0.10057 0.1077 0.38063 0.30142-0.0101 0.42642z" style="fill:#228b22;stroke-width:.09995;stroke:#fff"/><path id="path8308" d="m133.28 466.12-0.37588 0.40293 0.36203 0.18586 0.38485 0.13905 0.01-0.42642z" style="fill:#228b22;stroke-width:.09995;stroke:#fff"/><path id="path4267" d="m133.38 466.01-6e-3 -0.32171-0.21806-0.219-0.441-0.882-0.0731-0.10147-0.14685-0.11753-1.5678 3.7e-4 -0.0559 0.53 0.215 0.562-0.268 0.134-0.025 0.226 0.366 0.378 0.77794 0.051 0.39197 0.34 0.21199-0.107 0.36199 0.038z" style="fill:#228b22;stroke-width:.09995;stroke:#fff"/><path id="path7966" d="m137.24 481.08-0.55916-0.18737-1.542-0.222-0.661 0.222h-0.219l-0.883 1.1h-0.44005l-4e-5 0.22-0.0577 0.24937 1.105 0.972 0.42384 0.0777 0.72016-0.35872h0.185l0.198-0.18901 0.672-0.64 0.234-0.355 0.097-0.306z" style="fill:#228b22;stroke-width:.09995;stroke:#fff"/><path id="path8014" d="m99.445 490.36-3.082-1.1016v-0.43946l0.66016-0.4414v-0.22071l-1.1016 0.22071-0.4414 0.4414-3.9648-2.2051v-0.66016l1.3203-0.88086 1.9844-0.88281-0.2207-0.65821-0.2207-0.2207 0.2207-1.3242-0.2207-0.6582 0.2207-0.44141 0.4414-0.4414 2.4219-0.88086 1.7637 0.4414 3.5254-0.2207 0.88281 0.66016 1.7617 0.4414 0.44141 0.66211 0.88086-0.88476v-0.65821l-0.66211-0.4414h-0.43945v-0.66016l0.43945-0.66211 0.66211-1.9805-0.2207-0.66211-0.66016-1.3223-1.1016-0.2207h-0.88477l-0.6582 0.2207-0.66211-0.88086-1.0996-1.1016-0.66211-0.22071-1.543 1.3223-0.88086-0.2207-0.88281-1.1016-0.43945-1.1016 0.21875-0.66016-1.0996-0.88281-2.4238-3.082-0.2207-1.3223 1.1016-2.2031 0.66211-0.2207 0.21875 0.43945 0.88281-0.43945-0.2207-0.44141-0.44141-0.21875v-0.2207h1.3223l1.1016 0.2207 1.1016 1.7617 2.2051 0.43945 0.31055 0.57227-0.53125 1.0098 0.68945 1.1953 1.3242-0.0274 0.21094 0.67969 0.41796-0.22461 1.3809-0.83984 0.26954 0.70312 0.55273-0.20312 0.22266 0.6582h-0.44141v1.7637l1.0176-0.48633 1.3144 0.44922 0.13672 1.9551 0.65234 0.83399 0.25196 1.0098 0.34375 0.65234 0.0156 0.81641 0.50781 0.88086 0.30859 0.75 10.004 0.83203 1.3359 0.7832 0.0977 0.53711 0.57226 0.91407-0.26172 0.13281-0.70117-0.25977-1.1738 1.1777 0.63867 0.91211-0.15429 0.58398 1.0273 0.69141-0.18359 1.2539 0.3121 0.70464 0.46122 0.17278 0.32676 0.8451 0.48812 0.6703-0.31867 2.3376-1.0898-0.4707 0.10351-0.71289-3.2188-1.1484-0.3418 0.57617-0.71093 0.4961-1.3223-0.15821-0.26562 0.7793-0.70118 0.87695h-0.88281v0.87891h-1.7617v-1.9824h-2.2031v-0.88086h-1.3203v-2.2012h-0.44141v-0.44336h-0.43945l-7.7129 0.2207v0.88281h-0.22071l-0.21875 0.22071v0.66015l-0.4414 0.22071v1.7617l-0.22267 2.2032zm-3.5234-1.3203v-0.22071l0.22071 0.22071zm-4.627-5.7285-0.43945-0.2207 0.2207-0.44141 0.43945 0.22071zm-8.8125-5.0684-0.2168-0.43945-0.4414-1.3223v-0.4414l0.6582-0.43946 0.88281 0.43946h0.43946l0.88281-0.43946 1.3203-1.543 0.66211-0.22071 0.66016 0.44141 0.88086-0.44141 0.4414 0.88281-1.7637 0.43946-1.1016 0.88086v0.66015l-0.43945 0.44141-0.44141 0.2207-1.1016-0.66211-1.3223 0.88282zm20.049-3.084-0.21875-0.43946h0.66016v0.43946z" style="fill:#228b22;stroke-width:.09995;stroke:#fff"/><path id="path7999" d="m134.81 483.31-0.40915 0.20372 0.51016 0.32628z" style="fill:#228b22;stroke-width:.09995;stroke:#fff"/><path id="path7995" d="m134.91 483.84 0.284-0.685h-0.074l-0.31101 0.155z" style="fill:#228b22;stroke-width:.09995;stroke:#fff"/><path id="path4263" d="m134.91 483.84h0.153l0.653-0.483-0.21301-0.391-0.198 0.189h-0.11099z" style="fill:#228b22;stroke-width:.09995;stroke:#fff"/><path id="path8041" d="m103.43 467.58-0.21094-0.67969-1.3242 0.0274-0.68945-1.1953 0.53125-1.0098-0.31055-0.57227-2.2051-0.43945-1.1016-1.7617-1.1016-0.2207h-1.3223l-0.2207-0.22071v-0.2207h0.4414l0.22071-0.66211-1.3223-0.8789 1.9824-1.7637 0.88086-1.3223 0.22071-0.66016 0.88086-0.4414 1.543 0.22265 1.5449 0.87891 0.43945 0.88086 1.1016-2.2031v-0.2207l0.4375-1.3203-0.8789-1.1016 0.4414-0.88085 0.2207-1.3223-0.2207-0.88086-0.4414 0.2207-0.44141-0.2207 1.5449-0.2207 0.66016 0.2207v0.88086h0.88086v0.88086h0.43945l0.44141 1.3223 0.4414 0.43946 0.21875 1.3223 0.44141 0.88086h0.66211v0.88281l0.6582 1.3203 0.44141 0.88086h0.4414l1.1016 2.6445h2.6426v-0.44141h0.44141l0.43945 0.44141v0.66211l-0.19726 0.97656-0.57422 0.42383-0.13086 0.5039-0.74805-0.082-0.45117 0.41797-0.084 0.48047 0.32227 0.23633 0.30273 0.94726 1.6465 1.0586 0.46679 0.74219-3.1953-0.19727v-0.44141h-1.7637v-0.43945h-3.7422l-0.22266 0.21875v0.44141l-0.55273 0.20312-0.26953-0.70312-1.3809 0.83984-0.41797 0.22453zm-27.121-4.75-0.21679-0.44141 0.65625-0.88086 0.22265-0.4414h0.88281l-0.22265 0.2207-0.88281 0.44141-0.2168 0.43945zm15.863-3.5254-0.88281-0.66211h-1.3203l-0.22266-0.2207v-0.43946l0.66211-0.66015 2.2031-1.1016 1.1016 0.43946 0.2207 0.4414 0.21875 1.3203-1.1016 0.88281-0.66016-0.2207z" style="fill:#228b22;stroke-width:.09995;stroke:#fff"/><path id="path8069" d="m125.88 477.81-5.4922-0.67969-10.004-0.83203-0.3086-0.75-0.50781-0.88086-0.0156-0.81641-0.34375-0.65234-0.25195-1.0098-0.65235-0.83399-0.13671-1.9551-1.3145-0.44922-1.0176 0.48633v-1.7637h0.44141l-0.22266-0.6582v-0.44141l0.22266-0.21875h3.7422v0.43945h1.7637v0.44141l3.1953 0.19727-0.46679-0.74219-1.6465-1.0566-0.30273-0.94922-0.32227-0.23633 0.084-0.47852 0.45117-0.41992 0.74805 0.082 0.13086-0.5039 0.57617-0.42188 0.19531-0.97851v-0.66211l-0.43945-0.44141h-0.44141v0.44141h-2.6426l-1.1016-2.6445h-0.4414l-0.44141-0.88086-0.6582-1.3203v-0.88281h-0.66211l-0.44141-0.88086-0.21875-1.3223-0.4414-0.43946-0.44141-1.3223h-0.43945v-0.88086l1.7617 1.1016 0.22071-0.2207-0.22071-0.2207 1.1016-0.87891h0.2207l0.21875 0.66016 0.44141-0.22071 1.3242-2.4238h0.4375l0.6621 0.44141-0.43945 1.1016 0.21875 0.88086 0.2207 0.22071 0.88086-1.3223 0.44141-0.2207 2.6426 1.3223 0.2207 0.43946 0.2207-0.21875-0.2207-0.88282-0.4414-0.66015-0.66016-1.1016-0.44141-4.1855-2.2012-2.2031-0.44141-0.88086 0.22071-0.88281h-0.66016l-0.22265 0.22266-2.6426-1.7656-1.3223-1.0996-0.66015-1.541v-0.66211l-0.21875-0.43946-0.44141-0.22265-0.2207 0.4414v0.44141h0.2207l-0.66016 0.2207-0.66211 0.22071-1.3223-0.44141-1.3203-1.1016-1.9863-2.2031-1.3203-0.43945v-1.3223h-0.4414l-0.2207 1.1016h-0.66211l-2.4219-1.1016-0.44141-0.66015-0.66015-0.2207v-0.44336l0.2207-0.66016h1.1016l0.66016 0.66016 0.44141 0.22265h1.541l0.88281 0.22071 0.66016-0.22071v1.3203l-0.44141 0.88282 0.66016 0.2207 0.44141-1.1035 0.88281 0.22071-0.2207 0.88281-0.22071 0.43945 0.22071 0.44141 0.43945-0.22266v-1.0996l0.66211-0.2207 0.88086 0.44141 1.1035 2.6426h0.66016l-0.44336-1.1016 0.88477-0.2207 1.9824 0.66016 1.0996 0.88281 0.22265 0.4414h0.43946l0.2207 0.43946 0.44141-0.22071v-0.4414l0.21875-0.43945 0.22071 0.43948v0.66211l2.8652 0.66211 0.87891 1.1016-0.87891 0.87891 0.43946 0.66015h1.3223l-0.2207 0.44141h-0.21875v0.22265l1.3203 0.43946 0.22071 0.88086 0.43945-0.21875 2.4219 1.7598h-1.0976v0.44336l0.43945 0.2207 0.21875 0.44141 0.43945 0.6582 0.66211 0.44141 0.21875 0.21875 0.22071-0.21875 0.2207 0.21875 0.43945 0.66211 0.88086 0.66211-0.21875 1.7598 0.88086 0.4414 1.1016 0.43945 0.66016 0.44141v1.1016h-0.88086l-0.2207 1.543v0.44141l-0.22071 0.2207v0.87891h0.66211l0.21875 0.88281 0.44141 0.43945 0.2207 0.22071 0.22071 0.43945v0.44141h0.43945v0.4414h0.2207v1.3223l-0.2207 0.4414h0.44141l-0.22071 1.7617h0.44141l-0.44141 2.2031v0.2207l-0.2207 1.9824v0.43946h0.2207l0.88086 0.21875v0.44335l-0.2207 0.22071v1.9824l-0.21875 0.21875v1.543l-0.2207 2.2012 0.88086 2.4258v0.66016l-0.88086 0.21875-0.22071 1.3242 1.3242 0.21875 0.4375 0.88281-0.21875 0.88086zm-21.146-27.318v-0.44141l0.66015 0.44141zm-24.895-5.9492v-0.21875l0.2207-0.2207 0.43945 0.43945zm1.3223-3.3027 0.44141-0.44141 0.21875 0.2207h-0.21875zm34.807-2.2051-0.2207-0.21875h0.88086l-0.43945 0.21875zm-8.5918-5.7246-0.22071-0.22266 0.22071-0.2207h0.43945v0.44336zm-1.541-0.44336-0.2207-0.21875 0.2207-0.88086 0.88086-0.2207 0.43945 0.66015v0.44141h-0.43945l-0.43945 0.21875zm2.6426-0.44141-0.21875-0.8789-0.44336 0.2207-0.21875-0.2207v-1.3223l1.1016 1.3223zm1.1016-0.21875-0.43945-1.1016h0.43945zm-7.7109-2e-3 -0.2207-0.21875 0.44141-0.44141h0.4414l-0.2207 0.22071zm6.8301-0.66016v-0.66211l0.44141 0.22071-0.22266 0.4414zm-8.1523-0.4414-0.66211-0.22071 0.44336-0.43945 0.21875 0.2207zm8.5938-0.22071v-0.43945l0.21875 0.2207zm-10.357-2.2031-0.21875-0.21875 0.21875-0.2207h0.6621v0.2207zm-8.3711-0.43945-0.2207-0.22071 0.2207-0.66015 0.43945 0.43945v0.44141h-0.21875zm-1.1016-0.22071-0.43945-0.4414 0.21875-0.43946h0.66211l0.2207 0.43946zm2.8633-0.66015-0.66016-0.22071h0.88086v0.22071zm-4.8457-0.22071-1.3223-0.2207-0.2207-0.21875-0.21875-1.7637-2.4238-0.88086 0.66016-0.44141 1.7637 0.66211h0.66015l0.66016 0.22071 1.7617 1.3203 0.22266 0.4414-0.88282 0.88086-0.21875-0.43945-0.2207-0.22266-0.2207 0.22266zm3.5234 0 0.66211-0.2207-0.2207 0.2207zm-7.9297-1.7637-0.66016-0.21875-0.44141-0.2207-0.21679-0.43945-1.3242-0.88282v-0.43945l-1.0996-1.1016 0.66016 0.21875 1.3223 0.66211 1.0996 1.1016 0.88086 0.2207 0.44141 0.88086zm-34.369-1.7617-0.21875-0.2207 0.21875-0.21875 0.22265 0.21875zm1.7637-0.2207 0.22265-1.1016 0.43946-0.21875 0.66015 0.43945-0.43945 0.88086h-0.44141zm27.102 0-0.22265-0.21875 0.22265-0.2207zm-14.102-0.43945-0.88281-0.44141 0.2207-0.2207h0.2207l-0.2207-0.21875-1.1016-0.44141-2.2031 0.2207 2.4238-0.4414h1.3223l0.66015 0.88086zm12.775 0 0.22266-0.22071 0.21875 0.22071h-0.21875zm-22.471-0.22071-0.22071-0.4414-1.0996-0.21875 0.66016-0.44141h0.43945l0.66211 0.88086zm3.0859 0v-0.4414l0.43946-0.21875 0.2207 0.21875v0.4414h-0.44141zm19.826 0-0.21875-0.2207 0.88086-0.2207 0.22265 0.2207-0.22265 0.2207zm-21.59-0.2207-1.1016-1.541 2.2031 0.2207 0.22071 0.43945-0.66016 0.2207h-0.4414l0.2207 0.43946h0.2207v0.2207zm19.387-0.2207-0.6582-0.21875v-0.44141h0.6582l0.22266 0.44141zm1.543 0v-0.21875h0.21875v0.21875zm-17.846-0.43946v-0.2207h0.2207zm-10.572-0.2207-0.22461-0.43945 0.22461 0.21875zm9.0312 0-0.2207-0.2207 0.4414-0.21875 0.66016 0.21875-0.2207 0.2207zm12.115 0-0.43946-0.2207-0.2207-0.21875h0.88281v0.21875zm3.7461 0-0.2207-0.2207 0.2207-0.21875 0.2207 0.21875zm-25.336-0.2207-0.2207-0.43945h0.2207zm16.305 0 0.66016-0.66016 0.88085-0.2207h1.7637l-1.543 0.44141-0.44141 0.2207h-0.66015z" style="fill:#228b22;stroke-width:.09995;stroke:#fff"/><path id="path8075" d="m132.88 482.46-0.60321 2.6156h0.221l0.69916 0.14037 1.167-0.599 0.55499-0.781-0.51016-0.32628-0.42384-0.0777z" style="fill:#228b22;stroke-width:.09995;stroke:#fff"/><path id="path8083" d="m141.25 475.98 1.0462-5.2936 1.3031-1.7438 0.6277-1.0976 0.86742-0.41897-0.38105-0.6408 1.0522 0.16691 0.13812-0.75804 1.778 0.26098 0.11503-0.81001 0.75602 0.12 0.16801-0.44101 1.266 0.398 0.338-0.829 2.01 0.599 0.202-0.468h0.44v-0.442l1.542 0.442 0.44054 1.4e-4 -2.2023 7.4904-5.5078 19.166-3.7461 12.998-9.0312-2.2031 0.43945-2.4219 0.34571-1.9512-0.125-0.94141-0.82227-0.42773-0.97851-1.8965-2.1133-0.0293-0.7129-1.2148-1.5527-0.42773h-2e-3l0.0859-0.75391-0.59961-0.51172-1.8242-0.4375-0.54297-0.42578-0.64258 0.0703-1.1758-0.66797 0.0371-0.88086-1.4668-0.36914 0.0312-0.60938 0.31836-2.3379-0.48829-0.66992-0.32617-0.8457-0.46094-0.17188-0.3125-0.70508 0.1836-1.2539-1.0274-0.69141 0.1543-0.58398-0.63867-0.91211 1.1738-1.1777 0.70117 0.25977 0.26172-0.13281-0.57227-0.91407-0.0977-0.53711-1.3359-0.7832 5.4922 0.67969 0.21875-0.88086-0.4375-0.88281-1.3242-0.21875 0.22071-1.3242 0.88086-0.21875v-0.66016l-0.88086-2.4258 2.4238 0.22266v0.43945l5.2891 3.5254 3.084 0.44141v0.21875l-0.2207 0.4414 2.4238 0.44141-0.88086 3.9648-1.543-0.22265-0.66016 0.22265h-0.2207l-0.88281 1.0996h-0.43946v0.22071l-0.0566 0.25-0.60346 2.6152h0.2207l0.69922 0.13867 1.166-0.59765 0.55469-0.78125h0.1543l0.65234-0.48243-0.21289-0.39062 0.67188-0.64063 0.23437-0.35547 0.0977-0.30468 0.72656-0.58399 0.76172 0.25391 0.44141 0.6582 0.66211 0.44336h0.66015l1.5488 1.1602 0.17774 0.0586 0.4413-2.2093-0.8846-0.0131-0.2387-0.34652 0.93448-0.41432 0.0933-0.54671 0.62484-0.81437-0.41432-0.56769 0.30862-0.95636-0.49715-0.62484 0.75445-0.53711-0.34858-0.32861-0.661 0.30473-0.51913-0.1143-0.44-0.219 0.61097-0.27993z" style="fill:#228b22;stroke-width:.09995;stroke:#fff"/></g><metadata id="metadata111"><rdf:RDF><cc:Work rdf:about=""><dc:title/></cc:Work></rdf:RDF></metadata></svg>
