<?xml version="1.0" encoding="UTF-8"?>
<svg id="svgdata" version="1.1" xmlns="http://www.w3.org/2000/svg" xmlns:cc="http://creativecommons.org/ns#" xmlns:dc="http://purl.org/dc/elements/1.1/" xmlns:rdf="http://www.w3.org/1999/02/22-rdf-syntax-ns#">
 <metadata id="metadata55">
  <rdf:RDF>
   <cc:Work rdf:about="">
    <dc:format>image/svg+xml</dc:format>
    <dc:type rdf:resource="http://purl.org/dc/dcmitype/StillImage"/>
    <dc:title/>
   </cc:Work>
  </rdf:RDF>
 </metadata>
 <g id="outlines">
  <path id="District 9" class="c38079" d="m134.45 41.669 0.0697-8.0031-1.2178-0.0137 0.0997-12.913 21.461-0.0177-0.0257 12.959 1.0947-0.0222-0.0127 8.0029-21.47-0.0124" style="fill:#228b22;stroke-width:.37062;stroke:#fff"/>
  <path id="District 20" d="m223.42 64.861-0.14565 16.214 3.1e-4 8e-3 1.5e-4 4e-3 1.1725 20.006 0.039 4.1149 21.051-0.57948-0.32744-4.0324-1.0691-12.082-1.4595-7.9702-4.7e-4 -0.012-4e-3 1.7e-4 -3.907-7.685-6.4157-0.0639-0.12659-3.8104-4.3004-0.10642-0.12884-4.0718-4.377 0.0669z" style="fill:#228b22;stroke-width:.37062;stroke:#fff"/>
  <path id="District 25" d="m237.9 126.12 0.0334 2.8988 0.86608-0.0174 0.16721 4.1971 7.6578-0.14271-0.0506 3.845-3.1453 0.13021 0.065 8.2224 0.64732 0.57314 0.14393 8.8572-0.0536 6.456 11.991-0.36247-0.61851-4.0172 0.56673-1.7177 0.0719-0.29597 0.0342-0.94426-0.13575-0.81485-1.6814-9.7127-5.1242-10.593-1.6126-3.9687-0.11848-2.6122z" style="fill:#228b22;stroke-width:.37062;stroke:#fff"/>
  <path id="District 13" d="m241.8 119.1-0.7573-0.76762 0.0461-1.1326 1.312-0.56674 0.83599 0.0383 0.52353 0.71033 0.40623-8e-3 -0.59161 0.43149-0.0188 0.79552-1.1644 0.0675z" style="fill:#228b22;stroke-width:.37062;stroke:#fff"/>
  <path id="District 21" d="m247.84 116.99-0.0294 1.1484-0.76572-0.16927-0.99859-0.0126-0.14749-0.55675-0.96368-0.0366-3e-4 -0.8816 1.296-5e-3 0.20049 0.39392 1.4088 0.11977z" style="fill:#228b22;stroke-width:.37062;stroke:#fff"/>
  <path id="District 44" d="m246.23 116.47-0.13995-1.5441 1.321-0.0432 0.45485 1.0601-0.0266 1.0405-1.4087-0.11956-0.20048-0.39384z" style="fill:#228b22;stroke-width:.37062;stroke:#fff"/>
  <path id="District 41" d="m245.71 121.87-0.73561-0.10938-0.0273-2.4176 1.4583 0.0201 0.15816 0.14458-0.23452 0.69046-0.53344 0.29001-0.0857 1.3818z" style="fill:#228b22;stroke-width:.37062;stroke:#fff"/>
  <path id="District 46" d="m246.57 119.51 1.2023 0.0322-0.0867 3.3788-1.9748-0.21613 6e-3 -0.83262 0.0857-1.3818 0.53344-0.29002z" style="fill:#228b22;stroke-width:.37062;stroke:#fff"/>
  <path id="District 11" d="m244.95 119.34-0.0206-1.9826 0.96366 0.0366 0.1475 0.55676 0.99857 0.0126 0.76568 0.16907-0.0359 1.4044-1.2023-0.0324-0.15816-0.14457-1.4583-0.0199z" style="fill:#228b22;stroke-width:.37062;stroke:#fff"/>
  <path id="District 16" d="m244 121.34-1.4812-1.5014-0.72392-0.7338 0.59162-0.43143 1.1644-0.0673 0.0188-0.79546 0.59162-0.43143 0.32072-4e-3 -8e-3 1.8077-0.48586 0.40999 0.0122 1.7474z" style="fill:#228b22;stroke-width:.37062;stroke:#fff"/>
  <path id="District 27" d="m244.49 117.37 0.4452-0.0112 0.0479 4.4002 0.73564 0.10938-6e-3 0.8326 1.9749 0.21609-0.0815 3.1764-3.7733 8e-3 0.17481-4.7666-0.0121-1.7474 0.48585-0.40999 8e-3 -1.8077z" style="fill:#228b22;stroke-width:.37062;stroke:#fff"/>
  <path id="District 45" d="m246.09 114.93 0.13995 1.5441-1.296 5e-3 3e-4 0.88158-1.1722 0.023-0.52353-0.71034-0.83599-0.0383-0.31636-2.7744-4.4446-0.70791 0.0373-8.3095 7.8607-0.21631 0.27807 5.8881 1.5932 4.3725-1.3209 0.0432z" style="fill:#228b22;stroke-width:.37062;stroke:#fff"/>
  <path id="District 22" d="m243.83 126.1-5.9322 0.0131 0.0348 2.8971-7.0396 0.21912-0.98831 4e-3 -0.20427-7.191-8.3976-0.1185 0.0743-8.2922-5.2128 0.0202-0.26482-12.417 8.5491-0.14932 0.0365 4.1159 13.192-0.36301-0.0373 8.3095 4.4446 0.70789 0.31636 2.7744-1.312 0.56672-0.0461 1.1326 2.9625 3.0028z" style="fill:#228b22;stroke-width:.37062;stroke:#fff"/>
  <path id="District 26" d="m230.89 129.26 0.0576 4.5936-12.671 0.34525-0.0562 3.7026-4.5612 0.0462 0.0204 4.603-4.2828 0.13462 3e-3 3.0862-3.803 0.14764-15.914 0.20973-0.32718 16.047 17.416-0.18085-3.1e-4 -8e-3 1.0084 4.1e-4 25.673-0.55686 5e-3 0.016 10.768-0.31113 0.0579-6.4522-0.14393-8.8572-0.64732-0.57314-0.065-8.2224 3.1453-0.13022 0.0506-3.845-7.6578 0.14271-0.16675-4.1852-7.9079 0.24756z" style="fill:#228b22;stroke-width:.37062;stroke:#fff"/>
  <path id="District 2" d="m7.1894 17.888 3.07e-4 8e-3 -0.82116 16.846 1.57e-4 4e-3 7.71e-4 0.0199-0.54182 11.269-0.82027 18.158 4.0374 2.0263 1.1561-0.27467 2.0507-1.1691 2.8263-2.2294 0.90524-1.3703-0.71128-0.61027-0.10805-0.20577 0.0087-0.21429 0.9987-0.78757 0.6573-0.3504 0.67687-0.1689 0.14031-1.8596 0.98409 0.12423 1.1475-0.49621 0.58918 1.867-0.67925 0.96534 0.62351 1.0336 0.13904 1.4328 0.78592 1.1383 1.783 1.3808 0.43025 0.0269 4.7604-1.0326 2.2366-0.67319 1.5186-0.59778 0.24785-0.2711 0.05648-0.25973-0.02488-0.20109-0.28137-0.27037-0.50743-0.19027-0.07031-0.0963 0.01382-0.0837 0.56891-0.80259 0.82426-0.87986 0.39687-0.2967 3.3472-0.40332 7.5689 0.68081 1.4169 0.64626 0.08135-7.2284 17.726 0.335 0.12783-4.0574-2.1255-0.10015 0.33256-7.9313 4.1194 0.0145 0.25488-8.0328 2.6538-0.0159 0.14309-3.9358 4.2546 0.10821-1.57e-4 -4e-3 0.27335-8.8457-29.967-0.79385 1.57e-4 4e-3z" style="fill:#666;stroke-width:.37062;stroke:#fff"/>
  <path id="District 1" class="c38105" d="m19.777 56.606 0.58888 1.869-0.67746 0.96219-2.1838-0.59883 0.14263-1.8603 0.98412 0.12404z" style="fill:#228b22;stroke-width:.37062;stroke:#fff"/>
  <path id="District 4" d="m68.835 28.767-0.14309 3.9358-2.6538 0.0159-0.25488 8.0328-4.1177-0.0145-0.33378 7.9328 2.1249 0.0998-0.12583 4.0579-17.727-0.33397-0.08203 7.2258 1.4217 0.12705 2.5388 1.6368 4.8887 4.204 0.11375 0.13821-7.5334-0.30184-0.76969 18.079 2.3327 1.8954-0.658 9.9937-0.10893 1.272 2.3418 0.10321 0.10068 7.6386 16.647 0.72856 0.24258-8.1353-2.0393-0.0397 0.11248-6.7634-3.07e-4 -8e-3 0.74613 0.32761 8.7782 0.91515 3.2711-1.9336 0.47543-0.0977 0.75948-0.4019 1.6221-1.0455 1.1512-0.40126 5.0646-0.60469 0.41862-5.2103 15.7 0.27403 0.44497-8.5037 3.202 0.0421 0.15042-8.0406-1.3151-0.0638-0.109-3.9894-8.5818-0.1502-12.995-0.0462 0.21264-12.449 2.4997 0.0931 0.10377-3.8748-8.1845-0.11412 0.28749-12.024-5.8677-0.1169 0.10316-3.9976z" style="fill:#228b22;stroke-width:.37062;stroke:#fff"/>
  <path id="District 39" d="m17.505 58.826-0.67763 0.14913-0.6573 0.35038-0.99455 0.78741-0.01301 0.21445 0.1121 0.20564 0.7071 0.61041-0.90524 1.3703-2.8263 2.2294-2.0463 1.1729-1.1603 0.27484-4.0376-2.0302-1.4095 27.669-0.17071 3.1167 0.0085-3.3e-4 -0.0084 4e-3 -1.6075 31.908-0.23102 4.6761-0.62621 12.1c0.0016 2e-3 2e-3 6e-3 0.0046 8e-3l-0.0043 1.6e-4 -0.76676 15.564 35.897 1.3125 6.29e-4 0.0162 1.8355 0.0517 32.2 0.8696 0.07073-3e-3 0.35022-12.125-17.023-0.43267 0.13147-3.5906-14.548-0.3346 0.50056-16.196-10.281-0.33385 0.69042-16.243 6.6756 0.21231 0.64001-16.146-2.2282-0.076-0.02161-7e-3 0.0213-8.3e-4 0.01039-1.1778 12.739 0.47924 0.65832-9.9963-2.3332-1.8932 0.77181-18.079 7.5314 0.30366-0.11375-0.1382-4.8889-4.208-2.5387-1.6328-1.4217-0.12705-1.58e-4 -4e-3 -1.4169-0.64627-7.5648-0.68096-3.3472 0.40332-0.40118 0.29291-0.82411 0.8838-0.56891 0.80259-0.01382 0.0837 0.07031 0.0963 0.50743 0.19027 0.28553 0.27021 0.02061 0.20126-0.05649 0.25973-0.24368 0.27093-1.5228 0.59795-2.2366 0.67319-4.7604 1.0326-0.4261-0.027-1.7871-1.3807-0.78592-1.1383-0.13904-1.4328-0.62351-1.0336z" style="fill:#228b22;stroke-width:.37062;stroke:#fff"/>
  <path id="District 36" d="m35.115 95.016-0.0085 1.177 2.2282 0.0759-0.64016 16.142-6.6758-0.21628-0.69026 16.247 10.281 0.33781-0.50041 16.2 13.088 0.2962 0.50562-8.1218 7.8122 0.0771 0.25056-7.9296 6.9862 0.16064 0.14-4.0149 12.781 0.23676 0.982-3.687 1.7232-0.0507 0.08369-1.8178 1.7697-0.99976-0.03051-5.6168-5.7949-0.0682-11.185-0.21951-1.6283-0.0402 0.04516-1.3483 0.19799-6.6003-16.647-0.72854-0.10068-7.6386-2.3418-0.10322 0.10893-1.272zm8.9722 21.371 1.3519 0.0465 0.98093 1.8676-1.7943 0.36681-0.53901-0.25246 4.1e-4 -2.0285z" style="fill:#228b22;stroke-width:.37062;stroke:#fff"/>
  <path id="District 31" d="m106.56 118.11-1.7688 0.80953-7.6117 0.25594-0.0375 9.1258-1.2116 0.0267-0.29438 1.6477-0.85345 0.021-14.208-0.26857 0.10132-4.0451-12.781-0.23281 1.57e-4 4e-3 -0.14015 4.011 3.14e-4 8e-3 -6.9865-0.16856-0.25056 7.9296-7.8122-0.0771-0.50562 8.1218 1.4598 0.0344-0.13146 3.5906 17.023 0.4287 1.58e-4 4e-3 -0.20468 7.072-0.14539 5.0571 0.22054-9e-3 0.0833-3e-3 0.55078 0.0182 4.1371 0.085 4.9205 0.0863 5.1839 0.10778 4.2904 0.0632 1.9893 0.0417 3.4982 0.0504 9.9479 0.13283 3.1061 0.0419 4.1146 0.0423 0.27878-0.0108 0.77129 0.01 7.7871 0.0741-3.286-5.534-0.15568-0.46542-0.45359-2.8825-8e-3 -0.53455 0.37583-0.94563 0.88844-1.3736 0.61265-0.64185 0.48866-1.0451 0.12441-0.44459 0.3635-4.2692-0.0713-1.3958-0.27496-0.857-0.71221-1.6007-0.31276-0.54254-1.6e-4 -4e-3 -0.22461-0.52613-0.0532-0.40206 0.43563-2.089 0.28518-0.59743 0.98616-1.5398-1.0174-1.9494-0.6955-1.0625-2.0275-1.4546-2.4076-1.0476-1.7208-1.4981-1.5981-2.739-1.0157 0.13457-1.0094-2.9243-1.4342-0.34051 0.16872-2.0945-0.77188-1.4201z" style="fill:#228b22;stroke-width:.37062;stroke:#fff"/>
  <path id="District 33" d="m90.434 86.656-8.4784 1.0106-1.1511 0.40521-1.6223 1.0416-0.75948 0.40191-0.47527 0.10164-3.2711 1.9336-8.7783-0.9191-0.74613-0.32762-0.11279 6.7555 2.0393 0.0397-0.44041 14.74-0.04344 1.3487 1.6267 0.0399 11.185 0.2195-1.57e-4 -4e-3 5.7949 0.0682 0.03051 5.6168-1.7697 0.99977-0.08369 1.8178-1.7232 0.0507-0.982 3.687-0.10132 4.0451 14.208 0.26462 0.85344-0.021 0.29439-1.6477 1.2116-0.0267 0.0374-9.1258 7.6117-0.25594 1.7688-0.80954 0.77188 1.4201 1.7216 0.44427-0.76096-2.3199-0.88786-3.0122-0.0876-0.8603-0.84664-8.0692-1.5e-4 -4e-3 -0.35527-4.3206-0.13071-0.25642-0.61048-0.69738-1.1424-0.76784-0.78187-0.28262-0.96637-0.20418-1.1777 0.14874-4.5478 1.2502 1.6e-4 4e-3 -3.0365-2.3266-2.9317-6.9265-0.0584-0.32259 0.10317-0.34869 0.55795-0.65557 0.29776-0.27305 1.2249-0.64976 0.26324-0.30342 0.0598-0.28361-1.9221-1.7439-0.27521-0.11214-0.60332 0.0234z" style="fill:#d4aa00;stroke-width:.37062;stroke:#fff"/>
  <path id="District 34" d="m107.16 121.62 1.4342 0.34189 1.0093 2.9218 1.0143-0.13451-1.5687-4.781-1.7217-0.44311z" style="fill:#228b22;stroke-width:.37062;stroke:#fff"/>
  <path id="District 6" d="m73.363 20.029-0.27336 8.8457-0.10316 3.9976 5.8677 0.11692-0.28749 12.024 8.1841 0.11365 17.569 0.32081-0.068 4.0438 0.91908 0.0594 0.34175 12.024 0.10749 3.9892 1.3166 0.0632-0.15057 8.0366 12.829 0.17154 12.874 0.0509-0.23441-8.0772-1.0032 0.027-0.23252-16.187-0.91985 0.0278 0.0448-7.9692 4.3035-0.0284 0.0686-8.0018-1.2174-0.0161 0.0988-12.912-42.917-0.42188z" style="fill:#228b22;stroke-width:.37062;stroke:#fff"/>
  <path id="District 3" d="m105.33 53.516 0.17576 8.0396-8.5813-0.14961 0.29341-4.9458-1.0964-1.3227 1.1459-0.4302 0.68618-1.4628z" style="fill:#228b22;stroke-width:.37062;stroke:#fff"/>
  <path id="District 40" d="m95.535 45.289 8.7837 0.16042-0.0682 4.0252 0.91924 0.0595 0.16525 3.982-7.3765-0.2715-0.68618 1.4628-1.1459 0.43022-0.64097 0.016-0.92217-0.94927 0.10702-4.8694 0.80349-0.76099 0.0611-3.285z" style="fill:#228b22;stroke-width:.37062;stroke:#fff"/>
  <path id="District 38" d="m97.222 56.46-0.29341 4.9458-12.993-0.0483 0.21105-12.448 2.5008 0.0918 0.1026-3.873 8.7837 0.16042-0.0611 3.2849-0.80349 0.76097-0.10702 4.8694 0.92218 0.94927-0.18468 0.52995-0.74975 0.50084 0.11004 1.2078 1.4755-0.27479z" style="fill:#228b22;stroke-width:.37062;stroke:#fff"/>
  <path id="District 5" d="m95.485 55.153 0.64092-0.016 1.0964 1.3227-1.0863 0.65699-1.4755 0.2748-0.11003-1.2077 0.74975-0.50082 0.18467-0.52995z" style="fill:#228b22;stroke-width:.37062;stroke:#fff"/>
  <path id="District 8" d="m103.58 73.606-0.44496 8.5037-15.7-0.27402-0.41862 5.2103 3.4138-0.40588 0.60332-0.0234 0.27505 0.10817 1.9222 1.7478-0.06 0.27967-0.26308 0.30737-1.2249 0.64975-0.29776 0.27306-0.55796 0.65556-0.10332 0.34474 0.0584 0.3226 2.9318 6.9305 3.0365 2.3266 4.5478-1.2502 1.1777-0.14873 0.96636 0.20416 0.78172 0.2787 1.1426 0.77179 0.61032 0.69342 0.13087 0.26035 0.35549 4.3265 0.84673 8.0712 0.0876 0.8603 0.88786 3.0123 4.395 0.39594 0.39919 0.72933 3.2842 0.44302 6e-3 5.3048 2.7172 0.11242 0.27356-5.9416 16.865 0.45066 0.101-5.1267-1.333 0.0122 0.14517-16.012-18.773-0.12103 0.16864-13.689 0.079-2.3683 2.9181 0.0293 0.0801-8.026-12.829-0.17154-4.6e-4 -0.0119z" style="fill:#228b22;stroke-width:.37062;stroke:#fff"/>
  <path id="District 14" d="m130.14 41.692-0.0441 7.9889 0.91985-0.0278 0.23669 16.187 0.99907-0.0268 0.23456 8.0811 6.2e-4 0.0158-12.874-0.0549-0.0801 8.026-2.9181-0.0293-0.079 2.3683-0.16888 13.683 18.773 0.11906 1.5e-4 4e-3 -0.14502 16.016 1.333-0.0122-0.31424 16.165 5.6059 0.028 15.79 0.0209 0.0919-16.204-1.1666 6e-3 0.0142-16.058 7.1782-0.0449-0.0223-12.059-0.0155-3.9455-1.0253-4e-3 -0.0416-8.049-3e-4 -8e-3 0.0373-11.705 8.2076 0.17264-4.7908-2.4328-0.2533-0.29921-0.0443-9.9427-9.6456 0.0337-6.1e-4 -0.0158-0.0191-8.0063-21.47-0.0144z" style="fill:#666;stroke-width:.37062;stroke:#fff"/>
  <path id="District 28" d="m119.36 118.69-0.27357 5.9416-2.7172-0.11242-1.8108 0.38506-0.62454 4.0795 2.4076 1.0476c0.0336 9e-3 0.0672 0.0116 0.10084 0.0198l-0.10007-1.7e-4 2.0275 1.4546 0.69566 1.0665 1.0133 1.9496-0.98618 1.5398-0.28517 0.59745-0.43161 2.0849 0.049 0.40617 0.22887 0.52597 0.31291 0.54648 0.71222 1.6007 0.27496 0.85697 0.0712 1.3958-0.36765 4.2694-0.12036 0.44445-0.48866 1.0451-0.61266 0.64183-0.88843 1.3736-0.37599 0.94169 8e-3 0.53851 0.45359 2.8825 0.15568 0.46545 3.2817 5.5302 0.42856-0.0166 21.179 0.16035 4.7e-4 0.0122 5.5558 0.026 24.392-0.0673-1e-3 -0.0277 9.6201-0.0446 7.1062-0.0738 0.32718-16.047-5.4955 0.0233-0.0144-7.7767-12.491-0.0658-0.27671-8.0953-13.992 0.0202-15.79-0.0209-5.6059-0.028-4e-3 0.0164-0.13772-3e-3c0.0468-8e-3 0.0941-0.01 0.14098-0.0177l0.21309-11.042z" style="fill:#228b22;stroke-width:.37062;stroke:#fff"/>
  <path id="District 15" d="m154.86 20.733 4.7e-4 0.012-0.0219 12.96 1.0909-0.0225-0.0102 8.0035 0.0197 8.0221 9.6457-0.0298 0.0443 9.9427 0.25346 0.30316 4.7906 2.4289 2.2684 4.5474 1.1557-0.28654 4.4997-2.1675 1.913 2.5842 4.247 3.4524 3.2926 0.0148-0.0361-4.9034 3.4066-0.053-0.0695-8.0162 4.2846-0.0871-0.0881-8.067-0.82227-0.35656-0.14267-7.6487-21.455 0.24653-1.6e-4 -4e-3 -0.0529-8.0169-0.96269-2e-3 -0.0813-4.6719 7e-3 -8.3005z" style="fill:#666;stroke-width:.37062;stroke:#fff"/>
  <path id="District 23" d="m191.35 57.501 0.0697 8.0202-3.4068 0.0491 0.0362 4.9074 4.7e-4 0.012-3.2926-0.0148-4.2471-3.4563-1.913-2.5842-4.4997 2.1675-1.1557 0.28654-2.2682-4.5434-8.2076-0.17266-0.037 11.713 0.0419 8.0569 1.0251-1.8e-4 0.0155 3.9455 25.573-0.23999 0.16019 12.07 0.96164-0.0254 0.15084 3.9957 16.995-0.28732-4.7e-4 -0.012 17.099-0.29929-1.173-20.018-13.649 0.27631-0.28141-16.051-2e-3 -0.0633-0.69901 0.0271-0.14158-8.0491-12.868 0.22617-7.7e-4 -0.0199z" style="fill:#d4aa00;stroke-width:.37062;stroke:#fff"/>
  <path id="District 29" d="m163.51 85.887 0.0223 12.059-7.1784 0.041-0.0111 16.03 1.1624-6e-3 -0.0919 16.204 13.992-0.0202c6.6e-4 1e-3 -5.4e-4 2e-3 1.6e-4 4e-3l0.27267 8.0955 12.496 0.0696 0.0148 7.7886 5.4954-0.0271 15.914-0.20974-0.23207-16.175-13.723 0.20389-3.1e-4 -8e-3c6.2e-4 -4.3e-4 -8e-4 -4e-3 -1.6e-4 -4e-3l-0.20311-16.181-0.93619 0.0363-0.14893-12.102-0.15085-3.9957-0.96164 0.0254-0.16019-12.07-25.573 0.23997zm19.046 28.496 0.0769 1.4312 0.86307 0.44194-0.43473 2.4336-1.1669-2e-3 -0.97103-1.0756-0.0439-0.5807 0.93089-0.70966 0.0553-1.686 0.69026-0.25263z" style="fill:#228b22;stroke-width:.37062;stroke:#fff"/>
  <path id="District 24" d="m190.35 101.71 0.14494 12.106 0.94033-0.0365 0.20296 16.177 13.723-0.20388 4.7e-4 0.0122 0.23208 16.175 3.803-0.14764-4e-3 -3.106 4.2828-0.13462-0.0204-4.603 4.5612-0.0462 0.0562-3.7026 12.671-0.34525-0.0539-4.6096-0.98826 4e-3 -0.20568-7.1887-8.3983-0.11734 0.0736-8.291-5.2123 0.0202-0.26525-12.414-8.5494 0.14568 9.2e-4 0.0237z" style="fill:#228b22;stroke-width:.37062;stroke:#fff"/>
  <path id="District 10" d="m172.03 20.617-8e-3 8.2728 0.0857 4.6757 0.95852 2e-3 0.0529 8.0169 21.455-0.24655 0.229-5e-3 -0.22823 0.0247 0.14268 7.6489 0.82227 0.35635 0.0881 8.067 12.868-0.22615 0.0363-7.7588 8.0509-0.21349-0.0309-8.2039 16.156-0.42513-0.1571-0.0731 2.1549-6.4267-1.5604-3.0535-0.70603-1.7634-2.6482-7.2466-0.22519-0.96984 0.0109-0.68584 0.1232-0.69019 0.15254-0.14855-23.552 0.55771z" style="fill:#228b22;stroke-width:.37062;stroke:#fff"/>
  <path id="District 19" d="m216.56 41.027 0.0309 8.2039-8.0509 0.21351-0.0363 7.7588 0.0916-4e-3c-0.0297 0.0152-0.0604 0.0278-0.0901 0.0431l0.14173 8.053 0.69486-0.027 2e-3 0.0593 0.28526 16.043 13.649-0.28421 0.14519-16.226 4.377-0.0669 7.9847-0.096-1.3859-4.1419-0.87972-2.8026-5e-3 -0.12264-0.0184-0.91449c-0.0692-0.0131-0.13636-0.0225-0.20557-0.0356l0.20404-4e-3 0.92824-3.998-0.64311-11.092-0.80029-0.86431-0.26273-0.11263-16.156 0.41721z" style="fill:#228b22;stroke-width:.37062;stroke:#fff"/>
  <path id="District 37" class="c38089" d="m44.088 116.38 1.3508 0.0468 0.98139 1.8706-1.7957 0.36621-0.53833-0.25197z" style="fill:#228b22;stroke-width:.37062;stroke:#fff"/>
  <path id="District 12" class="c38093" d="m180.88 117.03 0.92908-0.71026 0.0534-1.686 0.69382-0.25311 0.0769 1.43 0.8629 0.44237-0.43764 2.4336-1.1661-1.7e-4 -0.96944-1.0791-0.0437-0.5773z" style="fill:#228b22;stroke-width:.37062;stroke:#fff"/>
  <path id="District 7" d="m109.4 121.04-1.116-3.4014 4.3956 0.39829 0.39719 0.72653 3.2856 0.44556 8e-3 5.3032-1.8106 0.38554-0.18382-3.5589-0.97682-0.14383-1.0454-0.377-0.19344-0.4101-0.21871-0.7591-2.3739-0.11209 0.15365 1.4243-0.32147 0.079z" style="fill:#228b22;stroke-width:.37062;stroke:#fff"/>
  <path id="District 30" d="m114.38 121.34 0.18361 3.5589-0.6244 4.0799-1.7243-1.4991-1.5975-2.7394-0.70029-2.1344 1.0809 0.20534 0.36135 0.59369 0.1577 0.53396 0.93769-0.12727-0.13695-0.80727 0.27589-0.5529 0.60703-0.29675z" style="fill:#228b22;stroke-width:.37062;stroke:#fff"/>
  <path id="District 35" d="m109.4 121.04 0.3216-0.079 2.6324-0.14317 1.0454 0.37703 0.97683 0.14383-1.1793 0.81471-0.60692 0.29674-2.7951-0.20684-0.39485-1.2034" style="fill:#228b22;stroke-width:.37062;stroke:#fff"/>
  <path id="District 47" d="m109.73 120.96-0.15365-1.4243 2.3739 0.11209 0.21872 0.7591 0.19343 0.41008-2.6324 0.14316z" style="fill:#228b22;stroke-width:.37062;stroke:#fff"/>
  <path id="District 32" d="m112.59 122.45-0.27589 0.55291 0.13695 0.80726-0.93769 0.12728-0.15749-0.53396-0.36141-0.59369-1.081-0.20521-0.11857-0.36144z" style="fill:#228b22;stroke-width:.37062;stroke:#fff"/>
  <path id="District 18" d="m237.16 68.824-1.38-4.126-7.9857 0.096 0.13013 4.0722 4.299 0.10546 4.9365-0.1477z" style="fill:#228b22;stroke-width:.37062;stroke:#fff"/>
  <path id="District 17" d="m235.48 68.874 0.42984 1.6887 1.8623 0.0795 0.23655 0.70741 0.7618 1.4984-6.4164-0.0652-0.12663-3.8116z" style="fill:#228b22;stroke-width:.37062;stroke:#fff"/>
  <path id="District 43" d="m235.71 69.792 0.19635 0.77107 1.8623 0.0795-0.32566-0.97365z" style="fill:#228b22;stroke-width:.37062;stroke:#fff"/>
  <path id="District 42" d="m237.44 69.669-0.28258-0.84492-1.6839 0.0504 0.23362 0.91759z" style="fill:#228b22;stroke-width:.37062;stroke:#fff"/>
 </g>
</svg>
