<?xml version="1.0" encoding="UTF-8"?>
<svg id="svgdata" version="1.1" xml:space="preserve" xmlns="http://www.w3.org/2000/svg" xmlns:cc="http://creativecommons.org/ns#" xmlns:dc="http://purl.org/dc/elements/1.1/" xmlns:rdf="http://www.w3.org/1999/02/22-rdf-syntax-ns#"><g id="outlines"><path id="path2" d="m112.529 8.528c3.177 1.5 5.202 5.453 9.5 6.5 1.978 3.022 4.252 5.748 7 8 3.044 0.377 4.534-0.799 7.5-0.5 2.456-1.211 4.843-2.49 7-4 3.675-0.159 6.91-0.758 10.5-1 2.463-0.871 4.148-2.519 6-4 1.96 1.54 3.83 3.17 6 4.5 9.638-1.53 22.688 0.354 29.002-4.5h7c2.221 0.445 2.529 2.804 3.999 4 1.222 1.445 2.539 2.794 3.5 4.5-0.345 4.844 0.845 8.155 0.5 13 0.39 2.277 2.701 2.633 3.5 4.5 1.638 0.862 2.362 2.638 4 3.5 5.741 0.76 12.722 0.279 18.501 1 5.97-2.864 9.892-7.775 15.5-11 2.999 0.334 5.359 1.308 8.5 1.5 6.632 3.868 13.109 7.892 20.001 11.5 6.579 3.921 11.921 9.08 18.001 13.5 2.486 11.682 8.506 19.829 13.001 29.501 1.025 8.309 1.765 16.903 3 25.001-0.024 2.81-0.528 5.139-1 7.5 2.063 4.438 5.27 7.731 7.5 12-0.691 8.203-5.032 14.965-2.5 23.501-1.283 1.884-3.429 2.905-4 5.499 0.077 7.256 4.376 10.291 7 15.001-0.463 3.037-3.286 3.715-4.5 6-2.684-0.482-2.816-3.518-5.5-4-4.486 0.181-8.715 0.619-13.001 1-0.764-4.828-0.202-8.526 1-12.5-0.54-2.261-3.92-2.666-6-4-2.07-1.263-3.892-2.775-6.5-3.499-2.437 0.23-1.856 3.476-3.5 4.499-0.31 2.357-2.269 3.065-2.5 5.5-3.036-0.131-3.137-3.197-6-3.5-4.706-0.206-8.111 0.889-13 0.5-0.868 4.271 1.128 9.821 1 15-2.027 0.973-4.672 1.329-7.5 1.5-1.226 1.476 1.678 2.024 2 3.5 3.46 2.706 6.04 6.294 9.5 9 0.297 1.87 1.748 2.585 2.5 4v13c-2.338 0.496-4.163 1.505-6.5 2-1.606 0.106-1.217-1.783-2-2.5-0.288-1.045-1.239-1.427-1-3-18.987 0.014-37.708 0.293-56.003 1-0.344 5.178 0.845 8.823 0.5 14.001-12.858-0.142-24.826-1.174-37.5-1.5-4.826-1.175-9.045-2.956-15.001-3 0.541-2.293 1.122-4.545 2-6.5-0.307-1.693-2.219-1.781-3-3-1.296-0.704-2.309-1.692-3.5-2.5-2.155-1.678-4.461-3.206-6.5-5-4.399-3.268-9.079-6.255-13.001-10-0.383-5.55 0.645-9.689 0.5-15-4.17-1.164-10.498-0.169-15.5-0.5-0.977-5.362 1.799-11.164 3.5-15.501v-14.499c-0.998-2.503-3.179-3.822-4.5-6-2.181-1.153-3.057-3.61-5-5-0.518-2.482-0.114-5.886-1-8 2.475-5.193 4.662-10.672 6-17.001-0.484-3.349-1.966-5.701-2.5-9-1.54-2.627-3.873-4.461-5.5-7-0.134-3.033-0.798-5.536-1.5-8 0.402-1.931 2.444-2.223 3.5-3.5 1.287-0.88 2.159-2.175 3.5-3 2.397-2.103 5.627-3.373 7.5-6-1.392-10.609-3.695-20.306-5-31.001-1.587-3.747-4.432-6.236-6-10-4.326-2.341-7.618-5.717-12-8-0.258-3.908-1.479-6.854-1.5-10.999 6.313-0.188 12.343-0.657 18.001-1.5 1.708-0.961 1.768-3.567 2.5-5.503z" style="fill-rule:nonzero;fill:#00f;stroke-width:1px;stroke:#fff"/><path id="path4" d="m1276.09 79.531c2.75 10.25 9.26 16.747 14 25.001 1.81 2.695 5.04 3.959 7 6.5v9c3.34-0.161 6.11-0.886 9-1.5 2.95 0.386 3.78 2.889 5.5 4.5 2.62 0.718 3.3 3.37 5.5 4.5 3.52-0.346 5.49 0.846 9 0.5 3.21 0.964 4.89 3.444 7.5 5 1.95 2.216 5.39 2.953 6.5 6-1.08 2.079-1.06 5.272-2 7.5 3.1 7.406 7.23 13.777 10.5 21-3.7 8.127-9.01 14.653-13 22.501v10.5c-1.17 3.324-5.42 3.577-7 6.5 0.36 2.475 0.69 4.98 0.5 8-1.05 3.114-3.47 4.862-5.5 7-1.43 2.739-3.76 4.572-5.5 7-0.3 4.198-0.81 8.189-1.5 12-2.27 5.556-5.8 9.863-8.5 15.001 0.36 6.36-0.82 11.175-0.5 17.501-2.06 3.766-4.79 6.878-7 10.5-2.53 3.297-4.54 7.126-7.5 10-40.72-0.611-81.64-1.024-122.01-2-0.99 5.671-1.05 12.278-1 19-9.42 1.578-21.17 0.826-32 1-1.8-0.198-1.52-2.475-2.5-3.5-0.66-1.342-1.34-2.658-2-4-3.74-3.091-7.82-5.851-11.5-8.999-3.95 1.715-4.92 6.412-9 7.999-2.73 2.939-5.76 5.572-9.5 7.5-2.05 0.05-4.1 0.098-5.5-0.5-4.87-1.296-6.65-5.684-10.5-8-2.06-0.756-6.24-0.808-9.5-1.5-4.69 2.979-8.71 6.623-15 8-0.89 2.777-1.58 5.752-2 9.001-9.14 0.467-13.82-3.513-20.5-5.5-3.41 1.433-6.96 2.708-10 4.5-3.6-1.908-5.71-5.292-9.5-7-70.358 1.317-141.214 2.129-213.013 2-0.6-5.233-0.122-11.545-1-16.5-36.908-1.426-77.068 0.399-114.009-1-1.005 8.661-1.06 18.274-1 28 2.265 4.236 4.836 8.165 7.501 12-0.554 3.447-3.594 4.407-4.5 7.5 2.938 2.229 7.062 3.271 10 5.5 1.227 0.44 2.884 0.45 3 2-3.364 0.969-6.367 2.3-9.5 3.5h-73.504c-1.308-2.859-1.009-7.325-1.5-11-1.566-3.601-2.982-7.352-5-10.5 1.062-3.105 2.358-5.976 3-9.5-5.205-16.462-11.468-31.867-16.999-48.001-3.115-2.386-7.241-3.76-10.501-6-2.667-0.319-3.526 3.787-5.5 2.5-0.447-3.72-0.665-7.668-1.5-11-2.284-2.216-6.91-2.091-10-3.5-1.664 0.344-0.806-1.034-0.5-1.5 1.153 0.153 0.555-1.445 1.5-1.5 0.808-1.192 1.796-2.205 2.5-3.5v-6.5c1.509-2.825 3.907-4.76 5.5-7.5 0.2-10.967 1.071-21.263 1.5-32.002-0.892-3.609-3.146-5.855-4.5-9-1.692-2.807-3.156-5.844-5-8.5v-13.501c3.759-0.907 6.379-2.955 10-4 2.702-2.132 4.287-5.38 7-7.499h20c3.382 0.619 4.752 3.247 7.5 4.499 2.887-0.612 3.172-3.827 5.5-4.999 1.729-1.772 2.883-4.117 5-5.5 8.812-3.355 17.439-6.896 26.001-10.5 3.776-2.224 6.631-5.37 10.5-7.5h6c3.915 0.919 4.907 4.761 8 6.5 2.872 1.794 4.213 5.121 7.5 6.5 15.238-1.93 29.223-5.113 45.003-6.5 3.92-3.581 6.296-8.705 9.499-13 5.572-0.928 10.187-2.814 15.501-4 5.443-2.89 11.335-5.332 16.501-8.5 9.437-0.063 16.895-2.106 23.501-5 7.85-0.318 15.111-1.224 22.501-2 2.952-1.048 3.963-4.039 6.501-5.5 1.828-2.005 3.456-4.21 5.5-6 6.311-1.715 12.574-1.031 19.501 0 4.028-1.472 8.417-2.583 12.001-4.5 7.646-0.687 14.325-2.341 22-3 7.011 2.311 14.377 2.78 23.501 2 10.094-4.574 18.402-10.933 28.002-16.001 60.452-0.386 119.982-1.687 180.512-2 3.35 0.809 5.94 2.396 9 3.5 48.67-1e-3 97.34-1e-3 146.01-1e-3z" style="fill-rule:nonzero;fill:#f00;stroke-width:1px;stroke:#fff"/><path id="path6" d="m534.546 191.536c-2.62-0.046-4.501-0.832-7.5-0.5-0.3 17.802-0.215 39.55 0.5 58.003-8.724 2.443-20.385 1.949-31.502 2-2.084 1.25-3.415 3.252-5 5-2.204 1.13-2.885 3.783-5.5 4.5-6.375-0.958-12.613-2.054-18.5-3.5-1.751 0.084-1.574-1.759-2.5-2.5-1.046-0.621-1.879-1.455-2.5-2.5-2.118-1.216-3.144-3.523-5-5-2.125 0.875-3.821 2.18-6 3-3.831-0.169-7.402-0.598-11-1-3.622-1.712-5.294-5.373-8.5-7.5h-8c-4.054 1.947-6.533 5.468-12.001 6-3.742-0.758-4.577-4.423-7.5-6-2.85-0.016-3.371 2.296-6 2.5-2.358-0.809-3.474-2.86-5-4.5-1.292-1.708-3.494-2.507-5-4-0.166-2 0.891-2.775 0.5-5 3.409-0.447 7.313 1.791 9 0 1.128-1.324-1.801-2.844-2-4.5-1.338-1.162-2.344-2.657-3-4.5 0.177-2.324 0.216-4.785 1.5-6-1.551-3.116-3.759-5.575-5.5-8.5h-6.5c-1.933 1.234-2.629 3.705-3.5 6-9.075 0.426-18.201 0.801-27.501 1 1.276-3.891 5.102-5.232 9.5-6 0.239-3.406-0.244-6.09-0.5-9 1.066-2.101 2.298-4.036 5-4.5 0.479 2.021 1.937 3.064 2 5.5 2.438 1.063 5.287 1.713 7.5 3 2.247-0.419 2.753-2.58 5-3 1.007-1.66 3.11-2.224 4-4-0.209-2.376 0.728-3.606 1-5.5-0.857-4.143-2.319-7.681-3-12 2.503-0.336 3.871 0.463 6 0.5 0.943 1.723 1.479 3.855 2.5 5.5 4.344-0.344 7.511 0.49 11.5 0.5 6.331-3.003 11.573-7.096 17.501-10.501h9c4.184-1.649 7.185-4.482 11-6.5 3.206 0.373 5.083-0.584 8-0.5 4.153-2.681 7.088-6.579 11-9.499 3.373-3.295 6.874-6.461 10.5-9.5 2.752-0.249 4.458-1.543 6.999-2 4.213 0.621 7.05 2.618 11 3.5 6.986-0.848 11.788-3.88 20.501-3 4.966-1.535 8.801-4.2 13.501-6 2.651 0.682 5.728 0.939 9 1 1.844 2.823 4.096 5.238 6 8-0.175 13.985-0.221 28.106-0.998 41.497z" style="fill-rule:nonzero;fill:#f00;stroke-width:1px;stroke:#fff"/><path id="path8" d="m575.046 157.537c0.816 9.184 2.561 17.439 2 28 2.799 6.201 6.277 11.724 9.5 17.5-0.76 10.241-1.251 20.75-1.5 31.502-1.126 3.375-4.106 4.894-5.5 8v6c-1.217 3.283-3.968 5.033-5.5 8 4.047 0.954 7.697 2.304 12.001 3 0.711 5.122 1.419 10.248 2 15.501 2.793 0.949 2.845-5.147 6-5.5 2.815 2.019 5.941 3.726 9.501 5 5.527 15.973 11.57 31.43 16.999 47.501-0.815 3.185-2.005 5.995-3 9 1.401 4.099 3.397 7.603 5 11.5 0.108 4.225 0.815 7.852 1 12h77.004c4.065-0.934 6.7-3.3 10.5-4.5-3.553-3.448-8.158-5.842-12.5-8.5 0.344-3.156 2.346-4.654 3.5-7-2.284-3.882-4.976-7.359-7-11.5v-26c37.521-0.019 75.152-0.149 111.499 0.999-0.02 5.521-0.145 11.146 0.5 16.001 71.404-0.767 142.289-2.051 214.01-2.5 3.91 1.588 5.89 5.112 9.5 7 3.56-1.104 6.19-3.142 9.5-4.5 7.96 1.541 12.82 6.178 23.5 5 1.12-2.213 1.35-5.317 2-8 1.83-0.667 3.82-1.183 6-1.5 2.8-1.369 3.46-4.875 6.5-6h8.5c2.44 0.728 3.2 3.135 5.5 4 1.53 1.64 2.64 3.691 5 4.5h8c2.28-0.39 2.63-2.701 4.5-3.5 1.42-1.254 2.97-2.363 4-4 3.21-1.666 5.43-4.695 8.5-7 2.35 0.818 3.4 2.932 5.5 4 1.45 1.718 3.36 2.98 5 4.5 1 2.504 2.87 4.138 3.5 7 11.21 0.794 23.58 0.425 35.51 0.5 1.26-6.073 1.12-13.544 2.5-19.5 3.29 0.037 6.9-0.235 9.5 0.5 27.87-0.478 56.83 0.5 84.5 0.5 9.11 0 18.28-0.967 26.5 1.5 2.04-0.236 0.07 1.345-0.5 1.499-0.45 0.882-1.12 1.548-2 2-0.91 1.753-3.24 2.093-4 4-1.37 7.596-0.21 15.483 2.5 20.501-1.65 7.521-5.31 13.021-9.5 18.001-1.46 5.711-4.35 9.981-6 15.501-6.81 3.188-12.98 7.016-19.5 10.5-5.22 13.453-10.55 26.787-16 40.002v6.5c-1.12 2.717-4.07 3.599-6.5 5-1.29 4.375-4.25 7.089-5.5 11.5-0.04 3.375 0.47 6.2 1 8.999-1.59 3.746-4.56 6.111-6.5 9.5 1.16 2.834 3.64 4.359 5 7 2.01 1.992 3.71 4.293 5.5 6.5-0.64 3.866-4.02 4.982-5 8.5 1.31 3.521 3.45 6.213 5 9.5 2.72-0.226 4.11 0.891 7 0.5 2.16-2e-3 2.3-2.033 3.5-3 1-0.999 1.46-2.54 3-3 2.33 4.667 4.67 9.333 7 14.001 1.95-1.881 2.72-4.948 5-6.5 3.99 0.177 7.74 0.594 11 1.5 0.38 3.885-0.77 6.234-0.5 10 3.57 3.43 9.1 4.904 13.5 7.5-1.96 4.873-4.92 8.745-7.5 13.001-3.23 0.771-5.42 2.58-8.5 3.5 0.05 2.62 0.83 4.502 0.5 7.501 1.08 2.254 2.1 4.571 3.5 6.5 1.26 1.903 1.69 4.648 3.5 6-1.48 2.853-4.88 3.785-6 7.001-0.43 5.569-0.52 11.479-1 17.001-3.4 4.768-5.62 10.714-8.5 15.999v408.017c-179.21 0.801-358.149 1.866-537.527 2.5-0.515-5.819-1.725-10.942-1.5-17.5 0.569-3.431 3.293-4.707 4-8-0.868-4.133-4.441-5.56-6-9.001-0.847-6.32-2.188-12.146-3.5-18.001 0.992-6.175 3.243-11.09 4.5-17.001 3.075-1.091 5.757-2.576 8-4.5-1.44-11.863 0.289-23.744 1.5-34.502 1.928-4.072 5.377-6.623 8.001-10 1.292-1.708 2.707-3.293 4-5 1.288-1.712 3.229-2.771 4-5.001-0.13-5.37-1.334-9.666-1-15.501 1.319-3.348 3.223-6.109 4.999-8.999h35.002c0.573-35.085-0.384-72.945 0-109.51h8.001c0.134-38.533-0.384-77.72 0.5-115.509 6.857 0.024 12.693-0.974 19.501-1 0.331-19.337-0.664-39.999 0.5-58.502h19.001v-82.504c-12.589-1.253-26.296 0.705-40.002 0-0.955-5.545-1.101-11.9-1.5-18-5.811-1.024-12.468-1.2-19.002-1.5v-10c-19.687 0.147-40.07-0.403-59.002 0.5-1.278-7.972 1.252-19.061-0.5-27.5-0.408-1.258-2.28-1.052-4-1h-33.001c-11.563-1.104-25.122-0.212-37.502-0.5-0.341 7.019 1.184 13.083 0 19.501-8.793 0.041-16.746 0.922-25.501 1-0.317 6.849 0.645 14.978-0.5 21-6.598 0.068-13.617-0.284-19.5 0.5 0.223 9.39-0.211 18.123-0.5 27.001-2.475-1.192-4.414-2.92-6-5-2.371-1.296-3.216-4.118-6-5-1.896 2.177-2.423 5.792-3.5 9-1.042 3.106-2.446 6.215-3 9.5-3.409-0.424-4.16-3.507-7-4.5-4.337 2.497-7.663 6.004-12 8.5v7.5c-2.273 1.06-4.634 2.033-7 3-1.308 0.819-3.155-1.279-4-2.5-1.725-0.608-2.919-1.748-4.5-2.5-8.33-0.33-15.549 0.452-23.501 0.5-0.21-3.687 2.373-8.289 0-11-0.593-2.24-5.638-0.029-7-1.5-8.289-0.045-15.39-1.277-23.501-1.5-2.708-0.792-3.675-3.325-5-5.5-2.119-1.381-3.5-3.5-4.999-5.5-0.827-14.674-0.472-30.53-1-45.501 1.099-2.901 4.904-3.095 6.499-5.5v-47.502c1.252-4.082 4.489-6.179 6-10.001-0.809-2.358-3.475-2.859-5-4.5-1.986-1.181-3.313-3.021-5.499-4 0.596-2.403 3.238-2.762 4.499-4.5 1.435-1.398 3.448-2.219 4.5-4 1.157-6.51 2.122-13.212 3.5-19.501-1.425-3.408-5.308-4.359-7-7.5-0.226-5.107-1.015-9.653-1.5-14.501 3.613-1.387 6.996-3.004 10.5-4.5 1.226-8.773 1.926-18.074 3-27-1.054-4.447-1.781-9.22-3.5-13 0.729-2.439 3.135-3.199 4-5.5 1.927-1.073 2.886-3.114 4.5-4.5 11.422 0.087 22.972 0.304 32.502-1.5 1.404-18.911-0.718-38.613 0-58.503h8c0.558-13.609 0.573-27.762 0.5-42.001 3.711-2.123 9.12-2.548 14.001-3.5h2.5c3.142-0.309 3.331 2.336 6 2.5 0.957 1.709 3.621 1.712 4.5 3.5 4.046 1.12 7.771 2.561 10.997 4.502z" style="fill-rule:nonzero;fill:#f00;stroke-width:1px;stroke:#fff"/><path id="path10" d="m350.537 171.036c1.229 3.104 3.324 5.343 4 9-4.242-0.075-7.464 0.87-12 0.5-1.773 1.56-2.857 3.81-4 6-3.076 0.243-4.777-0.89-7.999-0.5-2.733-3.601-5.633-7.034-8.5-10.501-2.782-3.552-5.834-6.833-7-12 0.486-2.013 2.185-2.814 3.5-3.999 9.125-0.292 12.03 5.637 17.5 8.999 5.303 0.362 9.332 2.001 14.499 2.501z" style="fill-rule:nonzero;fill:#00f;stroke-width:1px;stroke:#fff"/><path id="path12" d="m287.538 162.536c0.145 0.049 0.361-0.062 0.5 0 3.81 1.692 6.658 4.066 9.5 6.5-1.217 4.107-2.159 9.087-0.5 13.5 1.391 1.943 3.848 2.82 5 5-0.227 2.106-2.365 2.302-3 4-6.624 1.133-13.571 1.973-21.001 1-2.368-1.132-4.801-2.199-8-2.5-1.891 0.609-2.148 2.852-3.5 4-2.187-0.646-3.144-2.523-4.5-4-1.477-1.19-3.579-1.755-4-4 2.156-1.178 4.845-1.823 7-3 0.151-5.151-1.485-8.515-1.5-13.5 4.389 0.389 7.267-0.733 11.5-0.5 3.055 0.778 4.135 3.532 6.5 5 2.528-3.305 4.283-7.383 6.001-11.5z" style="fill-rule:nonzero;fill:#00f;stroke-width:1px;stroke:#fff"/><path id="path14" d="m353.037 173.036c4.636 1.031 8.805 2.529 13.501 3.5 1.304 2.029 3.976 2.691 5.5 4.5 2.874-0.459 4.532-2.135 8-2 0.973 5.72 5.134 10.88 2 16.501-0.415 1.752-1.993 2.34-3.5 3-0.746 1.254-2.245 1.755-3.5 2.5-2.856-0.144-5.015-0.985-7-2-1.647-4.854-2.651-10.35-3-16.501-2.53-0.803-5.381-1.286-8.5-1.5-1.294-2.54-2.523-5.144-3.501-8z" style="fill-rule:nonzero;fill:#00f;stroke-width:1px;stroke:#fff"/><path id="path16" d="m126.529 179.036c0.167 3.407 0.042 10.654-0.5 15 0.841 2.993 4.346 3.321 6 5.5 2.375 1.459 4.728 2.939 6.5 5 3.307 1.411 5.58 4.044 8.5 6 1.442 0.965 3.368 2.104 5 3.5-0.35 2.651-1.577 4.424-2.5 6.5 1.898 1.436 5.159 1.508 8.5 1.5 1.791 1.376 5.107 1.227 7 2.5 12.927 0.741 26.439 0.895 39.001 2-0.988 12.512-0.56 26.441-1.499 39.002 0.756 1.91 4.596 0.737 5.999 2 2.476 0.025 4.41 0.59 6.5 1-0.067 7.734 0.611 14.723 2.5 20.501-5.443 0.558-11.102 0.899-17 1-1.005 1.495-0.283 4.718-0.5 7-2.515-0.348-3.485 0.848-6 0.499-2.375 1.958-4.542 4.125-6.5 6.5-1.937 2.23-4.431 3.903-5.5 7 0.136 1.698-0.387 4.054 0.5 5 8.813 1.354 19.359 0.975 28.5 2 2.335 0.034-0.585 1.143-0.5 2-1.466 0.034-1.857 1.143-2.5 2v8.5c1.583 3.917 4.74 6.26 6 10.5-3.155 1.012-7.224 1.11-10.501 2-0.835 2.83-0.492 6.842-0.999 10-4.867-1.3-8.365-3.969-13-5.5-0.88 3.286-1.052 7.282-1 11.5h-6.5c-0.242 26.76-1.031 52.972-1 80.003-5.877 0.79-11.867 1.467-18.001 2-0.178 4.655-1.105 8.562-1 13.501-1.544 1.79-3.061 3.606-5 5h-9.5c-1.614 1.554-1.017 5.317-2 7.5 1.351 1.816 4.902 1.432 7.5 2 0.514 1.003-0.33 4.105 0 6.5 23.302 1.032 47.653 1.016 71.503 1.5 0.182 8.349-0.881 15.454-1 23.501-1.072 2.761-2.943 4.724-4.5 7-12.524 0.977-24.229 2.771-37.001 3.5-1.367 3.467-0.957 8.71-2 12.501h-9.5c-0.767 2.232-0.857 5.143-1 8 1.824 1.343 5.536 0.797 7.5 2-0.808 1.193-0.797 3.203-1.5 4.5-4.754 1.413-12.732-0.398-17.5 1-1.435 2.899-1.574 7.094-2 11.001 2.566 1.934 6.289 2.712 9.5 4 0.364 18.863-0.555 36.446-0.5 55.002-3.594 0.906-8.65 0.351-13 0.5-1.601 4.566-1.121 11.213-2 16.501 0.376 3.124 4.512 2.488 5 5.5-1.084 1.582-0.53 4.804-1.5 6.501 2.798 2.535 7.679 2.988 11.5 4.5 0.147 2.814-0.275 5.058-1 7-18.689-0.978-37.748-1.587-56.503-2.5-1.988 0.679-0.815 4.519-2 6 0.299 2.966-0.877 4.457-0.5 7.501-1.055 4.112-1.579 8.754-2 13.5-7.873 1.128-12.002 5.999-18.001 9.001-1.172 4.661-1.777 9.89-3 14.501-1.671 0.828-3.329 1.671-5 2.5-2.456 1.044-2.503 4.496-5 5.499-1.226-0.941-2.265-2.068-4-2.5-1.088-5.077-1.278-11.054-1.499-17h-10c-3.369 1.465-6.464 3.203-9 5.5 1.171 3.33 2.395 6.606 4 9.501-2.839 1.161-7.829 0.171-11.5 0.5 0.381-3.548-0.621-5.713-0.5-9.001 2.491-6.177 6.818-10.516 9.5-16.5 2.451 0.116 3.786-0.882 6.5-0.5 1.707-0.961 1.409-3.926 2.5-5.501 0.553-2.113 1.232-4.101 2-6 0.987-4.18 2.708-7.626 3.5-12.001 3.064-7.269 5.143-15.523 7.999-23.001 0.107-5.441-0.877-9.79-0.5-15.501 1.859-4.975 3.325-10.342 5.5-15 3.367-41.968 11.232-79.438 10.5-125.509 1.804-7.364 3.029-15.306 5-22.501 0.418-10.439 0.725-20.649 0-31 0.972-4.861 2.028-9.639 3-14.5-0.311-2.856-2.005-4.329-2.5-7 1.221-2.112 1.216-5.451 2.5-7.5-0.725-2.941-1.169-6.164-2-9 1.041-12.105-0.542-25.855 2.5-36.002 1.035-3.453 2.937-6.313 4.5-9 0.87-7.963 2.127-15.541 3.5-23.001-1.059-3.275-1.394-7.273-2.5-10.5 2.127-7.539 3.797-15.536 7-22 0.156-4.344 0.786-8.215 0.5-13.001-0.626-2.541-1.71-4.623-2.5-7 1.129-2.871 3.502-4.499 5-7v-9c-1.226-3.441-3.975-5.36-5.5-8.5v-9c1.457-3.21 4.242-5.092 6-8v-6.5c-1.028-2.472-2.431-4.569-3.5-7v-10.5c1.693-4.641 2.827-9.84 4-15.001v-1.5c4.835 1e-3 9.669 1e-3 14.502 1e-3z" style="fill-rule:nonzero;fill:#00f;stroke-width:1px;stroke:#fff"/><path id="path18" d="m322.038 179.036c2.636 2.197 4.583 5.084 7 7.5-3.685 3.649-8.28 6.387-12.501 9.5-5.05-1.284-10.234-2.433-15.5-3.5-0.028-2.361 1.921-2.746 2.5-4.5-0.697-2.803-3.197-3.803-4-6.5h12.5c1.685 1.148 2.783 2.884 4.5 4 2.087-1.913 4.013-3.987 5.501-6.5z" style="fill-rule:nonzero;fill:#00f;stroke-width:1px;stroke:#fff"/><path id="path20" d="m356.037 182.036c-0.827 2.673-2.546 4.455-3.5 7-0.387 3.054 0.655 4.679 0.5 7.5-1.838 0.329-3.362 0.971-5.5 1-1.415-3.252-2.349-6.986-3.5-10.5h-4.5c0.819-2.015 2.181-3.486 3-5.5 4.37 0.297 9.95-0.616 13.5 0.5z" style="fill-rule:nonzero;fill:#00f;stroke-width:1px;stroke:#fff"/><path id="path22" d="m363.037 183.536c0.662 2.505 0.598 5.736 1 8.5-0.683 2.817-3.652 3.349-5 5.5-0.39 3.723 0.704 5.963 0.5 9.5-1.876 0.457-3.535 1.132-5.5 1.5-1.781 1.052-2.602 3.065-4 4.5-3.36-1.64-2.397-7.604-2.5-12.5 1.883-1.284 3.882-2.451 6.5-3-0.917-7.809-0.647-15.494 9-14z" style="fill-rule:nonzero;fill:#00f;stroke-width:1px;stroke:#fff"/><path id="path24" d="m332.038 188.536h10.499c1.705 2.962 2.908 6.426 4 10 0.152 3.819-0.079 7.255-0.5 10.5 0.31 2.357 2.269 3.065 2.5 5.5-1.125 2.542-3.762 3.572-5.5 5.5-2.022-0.644-3.02-2.314-4.5-3.5 0.027-2.306-0.222-4.889 0.5-6.5-0.767-3.066-2.732-4.934-3.499-8 0.407-2.593 1.04-4.96 2-7-1.462-2.538-4.452-3.548-5.5-6.5z" style="fill-rule:nonzero;fill:#00f;stroke-width:1px;stroke:#fff"/><path id="path26" d="m335.038 195.536c0.392 2.225-0.666 3-0.5 5-3.155 1.011-6.447 1.886-9.5 3-2.265 4.236-3.616 9.385-4.5 15.001-2.829-0.671-5.172-1.829-8-2.5-0.621-1.546-1.651-2.683-3-3.5 4.447-4.387 9.607-8.06 13.5-13v-6c0.204-1.462 1.711-1.623 2.5-2.5 0.917-0.583 1.693-1.307 2.5-2 3.033 1.466 4.799 4.2 7 6.499z" style="fill-rule:nonzero;fill:#00f;stroke-width:1px;stroke:#fff"/><path id="path28" d="m289.038 194.536v14.501c0.638 2.863 3.031 3.969 4.5 6-0.73 2.103-2.596 3.071-3 5.5-0.183 3.183 0.889 5.111 0.5 8.5h-7.5c-1.655 2.679-1.5 7.167-2 11-1.111 3.223-1.109 7.559-2 11v7c-1.643 1.023-5.063 0.27-7.5 0.5-0.386 2.386 0.782 3.218 0.5 5.5 1.303 3.364 4.547 4.787 6 8-1.434 0.9-2.789 1.878-4 3 1.263 3.404 4.086 5.248 6.5 7.5-3.633 3.701-8.864 5.804-13.001 9v19.5c-1.994 4.84-7.271 6.397-6 14.5-2.069 0.431-4.746 0.255-6.5 1-2.362 2.805-3.755 6.579-5.5 10-3.134 1.533-5.321 4.012-8.5 5.5 0.589 3.078 1.462 5.872 2.5 8.5 8.292 0.288 21.12 2.142 26.501-2 2.753 1.081 4.243 3.424 6.5 5 4.844-0.49 9.683-0.985 15.001-1 3.396-0.438 5.285-2.381 9-2.5v15.5c-4.94 4.727-10.374 8.96-15.501 13.501-2.505 0.328-3.767 1.9-6.5 2v-5c-1.438-2.896-3.858-4.81-6.5-6.5-4.545 0.045-8.393-0.608-12.501-1-2.002-2e-3 -1.657 2.343-3 3-0.538 1.295-1.808 1.859-2 3.5-1.308 1.192-3.155 1.845-4 3.5v15c-1.697 0.97-4.918 0.416-6.5 1.5-5.616-1.552-11.935-2.4-17.501-4-2.106 0.227-2.223 2.444-3.5 3.5-1.496 0.837-2.378 2.289-3.5 3.5-0.587 5.413-0.804 11.196-1 17.001 0.381 2.119 2.331 2.669 3.5 4 1.523 0.811 2.157 2.511 4 3 4.855-0.645 10.48-0.52 16.001-0.5 0.868 2.632 1.888 5.113 3 7.5-0.316 3.018-0.709 5.957-0.5 9.499-1.304 4.196-2.634 8.367-4 12.5-0.221 5.222 0.531 9.47 1 14.001 2.73 2.771 5.934 5.067 9 7.5-1.423 2.78-4.654 3.364-8.5 2.5-29.171-0.331-59.665 0.663-88.004-0.5v-6c-1.666-1.334-5.211-0.789-7.5-1.5-0.166-2 0.892-2.775 0.5-5 3.513 0.346 5.487-0.846 9-0.5 2.623-1.211 4.618-3.049 6.5-5 0.823-4.177 0.47-9.531 1-14 5.514-0.986 12.469-0.532 18.001-1.5 0.868-26.299 0.54-53.796 1-80.503h7v-10.5c4.303 1.864 8.672 3.662 13.499 5 1.159-2.175 0.173-6.494 0.5-9.5 3.352-1.648 8.739-1.261 13.001-2-1.894-4.051-3.387-7.816-5.5-12-1.087-2.153-2.711-3.523-2-8 0.586-3.414 3.857-4.144 5.5-6.5-10.342-0.825-21.633-0.7-31.501-2-0.113-4.614 2.475-6.525 4.5-9 1.817-2.517 3.477-5.19 6-7 2.287 0.213 4.24 0.76 7 0.5 1.146-1.688-0.085-5.751 1-7.499 6.078 0.245 10.779-0.887 17-0.5 0.595-2.87-1.774-6.814-2.5-10 0.364-5.031-0.82-8.514-0.5-13.501-2.14-2.527-8.169-1.165-11.5-2.5 0.28-17.721 1.053-34.948 1-53.003 9.276-2.225 23.005 5e-3 33.001-1.5h20.001c0.62 2.214 1.941 3.726 2.5 6 4.125-0.042 7.446-0.888 10.501-2 0.126-5.794-0.881-10.454-0.5-16.501-0.083-2.084-2.589-1.745-3.5-3 0.526-1.808 1.898-2.769 3-4 2.905 0.096 4.717 1.284 7 2 3.666 0.506 8.18 0.159 11.502 1.004z" style="fill-rule:nonzero;fill:#f00;stroke-width:1px;stroke:#fff"/><path id="path30" d="m297.538 193.036c-0.1 2.566-1.321 4.012-1.5 6.5 1.712 3.622 5.374 5.294 7.5 8.5s5.788 4.879 7.5 8.5c-0.032 2.635-1.664 3.67-1.5 6.5 0.148 1.685 2.217 1.45 2.5 3 1.971-0.138 1.529 2.138 3.5 2 1.576 2.091 4.13 3.204 6.5 4.5 0.353 3.353-0.514 5.486-0.5 8.5-4.879 1.455-9.345 3.322-14.001 5-2.987 2.013-4.459 5.541-7 8-0.188 5.812-1.277 10.723-1.5 16.5-0.553 2.447-3.035 2.965-4 5-1.802 1.032-2.698 2.969-4.5 4-3.389 7.612-7.056 14.946-11.001 22-0.661 5.506-2.027 10.307-3 15.5-2.58-1.254-4.218-3.449-6-5.5v-17.5c0.111-1.889 2.571-1.429 3-3 1.883-0.117 2.117-1.883 4-2 2.047-1.787 4.577-3.09 7-4.5-1.632-3.201-4.536-5.132-7-7.5 0.39-2.277 2.701-2.633 3.5-4.5-2.892-3.609-6.718-6.283-6.5-13.001h7c0.748-9.753 0.963-20.038 3-28.501 3.554 0.388 5.578-0.756 9-0.5 0.028-3.028-0.697-5.303-1-8 0.907-2.759 2.567-4.767 4-7-1.794-2.373-3.508-4.826-5.5-7v-14.501c1.888-0.611 3.994-1.005 6.502-0.997z" style="fill-rule:nonzero;fill:#f00;stroke-width:1px;stroke:#fff"/><path id="path32" d="m321.538 195.036c2.122 3.635-1.736 5.589-3 7.5-2.043 1.625-3.876 3.458-5.5 5.5-1.89 0.11-2.428 1.572-4 2-2.733-1.101-3.948-3.719-6.5-5-1.625-2.043-3.458-3.876-5.5-5.5 0.929-1.571 0.923-4.077 2-5.5 5.849 1.152 11.564 2.437 17.001 4 1.769-1.063 4.009-1.656 5.499-3z" style="fill-rule:nonzero;fill:#00f;stroke-width:1px;stroke:#fff"/><path id="path34" d="m335.538 234.036c0.39 3.223-0.743 4.924-0.5 8-3.893-0.607-7.474-1.526-11.5-2-0.25-2.75 0.551-6.551-0.5-8.5-4.552-2.615-9.232-5.102-12.5-9 0.737-1.763 0.955-4.045 2-5.5 2.465 1.202 5.745 1.589 8 3 1.588-1.079 1.415-3.918 2-6 0.309-2.19 1.297-3.703 1.5-6 1.423-0.911 1.92-2.747 3-4 2.312-0.356 4.324-1.01 6-2 3.13 3.084 4.046 8.566 2.5 14.001 1.309 3.025 4.304 4.362 5.999 7-0.369 2.369 0.563 3.438 0.5 5.5-0.967 3.032-4.426 3.572-6.499 5.499z" style="fill-rule:nonzero;fill:#00f;stroke-width:1px;stroke:#fff"/><path id="path36" d="m388.537 208.536c0.785 2.549 2.778 3.889 3.5 6.5 0.347 2.847-0.847 4.153-0.5 7 0.897 3.103 3.551 4.45 4.5 7.5h-8c-1.313 1.521-0.51 5.158-1.5 7 1.601 1.399 3.346 2.654 5.5 3.5 2.125 2.542 4.458 4.876 7 7 0.943 4.891 3.035 8.633 4 13.5-3.055-0.778-4.851-2.815-7.5-4-2.887 0.614-5.661 1.34-9 1.5-2 1-2.429 3.572-4 5h-9c-2.409-0.592-3.758-2.243-6-3-2.844-0.01-4.82 0.847-7 1.5-2.7 0.634-3.424 3.242-6 4-3.161-3.006-6.689-5.645-10-8.5-7.651-0.515-15.346-0.987-23.5-1-0.623-3.54 0.975-8.964 1-13.5 5.182-0.182 9.113 0.888 14.5 0.5 1.475-1.692 1.282-5.052 1.5-8 1.68-2.652 4.747-3.919 5.999-7 0.161-2.328-0.997-3.337-1-5.5 1.359-3.308 4.677-4.657 7-7 9.438-1.062 20.609-0.392 30.001-1.5 1.306-1.361 1.783-3.55 2.5-5.5z" style="fill-rule:nonzero;fill:#f00;stroke-width:1px;stroke:#fff"/><path id="path38" d="m438.037 251.036c6.507-0.326 14.967 1.3 18.001-2.5 3.793 3.04 6.707 6.96 10.5 10 6.449 1.718 15.073 1.261 20 4.5 1.758 3.409 2.061 8.272 3.5 12-1.166 8.668-1.804 17.864-3 26.5-3.328 1.838-7.172 3.162-10.5 5 0.141 5.526 1.396 9.938 1.5 15.501 1.513 3.154 5.298 4.036 6.5 7.5-0.674 6.327-2.352 11.649-3 18.001-2.845 3.488-6.658 6.009-9.999 9 3.288 3.378 7.946 5.387 10.999 9-1.394 3.44-3.938 5.729-5.5 9v47.502c-0.111 1.889-2.571 1.43-3 3-1.565 0.434-2.76 1.239-3.499 2.5-0.202 15.701 0.888 30.112 0.5 46.001 0.214 1.786 1.256 2.744 2.5 3.5 0.154 1.211 3.076 2.211 1.999 3-10.404 0.095-19.998 1.002-30.5 1-2.228 0.605-4.772 0.894-7 1.5-15.989-0.322-30.473 0.861-46.502 0.5-1.855 0.978-1.28 4.387-2.5 6-5.242 1.759-12.113 1.888-19.001 2-2.487-0.847-4.004-2.663-6-4-4.358-0.142-7.578-1.422-12-1.5-4.04-2.294-8.893-3.774-13-6-2.255-0.911-4.76-1.573-6.499-3-2.125-0.875-4.776-1.225-6-3-0.984-1.349-0.297-4.369-0.5-6.5-1.21-3.123-4.665-4.001-7-6 0.483-4.35 1.647-8.02 3-11.5-3.702-8.299-8.234-15.767-12.5-23.5-4.382 0.048-7.071-1.597-11.501-1.5-2.364-2.303-5.044-4.289-7.5-6.5 0.332-3.507-1.815-6.998-1.5-10 0.234-2.229 1.903-3.549 2.5-5.5 1.886-0.614 3.992-1.008 6.5-1-1.361-3.639-4.029-5.972-6-9v-5.5c-1.096-2.571-3.023-4.311-4.5-6.5 1.504-3.496 5.288-4.713 7.5-7.5 2.588-2.245 5.478-4.189 7.5-7-0.177-13.122-0.017-23.587 0-37.001-0.519-1.815-1.563-3.104-3-4-0.315-2.019-2.453-2.214-3-4-3.104-0.563-6.055-1.279-9-2-0.179-4.821 0.45-10.451-0.5-14.501 2.723-4.111 4.972-8.694 7.5-12.999 4.736-2.931 8.93-6.404 14-9 0.64-3.36 2.593-5.407 3-9-3.003-0.998-7.794-0.207-11-1-0.252-6.419 1.075-11.259 1-17.501 1.95-2.716 4.122-5.211 6-8 4.704-0.796 8.015-2.986 12.501-4 0.018 4.851-0.678 8.99-1 13.5 6.814 1.687 16.22 0.781 23.5 2 2.502 0.998 3.822 3.179 6 4.5 1.791 1.543 3.503 3.164 5.5 4.5 2.799-0.868 4.163-3.171 6.5-4.5 2.204-0.129 3.868-0.799 6.5-0.5 4.274 1.393 8.45 2.884 14.5 2.5 2.97-0.53 2.894-4.106 5-5.5 2.216-0.783 5.861-0.139 8-1 3.889 0.944 6.022 3.645 10 4.5 0.478-2.322-1.711-6.282-2.5-9-0.074-3.358-2.943-6.255-2-9 0.665-0.502 1.861-0.473 2-1.5 2.106-1.216 2.302 1.419 4 2 1.532 0.801 2.012 2.654 4 3 6.732 0.398 9.318-3.35 13.501-5.5 2.175 8e-3 4.499 0.165 6-0.5 3.074-0.24 3.442 2.225 4.5 4 1.752 1.078 1.984 3.68 4 4.497z" style="fill-rule:nonzero;fill:#f00;stroke-width:1px;stroke:#fff"/><path id="path40" d="m310.038 274.536c-0.259 2.574-1.656 4.012-2 6.5-4.719 3.281-9.285 6.715-14.5 9.5-2.011 5.156-5.259 9.074-7.5 13.999v25.001c-3.488-0.346-6.763-0.904-10.5-1 1.792-8.708 3.917-17.084 5-26.501 3.935-7.564 8.377-14.623 12.5-22 1.969-1.865 4.363-3.304 5.5-6 4.101-0.101 8.009-8e-3 11.5 0.501z" style="fill-rule:nonzero;fill:#00f;stroke-width:1px;stroke:#fff"/><path id="path42" d="m275.538 319.545c-0.696 3.471-1.762 6.571-2.5 10 3.428 1.405 8.752 0.915 13.5 1 0.805-2.529 0.642-6.026 1.5-8.5 3.056 0.277 6.057 0.61 8.5 1.5 2.48 1.187 3.476 3.857 5 6v17c-6.342 3.492-16.032 3.636-24.001 5.5-2.809-0.692-3.016-3.985-5.5-5-2.785 0.382-4.58 1.754-7 2.5h-20.001c-0.455-2.379-1.131-4.536-1.5-7 2.248-1.252 3.916-3.085 6.5-4 1.921-3.579 4.269-6.732 6-10.501h7c1.038-1.795 0.259-5.407 0.5-8 1.022-2.312 2.884-3.783 4.5-5.5 0.177-0.657 0.88-0.787 1-1.5 0.808-0.141 0.861 0.473 1.5 0.5 1.298 2.371 4.119 3.216 5.002 6.001z" style="fill-rule:nonzero;fill:#f00;stroke-width:1px;stroke:#fff"/><path id="path44" d="m278.038 383.045c2.813-0.521 5.319-1.348 7.5-2.5 2.104 1.563 3.456 3.878 5 6-0.347 2.847 0.847 4.153 0.5 7 0.882 2.951 3.709 3.958 4.5 7-2.184-0.017-3.899 0.434-5.5 1-1.56 1.273-2.445 3.222-3.5 5 0.16 4.34 0.793 8.208 1.5 12-1.18 0.987-3.347 0.986-5 1.5-2.063 1.27-3.268 3.399-5 5-8.398 3.103-20.492 2.509-32.001 2.5-0.999-2.668-1.943-5.391-3.5-7.5-5.571-0.071-10.133 0.868-16.001 0.5-2.509-1.158-4.058-3.276-6-5 0.188-4.979-0.462-10.796 0.5-15.001 1.383-2.784 3.285-5.049 5.5-7 8.194 1.267 16.44 4.458 25.501 2v-16.001c0.878-2.121 3.051-2.949 4.5-4.5 0.431-1.736 1.559-2.775 2.5-4 0.177-0.657 0.88-0.787 1-1.5 3.395 0.939 8.182 0.485 11.501 1.5 2.921 1.079 3.858 4.142 6 6-0.348 2.517 0.849 3.486 0.5 6.002z" style="fill-rule:nonzero;fill:#00f;stroke-width:1px;stroke:#fff"/><path id="path46" d="m709.555 414.545c0.332 9.666-0.854 17.813-0.5 27.5 19.201 0.801 39.02 0.981 59.002 1v8.5c5.4 2.101 13.604 1.397 19.501 3 0.186 6.315 1.029 11.972 1.501 18.001h40.002v78.504h-19.001c-1.164 18.336-0.169 38.832-0.5 58.002-6.191 0.976-13.083 1.252-20.001 1.5v115.509h-8.501c-0.257 34.594 0.52 72.483 1 108.01-11.541-0.041-22.142 0.859-34.002 0.5-3.252 2.748-4.644 7.354-6.999 10.999 0.495 5.172 0.784 10.55 1.5 15.501-5.287 6.381-10.973 12.362-16.001 19.001-1.061 10.607-3.15 22.85-1.5 34.502-1.906 2.427-5.24 3.427-8 5-1.408 6.093-3.359 11.643-5.001 17.501 1.142 6.525 3.103 12.232 4.001 19.001 1.201 3.466 3.857 5.476 6 8.001-1.166 2.834-3.196 4.804-4.5 7.5 0.681 5.652 0.62 12.046 1 18-107.38-1.121-214.309-2.698-321.518-4 1.014-19.819 1.266-40.401 2.5-60.002-21.482-1.02-43.951-1.052-66.502-1-3.309-0.692-4.425-3.575-6.5-5.501-3.296-0.203-4.81-2.19-8-2.5-1.332-2.132 4.332-3.368 3-5.5-4.578-0.923-8.785-2.216-13.001-3.5-1.925 0.376-0.181-1.91 0.5-2-0.245-1.578 0.901-1.767 0.5-3.501-0.013-3.154-2.762-3.571-3.5-6 0.426-2.407 2.074-3.593 2.5-6 2.647-0.521 5.358-0.976 8.5-1-0.304-2.529-1.272-4.395-2-6.501-0.55-2.283-1.107-4.56-3-5.5-3.878-1.122-9.801-0.199-14.501-0.5-2.966 0.868-5.129 2.537-7.5 4-2.661-1.506-5.84-2.494-8.5-4 0.215-15.619 0.758-30.91 0.5-47.001 0.683-4.317 1.877-8.123 3-12.001 10.87-0.297 22.834 0.5 29.501-4 0.927-2.073 0.504-5.497 1.5-7.501h6c2.336-0.706 3.458-2.957 5-4.5 1.5-1.5 3.367-2.633 4.5-4.5 2.74-0.427 3.888-2.445 6.5-3 2.31-2.523 5.374-4.292 7.499-7.001 3.274-1.393 4.727-4.606 8-6h12c3.02-1.48 4.873-4.128 7.5-6 1.958-2.376 4.125-4.543 6.5-6.501h18.001c0.827-5.506 0.518-12.149 1-18.001 8.237 0.098 15.66 1.008 23.501 1.501 2.875-0.292 4.055-2.279 7-2.501 2.486-10.848 5.125-21.543 7.5-32.501 3.842-1.824 7.04-4.294 11.5-5.501-0.512-3.32-2.436-5.231-3.5-8v-13c-2.532-4.135-7.186-6.147-10-10-0.89-2.944-1.708-5.959-3-8.501-3.037-2.463-7.121-3.879-10.5-6 1.651-4.811 0.595-9.91-0.5-14.501 0.662-4.338 2.957-7.044 4-11 8.025-4.476 15.932-9.07 24.001-13.501-0.469-10.637 1.444-18.891 2.5-28.001 9.416 0.751 17.126 3.208 26.5 4 6.759-1.409 14.574-1.761 22.501-2 4.545-2.289 7.762-5.905 11.5-9.001 4.005-2.829 7.025-6.642 11.5-9h8c3.945-0.89 5.298-4.369 9-5.501 7.247 0.681 14.986 4.74 22.501 2 2.163 1.004 2.247 4.087 3.5 6.001 0.937 2.229 2.343 3.99 3 6.5 2.316-0.184 4.646-0.354 6.5-1 3.375 1.125 5.152 3.849 8 5.5 5.031-1.47 10.436-2.564 15.001-4.5 5.634-0.699 8.256-4.411 12.999-6-0.361-3.306-3.194-4.138-3.499-7.501 1.902-3.597 3.161-7.838 4.999-11.499-2.04-4.961-4.409-9.591-6.999-14.001-2.807-2.36-5.614-4.721-8.5-7-2.988-2.013-5.134-4.867-8.5-6.501-1.462-3.538-3.472-6.528-5-10 0.324-5.991-0.861-10.473-0.5-16.501 0.458-2.709 2.54-3.795 4-5.5 1.292-1.708 2.708-3.293 4-5.001-0.643-16.372-1.235-31.281 1.5-46.002h18c-0.382-7.883 0.771-14.229 0.5-22.001 7.325-1.343 17.701 0.367 25.001-1 1.676-5.324-0.961-14.961 1.5-19.5 23.677 0.333 48.675-0.664 71.511 0.501z" style="fill-rule:nonzero;fill:#f00;stroke-width:1px;stroke:#fff"/><path id="path48" d="m308.038 428.045c4.313 7.02 8.438 14.229 12.501 21.5-1.784 3.216-3.852 6.149-3 12.001 1.857 1.81 3.892 3.442 6.5 4.5 0.107 3.226 0.893 5.774 1 9 1.367 1.967 4.209 2.458 6.5 3.5 2.129 1.205 4.658 2.009 6.999 3-0.467 9.366-1.016 18.651-1.999 27.501 1.73 0.603 3.751 0.914 5.999 1 0.279 6.555 0.814 12.854 1 19.501h-20.5c-1.15 1.184-0.179 4.487-0.5 6.5-3.555 1.778-7.037 3.63-10 6.001-3.513-0.347-5.488 0.846-9 0.5-0.763 2.57-1.107 5.56-1 9-5.587-2.247-10.163-5.505-15.501-8-1.555 0.111-0.845 2.488-1 4-0.42 1.246-0.654 2.679-0.5 4.5-0.821 2.512-0.327 6.34-1.5 8.501h-11.5c-1.307-2.36-2.355-4.979-3.5-7.501-0.138-6.695 0.39-14.058-0.5-20.001 1.606-1.228 3.646-2.021 5.5-3 0.235-5.735-0.236-10.765-0.5-16.001-2.068-0.766-4.749-0.918-7.5-1-1.211-1.622-3.048-2.618-4.5-4 0.033-2.534-0.86-4.141-0.5-7.001-1.393-3.273-4.607-4.727-6-8 1.363-1.47 2.304-3.363 3.5-5-0.524-1.642-2.147-2.186-3.5-3-0.642-1.358-2.561-1.439-3-3 0.27-3.23-0.58-7.581 0.5-10-2.588-3.412-6.614-5.387-9.5-8.5-0.159-3.675-0.758-6.91-1-10.5 1.96-7.874 5.659-14.01 4.5-25 10.025-1.155 23.042 0.578 31.001-2.5 2.661-1.006 3.634-3.7 5.5-5.5 2.229-0.271 4.509-0.491 6.5-1 3.253 1.414 4.674 4.66 7.5 6.5 4.145 0.02 7.091 1.241 11 1.499z" style="fill-rule:nonzero;fill:#00f;stroke-width:1px;stroke:#fff"/><path id="path50" d="m578.046 472.544c4.208 3.792 8.209 7.792 12 12-0.373 6.207 0.802 10.866 0.5 17-2 3.711-5.364 6.388-8 10.001-0.278 6.445 0.328 12.006 0.5 18.001 1.279 3.721 3.213 6.787 5 10 5.731 5.27 12.235 9.767 18.001 15.001 1.44 4.394 4.059 7.607 5.499 12.001-0.912 4.754-3.234 8.098-4.499 12.499 0.217 2.95 2.712 3.621 2.999 6.501-3.892 1.773-7.346 3.987-11.999 5-4.099 1.401-8.725 2.275-12.5 4-3.195-0.972-3.806-4.527-7-5.5-2.732 0.268-4.837 1.163-7.5 1.5-1.178-4.322-2.272-8.729-3.5-13.001-2.724 0.609-6.071 0.596-8.5 1.5-5.975-1.358-11.78-2.887-18.001-4-2.745-0.078-2.707 2.627-5 3-0.877 1.623-2.5 2.5-4 3.501-2.877 0.043-5.775 0.107-8-0.5-3.106 0.561-4.093 3.24-6.5 4.5-1.763 1.737-3.882 3.118-5.5 5-4.197 2.971-7.668 6.666-12 9.501-6.997-0.525-13.838-0.888-19.001 1.5-10.565-1.602-20.627-3.707-31.001-5.501 0.05-7.884-0.862-14.805-0.5-23.001 1.681-4.652 4.34-8.327 6-13 3.851-0.017 7.817-0.15 11 0.501 1.395-3.073-0.718-6.941 0-11.001 0.455-2.379 2.984-2.683 3.5-5 1.638-1.03 2.747-2.588 3.999-4.001-0.655-2.844-0.902-6.097-1.499-9 0.155-1.678 1.671-1.994 2.999-2.5 0.686-1.148 2.059-1.607 3-2.5 1.309-3.691 3.173-6.828 5-10.001-2.982-7.902-2.775-19.178-1.5-29.001 10.219 0.948 20.979 1.356 31.001 2.5-0.252 3.748-1.069 6.931-1.5 10.5 7.947 1.445 17.17-0.163 25.501 0 3.299 0.868 4.721 3.614 7.5 5 3.501-0.5 5.946-2.055 9-3.001v-8.5c3.579-1.921 7.08-3.921 10.5-6 3.191 0.809 4.747 3.253 7.5 4.5 2.063-6.769 4.438-13.228 6.501-19.999z" style="fill-rule:nonzero;fill:#f00;stroke-width:1px;stroke:#fff"/><path id="path52" d="m226.028 476.044c7.561 0.773 16.497 0.171 24.001 1v6.5c1.11 2.89 4.129 3.872 6.5 5.5-0.669 2.165-2.53 3.137-3.5 5 1.949 2.884 4.482 5.185 6.5 8v6.501c1.188 3.146 4.385 4.282 6.5 6.5h6c0.823 3.901 0.823 11.1 0 15.001-1.244-0.077-1.548 0.785-2.5 1-2.819-0.014-2.861-2.806-4.5-4-2.76 0.74-3.282 3.719-6 4.5h-4.5c-3.189-1.312-4.463-4.538-6.5-7v-30.002c-4.591 0.242-8.921 0.746-14 0.5-2.208 0.626-3.241 2.426-5 3.5-1.452 0.732-3.289 3.689-4.5 3 0.618-8.379 0.812-17.186 1.499-25.5z" style="fill-rule:nonzero;fill:#00f;stroke-width:1px;stroke:#000"/><path id="path54" d="m471.047 529.054c-0.251 3.917 0.267 7.066 0.5 10.5 0.144 2.645-2.355 2.646-3 4.501-1.286 1.214-2.362 2.638-3.5 4-0.39 4.057 0.72 6.613 0.5 10.5-3.324-0.176-6.223-0.776-10-0.5-1.816 1.684-2.398 4.603-3.5 7.001-1.498 2.002-2.076 4.923-3.5 6.999-0.808 13.487 1.033 29.236-1.5 42.002v12.001c-7.961 3.705-14.592 8.742-22.501 12.501-2.026 3.974-4.509 7.491-6.5 11.5 0.931 4.937 4.191 10.766 1 15.501 3.525 3.476 8.651 5.35 12.5 8.5 0.227 2.607 0.732 4.936 1.5 7.001 2.229 4.271 6.569 6.432 9.5 10-0.421 3.913-0.652 8.016-0.5 12.5 0.665 3.168 3.334 4.332 4 7.5-2.609 1.058-5.244 2.091-8 3.001-2.017 0.816-2.248 3.418-4 4.5-1.891 9.443-4.291 18.377-6 28.001-1.706 0.961-3.056 2.278-4.5 3.5-8.215-0.785-16.63-1.37-25.501-1.5-1.597 5.403-0.409 13.593-2 19.001-5.111-0.389-10.331-0.669-16.001-0.5-2.906 1.429-4.964 3.703-7.5 5.501-2.271 1.896-4.458 3.875-7 5.5-4.357-0.19-7.445 0.889-12 0.5-3.484 1.85-6.049 4.618-9 7-2.935 2.232-5.813 4.521-8.499 7.001-1.907 0.426-3.18 1.486-5 2-3.204 2.63-5.181 6.486-8.5 9-2.396 0.33-5.498-0.514-6.5 0-1.245 2.423-2.205 5.129-3 8.001-1.792 0.875-3.516 1.817-5 3h-12c-2.685-0.482-2.816-3.518-5.5-4-1.415-1.753-2.804-3.53-5-4.501-0.064-3.27-1.374-5.293-1.5-8.5 2.383-5.117 6.486-8.515 11.5-11.001-1.437-2.229-3.12-4.213-4.5-6.5-2.338-0.496-4.163-1.504-6.5-2 0.292-2.625-0.881-3.786-0.5-6.5 2.356-0.812 4.573-1.762 7.5-2.001-1.28-4.553-2.899-8.768-4.5-13-5e-3 -4.172 0.494-7.84 1.5-11.001 7e-3 -2.84-2.709-2.958-3.5-5 1.17-2.997 3.709-4.625 5-7.5-1.26-1.74-4.269-1.732-6-3.001-2.451-0.549-4.119-1.881-6.5-2.5-4.148-1.685-8.004-3.662-12.5-5-3.146-5.354-6.446-10.556-9-16.501-3.724-2.61-7.372-5.295-11-7.999-2.187 0.646-3.144 2.522-4.5 4-1.637 1.028-2.746 2.586-4 3.999-0.642 3.358-1.745 6.255-3 9.001-1.646 0.021-2.49 0.844-4.5 0.5-1.802-0.198-1.526-2.475-2.5-3.501-0.388-1.612-1.045-2.954-2-4-0.672-3.328-2.569-5.431-3.5-8.499-2.725-5.108-4.633-11.034-7.5-16.001 0.554-2.113 0.576-4.758 0.5-7.5-1.38-1.287-4.303-1.031-6-2.001-0.714-1.619-1.258-3.408-1.5-5.5-5.301-0.532-9.988-1.679-15.5-2-1.223 1.943-0.805 5.529-1.5 8h-27.501c-2.493-0.506-2.227-3.772-4.5-4.5-2.269-0.564-5.232-0.436-7.5-1-0.207-5.96-0.547-11.787-1-17.501 4.535-1.132 11.142-0.192 16.5-0.5 1.319-2.014-0.25-6.917 1-9-3.605-1.229-6.977-2.69-11.001-3.5-0.187-3.021 0.141-5.526 0.5-8.001-0.792-2.374-4.036-2.298-5-4.5 0.903-4.598 0.73-10.271 1.5-15.001h13c1.721-17.78 0.329-38.673 1.5-57.002-1.803-2.697-6.407-2.593-9.5-4-0.126-3.793 0.408-6.926 1-10.001h18.001c0.722-2.11 0.81-4.856 1.5-7-1.024-1.976-4.939-1.062-7-2-0.296-0.785-0.175-4.61 0.5-6 3.217 0.116 5.864 0.803 9.5 0.5 0.733-3.934 0.876-8.458 1.5-12.501 11.476-1.358 23.755-1.912 35.501-3 3.201-1.633 5.132-4.536 7.5-7.001 2.411-2.255 5.091-4.242 7.5-6.5 4.344-0.156 8.214-0.786 13-0.5-0.387 10.221 0.677 18.99 0.5 29.002 1.131 3.202 3.837 4.829 5.5 7.5 2.45-0.117 3.786 0.881 6.5 0.5 3.458-0.209 3.441-3.893 6.5-4.5 1.887 1.946 3.094 4.573 2.5 9-0.363 1.529 0.863 1.471 0.5 3v14.001c0.753 2.747 2.089 4.911 3 7.501h14c1.148-4.687 1.555-10.112 2-15.501 6.039 1.962 11.078 4.923 16.501 7.5 1.159-2.341 0.172-6.828 0.5-10 1.644-1.023 5.063-0.271 7.5-0.5 4.282-2.052 7.719-4.949 12-7.001v-6h20.5c1.318-6.988-0.716-14.949 0-23.001-1.478-1.022-4.481-0.52-5.999-1.5 0.609-7.891 1.405-15.595 1.499-24.001 1.521-0.765 4.154 0.994 5.5 2 2.181 0.486 3.601 1.733 5.5 2.5 3.499 0.834 7.456 1.211 11.5 1.5 2.178 1.489 4.637 2.697 7 4 7.694 0.193 14.885-0.116 20.501-2 1.323-1.177 1.115-3.885 2-5.5 15.531-0.637 31.82-0.515 47.502-1 9.937-2.73 24.014-1.321 35.501-2.5 1.54 0.46 1.999 2.001 3 3 0.771 1.063 1.805 1.862 2.5 3 0.199 10.556-1.956 21.958 2 29.501-1.473 3.361-3.831 5.837-5 9.501-2.246 0.758-3.594 2.409-6.003 3z" style="fill-rule:nonzero;fill:#00f;stroke-width:1px;stroke:#fff"/><path id="path56" d="m148.029 651.553c0.344 6.512-0.845 11.49-0.5 18.001 2.512 0.988 6.153 0.847 9 1.5 0.714 1.62 1.258 3.409 1.5 5.501 10.493 0.34 20.972 0.695 32.001 0.5 1.115-2.219 0.64-6.027 1.5-8.501 4.39 0.61 9.069 0.932 13.5 1.5v5.501c0.917 1.749 4.174 1.159 6 2 0.369 2.369-0.563 3.438-0.5 5.5 5.069 12.099 10.666 23.668 16.001 35.501 2.823-0.511 5.254-1.413 8.5-1.5 1.563-2.604 1.922-6.412 3.5-9.001 0.216-3.951 3.421-4.912 5-7.499 3.406 1.594 6.052 3.946 9.5 5.499 3.454 6.213 7.101 12.233 11 18.001 8.419 2.081 14.77 6.231 23.001 8.501-0.663 3.003-2.504 4.829-3.5 7.5 0.502 1.997 2.13 2.87 3 4.5-0.775 3.225-2.001 5.999-2.5 9.501 1.12 4.38 2.615 8.386 4.5 12-1.36 1.807-4.287 2.047-7 2.5-0.961 2.706-0.313 7.021-0.5 10.501 2.003 0.996 5.235 0.766 7.5 1.5 1.237 1.264 1.967 3.033 3.5 4-3.742 3.592-8.047 6.621-10.5 11.501 0.212 3.621 1.622 6.045 2 9.5 1.109 2.392 3.101 3.9 5 5.501 0.518 1.315 1.983 1.684 2.5 3 0.841 0.621 2.554 1.454 1.5 2.5h-8.5c-1.749 0.918-1.159 4.174-2 6-0.64 1.861-0.784 4.217-1.5 6.001 0.378 11.711-0.787 21.88-0.5 33.5-1.263 3.404-4.085 5.248-6.5 7.501h-8c-3.528-1.472-5.744-4.257-9-6.001-1.37 1.631-1.229 4.772-2.5 6.501-3.908-0.759-6.671-2.663-10.5-3.5-1.167 2.844 1.464 6.193 1 10-1.443 0.725-2.967 1.366-4 2.5-2.527-0.973-4.332-2.669-6.5-4-4.447 1.887-9.736 2.932-16.001 3-0.223-1.611-0.958-2.709-1-4.5-2.062-2.605-5.156-4.178-8.5-5.5-1.309 2.691-1.243 6.757-2.5 9.5 0.37 1.704-1.843 0.824-2 2-1.462-0.13-1.535 1.131-2.999 1-0.904 2.43-1.266 5.401-2.5 7.501-1.28 3.053-5.14 3.527-7 6-3.743-1.091-7.235-2.432-11-3.5-1.945 2.389-1.992 6.675-3.5 9.5-0.905 3.43-2.459 6.208-2 11.001 3.444 0.724 7.34 0.993 11.501 1-0.831 3.336-3.536 4.798-5 7.5-2.07 1.931-3.264 4.737-5.5 6.501 0.796 2.204 1.828 4.172 2.5 6.5-1.39 3.777-4.463 5.87-6.5 9.001-0.151 2.849-0.961 5.039-1 8 0.163 2.837 2.646 3.354 4 5-0.827 3.673-3.414 5.587-4.5 9.001-3.101 2.733-5.627 6.04-8.5 9 0.085 2.581 2.107 3.226 2.5 5.499-0.061 3.606-1.523 5.811-2 9.001-35.019-0.316-69.495-1.175-103.999-2-2.692-4.976-5.637-9.697-8.5-14.5-1.022-6.478-2.264-12.736-3-19.501-1.742-3.425-4.362-5.972-6.5-9-0.158-2.342-1.069-3.932-1.5-6.001-0.373-3.206 0.584-5.083 0.5-8-0.896-2.938-2.167-5.5-3.5-8.001v-18.001c-1.088-2.745-3.599-4.068-5.5-6-2.1-1.733-4.179-3.487-5.5-6v-9.001c1.878-3.788 5.707-5.627 8-9 2.372-3.128 5.628-5.373 8-8.501-0.315-4.315 0.868-7.133 0.5-11.5-1.755-0.745-4.431-0.569-6.5-1-2.503-0.998-3.822-3.179-6-4.5 0.299-2.967-0.877-4.457-0.5-7.501-2.333-3.833-4.255-8.077-7.5-10.999-4.689 0.355-8.14-0.528-12.5-0.5-1.48-1.854-3.083-3.585-4.5-5.501v-10c3.573-8.595 10.711-13.624 12.501-24.002 0.841-2.658 3.947-3.053 5-5.5 2.449-1.052 3.821-3.18 5.5-5 1.643-7.024 3.918-13.416 6-20.001 0.018-7.316 0.84-13.827 0.5-21.501 1.738-3.596 5.337-5.33 7.5-8.501-0.127-8.127 0.035-15.966 0.5-23.501 3.01-1.156 8.563 0.229 11.501-1-0.407-3.593-2.36-5.639-3-8.999 0.46-1.54 2.001-1.999 3-3.001 0.635-1.365 2.006-1.993 3-3h9c-0.038 6.038 0.566 11.435 2 16 1.046 1.786 3.951 1.715 5.499 3 2.074-1.426 2.92-4.079 4.5-5.999 2.357 0.023 3.789-0.878 6-1 0.835-4.832 1.793-9.541 2.5-14.501 2.468-0.865 3.781-2.886 6-4 1.642-1.691 3.984-2.683 5.5-4.5 2.27-0.397 4.626-0.708 6.5-1.5 1.887-8.28 2.424-17.911 4-26.502 13.434 0.898 26.978 1.688 40.499 2.5z" style="fill-rule:nonzero;fill:#f00;stroke-width:1px;stroke:#fff"/><path id="path58" d="m256.538 865.561c3.385 0.781 4.932 3.401 7.5 5h9.5c2.855-0.645 3.145-3.855 6-4.5v11c3.235 2.1 7.122 3.545 11.001 5 3.135-0.698 4.679-2.987 7.5-4 4.438 0.563 9.43 0.57 14.501 0.5 0.96 3.207 2.43 5.904 3 9.501-2.471 0.362-5.404 0.263-7.5 1-1.747 1.587-2.147 4.52-3 7-2.047 0.119-2.816 1.518-5 1.5-0.58 3.254-1.406 6.262-1.5 10.001-2.813 1.687-5.103 3.897-7.5 6-3.206 0.628-5.673 1.994-8.5 3v8.001c-1.792 0.875-3.516 1.817-5 3-2.945-1.055-5.613-2.388-8-4-1.005-1.495-0.283-4.718-0.5-7.001-2.87 0.631-6.704 0.297-9.5 1-2.747-0.753-4.17-2.829-6-4.5-2.702 0.798-3.55 3.45-5.5 5-2.128 1.039-4.501 1.833-6.5 3-0.061 21.563 0.865 42.138 0.5 64.003-1.372 0.794-3.627 0.705-5 1.5-23.969 0.699-49.034 0.301-73.003 1-0.545-2.347 1.318-6.25 2-9.001-0.633-2.032-1.614-3.719-3-4.999 2.026-3.475 5.159-5.841 8-8.5 1.406-3.761 3.745-6.589 5.5-10.001-0.482-2.685-3.518-2.815-4-5.5 0.047-2.62 0.832-4.502 0.5-7.5 2.333-3.001 4.861-5.807 7-9.001-0.868-1.966-1.51-4.157-2.5-6 3.079-6.088 8.285-10.05 11.5-16.001-3.174-1.827-9.494-0.507-13-2 0.735-6.433 3.278-11.056 4.5-17.001 4.362 0.305 6.882 2.451 10.5 3.5 1.543 0.924 2.877-1.916 4-3 2.029-0.471 2.678-2.322 4.5-3 0.541-3.126 2.147-5.188 3-8.001 1.954-0.711 3.23-2.103 4.999-3 0.67-2.83 1.796-5.203 2-8.5 2.544 0.123 3.172 2.161 5 3 0.662 2.005 0.989 4.345 2 6 5.199 0.729 11.827-1.072 16.501-2.5 3.131 0.202 3.858 2.809 6 4 2.919-0.581 4.28-2.72 7-3.5-0.438-3.063-1.255-5.745-1.5-9 3.582 0.918 6.419 2.581 10 3.5 1.256-1.413 1.499-3.836 2.001-6z" style="fill-rule:nonzero;fill:#f00;stroke-width:1px;stroke:#fff"/><path id="path60" d="m308.538 902.071c0.029 3.029-1.875 4.126-3.5 5.501 4.487 1.68 9.245 3.089 14.501 4 0.924 1.967-2.815 3.033-3.5 5 3.568 0.933 6.083 2.918 10 3.5 1.625 2.043 3.458 3.876 5.5 5.501 22.69-0.357 43.839 0.828 66.502 0.5-0.218 19.949-1.395 38.94-2 58.502h-152.509c-0.511-20.323-0.36-41.309-1-61.502 4.025-1.809 8.065-3.603 9.5-8.001 2.447 0.553 2.292 3.708 5 4 3.304-0.362 6.526-0.807 10-1v6.001c2.365 2.302 5.821 3.513 8.5 5.5 2.745-1.256 5.224-2.776 8-4v-7.001c2.77-1.729 5.686-3.314 9-4.5 1.907-2.426 4.48-4.188 7-6 0.307-3.36 0.785-6.549 1.5-9.501 3.361-2.22 6.826 0.177 7.504 3.5z" style="fill-rule:nonzero;fill:#f00;stroke-width:1px;stroke:#fff"/></g><metadata id="metadata91"><rdf:RDF><cc:Work rdf:about=""><dc:title/></cc:Work></rdf:RDF></metadata></svg>
